<svg width="20" height="21" viewBox="0 0 20 21" fill="none" xmlns="http://www.w3.org/2000/svg">
<path fill-rule="evenodd" clip-rule="evenodd" d="M3.35953 15.2916C2.26563 14.151 1.52369 12.7075 1.22573 11.1402C0.925306 9.56855 1.07957 7.94155 1.66969 6.45793C2.25477 4.98264 3.25365 3.71678 4.5409 2.81931C7.15263 0.99773 10.5909 0.99773 13.2026 2.81931C14.4898 3.71678 15.4887 4.98264 16.0738 6.45793C16.6639 7.94155 16.8182 9.56855 16.5178 11.1402C16.2198 12.7075 15.4779 14.151 14.384 15.2916C12.9353 16.8098 10.9475 17.666 8.87175 17.666C6.79598 17.666 4.80823 16.8098 3.35953 15.2916V15.2916Z" stroke="#252525" stroke-width="1.5" stroke-linecap="round" stroke-linejoin="round"/>
<path d="M8.89978 4.5139C8.48797 4.55846 8.19026 4.92842 8.23482 5.34023C8.27938 5.75204 8.64934 6.04976 9.06115 6.00519L8.89978 4.5139ZM11.403 7.42097C11.5616 7.80361 12.0004 7.98521 12.383 7.82658C12.7656 7.66796 12.9472 7.22918 12.7886 6.84654L11.403 7.42097ZM15.0349 14.6415C14.7448 14.3458 14.2699 14.3413 13.9743 14.6313C13.6786 14.9214 13.674 15.3962 13.9641 15.6919L15.0349 14.6415ZM18.2494 20.0604C18.5395 20.356 19.0143 20.3606 19.31 20.0705C19.6057 19.7805 19.6102 19.3056 19.3202 19.0099L18.2494 20.0604ZM9.06115 6.00519C10.0512 5.89806 11.0062 6.46385 11.403 7.42097L12.7886 6.84654C12.1432 5.28959 10.5682 4.33336 8.89978 4.5139L9.06115 6.00519ZM13.9641 15.6919L18.2494 20.0604L19.3202 19.0099L15.0349 14.6415L13.9641 15.6919Z" fill="#252525"/>
</svg>
