<svg width="35" height="34" viewBox="0 0 35 34" fill="none" xmlns="http://www.w3.org/2000/svg">
<rect x="0.832031" width="33.2941" height="34" rx="10" fill="#3F3F9C"/>
<path fill-rule="evenodd" clip-rule="evenodd" d="M24.2896 15.8834L13.1341 10.1434C12.8426 9.96928 12.4859 9.95274 12.1802 10.0992C11.8744 10.2456 11.6588 10.5362 11.6035 10.8764C11.6073 10.9894 11.634 11.1004 11.6819 11.2024L13.8058 16.4424C13.9124 16.7903 13.9704 17.1519 13.9782 17.5164C13.9705 17.8809 13.9124 18.2425 13.8058 18.5904L11.6819 23.8304C11.634 23.9324 11.6073 24.0434 11.6035 24.1564C11.6592 24.4961 11.8748 24.7862 12.1802 24.9323C12.4856 25.0785 12.8418 25.062 13.1331 24.8884L24.2896 19.1484C24.9117 18.8533 25.3097 18.2164 25.3097 17.5159C25.3097 16.8154 24.9117 16.1785 24.2896 15.8834V15.8834Z" stroke="white" stroke-width="1.5" stroke-linecap="round" stroke-linejoin="round"/>
</svg>
