<svg width="372" height="246" viewBox="0 0 372 246" fill="none" xmlns="http://www.w3.org/2000/svg">
<path fill-rule="evenodd" clip-rule="evenodd" d="M6.86459 10.3776C9.73026 10.3776 12.0534 8.05448 12.0534 5.1888C12.0534 2.32311 9.73026 0 6.86459 0C3.99889 0 1.67578 2.32311 1.67578 5.1888C1.67578 8.05448 3.99889 10.3776 6.86459 10.3776ZM6.86459 8.82097C8.87058 8.82097 10.4967 7.1948 10.4967 5.1888C10.4967 3.18282 8.87058 1.55664 6.86459 1.55664C4.8586 1.55664 3.23242 3.18282 3.23242 5.1888C3.23242 7.1948 4.8586 8.82097 6.86459 8.82097Z" fill="#FBC500"/>
<path fill-rule="evenodd" clip-rule="evenodd" d="M50.3777 56.4038C54.627 56.4038 58.0717 52.959 58.0717 48.7097C58.0717 44.4604 54.627 41.0156 50.3777 41.0156C46.1283 41.0156 42.6836 44.4604 42.6836 48.7097C42.6836 52.959 46.1283 56.4038 50.3777 56.4038ZM50.3777 54.0956C53.3522 54.0956 55.7635 51.6842 55.7635 48.7097C55.7635 45.7352 53.3522 43.3238 50.3777 43.3238C47.4031 43.3238 44.9918 45.7352 44.9918 48.7097C44.9918 51.6842 47.4031 54.0956 50.3777 54.0956Z" fill="#FBC500"/>
<path fill-rule="evenodd" clip-rule="evenodd" d="M93.8893 58.0677C99.0619 58.0677 103.255 53.8744 103.255 48.7018C103.255 43.5292 99.0619 39.3359 93.8893 39.3359C88.7167 39.3359 84.5234 43.5292 84.5234 48.7018C84.5234 53.8744 88.7167 58.0677 93.8893 58.0677ZM93.8893 55.2579C97.5101 55.2579 100.445 52.3226 100.445 48.7018C100.445 45.081 97.5101 42.1457 93.8893 42.1457C90.2685 42.1457 87.3332 45.081 87.3332 48.7018C87.3332 52.3226 90.2685 55.2579 93.8893 55.2579Z" fill="#F8F8F8"/>
<path fill-rule="evenodd" clip-rule="evenodd" d="M180.916 61.4014C187.932 61.4014 193.62 55.7133 193.62 48.6968C193.62 41.6802 187.932 35.9922 180.916 35.9922C173.899 35.9922 168.211 41.6802 168.211 48.6968C168.211 55.7133 173.899 61.4014 180.916 61.4014ZM180.916 57.59C185.827 57.59 189.809 53.6084 189.809 48.6968C189.809 43.7852 185.827 39.8036 180.916 39.8036C176.004 39.8036 172.022 43.7852 172.022 48.6968C172.022 53.6084 176.004 57.59 180.916 57.59Z" fill="#FBC500"/>
<path fill-rule="evenodd" clip-rule="evenodd" d="M311.467 59.7394C317.563 59.7394 322.505 54.7976 322.505 48.7017C322.505 42.6058 317.563 37.6641 311.467 37.6641C305.371 37.6641 300.43 42.6058 300.43 48.7017C300.43 54.7976 305.371 59.7394 311.467 59.7394ZM311.467 56.4281C315.734 56.4281 319.194 52.9689 319.194 48.7017C319.194 44.4346 315.734 40.9754 311.467 40.9754C307.2 40.9754 303.741 44.4346 303.741 48.7017C303.741 52.9689 307.2 56.4281 311.467 56.4281Z" fill="#F8F8F8"/>
<path fill-rule="evenodd" clip-rule="evenodd" d="M6.85577 99.0709C10.6421 99.0709 13.7115 96.0015 13.7115 92.2151C13.7115 88.4288 10.6421 85.3594 6.85577 85.3594C3.06943 85.3594 0 88.4288 0 92.2151C0 96.0015 3.06943 99.0709 6.85577 99.0709ZM6.85577 97.0142C9.50622 97.0142 11.6548 94.8656 11.6548 92.2151C11.6548 89.5647 9.50622 87.4161 6.85577 87.4161C4.20534 87.4161 2.05673 89.5647 2.05673 92.2151C2.05673 94.8656 4.20534 97.0142 6.85577 97.0142Z" fill="#FBC500"/>
<path fill-rule="evenodd" clip-rule="evenodd" d="M93.8907 104.086C100.447 104.086 105.762 98.7711 105.762 92.2149C105.762 85.6586 100.447 80.3438 93.8907 80.3438C87.3344 80.3438 82.0195 85.6586 82.0195 92.2149C82.0195 98.7711 87.3344 104.086 93.8907 104.086ZM93.8907 100.525C98.48 100.525 102.2 96.8043 102.2 92.2149C102.2 87.6255 98.48 83.9051 93.8907 83.9051C89.3013 83.9051 85.5809 87.6255 85.5809 92.2149C85.5809 96.8043 89.3013 100.525 93.8907 100.525Z" fill="#FBC500"/>
<path fill-rule="evenodd" clip-rule="evenodd" d="M137.404 106.589C145.344 106.589 151.78 100.152 151.78 92.2123C151.78 84.2725 145.344 77.8359 137.404 77.8359C129.464 77.8359 123.027 84.2725 123.027 92.2123C123.027 100.152 129.464 106.589 137.404 106.589ZM137.404 102.276C142.962 102.276 147.467 97.7703 147.467 92.2123C147.467 86.6544 142.962 82.1489 137.404 82.1489C131.846 82.1489 127.34 86.6544 127.34 92.2123C127.34 97.7703 131.846 102.276 137.404 102.276Z" fill="#FBC500"/>
<path fill-rule="evenodd" clip-rule="evenodd" d="M180.921 109.091C190.244 109.091 197.802 101.533 197.802 92.2098C197.802 82.8863 190.244 75.3281 180.921 75.3281C171.597 75.3281 164.039 82.8863 164.039 92.2098C164.039 101.533 171.597 109.091 180.921 109.091ZM180.921 104.027C187.447 104.027 192.738 98.7363 192.738 92.2098C192.738 85.6834 187.447 80.3926 180.921 80.3926C174.394 80.3926 169.104 85.6834 169.104 92.2098C169.104 98.7363 174.394 104.027 180.921 104.027Z" fill="#FBC500"/>
<path fill-rule="evenodd" clip-rule="evenodd" d="M224.432 109.091C233.756 109.091 241.314 101.533 241.314 92.2098C241.314 82.8863 233.756 75.3281 224.432 75.3281C215.109 75.3281 207.551 82.8863 207.551 92.2098C207.551 101.533 215.109 109.091 224.432 109.091ZM224.432 104.027C230.959 104.027 236.25 98.7363 236.25 92.2098C236.25 85.6834 230.959 80.3926 224.432 80.3926C217.906 80.3926 212.615 85.6834 212.615 92.2098C212.615 98.7363 217.906 104.027 224.432 104.027Z" fill="#F8F8F8"/>
<path fill-rule="evenodd" clip-rule="evenodd" d="M311.462 106.589C319.402 106.589 325.839 100.152 325.839 92.2123C325.839 84.2725 319.402 77.8359 311.462 77.8359C303.522 77.8359 297.086 84.2725 297.086 92.2123C297.086 100.152 303.522 106.589 311.462 106.589ZM311.462 102.276C317.02 102.276 321.526 97.7703 321.526 92.2123C321.526 86.6544 317.02 82.1489 311.462 82.1489C305.904 82.1489 301.399 86.6544 301.399 92.2123C301.399 97.7703 305.904 102.276 311.462 102.276Z" fill="#F8F8F8"/>
<path fill-rule="evenodd" clip-rule="evenodd" d="M354.977 104.086C361.533 104.086 366.848 98.7711 366.848 92.2149C366.848 85.6586 361.533 80.3438 354.977 80.3438C348.42 80.3438 343.105 85.6586 343.105 92.2149C343.105 98.7711 348.42 104.086 354.977 104.086ZM354.977 100.525C359.566 100.525 363.286 96.8043 363.286 92.2149C363.286 87.6255 359.566 83.9051 354.977 83.9051C350.387 83.9051 346.667 87.6255 346.667 92.2149C346.667 96.8043 350.387 100.525 354.977 100.525Z" fill="#F8F8F8"/>
<path fill-rule="evenodd" clip-rule="evenodd" d="M137.404 153.456C147.19 153.456 155.124 145.522 155.124 135.736C155.124 125.949 147.19 118.016 137.404 118.016C127.617 118.016 119.684 125.949 119.684 135.736C119.684 145.522 127.617 153.456 137.404 153.456ZM137.404 148.14C144.254 148.14 149.808 142.586 149.808 135.736C149.808 128.885 144.254 123.332 137.404 123.332C130.553 123.332 125 128.885 125 135.736C125 142.586 130.553 148.14 137.404 148.14Z" fill="#FBC500"/>
<path fill-rule="evenodd" clip-rule="evenodd" d="M180.914 156.782C192.545 156.782 201.973 147.353 201.973 135.723C201.973 124.092 192.545 114.664 180.914 114.664C169.284 114.664 159.855 124.092 159.855 135.723C159.855 147.353 169.284 156.782 180.914 156.782ZM180.914 150.464C189.056 150.464 195.655 143.864 195.655 135.723C195.655 127.582 189.056 120.982 180.914 120.982C172.773 120.982 166.173 127.582 166.173 135.723C166.173 143.864 172.773 150.464 180.914 150.464Z" fill="#F8F8F8"/>
<path fill-rule="evenodd" clip-rule="evenodd" d="M224.766 157.117C236.396 157.117 245.825 147.689 245.825 136.059C245.825 124.428 236.396 115 224.766 115C213.135 115 203.707 124.428 203.707 136.059C203.707 147.689 213.135 157.117 224.766 157.117ZM224.766 150.8C232.907 150.8 239.507 144.2 239.507 136.059C239.507 127.917 232.907 121.318 224.766 121.318C216.624 121.318 210.025 127.917 210.025 136.059C210.025 144.2 216.624 150.8 224.766 150.8Z" fill="#F8F8F8"/>
<path fill-rule="evenodd" clip-rule="evenodd" d="M267.942 156.782C279.572 156.782 289 147.353 289 135.723C289 124.092 279.572 114.664 267.942 114.664C256.311 114.664 246.883 124.092 246.883 135.723C246.883 147.353 256.311 156.782 267.942 156.782ZM267.942 150.464C276.083 150.464 282.683 143.864 282.683 135.723C282.683 127.582 276.083 120.982 267.942 120.982C259.8 120.982 253.2 127.582 253.2 135.723C253.2 143.864 259.8 150.464 267.942 150.464Z" fill="#F8F8F8"/>
<path fill-rule="evenodd" clip-rule="evenodd" d="M311.466 153.456C321.252 153.456 329.186 145.522 329.186 135.736C329.186 125.949 321.252 118.016 311.466 118.016C301.68 118.016 293.746 125.949 293.746 135.736C293.746 145.522 301.68 153.456 311.466 153.456ZM311.466 148.14C318.317 148.14 323.87 142.586 323.87 135.736C323.87 128.885 318.317 123.332 311.466 123.332C304.616 123.332 299.062 128.885 299.062 135.736C299.062 142.586 304.616 148.14 311.466 148.14Z" fill="#FBC500"/>
<path fill-rule="evenodd" clip-rule="evenodd" d="M137.399 197.517C147.491 197.517 155.673 189.335 155.673 179.243C155.673 169.15 147.491 160.969 137.399 160.969C127.307 160.969 119.125 169.15 119.125 179.243C119.125 189.335 127.307 197.517 137.399 197.517ZM137.399 192.035C144.464 192.035 150.191 186.308 150.191 179.243C150.191 172.178 144.464 166.451 137.399 166.451C130.334 166.451 124.607 172.178 124.607 179.243C124.607 186.308 130.334 192.035 137.399 192.035Z" fill="#FBC500"/>
<path fill-rule="evenodd" clip-rule="evenodd" d="M180.917 201.007C192.934 201.007 202.675 191.266 202.675 179.25C202.675 167.233 192.934 157.492 180.917 157.492C168.901 157.492 159.16 167.233 159.16 179.25C159.16 191.266 168.901 201.007 180.917 201.007ZM180.917 194.48C189.329 194.48 196.148 187.661 196.148 179.25C196.148 170.838 189.329 164.019 180.917 164.019C172.506 164.019 165.687 170.838 165.687 179.25C165.687 187.661 172.506 194.48 180.917 194.48Z" fill="#FBC500"/>
<path fill-rule="evenodd" clip-rule="evenodd" d="M224.433 201.007C236.449 201.007 246.19 191.266 246.19 179.25C246.19 167.233 236.449 157.492 224.433 157.492C212.417 157.492 202.676 167.233 202.676 179.25C202.676 191.266 212.417 201.007 224.433 201.007ZM224.433 194.48C232.844 194.48 239.663 187.661 239.663 179.25C239.663 170.838 232.844 164.019 224.433 164.019C216.022 164.019 209.203 170.838 209.203 179.25C209.203 187.661 216.022 194.48 224.433 194.48Z" fill="#FBC500"/>
<path fill-rule="evenodd" clip-rule="evenodd" d="M267.949 201.007C279.965 201.007 289.706 191.266 289.706 179.25C289.706 167.233 279.965 157.492 267.949 157.492C255.932 157.492 246.191 167.233 246.191 179.25C246.191 191.266 255.932 201.007 267.949 201.007ZM267.949 194.48C276.36 194.48 283.179 187.661 283.179 179.25C283.179 170.838 276.36 164.019 267.949 164.019C259.537 164.019 252.719 170.838 252.719 179.25C252.719 187.661 259.537 194.48 267.949 194.48Z" fill="#F8F8F8"/>
<path fill-rule="evenodd" clip-rule="evenodd" d="M311.458 197.517C321.55 197.517 329.732 189.335 329.732 179.243C329.732 169.15 321.55 160.969 311.458 160.969C301.365 160.969 293.184 169.15 293.184 179.243C293.184 189.335 301.365 197.517 311.458 197.517ZM311.458 192.035C318.522 192.035 324.249 186.308 324.249 179.243C324.249 172.178 318.522 166.451 311.458 166.451C304.393 166.451 298.666 172.178 298.666 179.243C298.666 186.308 304.393 192.035 311.458 192.035Z" fill="#FBC500"/>
<path fill-rule="evenodd" clip-rule="evenodd" d="M354.983 194.044C363.154 194.044 369.779 187.42 369.779 179.249C369.779 171.077 363.154 164.453 354.983 164.453C346.812 164.453 340.188 171.077 340.188 179.249C340.188 187.42 346.812 194.044 354.983 194.044ZM354.983 189.606C360.703 189.606 365.34 184.969 365.34 179.249C365.34 173.529 360.703 168.892 354.983 168.892C349.263 168.892 344.626 173.529 344.626 179.249C344.626 184.969 349.263 189.606 354.983 189.606Z" fill="#FBC500"/>
<path fill-rule="evenodd" clip-rule="evenodd" d="M93.8881 237.143C101.828 237.143 108.265 230.707 108.265 222.767C108.265 214.827 101.828 208.391 93.8881 208.391C85.9483 208.391 79.5117 214.827 79.5117 222.767C79.5117 230.707 85.9483 237.143 93.8881 237.143ZM93.8881 232.831C99.446 232.831 103.952 228.325 103.952 222.767C103.952 217.209 99.446 212.704 93.8881 212.704C88.3302 212.704 83.8246 217.209 83.8246 222.767C83.8246 228.325 88.3302 232.831 93.8881 232.831Z" fill="#FBC500"/>
<path fill-rule="evenodd" clip-rule="evenodd" d="M137.404 240.487C147.19 240.487 155.124 232.553 155.124 222.767C155.124 212.98 147.19 205.047 137.404 205.047C127.617 205.047 119.684 212.98 119.684 222.767C119.684 232.553 127.617 240.487 137.404 240.487ZM137.404 235.171C144.254 235.171 149.808 229.617 149.808 222.767C149.808 215.916 144.254 210.363 137.404 210.363C130.553 210.363 125 215.916 125 222.767C125 229.617 130.553 235.171 137.404 235.171Z" fill="#FBC500"/>
<path fill-rule="evenodd" clip-rule="evenodd" d="M180.914 243.805C192.545 243.805 201.973 234.377 201.973 222.746C201.973 211.116 192.545 201.688 180.914 201.688C169.284 201.688 159.855 211.116 159.855 222.746C159.855 234.377 169.284 243.805 180.914 243.805ZM180.914 237.487C189.056 237.487 195.655 230.888 195.655 222.746C195.655 214.605 189.056 208.005 180.914 208.005C172.773 208.005 166.173 214.605 166.173 222.746C166.173 230.888 172.773 237.487 180.914 237.487Z" fill="#F8F8F8"/>
<path fill-rule="evenodd" clip-rule="evenodd" d="M224.43 243.805C236.06 243.805 245.489 234.377 245.489 222.746C245.489 211.116 236.06 201.688 224.43 201.688C212.799 201.688 203.371 211.116 203.371 222.746C203.371 234.377 212.799 243.805 224.43 243.805ZM224.43 237.487C232.571 237.487 239.171 230.888 239.171 222.746C239.171 214.605 232.571 208.005 224.43 208.005C216.289 208.005 209.689 214.605 209.689 222.746C209.689 230.888 216.289 237.487 224.43 237.487Z" fill="#FBC500"/>
<path fill-rule="evenodd" clip-rule="evenodd" d="M267.942 243.805C279.572 243.805 289 234.377 289 222.746C289 211.116 279.572 201.688 267.942 201.688C256.311 201.688 246.883 211.116 246.883 222.746C246.883 234.377 256.311 243.805 267.942 243.805ZM267.942 237.487C276.083 237.487 282.683 230.888 282.683 222.746C282.683 214.605 276.083 208.005 267.942 208.005C259.8 208.005 253.2 214.605 253.2 222.746C253.2 230.888 259.8 237.487 267.942 237.487Z" fill="#FBC500"/>
<path fill-rule="evenodd" clip-rule="evenodd" d="M354.974 237.143C362.914 237.143 369.35 230.707 369.35 222.767C369.35 214.827 362.914 208.391 354.974 208.391C347.034 208.391 340.598 214.827 340.598 222.767C340.598 230.707 347.034 237.143 354.974 237.143ZM354.974 232.831C360.532 232.831 365.038 228.325 365.038 222.767C365.038 217.209 360.532 212.704 354.974 212.704C349.416 212.704 344.911 217.209 344.911 222.767C344.911 228.325 349.416 232.831 354.974 232.831Z" fill="#F8F8F8"/>
</svg>
