<svg width="372" height="245" viewBox="0 0 372 245" fill="none" xmlns="http://www.w3.org/2000/svg">
<path fill-rule="evenodd" clip-rule="evenodd" d="M364.84 10.3776C361.974 10.3776 359.651 8.05448 359.651 5.1888C359.651 2.32311 361.974 0 364.84 0C367.705 0 370.028 2.32311 370.028 5.1888C370.028 8.05448 367.705 10.3776 364.84 10.3776ZM364.84 8.82097C362.834 8.82097 361.207 7.1948 361.207 5.1888C361.207 3.18282 362.834 1.55664 364.84 1.55664C366.846 1.55664 368.472 3.18282 368.472 5.1888C368.472 7.1948 366.846 8.82097 364.84 8.82097Z" fill="#FBC500"/>
<path fill-rule="evenodd" clip-rule="evenodd" d="M321.326 56.4038C317.077 56.4038 313.632 52.959 313.632 48.7097C313.632 44.4604 317.077 41.0156 321.326 41.0156C325.576 41.0156 329.021 44.4604 329.021 48.7097C329.021 52.959 325.576 56.4038 321.326 56.4038ZM321.326 54.0956C318.352 54.0956 315.941 51.6842 315.941 48.7097C315.941 45.7352 318.352 43.3238 321.326 43.3238C324.301 43.3238 326.712 45.7352 326.712 48.7097C326.712 51.6842 324.301 54.0956 321.326 54.0956Z" fill="#FBC500"/>
<path fill-rule="evenodd" clip-rule="evenodd" d="M277.815 58.0677C272.642 58.0677 268.449 53.8744 268.449 48.7018C268.449 43.5292 272.642 39.3359 277.815 39.3359C282.987 39.3359 287.181 43.5292 287.181 48.7018C287.181 53.8744 282.987 58.0677 277.815 58.0677ZM277.815 55.2579C274.194 55.2579 271.259 52.3226 271.259 48.7018C271.259 45.081 274.194 42.1457 277.815 42.1457C281.436 42.1457 284.371 45.081 284.371 48.7018C284.371 52.3226 281.436 55.2579 277.815 55.2579Z" fill="#F8F8F8"/>
<path fill-rule="evenodd" clip-rule="evenodd" d="M190.789 61.4014C183.772 61.4014 178.084 55.7133 178.084 48.6968C178.084 41.6802 183.772 35.9922 190.789 35.9922C197.805 35.9922 203.493 41.6802 203.493 48.6968C203.493 55.7133 197.805 61.4014 190.789 61.4014ZM190.789 57.59C185.877 57.59 181.895 53.6084 181.895 48.6968C181.895 43.7852 185.877 39.8036 190.789 39.8036C195.7 39.8036 199.682 43.7852 199.682 48.6968C199.682 53.6084 195.7 57.59 190.789 57.59Z" fill="#FBC500"/>
<path fill-rule="evenodd" clip-rule="evenodd" d="M60.2368 59.7394C54.1409 59.7394 49.1991 54.7976 49.1991 48.7017C49.1991 42.6058 54.1409 37.6641 60.2368 37.6641C66.3327 37.6641 71.2744 42.6058 71.2744 48.7017C71.2744 54.7976 66.3327 59.7394 60.2368 59.7394ZM60.2368 56.4281C55.9696 56.4281 52.5104 52.9689 52.5104 48.7017C52.5104 44.4346 55.9696 40.9754 60.2368 40.9754C64.5039 40.9754 67.9631 44.4346 67.9631 48.7017C67.9631 52.9689 64.5039 56.4281 60.2368 56.4281Z" fill="#F8F8F8"/>
<path fill-rule="evenodd" clip-rule="evenodd" d="M364.848 99.0709C361.062 99.0709 357.993 96.0015 357.993 92.2151C357.993 88.4288 361.062 85.3594 364.848 85.3594C368.635 85.3594 371.704 88.4288 371.704 92.2151C371.704 96.0015 368.635 99.0709 364.848 99.0709ZM364.848 97.0142C362.198 97.0142 360.049 94.8656 360.049 92.2151C360.049 89.5647 362.198 87.4161 364.848 87.4161C367.499 87.4161 369.647 89.5647 369.647 92.2151C369.647 94.8656 367.499 97.0142 364.848 97.0142Z" fill="#FBC500"/>
<path fill-rule="evenodd" clip-rule="evenodd" d="M277.813 104.086C271.257 104.086 265.942 98.7711 265.942 92.2149C265.942 85.6586 271.257 80.3438 277.813 80.3438C284.37 80.3438 289.685 85.6586 289.685 92.2149C289.685 98.7711 284.37 104.086 277.813 104.086ZM277.813 100.525C273.224 100.525 269.504 96.8043 269.504 92.2149C269.504 87.6255 273.224 83.9051 277.813 83.9051C282.403 83.9051 286.123 87.6255 286.123 92.2149C286.123 96.8043 282.403 100.525 277.813 100.525Z" fill="#FBC500"/>
<path fill-rule="evenodd" clip-rule="evenodd" d="M234.3 106.589C226.361 106.589 219.924 100.152 219.924 92.2123C219.924 84.2725 226.361 77.8359 234.3 77.8359C242.24 77.8359 248.677 84.2725 248.677 92.2123C248.677 100.152 242.24 106.589 234.3 106.589ZM234.3 102.276C228.742 102.276 224.237 97.7703 224.237 92.2123C224.237 86.6544 228.742 82.1489 234.3 82.1489C239.858 82.1489 244.364 86.6544 244.364 92.2123C244.364 97.7703 239.858 102.276 234.3 102.276Z" fill="#FBC500"/>
<path fill-rule="evenodd" clip-rule="evenodd" d="M190.783 109.091C181.46 109.091 173.902 101.533 173.902 92.2098C173.902 82.8863 181.46 75.3281 190.783 75.3281C200.107 75.3281 207.665 82.8863 207.665 92.2098C207.665 101.533 200.107 109.091 190.783 109.091ZM190.783 104.027C184.257 104.027 178.966 98.7363 178.966 92.2098C178.966 85.6834 184.257 80.3926 190.783 80.3926C197.31 80.3926 202.601 85.6834 202.601 92.2098C202.601 98.7363 197.31 104.027 190.783 104.027Z" fill="#FBC500"/>
<path fill-rule="evenodd" clip-rule="evenodd" d="M147.272 109.091C137.948 109.091 130.39 101.533 130.39 92.2098C130.39 82.8863 137.948 75.3281 147.272 75.3281C156.595 75.3281 164.153 82.8863 164.153 92.2098C164.153 101.533 156.595 109.091 147.272 109.091ZM147.272 104.027C140.745 104.027 135.454 98.7363 135.454 92.2098C135.454 85.6834 140.745 80.3926 147.272 80.3926C153.798 80.3926 159.089 85.6834 159.089 92.2098C159.089 98.7363 153.798 104.027 147.272 104.027Z" fill="#F8F8F8"/>
<path fill-rule="evenodd" clip-rule="evenodd" d="M60.2418 106.589C52.302 106.589 45.8653 100.152 45.8653 92.2123C45.8653 84.2725 52.302 77.8359 60.2418 77.8359C68.1816 77.8359 74.6182 84.2725 74.6182 92.2123C74.6182 100.152 68.1816 106.589 60.2418 106.589ZM60.2418 102.276C54.6838 102.276 50.1783 97.7703 50.1783 92.2123C50.1783 86.6544 54.6838 82.1489 60.2418 82.1489C65.7997 82.1489 70.3052 86.6544 70.3052 92.2123C70.3052 97.7703 65.7997 102.276 60.2418 102.276Z" fill="#F8F8F8"/>
<path fill-rule="evenodd" clip-rule="evenodd" d="M16.7275 104.086C10.1713 104.086 4.85636 98.7711 4.85636 92.2149C4.85636 85.6586 10.1713 80.3438 16.7275 80.3438C23.2837 80.3438 28.5986 85.6586 28.5986 92.2149C28.5986 98.7711 23.2837 104.086 16.7275 104.086ZM16.7275 100.525C12.1381 100.525 8.4177 96.8043 8.4177 92.2149C8.4177 87.6255 12.1381 83.9051 16.7275 83.9051C21.3169 83.9051 25.0373 87.6255 25.0373 92.2149C25.0373 96.8043 21.3169 100.525 16.7275 100.525Z" fill="#F8F8F8"/>
<path fill-rule="evenodd" clip-rule="evenodd" d="M234.301 153.456C224.514 153.456 216.581 145.522 216.581 135.736C216.581 125.949 224.514 118.016 234.301 118.016C244.087 118.016 252.021 125.949 252.021 135.736C252.021 145.522 244.087 153.456 234.301 153.456ZM234.301 148.14C227.45 148.14 221.897 142.586 221.897 135.736C221.897 128.885 227.45 123.332 234.301 123.332C241.151 123.332 246.705 128.885 246.705 135.736C246.705 142.586 241.151 148.14 234.301 148.14Z" fill="#FBC500"/>
<path fill-rule="evenodd" clip-rule="evenodd" d="M190.79 156.782C179.16 156.782 169.731 147.353 169.731 135.723C169.731 124.092 179.16 114.664 190.79 114.664C202.42 114.664 211.849 124.092 211.849 135.723C211.849 147.353 202.42 156.782 190.79 156.782ZM190.79 150.464C182.649 150.464 176.049 143.864 176.049 135.723C176.049 127.582 182.649 120.982 190.79 120.982C198.931 120.982 205.531 127.582 205.531 135.723C205.531 143.864 198.931 150.464 190.79 150.464Z" fill="#F8F8F8"/>
<path fill-rule="evenodd" clip-rule="evenodd" d="M146.938 157.117C135.308 157.117 125.88 147.689 125.88 136.059C125.88 124.428 135.308 115 146.938 115C158.569 115 167.997 124.428 167.997 136.059C167.997 147.689 158.569 157.117 146.938 157.117ZM146.938 150.8C138.797 150.8 132.197 144.2 132.197 136.059C132.197 127.917 138.797 121.318 146.938 121.318C155.08 121.318 161.679 127.917 161.679 136.059C161.679 144.2 155.08 150.8 146.938 150.8Z" fill="#F8F8F8"/>
<path fill-rule="evenodd" clip-rule="evenodd" d="M103.763 156.782C92.1322 156.782 82.7038 147.353 82.7038 135.723C82.7038 124.092 92.1322 114.664 103.763 114.664C115.393 114.664 124.821 124.092 124.821 135.723C124.821 147.353 115.393 156.782 103.763 156.782ZM103.763 150.464C95.6212 150.464 89.0214 143.864 89.0214 135.723C89.0214 127.582 95.6212 120.982 103.763 120.982C111.904 120.982 118.504 127.582 118.504 135.723C118.504 143.864 111.904 150.464 103.763 150.464Z" fill="#F8F8F8"/>
<path fill-rule="evenodd" clip-rule="evenodd" d="M60.238 153.456C50.4516 153.456 42.518 145.522 42.518 135.736C42.518 125.949 50.4516 118.016 60.238 118.016C70.0245 118.016 77.958 125.949 77.958 135.736C77.958 145.522 70.0245 153.456 60.238 153.456ZM60.238 148.14C53.3875 148.14 47.834 142.586 47.834 135.736C47.834 128.885 53.3875 123.332 60.238 123.332C67.0886 123.332 72.642 128.885 72.642 135.736C72.642 142.586 67.0886 148.14 60.238 148.14Z" fill="#FBC500"/>
<path fill-rule="evenodd" clip-rule="evenodd" d="M234.305 197.517C224.213 197.517 216.031 189.335 216.031 179.243C216.031 169.15 224.213 160.969 234.305 160.969C244.398 160.969 252.579 169.15 252.579 179.243C252.579 189.335 244.398 197.517 234.305 197.517ZM234.305 192.035C227.24 192.035 221.513 186.308 221.513 179.243C221.513 172.178 227.24 166.451 234.305 166.451C241.37 166.451 247.097 172.178 247.097 179.243C247.097 186.308 241.37 192.035 234.305 192.035Z" fill="#FBC500"/>
<path fill-rule="evenodd" clip-rule="evenodd" d="M190.787 201.007C178.77 201.007 169.029 191.266 169.029 179.25C169.029 167.233 178.77 157.492 190.787 157.492C202.803 157.492 212.544 167.233 212.544 179.25C212.544 191.266 202.803 201.007 190.787 201.007ZM190.787 194.48C182.375 194.48 175.556 187.661 175.556 179.25C175.556 170.838 182.375 164.019 190.787 164.019C199.198 164.019 206.017 170.838 206.017 179.25C206.017 187.661 199.198 194.48 190.787 194.48Z" fill="#FBC500"/>
<path fill-rule="evenodd" clip-rule="evenodd" d="M147.271 201.007C135.255 201.007 125.514 191.266 125.514 179.25C125.514 167.233 135.255 157.492 147.271 157.492C159.287 157.492 169.028 167.233 169.028 179.25C169.028 191.266 159.287 201.007 147.271 201.007ZM147.271 194.48C138.86 194.48 132.041 187.661 132.041 179.25C132.041 170.838 138.86 164.019 147.271 164.019C155.682 164.019 162.501 170.838 162.501 179.25C162.501 187.661 155.682 194.48 147.271 194.48Z" fill="#FBC500"/>
<path fill-rule="evenodd" clip-rule="evenodd" d="M103.755 201.007C91.7392 201.007 81.998 191.266 81.998 179.25C81.998 167.233 91.7392 157.492 103.755 157.492C115.772 157.492 125.513 167.233 125.513 179.25C125.513 191.266 115.772 201.007 103.755 201.007ZM103.755 194.48C95.344 194.48 88.5252 187.661 88.5252 179.25C88.5252 170.838 95.344 164.019 103.755 164.019C112.167 164.019 118.985 170.838 118.985 179.25C118.985 187.661 112.167 194.48 103.755 194.48Z" fill="#F8F8F8"/>
<path fill-rule="evenodd" clip-rule="evenodd" d="M60.2465 197.517C50.1541 197.517 41.9724 189.335 41.9724 179.243C41.9724 169.15 50.1541 160.969 60.2465 160.969C70.3389 160.969 78.5205 169.15 78.5205 179.243C78.5205 189.335 70.3389 197.517 60.2465 197.517ZM60.2465 192.035C53.1817 192.035 47.4546 186.308 47.4546 179.243C47.4546 172.178 53.1817 166.451 60.2465 166.451C67.3112 166.451 73.0383 172.178 73.0383 179.243C73.0383 186.308 67.3112 192.035 60.2465 192.035Z" fill="#FBC500"/>
<path fill-rule="evenodd" clip-rule="evenodd" d="M16.721 194.044C8.54975 194.044 1.92548 187.42 1.92548 179.249C1.92548 171.077 8.54975 164.453 16.721 164.453C24.8924 164.453 31.5166 171.077 31.5166 179.249C31.5166 187.42 24.8924 194.044 16.721 194.044ZM16.721 189.606C11.0011 189.606 6.36415 184.969 6.36415 179.249C6.36415 173.529 11.0011 168.892 16.721 168.892C22.441 168.892 27.0779 173.529 27.0779 179.249C27.0779 184.969 22.441 189.606 16.721 189.606Z" fill="#FBC500"/>
<path fill-rule="evenodd" clip-rule="evenodd" d="M277.816 237.143C269.876 237.143 263.44 230.707 263.44 222.767C263.44 214.827 269.876 208.391 277.816 208.391C285.756 208.391 292.192 214.827 292.192 222.767C292.192 230.707 285.756 237.143 277.816 237.143ZM277.816 232.831C272.258 232.831 267.752 228.325 267.752 222.767C267.752 217.209 272.258 212.704 277.816 212.704C283.374 212.704 287.879 217.209 287.879 222.767C287.879 228.325 283.374 232.831 277.816 232.831Z" fill="#FBC500"/>
<path fill-rule="evenodd" clip-rule="evenodd" d="M234.301 240.487C224.514 240.487 216.581 232.553 216.581 222.767C216.581 212.98 224.514 205.047 234.301 205.047C244.087 205.047 252.021 212.98 252.021 222.767C252.021 232.553 244.087 240.487 234.301 240.487ZM234.301 235.171C227.45 235.171 221.897 229.617 221.897 222.767C221.897 215.916 227.45 210.363 234.301 210.363C241.151 210.363 246.705 215.916 246.705 222.767C246.705 229.617 241.151 235.171 234.301 235.171Z" fill="#FBC500"/>
<path fill-rule="evenodd" clip-rule="evenodd" d="M190.79 243.805C179.16 243.805 169.731 234.377 169.731 222.746C169.731 211.116 179.16 201.688 190.79 201.688C202.42 201.688 211.849 211.116 211.849 222.746C211.849 234.377 202.42 243.805 190.79 243.805ZM190.79 237.487C182.649 237.487 176.049 230.888 176.049 222.746C176.049 214.605 182.649 208.005 190.79 208.005C198.931 208.005 205.531 214.605 205.531 222.746C205.531 230.888 198.931 237.487 190.79 237.487Z" fill="#F8F8F8"/>
<path fill-rule="evenodd" clip-rule="evenodd" d="M147.274 243.805C135.644 243.805 126.216 234.377 126.216 222.746C126.216 211.116 135.644 201.688 147.274 201.688C158.905 201.688 168.333 211.116 168.333 222.746C168.333 234.377 158.905 243.805 147.274 243.805ZM147.274 237.487C139.133 237.487 132.533 230.888 132.533 222.746C132.533 214.605 139.133 208.005 147.274 208.005C155.416 208.005 162.015 214.605 162.015 222.746C162.015 230.888 155.416 237.487 147.274 237.487Z" fill="#FBC500"/>
<path fill-rule="evenodd" clip-rule="evenodd" d="M103.763 243.805C92.1322 243.805 82.7038 234.377 82.7038 222.746C82.7038 211.116 92.1322 201.688 103.763 201.688C115.393 201.688 124.821 211.116 124.821 222.746C124.821 234.377 115.393 243.805 103.763 243.805ZM103.763 237.487C95.6212 237.487 89.0214 230.888 89.0214 222.746C89.0214 214.605 95.6212 208.005 103.763 208.005C111.904 208.005 118.504 214.605 118.504 222.746C118.504 230.888 111.904 237.487 103.763 237.487Z" fill="#FBC500"/>
<path fill-rule="evenodd" clip-rule="evenodd" d="M16.73 237.143C8.79023 237.143 2.35363 230.707 2.35363 222.767C2.35363 214.827 8.79023 208.391 16.73 208.391C24.6699 208.391 31.1064 214.827 31.1064 222.767C31.1064 230.707 24.6699 237.143 16.73 237.143ZM16.73 232.831C11.1721 232.831 6.66655 228.325 6.66655 222.767C6.66655 217.209 11.1721 212.704 16.73 212.704C22.2879 212.704 26.7935 217.209 26.7935 222.767C26.7935 228.325 22.2879 232.831 16.73 232.831Z" fill="#F8F8F8"/>
</svg>
