<svg width="304" height="203" viewBox="0 0 304 203" fill="none" xmlns="http://www.w3.org/2000/svg">
<path d="M34.0494 101.117H67.7539V67.413H34.0494V101.117Z" fill="#3F3F9C"/>
<path d="M50.9017 67.413C41.5944 67.413 34.0494 74.9579 34.0494 84.2651C34.0494 93.5722 41.5944 101.117 50.9017 101.117C60.2089 101.117 67.7539 93.5722 67.7539 84.2651C67.7539 74.9579 60.2089 67.413 50.9017 67.413Z" fill="#F3BE00"/>
<path d="M67.7539 33.7098C58.8149 33.7098 50.2421 37.2608 43.9212 43.5816C37.6004 49.9023 34.0494 58.4751 34.0494 67.4141H67.7539" fill="#F3BE00"/>
<path d="M269.987 0H337.398V67.4105H269.987V0Z" fill="#7272C5"/>
<path d="M303.702 0H337.406V33.7042H303.702V0Z" fill="#3F3F9C"/>
<path d="M337.406 33.7042C337.406 24.7653 333.855 16.1925 327.534 9.87172C321.214 3.55095 312.641 0 303.702 0V33.7042" fill="#4D4DC7"/>
<path d="M269.987 0H303.691V33.7042H269.987V0Z" fill="#4D4DC7"/>
<path d="M303.691 0C294.752 0 286.18 3.55095 279.859 9.87172C273.538 16.1925 269.987 24.7653 269.987 33.7042H303.691" fill="#212152"/>
<path d="M303.702 33.7031H337.406V67.4073H303.702V33.7031Z" fill="#4D4DC7"/>
<path d="M337.406 33.7031C337.406 42.642 333.855 51.2149 327.534 57.5356C321.214 63.8564 312.641 67.4073 303.702 67.4073V33.7031" fill="#F3BE00"/>
<path d="M269.987 33.7031H303.691V67.4073H269.987V33.7031Z" fill="#4D4DC7"/>
<path d="M303.691 67.4073C294.752 67.4073 286.18 63.8564 279.859 57.5356C273.538 51.2149 269.987 42.642 269.987 33.7031H303.691" fill="#212152"/>
<path d="M202.575 0H269.984V67.4084H202.575V0Z" fill="#212152"/>
<path d="M269.984 0H202.575V67.4084L269.984 0Z" fill="#212152"/>
<path d="M135.167 0H202.578V67.4105H135.167V0Z" fill="#7272C5"/>
<path d="M168.874 0H202.578V33.7042H168.874V0Z" fill="#3F3F9C"/>
<path d="M202.578 0C193.639 0 185.066 3.55095 178.745 9.87172C172.425 16.1925 168.874 24.7653 168.874 33.7042H202.578" fill="#212152"/>
<path d="M34.0469 67.4141C25.1079 67.4141 16.535 70.965 10.2142 77.2858C3.89341 83.6065 0.342411 92.1794 0.342411 101.118H34.0469" fill="#212152"/>
<path d="M135.171 0H168.875V33.7042H135.171V0Z" fill="#212152"/>
<path d="M168.875 33.7042C168.875 24.7653 165.324 16.1925 159.003 9.87172C152.682 3.55095 144.11 0 135.171 0V33.7042" fill="#212152"/>
<path d="M168.874 33.7031H202.578V67.4073H168.874V33.7031Z" fill="#4D4DC7"/>
<path d="M202.578 67.4073C193.639 67.4073 185.066 63.8564 178.745 57.5356C172.425 51.2149 168.874 42.642 168.874 33.7031H202.578" fill="#3F3F9C"/>
<path d="M135.171 33.7031H168.875V67.4073H135.171V33.7031Z" fill="#4D4DC7"/>
<path d="M168.875 33.7031C168.875 42.642 165.324 51.2149 159.003 57.5356C152.682 63.8564 144.11 67.4073 135.171 67.4073V33.7031" fill="#F3BE00"/>
<path d="M101.463 0H135.168V33.7042H101.463V0Z" fill="#3F3F9C"/>
<path d="M135.168 33.7042C135.168 24.7653 131.617 16.1925 125.296 9.87172C118.975 3.55095 110.402 0 101.463 0V8.42605C108.168 8.42605 114.597 11.0893 119.338 15.8299C124.079 20.5704 126.742 27 126.742 33.7042" fill="#F3BE00"/>
<path d="M101.461 0C92.522 0 83.9491 3.55095 77.6283 9.87172C71.3074 16.1925 67.7565 24.7653 67.7565 33.7042H76.1826C76.1826 27 78.8458 20.5704 83.5865 15.8299C88.3271 11.0893 94.7567 8.42605 101.461 8.42605" fill="#F3BE00"/>
<path d="M101.463 33.7031H135.168V67.4073H101.463V33.7031Z" fill="#4D4DC7"/>
<path d="M135.168 33.7031C135.168 42.642 131.617 51.2149 125.296 57.5356C118.975 63.8564 110.402 67.4073 101.463 67.4073V58.9813C108.168 58.9813 114.597 56.3181 119.338 51.5775C124.079 46.8369 126.742 40.4073 126.742 33.7031" fill="#4D4DC7"/>
<path d="M67.7565 33.7031H101.461V67.4073H67.7565V33.7031Z" fill="#212152"/>
<path d="M101.461 67.4073C92.522 67.4073 83.9491 63.8564 77.6283 57.5356C71.3074 51.2149 67.7565 42.642 67.7565 33.7031H76.1826C76.1826 40.4073 78.8458 46.8369 83.5865 51.5775C88.3271 56.3181 94.7567 58.9813 101.461 58.9813" fill="#4D4DC7"/>
<path d="M303.702 67.4141H337.406V101.118H303.702V67.4141Z" fill="#4D4DC7"/>
<path d="M337.406 101.118C337.406 92.1794 333.855 83.6066 327.534 77.2858C321.214 70.965 312.641 67.4141 303.702 67.4141V101.118" fill="#212152"/>
<path d="M269.987 67.4141H303.691V101.118H269.987V67.4141Z" fill="#4D4DC7"/>
<path d="M303.691 67.4141C294.752 67.4141 286.18 70.965 279.859 77.2858C273.538 83.6066 269.987 92.1794 269.987 101.118H303.691" fill="#3F3F9C"/>
<path d="M236.28 67.4141H269.984V101.118H236.28V67.4141Z" fill="#212152"/>
<path d="M269.984 67.4141C261.045 67.4141 252.473 70.965 246.152 77.2858C239.831 83.6066 236.28 92.1794 236.28 101.118H269.984" fill="#F3BE00"/>
<path d="M202.577 67.4141H236.281V101.118H202.577V67.4141Z" fill="#212152"/>
<path d="M236.281 101.118C236.281 92.1794 232.73 83.6066 226.409 77.2858C220.089 70.965 211.516 67.4141 202.577 67.4141V101.118" fill="#F3BE00"/>
<path d="M168.874 67.4141H202.578V101.118H168.874V67.4141Z" fill="#F3BE00"/>
<path d="M67.5221 67.4141H101.227V101.118H67.5221V67.4141Z" fill="#F3BE00"/>
<path d="M101.522 67.4141H135.227V101.118H101.522V67.4141Z" fill="#F3BE00"/>
<path d="M168.874 67.4141V101.118H202.578L168.874 67.4141Z" fill="#3F3F9C"/>
<path d="M135.171 67.4141H168.875V101.118H135.171V67.4141Z" fill="#212152"/>
<path d="M168.875 67.4141L135.171 101.118H168.875V67.4141Z" fill="#4D4DC7"/>
<path d="M135.227 67C135.227 75.9389 131.676 84.5117 125.355 90.8325C119.034 97.1533 110.461 100.704 101.522 100.704V92.2782C108.226 92.2782 114.656 89.6149 119.397 84.8744C124.137 80.1338 126.8 73.7042 126.8 67" fill="#4D4DC7"/>
<path d="M34.0494 101H67.7539V134.704H34.0494V101Z" fill="#3F3F9C"/>
<path d="M50.9017 134.704C41.5944 134.704 34.0494 127.159 34.0494 117.852C34.0494 108.545 41.5944 101 50.9017 101C60.2089 101 67.7539 108.545 67.7539 117.852C67.7539 127.159 60.2089 134.704 50.9017 134.704Z" fill="#F3BE00"/>
<path d="M67.7539 168.407C58.8149 168.407 50.2421 164.856 43.9212 158.536C37.6004 152.215 34.0494 143.642 34.0494 134.703H67.7539" fill="#F3BE00"/>
<path d="M269.987 202.117H337.398V134.707H269.987V202.117Z" fill="#7272C5"/>
<path d="M303.702 202.117H337.406V168.413H303.702V202.117Z" fill="#3F3F9C"/>
<path d="M337.406 168.413C337.406 177.352 333.855 185.925 327.534 192.245C321.214 198.566 312.641 202.117 303.702 202.117V168.413" fill="#4D4DC7"/>
<path d="M269.987 202.117H303.691V168.413H269.987V202.117Z" fill="#4D4DC7"/>
<path d="M303.691 202.117C294.752 202.117 286.18 198.566 279.859 192.245C273.538 185.925 269.987 177.352 269.987 168.413H303.691" fill="#212152"/>
<path d="M303.702 168.414H337.406V134.71H303.702V168.414Z" fill="#4D4DC7"/>
<path d="M337.406 168.414C337.406 159.475 333.855 150.902 327.534 144.582C321.214 138.261 312.641 134.71 303.702 134.71V168.414" fill="#F3BE00"/>
<path d="M269.987 168.414H303.691V134.71H269.987V168.414Z" fill="#4D4DC7"/>
<path d="M303.691 134.71C294.752 134.71 286.18 138.261 279.859 144.582C273.538 150.902 269.987 159.475 269.987 168.414H303.691" fill="#212152"/>
<path d="M202.575 202.117H269.984V134.709H202.575V202.117Z" fill="#212152"/>
<path d="M269.984 202.117H202.575V134.709L269.984 202.117Z" fill="#212152"/>
<path d="M135.167 202.117H202.578V134.707H135.167V202.117Z" fill="#7272C5"/>
<path d="M168.874 202.117H202.578V168.413H168.874V202.117Z" fill="#3F3F9C"/>
<path d="M202.578 202.117C193.639 202.117 185.066 198.566 178.745 192.245C172.425 185.925 168.874 177.352 168.874 168.413H202.578" fill="#212152"/>
<path d="M34.0469 134.703C25.1079 134.703 16.535 131.152 10.2142 124.831C3.89341 118.511 0.342411 109.938 0.342411 100.999H34.0469" fill="#212152"/>
<path d="M135.171 202.117H168.875V168.413H135.171V202.117Z" fill="#212152"/>
<path d="M168.875 168.413C168.875 177.352 165.324 185.925 159.003 192.245C152.682 198.566 144.11 202.117 135.171 202.117V168.413" fill="#212152"/>
<path d="M168.874 168.414H202.578V134.71H168.874V168.414Z" fill="#4D4DC7"/>
<path d="M202.578 134.71C193.639 134.71 185.066 138.261 178.745 144.582C172.425 150.902 168.874 159.475 168.874 168.414H202.578" fill="#3F3F9C"/>
<path d="M135.171 168.414H168.875V134.71H135.171V168.414Z" fill="#4D4DC7"/>
<path d="M168.875 168.414C168.875 159.475 165.324 150.902 159.003 144.582C152.682 138.261 144.11 134.71 135.171 134.71V168.414" fill="#F3BE00"/>
<path d="M101.463 202.117H135.168V168.413H101.463V202.117Z" fill="#3F3F9C"/>
<path d="M135.168 168.413C135.168 177.352 131.617 185.925 125.296 192.245C118.975 198.566 110.402 202.117 101.463 202.117V193.691C108.168 193.691 114.597 191.028 119.338 186.287C124.079 181.547 126.742 175.117 126.742 168.413" fill="#F3BE00"/>
<path d="M101.461 202.117C92.522 202.117 83.9491 198.566 77.6283 192.245C71.3074 185.925 67.7565 177.352 67.7565 168.413H76.1826C76.1826 175.117 78.8458 181.547 83.5865 186.287C88.3271 191.028 94.7567 193.691 101.461 193.691" fill="#F3BE00"/>
<path d="M101.463 168.414H135.168V134.71H101.463V168.414Z" fill="#4D4DC7"/>
<path d="M135.168 168.414C135.168 159.475 131.617 150.902 125.296 144.582C118.975 138.261 110.402 134.71 101.463 134.71V143.136C108.168 143.136 114.597 145.799 119.338 150.54C124.079 155.28 126.742 161.71 126.742 168.414" fill="#4D4DC7"/>
<path d="M67.7565 168.414H101.461V134.71H67.7565V168.414Z" fill="#212152"/>
<path d="M101.461 134.71C92.522 134.71 83.9491 138.261 77.6283 144.582C71.3074 150.902 67.7565 159.475 67.7565 168.414H76.1826C76.1826 161.71 78.8458 155.28 83.5865 150.54C88.3271 145.799 94.7567 143.136 101.461 143.136" fill="#4D4DC7"/>
<path d="M303.702 134.703H337.406V100.999H303.702V134.703Z" fill="#4D4DC7"/>
<path d="M337.406 100.999C337.406 109.938 333.855 118.511 327.534 124.831C321.214 131.152 312.641 134.703 303.702 134.703V100.999" fill="#212152"/>
<path d="M269.987 134.703H303.691V100.999H269.987V134.703Z" fill="#4D4DC7"/>
<path d="M303.691 134.703C294.752 134.703 286.18 131.152 279.859 124.831C273.538 118.511 269.987 109.938 269.987 100.999H303.691" fill="#3F3F9C"/>
<path d="M236.28 134.703H269.984V100.999H236.28V134.703Z" fill="#212152"/>
<path d="M269.984 134.703C261.045 134.703 252.473 131.152 246.152 124.831C239.831 118.511 236.28 109.938 236.28 100.999H269.984" fill="#F3BE00"/>
<path d="M202.577 134.703H236.281V100.999H202.577V134.703Z" fill="#212152"/>
<path d="M236.281 100.999C236.281 109.938 232.73 118.511 226.409 124.831C220.089 131.152 211.516 134.703 202.577 134.703V100.999" fill="#F3BE00"/>
<path d="M168.874 134.703H202.578V100.999H168.874V134.703Z" fill="#F3BE00"/>
<path d="M67.5221 134.703H101.227V100.999H67.5221V134.703Z" fill="#F3BE00"/>
<path d="M101.522 134.703H135.227V100.999H101.522V134.703Z" fill="#F3BE00"/>
<path d="M168.874 134.703V100.999H202.578L168.874 134.703Z" fill="#3F3F9C"/>
<path d="M135.171 134.703H168.875V100.999H135.171V134.703Z" fill="#212152"/>
<path d="M168.875 134.703L135.171 100.999H168.875V134.703Z" fill="#4D4DC7"/>
<path d="M135.227 135.117C135.227 126.178 131.676 117.605 125.355 111.285C119.034 104.964 110.461 101.413 101.522 101.413V109.839C108.226 109.839 114.656 112.502 119.397 117.243C124.137 121.983 126.8 128.413 126.8 135.117" fill="#4D4DC7"/>
</svg>
