<svg width="304" height="203" viewBox="0 0 304 203" fill="none" xmlns="http://www.w3.org/2000/svg">
<path d="M269.357 101.117H235.652V67.413H269.357V101.117Z" fill="#3F3F9C"/>
<path d="M252.505 67.413C261.812 67.413 269.357 74.9579 269.357 84.2651C269.357 93.5722 261.812 101.117 252.505 101.117C243.197 101.117 235.652 93.5722 235.652 84.2651C235.652 74.9579 243.197 67.413 252.505 67.413Z" fill="#F3BE00"/>
<path d="M235.652 33.7098C244.591 33.7098 253.164 37.2608 259.485 43.5816C265.806 49.9023 269.357 58.4751 269.357 67.4141H235.652" fill="#F3BE00"/>
<path d="M33.4188 0H-33.9922V67.4105H33.4188V0Z" fill="#7272C5"/>
<path d="M33.4193 0H-0.285156V33.7042H33.4193V0Z" fill="#4D4DC7"/>
<path d="M-0.285156 0C8.65383 0 17.2267 3.55095 23.5475 9.87172C29.8683 16.1925 33.4193 24.7653 33.4193 33.7042H-0.285156" fill="#212152"/>
<path d="M33.4193 33.7031H-0.285156V67.4073H33.4193V33.7031Z" fill="#4D4DC7"/>
<path d="M-0.285156 67.4073C8.65383 67.4073 17.2267 63.8564 23.5475 57.5356C29.8683 51.2149 33.4193 42.642 33.4193 33.7031H-0.285156" fill="#212152"/>
<path d="M100.831 0H33.4219V67.4084H100.831V0Z" fill="#212152"/>
<path d="M33.4219 0H100.831V67.4084L33.4219 0Z" fill="#212152"/>
<path d="M168.239 0H100.828V67.4105H168.239V0Z" fill="#7272C5"/>
<path d="M134.533 0H100.828V33.7042H134.533V0Z" fill="#3F3F9C"/>
<path d="M100.828 0C109.767 0 118.34 3.55095 124.661 9.87172C130.982 16.1925 134.533 24.7653 134.533 33.7042H100.828" fill="#212152"/>
<path d="M269.359 67.4141C278.298 67.4141 286.871 70.965 293.192 77.2858C299.513 83.6065 303.064 92.1794 303.064 101.118H269.359" fill="#212152"/>
<path d="M168.236 0H134.531V33.7042H168.236V0Z" fill="#212152"/>
<path d="M134.531 33.7042C134.531 24.7653 138.082 16.1925 144.403 9.87172C150.724 3.55095 159.297 0 168.236 0V33.7042" fill="#212152"/>
<path d="M134.533 33.7031H100.828V67.4073H134.533V33.7031Z" fill="#4D4DC7"/>
<path d="M100.828 67.4073C109.767 67.4073 118.34 63.8564 124.661 57.5356C130.982 51.2149 134.533 42.642 134.533 33.7031H100.828" fill="#3F3F9C"/>
<path d="M168.236 33.7031H134.531V67.4073H168.236V33.7031Z" fill="#4D4DC7"/>
<path d="M134.531 33.7031C134.531 42.642 138.082 51.2149 144.403 57.5356C150.724 63.8564 159.297 67.4073 168.236 67.4073V33.7031" fill="#F3BE00"/>
<path d="M201.943 0H168.238V33.7042H201.943V0Z" fill="#3F3F9C"/>
<path d="M168.238 33.7042C168.238 24.7653 171.789 16.1925 178.11 9.87172C184.431 3.55095 193.004 0 201.943 0V8.42605C195.239 8.42605 188.809 11.0893 184.068 15.8299C179.328 20.5704 176.664 27 176.664 33.7042" fill="#F3BE00"/>
<path d="M201.945 0C210.884 0 219.457 3.55095 225.778 9.87172C232.099 16.1925 235.65 24.7653 235.65 33.7042H227.224C227.224 27 224.56 20.5704 219.82 15.8299C215.079 11.0893 208.65 8.42605 201.945 8.42605" fill="#F3BE00"/>
<path d="M201.943 33.7031H168.238V67.4073H201.943V33.7031Z" fill="#4D4DC7"/>
<path d="M168.238 33.7031C168.238 42.642 171.789 51.2149 178.11 57.5356C184.431 63.8564 193.004 67.4073 201.943 67.4073V58.9813C195.239 58.9813 188.809 56.3181 184.068 51.5775C179.328 46.8369 176.664 40.4073 176.664 33.7031" fill="#4D4DC7"/>
<path d="M235.65 33.7031H201.945V67.4073H235.65V33.7031Z" fill="#212152"/>
<path d="M201.945 67.4073C210.884 67.4073 219.457 63.8564 225.778 57.5356C232.099 51.2149 235.65 42.642 235.65 33.7031H227.224C227.224 40.4073 224.56 46.8369 219.82 51.5775C215.079 56.3181 208.65 58.9813 201.945 58.9813" fill="#4D4DC7"/>
<path d="M33.4193 67.4141H-0.285156V101.118H33.4193V67.4141Z" fill="#4D4DC7"/>
<path d="M-0.285156 67.4141C8.65383 67.4141 17.2267 70.965 23.5475 77.2858C29.8683 83.6066 33.4193 92.1794 33.4193 101.118H-0.285156" fill="#3F3F9C"/>
<path d="M67.1264 67.4141H33.4219V101.118H67.1264V67.4141Z" fill="#212152"/>
<path d="M33.4219 67.4141C42.3609 67.4141 50.9337 70.965 57.2545 77.2858C63.5754 83.6066 67.1264 92.1794 67.1264 101.118H33.4219" fill="#F3BE00"/>
<path d="M100.829 67.4141H67.125V101.118H100.829V67.4141Z" fill="#212152"/>
<path d="M67.125 101.118C67.125 92.1794 70.676 83.6066 76.9968 77.2858C83.3176 70.965 91.8905 67.4141 100.829 67.4141V101.118" fill="#F3BE00"/>
<path d="M134.533 67.4141H100.828V101.118H134.533V67.4141Z" fill="#F3BE00"/>
<path d="M235.884 67.4141H202.18V101.118H235.884V67.4141Z" fill="#F3BE00"/>
<path d="M201.884 67.4141H168.18V101.118H201.884V67.4141Z" fill="#F3BE00"/>
<path d="M134.533 67.4141V101.118H100.828L134.533 67.4141Z" fill="#3F3F9C"/>
<path d="M168.236 67.4141H134.531V101.118H168.236V67.4141Z" fill="#212152"/>
<path d="M134.531 67.4141L168.236 101.118H134.531V67.4141Z" fill="#4D4DC7"/>
<path d="M168.18 67C168.18 75.9389 171.731 84.5117 178.052 90.8325C184.372 97.1533 192.945 100.704 201.884 100.704V92.2782C195.18 92.2782 188.75 89.6149 184.01 84.8744C179.269 80.1338 176.606 73.7042 176.606 67" fill="#4D4DC7"/>
<path d="M269.357 101H235.652V134.704H269.357V101Z" fill="#3F3F9C"/>
<path d="M252.505 134.704C261.812 134.704 269.357 127.159 269.357 117.852C269.357 108.545 261.812 101 252.505 101C243.197 101 235.652 108.545 235.652 117.852C235.652 127.159 243.197 134.704 252.505 134.704Z" fill="#F3BE00"/>
<path d="M235.652 168.407C244.591 168.407 253.164 164.856 259.485 158.536C265.806 152.215 269.357 143.642 269.357 134.703H235.652" fill="#F3BE00"/>
<path d="M33.4188 202.117H-33.9922V134.707H33.4188V202.117Z" fill="#7272C5"/>
<path d="M33.4193 202.117H-0.285156V168.413H33.4193V202.117Z" fill="#4D4DC7"/>
<path d="M-0.285156 202.117C8.65383 202.117 17.2267 198.566 23.5475 192.245C29.8683 185.925 33.4193 177.352 33.4193 168.413H-0.285156" fill="#212152"/>
<path d="M33.4193 168.414H-0.285156V134.71H33.4193V168.414Z" fill="#4D4DC7"/>
<path d="M-0.285156 134.71C8.65383 134.71 17.2267 138.261 23.5475 144.582C29.8683 150.902 33.4193 159.475 33.4193 168.414H-0.285156" fill="#212152"/>
<path d="M100.831 202.117H33.4219V134.709H100.831V202.117Z" fill="#212152"/>
<path d="M33.4219 202.117H100.831V134.709L33.4219 202.117Z" fill="#212152"/>
<path d="M168.239 202.117H100.828V134.707H168.239V202.117Z" fill="#7272C5"/>
<path d="M134.533 202.117H100.828V168.413H134.533V202.117Z" fill="#3F3F9C"/>
<path d="M100.828 202.117C109.767 202.117 118.34 198.566 124.661 192.245C130.982 185.925 134.533 177.352 134.533 168.413H100.828" fill="#212152"/>
<path d="M269.359 134.703C278.298 134.703 286.871 131.152 293.192 124.831C299.513 118.511 303.064 109.938 303.064 100.999H269.359" fill="#212152"/>
<path d="M168.236 202.117H134.531V168.413H168.236V202.117Z" fill="#212152"/>
<path d="M134.531 168.413C134.531 177.352 138.082 185.925 144.403 192.245C150.724 198.566 159.297 202.117 168.236 202.117V168.413" fill="#212152"/>
<path d="M134.533 168.414H100.828V134.71H134.533V168.414Z" fill="#4D4DC7"/>
<path d="M100.828 134.71C109.767 134.71 118.34 138.261 124.661 144.582C130.982 150.902 134.533 159.475 134.533 168.414H100.828" fill="#3F3F9C"/>
<path d="M168.236 168.414H134.531V134.71H168.236V168.414Z" fill="#4D4DC7"/>
<path d="M134.531 168.414C134.531 159.475 138.082 150.902 144.403 144.582C150.724 138.261 159.297 134.71 168.236 134.71V168.414" fill="#F3BE00"/>
<path d="M201.943 202.117H168.238V168.413H201.943V202.117Z" fill="#3F3F9C"/>
<path d="M168.238 168.413C168.238 177.352 171.789 185.925 178.11 192.245C184.431 198.566 193.004 202.117 201.943 202.117V193.691C195.239 193.691 188.809 191.028 184.068 186.287C179.328 181.547 176.664 175.117 176.664 168.413" fill="#F3BE00"/>
<path d="M201.945 202.117C210.884 202.117 219.457 198.566 225.778 192.245C232.099 185.925 235.65 177.352 235.65 168.413H227.224C227.224 175.117 224.56 181.547 219.82 186.287C215.079 191.028 208.65 193.691 201.945 193.691" fill="#F3BE00"/>
<path d="M201.943 168.414H168.238V134.71H201.943V168.414Z" fill="#4D4DC7"/>
<path d="M168.238 168.414C168.238 159.475 171.789 150.902 178.11 144.582C184.431 138.261 193.004 134.71 201.943 134.71V143.136C195.239 143.136 188.809 145.799 184.068 150.54C179.328 155.28 176.664 161.71 176.664 168.414" fill="#4D4DC7"/>
<path d="M235.65 168.414H201.945V134.71H235.65V168.414Z" fill="#212152"/>
<path d="M201.945 134.71C210.884 134.71 219.457 138.261 225.778 144.582C232.099 150.902 235.65 159.475 235.65 168.414H227.224C227.224 161.71 224.56 155.28 219.82 150.54C215.079 145.799 208.65 143.136 201.945 143.136" fill="#4D4DC7"/>
<path d="M33.4193 134.703H-0.285156V100.999H33.4193V134.703Z" fill="#4D4DC7"/>
<path d="M-0.285156 134.703C8.65383 134.703 17.2267 131.152 23.5475 124.831C29.8683 118.511 33.4193 109.938 33.4193 100.999H-0.285156" fill="#3F3F9C"/>
<path d="M67.1264 134.703H33.4219V100.999H67.1264V134.703Z" fill="#212152"/>
<path d="M33.4219 134.703C42.3609 134.703 50.9337 131.152 57.2545 124.831C63.5754 118.511 67.1264 109.938 67.1264 100.999H33.4219" fill="#F3BE00"/>
<path d="M100.829 134.703H67.125V100.999H100.829V134.703Z" fill="#212152"/>
<path d="M67.125 100.999C67.125 109.938 70.676 118.511 76.9968 124.831C83.3176 131.152 91.8905 134.703 100.829 134.703V100.999" fill="#F3BE00"/>
<path d="M134.533 134.703H100.828V100.999H134.533V134.703Z" fill="#F3BE00"/>
<path d="M235.884 134.703H202.18V100.999H235.884V134.703Z" fill="#F3BE00"/>
<path d="M201.884 134.703H168.18V100.999H201.884V134.703Z" fill="#F3BE00"/>
<path d="M134.533 134.703V100.999H100.828L134.533 134.703Z" fill="#3F3F9C"/>
<path d="M168.236 134.703H134.531V100.999H168.236V134.703Z" fill="#212152"/>
<path d="M134.531 134.703L168.236 100.999H134.531V134.703Z" fill="#4D4DC7"/>
<path d="M168.18 135.117C168.18 126.178 171.731 117.605 178.052 111.285C184.372 104.964 192.945 101.413 201.884 101.413V109.839C195.18 109.839 188.75 112.502 184.01 117.243C179.269 121.983 176.606 128.413 176.606 135.117" fill="#4D4DC7"/>
</svg>
