<svg width="768" height="768" viewBox="0 0 768 768" fill="none" xmlns="http://www.w3.org/2000/svg">
<mask id="mask0_2822_5526" style="mask-type:alpha" maskUnits="userSpaceOnUse" x="0" y="0" width="768" height="768">
<mask id="path-1-outside-1_2822_5526" maskUnits="userSpaceOnUse" x="0" y="0" width="768" height="768" fill="black">
<rect fill="white" width="768" height="768"/>
<path fill-rule="evenodd" clip-rule="evenodd" d="M707.55 401.223C707.849 395.52 708 389.777 708 384C708 205.06 562.94 60 384 60C205.06 60 60 205.06 60 384C60 389.798 60.1523 395.56 60.4531 401.283V707.547H366.731C372.449 707.847 378.207 707.999 384 707.999C389.793 707.999 395.551 707.847 401.269 707.547H707.55V401.223Z"/>
</mask>
<path d="M707.55 401.223L647.632 398.085L647.55 399.653V401.223H707.55ZM60.4531 401.283H120.453V399.708L120.37 398.134L60.4531 401.283ZM60.4531 707.547H0.453125V767.547H60.4531V707.547ZM366.731 707.547L369.878 647.629L368.306 647.547H366.731V707.547ZM401.269 707.547V647.547H399.694L398.122 647.629L401.269 707.547ZM707.55 707.547V767.547H767.55V707.547H707.55ZM648 384C648 388.73 647.876 393.426 647.632 398.085L767.468 404.361C767.821 397.613 768 390.825 768 384H648ZM384 120C529.803 120 648 238.197 648 384H768C768 171.922 596.077 0 384 0V120ZM120 384C120 238.197 238.197 120 384 120V0C171.923 0 0 171.922 0 384H120ZM120.37 398.134C120.125 393.459 120 388.747 120 384H0C0 390.849 0.179913 397.661 0.535835 404.433L120.37 398.134ZM120.453 707.547V401.283H0.453125V707.547H120.453ZM366.731 647.547H60.4531V767.547H366.731V647.547ZM384 647.999C379.257 647.999 374.549 647.875 369.878 647.629L363.585 767.464C370.35 767.82 377.157 767.999 384 767.999V647.999ZM398.122 647.629C393.451 647.875 388.743 647.999 384 647.999V767.999C390.843 767.999 397.65 767.82 404.415 767.464L398.122 647.629ZM707.55 647.547H401.269V767.547H707.55V647.547ZM647.55 401.223V707.547H767.55V401.223H647.55Z" fill="#F02C2C" mask="url(#path-1-outside-1_2822_5526)"/>
</mask>
<g mask="url(#mask0_2822_5526)">
<path d="M-289.998 -1.50781H384.004V396.901H-289.998V-1.50781Z" fill="#7272C5"/>
<path d="M316.606 -1.50781H384.004V64.8916H316.606V-1.50781Z" fill="#212152"/>
<path d="M384.004 -1.50781H316.606L384.004 64.8916V-1.50781Z" fill="#F3BE00"/>
<path d="M249.207 -1.50781H316.605V64.8916H249.207V-1.50781Z" fill="#4D4DC7"/>
<path d="M249.207 -1.50781H316.605V64.8916H249.207V-1.50781Z" fill="#3F3F9C"/>
<path d="M181.809 -1.50781H249.207V64.8916H181.809V-1.50781Z" fill="#4D4DC7"/>
<path d="M249.207 -1.50781H181.809L249.207 64.8916V-1.50781Z" fill="#F3BE00"/>
<path d="M114.404 -1.50781H181.805V64.8937H114.404V-1.50781Z" fill="#7272C5"/>
<path d="M148.102 -1.50781H181.801V31.6919H148.102V-1.50781Z" fill="#F3BE00"/>
<path d="M181.801 31.6919C181.801 22.8868 178.25 14.4423 171.931 8.21616C165.611 1.99001 157.039 -1.50781 148.102 -1.50781V31.6919" fill="#F3BE00"/>
<path d="M114.402 -1.50781H148.102V31.6919H114.402V-1.50781Z" fill="#4D4DC7"/>
<path d="M148.102 -1.50781C139.164 -1.50781 130.593 1.99001 124.273 8.21616C117.953 14.4423 114.402 22.8868 114.402 31.6919H148.102" fill="#4D4DC7"/>
<path d="M148.102 31.6875H181.801V64.8872H148.102V31.6875Z" fill="#F3BE00"/>
<path d="M181.801 31.6875C181.801 40.4926 178.25 48.9371 171.931 55.1633C165.611 61.3894 157.039 64.8872 148.102 64.8872V31.6875" fill="#4D4DC7"/>
<path d="M114.402 31.6875H148.102V64.8872H114.402V31.6875Z" fill="#212152"/>
<path d="M148.102 64.8872C139.164 64.8872 130.593 61.3894 124.273 55.1633C117.953 48.9371 114.402 40.4926 114.402 31.6875H148.102" fill="#F3BE00"/>
<path d="M47.0042 -1.50781H114.402V64.8916H47.0042V-1.50781Z" fill="#3F3F9C"/>
<path d="M47.0042 -1.50781V64.8916H114.402L47.0042 -1.50781Z" fill="#212152"/>
<path d="M-20.3943 -1.50781H47.0039V64.8916H-20.3943V-1.50781Z" fill="#3F3F9C"/>
<path d="M47.0039 -1.50781C47.0039 7.21189 45.2606 15.8462 41.8735 23.9022C38.4864 31.9581 33.5219 39.2779 27.2634 45.4437C21.0049 51.6095 13.575 56.5004 5.39788 59.8373C-2.77924 63.1742 -11.5434 64.8916 -20.3943 64.8916V-1.50781" fill="#4D4DC7"/>
<path d="M316.604 64.8906H384.004V131.292H316.604V64.8906Z" fill="#7272C5"/>
<path d="M350.305 64.8906H384.004V98.0904H350.305V64.8906Z" fill="#3F3F9C"/>
<path d="M350.305 64.8906V98.0904H384.004L350.305 64.8906Z" fill="#212152"/>
<path d="M316.606 64.8906H350.305V98.0904H316.606V64.8906Z" fill="#3F3F9C"/>
<path d="M350.305 64.8906L316.606 98.0904H350.305V64.8906Z" fill="#212152"/>
<path d="M350.305 98.0859H384.004V131.286H350.305V98.0859Z" fill="#3F3F9C"/>
<path d="M384.004 98.0859H350.305V131.286L384.004 98.0859Z" fill="#4D4DC7"/>
<path d="M316.606 98.0859H350.305V131.286H316.606V98.0859Z" fill="#F3BE00"/>
<path d="M350.305 98.0859H316.606L350.305 131.286V98.0859Z" fill="#4D4DC7"/>
<path d="M249.205 64.8906H316.605V131.292H249.205V64.8906Z" fill="#7272C5"/>
<path d="M282.906 64.8906H316.605V98.0904H282.906V64.8906Z" fill="#212152"/>
<path d="M316.605 98.0904C316.605 89.2852 313.055 80.8408 306.735 74.6146C300.415 68.3884 291.844 64.8906 282.906 64.8906V98.0904" fill="#F3BE00"/>
<path d="M249.207 64.8906H282.906V98.0904H249.207V64.8906Z" fill="#F3BE00"/>
<path d="M282.906 64.8906C273.969 64.8906 265.397 68.3884 259.077 74.6146C252.758 80.8408 249.207 89.2852 249.207 98.0904H282.906" fill="#3F3F9C"/>
<path d="M282.906 98.0859H316.605V131.286H282.906V98.0859Z" fill="#F3BE00"/>
<path d="M316.605 98.0859C316.605 106.891 313.055 115.336 306.735 121.562C300.415 127.788 291.844 131.286 282.906 131.286V98.0859" fill="#4D4DC7"/>
<path d="M249.207 98.0859H282.906V131.286H249.207V98.0859Z" fill="#F3BE00"/>
<path d="M282.906 131.286C273.969 131.286 265.397 127.788 259.077 121.562C252.758 115.336 249.207 106.891 249.207 98.0859H282.906" fill="#3F3F9C"/>
<path d="M181.809 64.8906H249.207V131.29H181.809V64.8906Z" fill="#3F3F9C"/>
<path d="M249.207 64.8906H181.809L249.207 131.29V64.8906Z" fill="#3F3F9C"/>
<path d="M114.404 64.8906H181.805V131.292H114.404V64.8906Z" fill="#7272C5"/>
<path d="M148.102 64.8906H181.801V98.0904H148.102V64.8906Z" fill="#212152"/>
<path d="M148.102 64.8906V98.0904H181.801L148.102 64.8906Z" fill="#212152"/>
<path d="M114.402 64.8906H148.102V98.0904H114.402V64.8906Z" fill="#F3BE00"/>
<path d="M148.102 64.8906L114.402 98.0904H148.102V64.8906Z" fill="#F3BE00"/>
<path d="M148.102 98.0859H181.801V131.286H148.102V98.0859Z" fill="#212152"/>
<path d="M181.801 98.0859H148.102V131.286L181.801 98.0859Z" fill="#212152"/>
<path d="M114.402 98.0859H148.102V131.286H114.402V98.0859Z" fill="#212152"/>
<path d="M148.102 98.0859H114.402L148.102 131.286V98.0859Z" fill="#212152"/>
<path d="M47.0021 64.8906H114.402V131.292H47.0021V64.8906Z" fill="#7272C5"/>
<path d="M80.7033 64.8906H114.402V98.0904H80.7033V64.8906Z" fill="#3F3F9C"/>
<path d="M97.5528 98.0904C88.2471 98.0904 80.7033 90.6583 80.7033 81.4905C80.7033 72.3226 88.2471 64.8906 97.5528 64.8906C106.859 64.8906 114.402 72.3226 114.402 81.4905C114.402 90.6583 106.859 98.0904 97.5528 98.0904Z" fill="#4D4DC7"/>
<path d="M47.0041 64.8906H80.7031V98.0904H47.0041V64.8906Z" fill="#212152"/>
<path d="M47.0041 64.8906H80.7031V98.0904H47.0041V64.8906Z" fill="#F3BE00"/>
<path d="M80.7033 98.0859H114.402V131.286H80.7033V98.0859Z" fill="#F3BE00"/>
<path d="M97.5528 131.286C88.2471 131.286 80.7033 123.854 80.7033 114.686C80.7033 105.518 88.2471 98.0859 97.5528 98.0859C106.859 98.0859 114.402 105.518 114.402 114.686C114.402 123.854 106.859 131.286 97.5528 131.286Z" fill="#212152"/>
<path d="M47.0041 98.0859H80.7031V131.286H47.0041V98.0859Z" fill="#4D4DC7"/>
<path d="M47.0041 98.0859H80.7031V131.286H47.0041V98.0859Z" fill="#F3BE00"/>
<path d="M-20.3943 64.8906H47.0039V131.29H-20.3943V64.8906Z" fill="#3F3F9C"/>
<path d="M47.0039 131.29C47.0039 122.57 45.2606 113.936 41.8735 105.88C38.4864 97.8242 33.5219 90.5043 27.2634 84.3386C21.0049 78.1728 13.575 73.2819 5.39788 69.945C-2.77924 66.6081 -11.5434 64.8906 -20.3943 64.8906V131.29" fill="#212152"/>
<path d="M316.604 131.289H384.004V197.691H316.604V131.289Z" fill="#7272C5"/>
<path d="M350.305 131.289H384.004V164.489H350.305V131.289Z" fill="#212152"/>
<path d="M384.004 131.289C375.066 131.289 366.495 134.787 360.175 141.013C353.855 147.239 350.305 155.684 350.305 164.489H384.004" fill="#F3BE00"/>
<path d="M316.606 131.289H350.305V164.489H316.606V131.289Z" fill="#F3BE00"/>
<path d="M350.305 164.489C350.305 155.684 346.754 147.239 340.434 141.013C334.115 134.787 325.543 131.289 316.606 131.289V164.489" fill="#4D4DC7"/>
<path d="M350.305 164.5H384.004V197.7H350.305V164.5Z" fill="#F3BE00"/>
<path d="M384.004 197.7C375.066 197.7 366.495 194.202 360.175 187.976C353.855 181.75 350.305 173.305 350.305 164.5H384.004" fill="#3F3F9C"/>
<path d="M316.606 164.5H350.305V197.7H316.606V164.5Z" fill="#212152"/>
<path d="M350.305 164.5C350.305 173.305 346.754 181.75 340.434 187.976C334.115 194.202 325.543 197.7 316.606 197.7V164.5" fill="#F3BE00"/>
<path d="M249.207 131.289H316.605V197.689H249.207V131.289Z" fill="#3F3F9C"/>
<path d="M316.605 131.289C298.73 131.289 281.587 138.285 268.948 150.737C256.308 163.189 249.207 180.078 249.207 197.689L316.605 131.289C316.605 148.899 309.505 165.788 296.865 178.241C284.225 190.693 267.082 197.689 249.207 197.689" fill="#212152"/>
<path d="M181.803 131.289H249.203V197.691H181.803V131.289Z" fill="#7272C5"/>
<path d="M215.508 131.289H249.207V164.489H215.508V131.289Z" fill="#4D4DC7"/>
<path d="M215.508 131.289V164.489H249.207L215.508 131.289Z" fill="#4D4DC7"/>
<path d="M181.801 131.289H215.5V164.489H181.801V131.289Z" fill="#4D4DC7"/>
<path d="M215.5 131.289L181.801 164.489H215.5V131.289Z" fill="#F3BE00"/>
<path d="M215.508 164.5H249.207V197.7H215.508V164.5Z" fill="#212152"/>
<path d="M249.207 164.5H215.508L249.207 197.7V164.5Z" fill="#4D4DC7"/>
<path d="M181.801 164.5H215.5V197.7H181.801V164.5Z" fill="#4D4DC7"/>
<path d="M215.5 164.5H181.801V197.7L215.5 164.5Z" fill="#212152"/>
<path d="M114.404 131.289H181.805V197.691H114.404V131.289Z" fill="#7272C5"/>
<path d="M148.102 131.289H181.801V164.489H148.102V131.289Z" fill="#F3BE00"/>
<path d="M164.951 164.489C155.645 164.489 148.102 157.057 148.102 147.889C148.102 138.721 155.645 131.289 164.951 131.289C174.257 131.289 181.801 138.721 181.801 147.889C181.801 157.057 174.257 164.489 164.951 164.489Z" fill="#212152"/>
<path d="M114.402 131.289H148.102V164.489H114.402V131.289Z" fill="#F3BE00"/>
<path d="M114.402 131.289H148.102V164.489H114.402V131.289Z" fill="#212152"/>
<path d="M148.102 164.5H181.801V197.7H148.102V164.5Z" fill="#3F3F9C"/>
<path d="M164.951 197.7C155.645 197.7 148.102 190.268 148.102 181.1C148.102 171.932 155.645 164.5 164.951 164.5C174.257 164.5 181.801 171.932 181.801 181.1C181.801 190.268 174.257 197.7 164.951 197.7Z" fill="#F3BE00"/>
<path d="M114.402 164.5H148.102V197.7H114.402V164.5Z" fill="#F3BE00"/>
<path d="M114.402 164.5H148.102V197.7H114.402V164.5Z" fill="#3F3F9C"/>
<path d="M47.0042 131.289H114.402V197.689H47.0042V131.289Z" fill="#4D4DC7"/>
<path d="M47.0042 131.289V197.689H114.402L47.0042 131.289Z" fill="#F3BE00"/>
<path d="M-20.3943 131.289H47.0039V197.689H-20.3943V131.289Z" fill="#F3BE00"/>
<path d="M47.0039 131.289H-20.3943L47.0039 197.689V131.289Z" fill="#4D4DC7"/>
<path d="M316.604 197.703H384.004V264.105H316.604V197.703Z" fill="#7272C5"/>
<path d="M350.305 197.703H384.004V230.903H350.305V197.703Z" fill="#4D4DC7"/>
<path d="M384.004 197.703C375.066 197.703 366.495 201.201 360.175 207.427C353.855 213.653 350.305 222.098 350.305 230.903H384.004" fill="#212152"/>
<path d="M316.606 197.703H350.305V230.903H316.606V197.703Z" fill="#4D4DC7"/>
<path d="M350.305 230.903C350.305 222.098 346.754 213.653 340.434 207.427C334.115 201.201 325.543 197.703 316.606 197.703V230.903" fill="#212152"/>
<path d="M350.305 230.906H384.004V264.106H350.305V230.906Z" fill="#3F3F9C"/>
<path d="M384.004 264.106C375.066 264.106 366.495 260.608 360.175 254.382C353.855 248.156 350.305 239.711 350.305 230.906H384.004" fill="#F3BE00"/>
<path d="M316.606 230.906H350.305V264.106H316.606V230.906Z" fill="#212152"/>
<path d="M350.305 230.906C350.305 239.711 346.754 248.156 340.434 254.382C334.115 260.608 325.543 264.106 316.606 264.106V230.906" fill="#3F3F9C"/>
<path d="M249.205 197.703H316.605V264.105H249.205V197.703Z" fill="#7272C5"/>
<path d="M282.906 197.703H316.605V230.903H282.906V197.703Z" fill="#F3BE00"/>
<path d="M282.906 197.703V230.903H316.605L282.906 197.703Z" fill="#F3BE00"/>
<path d="M249.207 197.703H282.906V230.903H249.207V197.703Z" fill="#3F3F9C"/>
<path d="M282.906 197.703H249.207L282.906 230.903V197.703Z" fill="#F3BE00"/>
<path d="M282.906 230.906H316.605V264.106H282.906V230.906Z" fill="#3F3F9C"/>
<path d="M316.605 230.906H282.906V264.106L316.605 230.906Z" fill="#4D4DC7"/>
<path d="M249.207 230.906H282.906V264.106H249.207V230.906Z" fill="#3F3F9C"/>
<path d="M282.906 230.906L249.207 264.106H282.906V230.906Z" fill="#4D4DC7"/>
<path d="M181.803 197.703H249.203V264.105H181.803V197.703Z" fill="#7272C5"/>
<path d="M215.508 197.703H249.207V230.903H215.508V197.703Z" fill="#212152"/>
<path d="M215.508 197.703V230.903H249.207L215.508 197.703Z" fill="#4D4DC7"/>
<path d="M181.801 197.703H215.5V230.903H181.801V197.703Z" fill="#4D4DC7"/>
<path d="M215.5 197.703H181.801L215.5 230.903V197.703Z" fill="#3F3F9C"/>
<path d="M215.508 230.906H249.207V264.106H215.508V230.906Z" fill="#F3BE00"/>
<path d="M249.207 230.906H215.508V264.106L249.207 230.906Z" fill="#212152"/>
<path d="M181.801 230.906H215.5V264.106H181.801V230.906Z" fill="#3F3F9C"/>
<path d="M215.5 230.906L181.801 264.106H215.5V230.906Z" fill="#212152"/>
<path d="M114.404 197.703H181.805V264.105H114.404V197.703Z" fill="#7272C5"/>
<path d="M148.102 197.703H181.801V230.903H148.102V197.703Z" fill="#4D4DC7"/>
<path d="M181.801 230.903C181.801 222.098 178.25 213.653 171.931 207.427C165.611 201.201 157.039 197.703 148.102 197.703V206.003C154.805 206.003 161.233 208.626 165.973 213.296C170.713 217.966 173.376 224.299 173.376 230.903" fill="#212152"/>
<path d="M114.402 197.703H148.102V230.903H114.402V197.703Z" fill="#F3BE00"/>
<path d="M148.102 197.703C139.164 197.703 130.593 201.201 124.273 207.427C117.953 213.653 114.402 222.098 114.402 230.903H122.827C122.827 224.299 125.49 217.966 130.23 213.296C134.97 208.626 141.398 206.003 148.102 206.003" fill="#4D4DC7"/>
<path d="M148.102 230.906H181.801V264.106H148.102V230.906Z" fill="#F3BE00"/>
<path d="M181.801 230.906C181.801 239.711 178.25 248.156 171.931 254.382C165.611 260.608 157.039 264.106 148.102 264.106V255.806C154.805 255.806 161.233 253.183 165.973 248.513C170.713 243.843 173.376 237.51 173.376 230.906" fill="#212152"/>
<path d="M114.402 230.906H148.102V264.106H114.402V230.906Z" fill="#3F3F9C"/>
<path d="M148.102 264.106C139.164 264.106 130.593 260.608 124.273 254.382C117.953 248.156 114.402 239.711 114.402 230.906H122.827C122.827 237.51 125.49 243.843 130.23 248.513C134.97 253.183 141.398 255.806 148.102 255.806" fill="#F3BE00"/>
<path d="M47.0021 197.703H114.402V264.105H47.0021V197.703Z" fill="#7272C5"/>
<path d="M80.7033 197.703H114.402V230.903H80.7033V197.703Z" fill="#F3BE00"/>
<path d="M114.402 197.703C105.465 197.703 96.8933 201.201 90.5735 207.427C84.2537 213.653 80.7033 222.098 80.7033 230.903H114.402" fill="#3F3F9C"/>
<path d="M47.0041 197.703H80.7031V230.903H47.0041V197.703Z" fill="#F3BE00"/>
<path d="M80.7031 230.903C80.7031 222.098 77.1527 213.653 70.8329 207.427C64.5131 201.201 55.9416 197.703 47.0041 197.703V230.903" fill="#3F3F9C"/>
<path d="M80.7033 230.906H114.402V264.106H80.7033V230.906Z" fill="#3F3F9C"/>
<path d="M114.402 264.106C105.465 264.106 96.8933 260.608 90.5735 254.382C84.2537 248.156 80.7033 239.711 80.7033 230.906H114.402" fill="#212152"/>
<path d="M47.0041 230.906H80.7031V264.106H47.0041V230.906Z" fill="#212152"/>
<path d="M80.7031 230.906C80.7031 239.711 77.1527 248.156 70.8329 254.382C64.5131 260.608 55.9416 264.106 47.0041 264.106V230.906" fill="#212152"/>
<path d="M-20.3963 197.703H47.0039V264.105H-20.3963V197.703Z" fill="#7272C5"/>
<path d="M13.3048 197.703H47.0039V230.903H13.3048V197.703Z" fill="#4D4DC7"/>
<path d="M13.3048 197.703V230.903H47.0039L13.3048 197.703Z" fill="#4D4DC7"/>
<path d="M-20.3944 197.703H13.3047V230.903H-20.3944V197.703Z" fill="#F3BE00"/>
<path d="M13.3047 197.703L-20.3944 230.903H13.3047V197.703Z" fill="#F3BE00"/>
<path d="M13.3048 230.906H47.0039V264.106H13.3048V230.906Z" fill="#3F3F9C"/>
<path d="M47.0039 230.906H13.3048V264.106L47.0039 230.906Z" fill="#212152"/>
<path d="M-20.3944 230.906H13.3047V264.106H-20.3944V230.906Z" fill="#3F3F9C"/>
<path d="M13.3047 230.906H-20.3944L13.3047 264.106V230.906Z" fill="#4D4DC7"/>
<path d="M316.606 264.094H384.004V330.493H316.606V264.094Z" fill="#212152"/>
<path d="M316.606 264.094H384.004V330.493H316.606V264.094Z" fill="#4D4DC7"/>
<path d="M249.207 264.094H316.605V330.493H249.207V264.094Z" fill="#F3BE00"/>
<path d="M316.605 330.493C316.605 312.883 309.505 295.994 296.865 283.542C284.225 271.089 267.082 264.094 249.207 264.094V330.493" fill="#3F3F9C"/>
<path d="M181.803 264.094H249.203V330.495H181.803V264.094Z" fill="#7272C5"/>
<path d="M215.508 264.094H249.207V297.293H215.508V264.094Z" fill="#3F3F9C"/>
<path d="M249.207 297.293C249.207 288.488 245.657 280.044 239.337 273.818C233.017 267.592 224.445 264.094 215.508 264.094V297.293" fill="#4D4DC7"/>
<path d="M181.801 264.094H215.5V297.293H181.801V264.094Z" fill="#4D4DC7"/>
<path d="M215.5 264.094C206.562 264.094 197.991 267.592 191.671 273.818C185.351 280.044 181.801 288.488 181.801 297.293H215.5" fill="#212152"/>
<path d="M215.508 297.297H249.207V330.497H215.508V297.297Z" fill="#4D4DC7"/>
<path d="M249.207 297.297C249.207 306.102 245.657 314.546 239.337 320.773C233.017 326.999 224.445 330.497 215.508 330.497V297.297" fill="#F3BE00"/>
<path d="M181.801 297.297H215.5V330.497H181.801V297.297Z" fill="#4D4DC7"/>
<path d="M215.5 330.497C206.562 330.497 197.991 326.999 191.671 320.773C185.351 314.546 181.801 306.102 181.801 297.297H215.5" fill="#212152"/>
<path d="M114.403 264.094H181.801V330.493H114.403V264.094Z" fill="#212152"/>
<path d="M181.801 264.094H114.403V330.493L181.801 264.094Z" fill="#212152"/>
<path d="M47.0021 264.094H114.402V330.495H47.0021V264.094Z" fill="#7272C5"/>
<path d="M80.7033 264.094H114.402V297.293H80.7033V264.094Z" fill="#3F3F9C"/>
<path d="M114.402 264.094C105.465 264.094 96.8933 267.592 90.5735 273.818C84.2537 280.044 80.7033 288.488 80.7033 297.293H114.402" fill="#212152"/>
<path d="M47.0041 264.094H80.7031V297.293H47.0041V264.094Z" fill="#212152"/>
<path d="M80.7031 297.293C80.7031 288.488 77.1527 280.044 70.8329 273.818C64.5131 267.592 55.9416 264.094 47.0041 264.094V297.293" fill="#212152"/>
<path d="M80.7033 297.297H114.402V330.497H80.7033V297.297Z" fill="#4D4DC7"/>
<path d="M114.402 330.497C105.465 330.497 96.8933 326.999 90.5735 320.773C84.2537 314.546 80.7033 306.102 80.7033 297.297H114.402" fill="#3F3F9C"/>
<path d="M47.0041 297.297H80.7031V330.497H47.0041V297.297Z" fill="#4D4DC7"/>
<path d="M80.7031 297.297C80.7031 306.102 77.1527 314.546 70.8329 320.773C64.5131 326.999 55.9416 330.497 47.0041 330.497V297.297" fill="#F3BE00"/>
<path d="M-20.3963 264.094H47.0039V330.495H-20.3963V264.094Z" fill="#7272C5"/>
<path d="M13.3048 264.094H47.0039V297.293H13.3048V264.094Z" fill="#3F3F9C"/>
<path d="M47.0039 297.293C47.0039 288.488 43.4535 280.044 37.1337 273.818C30.8139 267.592 22.2424 264.094 13.3048 264.094V272.394C20.008 272.394 26.4366 275.017 31.1765 279.687C35.9163 284.356 38.5791 290.69 38.5791 297.293" fill="#F3BE00"/>
<path d="M-20.3944 264.094H13.3047V297.293H-20.3944V264.094Z" fill="#212152"/>
<path d="M13.3047 264.094C4.36714 264.094 -4.20437 267.592 -10.5242 273.818C-16.844 280.044 -20.3944 288.488 -20.3944 297.293H-11.9696C-11.9696 290.69 -9.30679 284.356 -4.56694 279.687C0.172916 275.017 6.60152 272.394 13.3047 272.394" fill="#F3BE00"/>
<path d="M13.3048 297.297H47.0039V330.497H13.3048V297.297Z" fill="#4D4DC7"/>
<path d="M47.0039 297.297C47.0039 306.102 43.4535 314.546 37.1337 320.773C30.8139 326.999 22.2424 330.497 13.3048 330.497V322.197C20.008 322.197 26.4366 319.573 31.1765 314.904C35.9163 310.234 38.5791 303.901 38.5791 297.297" fill="#4D4DC7"/>
<path d="M-20.3944 297.297H13.3047V330.497H-20.3944V297.297Z" fill="#212152"/>
<path d="M13.3047 330.497C4.36714 330.497 -4.20437 326.999 -10.5242 320.773C-16.844 314.546 -20.3944 306.102 -20.3944 297.297H-11.9696C-11.9696 303.901 -9.30679 310.234 -4.56694 314.904C0.172916 319.573 6.60152 322.197 13.3047 322.197" fill="#4D4DC7"/>
<path d="M316.606 330.5H384.004V396.899H316.606V330.5Z" fill="#212152"/>
<path d="M384.004 330.5C384.004 348.11 376.903 364.999 364.263 377.452C351.624 389.904 334.481 396.899 316.606 396.899V330.5" fill="#212152"/>
<path d="M249.205 330.5H316.605V396.901H249.205V330.5Z" fill="#7272C5"/>
<path d="M282.906 330.5H316.605V363.7H282.906V330.5Z" fill="#212152"/>
<path d="M316.605 330.5C316.605 339.305 313.055 347.75 306.735 353.976C300.415 360.202 291.844 363.7 282.906 363.7V330.5" fill="#F3BE00"/>
<path d="M249.207 330.5H282.906V363.7H249.207V330.5Z" fill="#3F3F9C"/>
<path d="M282.906 363.7C273.969 363.7 265.397 360.202 259.077 353.976C252.758 347.75 249.207 339.305 249.207 330.5H282.906" fill="#F3BE00"/>
<path d="M282.906 363.695H316.605V396.895H282.906V363.695Z" fill="#4D4DC7"/>
<path d="M316.605 396.895C316.605 392.535 315.734 388.218 314.04 384.19C312.347 380.162 309.864 376.502 306.735 373.419C303.606 370.336 299.891 367.891 295.802 366.223C291.714 364.554 287.332 363.695 282.906 363.695V396.895" fill="#F3BE00"/>
<path d="M249.207 363.695H282.906V396.895H249.207V363.695Z" fill="#F3BE00"/>
<path d="M282.906 363.695C278.481 363.695 274.099 364.554 270.01 366.223C265.922 367.891 262.207 370.336 259.077 373.419C255.948 376.502 253.466 380.162 251.772 384.19C250.079 388.218 249.207 392.535 249.207 396.895H282.906" fill="#F3BE00"/>
<path d="M181.803 330.5H249.203V396.901H181.803V330.5Z" fill="#7272C5"/>
<path d="M215.508 330.5H249.207V363.7H215.508V330.5Z" fill="#4D4DC7"/>
<path d="M249.207 363.7C249.207 354.895 245.657 346.45 239.337 340.224C233.017 333.998 224.445 330.5 215.508 330.5V363.7" fill="#212152"/>
<path d="M181.801 330.5H215.5V363.7H181.801V330.5Z" fill="#4D4DC7"/>
<path d="M215.5 330.5C206.562 330.5 197.991 333.998 191.671 340.224C185.351 346.45 181.801 354.895 181.801 363.7H215.5" fill="#3F3F9C"/>
<path d="M215.508 363.695H249.207V396.895H215.508V363.695Z" fill="#4D4DC7"/>
<path d="M249.207 363.695C249.207 372.5 245.657 380.945 239.337 387.171C233.017 393.397 224.445 396.895 215.508 396.895V363.695" fill="#212152"/>
<path d="M181.801 363.695H215.5V396.895H181.801V363.695Z" fill="#212152"/>
<path d="M215.5 396.895C206.562 396.895 197.991 393.397 191.671 387.171C185.351 380.945 181.801 372.5 181.801 363.695H215.5" fill="#3F3F9C"/>
<path d="M114.404 330.5H181.805V396.901H114.404V330.5Z" fill="#7272C5"/>
<path d="M148.102 330.5H181.801V363.7H148.102V330.5Z" fill="#212152"/>
<path d="M181.801 330.5C172.863 330.5 164.292 333.998 157.972 340.224C151.652 346.45 148.102 354.895 148.102 363.7H181.801" fill="#F3BE00"/>
<path d="M114.402 330.5H148.102V363.7H114.402V330.5Z" fill="#212152"/>
<path d="M148.102 363.7C148.102 354.895 144.551 346.45 138.231 340.224C131.912 333.998 123.34 330.5 114.402 330.5V363.7" fill="#F3BE00"/>
<path d="M148.102 363.695H181.801V396.895H148.102V363.695Z" fill="#3F3F9C"/>
<path d="M181.801 396.895C172.863 396.895 164.292 393.397 157.972 387.171C151.652 380.945 148.102 372.5 148.102 363.695H181.801" fill="#212152"/>
<path d="M114.402 363.695H148.102V396.895H114.402V363.695Z" fill="#212152"/>
<path d="M148.102 363.695C148.102 372.5 144.551 380.945 138.231 387.171C131.912 393.397 123.34 396.895 114.402 396.895V363.695" fill="#4D4DC7"/>
<path d="M47.0021 330.5H114.402V396.901H47.0021V330.5Z" fill="#7272C5"/>
<path d="M80.7033 330.5H114.402V363.7H80.7033V330.5Z" fill="#F3BE00"/>
<path d="M80.7033 330.5V363.7H114.402L80.7033 330.5Z" fill="#3F3F9C"/>
<path d="M47.0041 330.5H80.7031V363.7H47.0041V330.5Z" fill="#212152"/>
<path d="M80.7031 330.5L47.0041 363.7H80.7031V330.5Z" fill="#4D4DC7"/>
<path d="M80.7033 363.695H114.402V396.895H80.7033V363.695Z" fill="#212152"/>
<path d="M114.402 363.695H80.7033V396.895L114.402 363.695Z" fill="#3F3F9C"/>
<path d="M47.0041 363.695H80.7031V396.895H47.0041V363.695Z" fill="#212152"/>
<path d="M80.7031 363.695H47.0041L80.7031 396.895V363.695Z" fill="#3F3F9C"/>
<path d="M-20.3943 330.5H47.0039V396.899H-20.3943V330.5Z" fill="#F3BE00"/>
<path d="M47.0039 330.5L-20.3943 396.899H47.0039V330.5Z" fill="#212152"/>
<path d="M1058.01 -1.50781H384.004V396.901H1058.01V-1.50781Z" fill="#7272C5"/>
<path d="M451.402 -1.50781H384.004V64.8916H451.402V-1.50781Z" fill="#212152"/>
<path d="M384.004 -1.50781H451.402L384.004 64.8916V-1.50781Z" fill="#F3BE00"/>
<path d="M518.801 -1.50781H451.402V64.8916H518.801V-1.50781Z" fill="#4D4DC7"/>
<path d="M518.801 -1.50781H451.402V64.8916H518.801V-1.50781Z" fill="#3F3F9C"/>
<path d="M586.199 -1.50781H518.801V64.8916H586.199V-1.50781Z" fill="#4D4DC7"/>
<path d="M518.801 -1.50781H586.199L518.801 64.8916V-1.50781Z" fill="#F3BE00"/>
<path d="M653.603 -1.50781H586.203V64.8937H653.603V-1.50781Z" fill="#7272C5"/>
<path d="M619.91 -1.50781H586.211V31.6919H619.91V-1.50781Z" fill="#F3BE00"/>
<path d="M586.211 31.6919C586.211 22.8868 589.761 14.4423 596.081 8.21616C602.401 1.99001 610.972 -1.50781 619.91 -1.50781V31.6919" fill="#F3BE00"/>
<path d="M653.605 -1.50781H619.906V31.6919H653.605V-1.50781Z" fill="#4D4DC7"/>
<path d="M619.906 -1.50781C628.844 -1.50781 637.415 1.99001 643.735 8.21616C650.055 14.4423 653.605 22.8868 653.605 31.6919H619.906" fill="#4D4DC7"/>
<path d="M619.91 31.6875H586.211V64.8872H619.91V31.6875Z" fill="#F3BE00"/>
<path d="M586.211 31.6875C586.211 40.4926 589.761 48.9371 596.081 55.1633C602.401 61.3894 610.972 64.8872 619.91 64.8872V31.6875" fill="#4D4DC7"/>
<path d="M653.605 31.6875H619.906V64.8872H653.605V31.6875Z" fill="#212152"/>
<path d="M619.906 64.8872C628.844 64.8872 637.415 61.3894 643.735 55.1633C650.055 48.9371 653.605 40.4926 653.605 31.6875H619.906" fill="#F3BE00"/>
<path d="M721.004 -1.50781H653.605V64.8916H721.004V-1.50781Z" fill="#3F3F9C"/>
<path d="M721.004 -1.50781V64.8916H653.605L721.004 -1.50781Z" fill="#212152"/>
<path d="M788.402 -1.50781H721.004V64.8916H788.402V-1.50781Z" fill="#3F3F9C"/>
<path d="M721.004 -1.50781C721.004 7.21189 722.747 15.8462 726.134 23.9022C729.521 31.9581 734.486 39.2779 740.744 45.4437C747.003 51.6095 754.433 56.5004 762.61 59.8373C770.787 63.1742 779.551 64.8916 788.402 64.8916V-1.50781" fill="#4D4DC7"/>
<path d="M451.404 64.8906H384.004V131.292H451.404V64.8906Z" fill="#7272C5"/>
<path d="M417.703 64.8906H384.004V98.0904H417.703V64.8906Z" fill="#3F3F9C"/>
<path d="M417.703 64.8906V98.0904H384.004L417.703 64.8906Z" fill="#212152"/>
<path d="M451.402 64.8906H417.703V98.0904H451.402V64.8906Z" fill="#3F3F9C"/>
<path d="M417.703 64.8906L451.402 98.0904H417.703V64.8906Z" fill="#212152"/>
<path d="M417.703 98.0859H384.004V131.286H417.703V98.0859Z" fill="#3F3F9C"/>
<path d="M384.004 98.0859H417.703V131.286L384.004 98.0859Z" fill="#4D4DC7"/>
<path d="M451.402 98.0859H417.703V131.286H451.402V98.0859Z" fill="#F3BE00"/>
<path d="M417.703 98.0859H451.402L417.703 131.286V98.0859Z" fill="#4D4DC7"/>
<path d="M518.803 64.8906H451.402V131.292H518.803V64.8906Z" fill="#7272C5"/>
<path d="M485.101 64.8906H451.402V98.0904H485.101V64.8906Z" fill="#212152"/>
<path d="M451.402 98.0904C451.402 89.2852 454.953 80.8408 461.273 74.6146C467.592 68.3884 476.164 64.8906 485.101 64.8906V98.0904" fill="#F3BE00"/>
<path d="M518.801 64.8906H485.102V98.0904H518.801V64.8906Z" fill="#F3BE00"/>
<path d="M485.102 64.8906C494.039 64.8906 502.611 68.3884 508.93 74.6146C515.25 80.8408 518.801 89.2852 518.801 98.0904H485.102" fill="#3F3F9C"/>
<path d="M485.101 98.0859H451.402V131.286H485.101V98.0859Z" fill="#F3BE00"/>
<path d="M451.402 98.0859C451.402 106.891 454.953 115.336 461.273 121.562C467.592 127.788 476.164 131.286 485.101 131.286V98.0859" fill="#4D4DC7"/>
<path d="M518.801 98.0859H485.102V131.286H518.801V98.0859Z" fill="#F3BE00"/>
<path d="M485.102 131.286C494.039 131.286 502.611 127.788 508.93 121.562C515.25 115.336 518.801 106.891 518.801 98.0859H485.102" fill="#3F3F9C"/>
<path d="M586.199 64.8906H518.801V131.29H586.199V64.8906Z" fill="#3F3F9C"/>
<path d="M518.801 64.8906H586.199L518.801 131.29V64.8906Z" fill="#3F3F9C"/>
<path d="M653.603 64.8906H586.203V131.292H653.603V64.8906Z" fill="#7272C5"/>
<path d="M619.91 64.8906H586.211V98.0904H619.91V64.8906Z" fill="#212152"/>
<path d="M619.91 64.8906V98.0904H586.211L619.91 64.8906Z" fill="#212152"/>
<path d="M653.605 64.8906H619.906V98.0904H653.605V64.8906Z" fill="#F3BE00"/>
<path d="M619.906 64.8906L653.605 98.0904H619.906V64.8906Z" fill="#F3BE00"/>
<path d="M619.91 98.0859H586.211V131.286H619.91V98.0859Z" fill="#212152"/>
<path d="M586.211 98.0859H619.91V131.286L586.211 98.0859Z" fill="#212152"/>
<path d="M653.605 98.0859H619.906V131.286H653.605V98.0859Z" fill="#212152"/>
<path d="M619.906 98.0859H653.605L619.906 131.286V98.0859Z" fill="#212152"/>
<path d="M721.006 64.8906H653.605V131.292H721.006V64.8906Z" fill="#7272C5"/>
<path d="M687.305 64.8906H653.605V98.0904H687.305V64.8906Z" fill="#3F3F9C"/>
<path d="M670.455 98.0904C679.761 98.0904 687.305 90.6583 687.305 81.4905C687.305 72.3226 679.761 64.8906 670.455 64.8906C661.149 64.8906 653.605 72.3226 653.605 81.4905C653.605 90.6583 661.149 98.0904 670.455 98.0904Z" fill="#4D4DC7"/>
<path d="M721.004 64.8906H687.305V98.0904H721.004V64.8906Z" fill="#212152"/>
<path d="M721.004 64.8906H687.305V98.0904H721.004V64.8906Z" fill="#F3BE00"/>
<path d="M687.305 98.0859H653.605V131.286H687.305V98.0859Z" fill="#F3BE00"/>
<path d="M670.455 131.286C679.761 131.286 687.305 123.854 687.305 114.686C687.305 105.518 679.761 98.0859 670.455 98.0859C661.149 98.0859 653.605 105.518 653.605 114.686C653.605 123.854 661.149 131.286 670.455 131.286Z" fill="#212152"/>
<path d="M721.004 98.0859H687.305V131.286H721.004V98.0859Z" fill="#4D4DC7"/>
<path d="M721.004 98.0859H687.305V131.286H721.004V98.0859Z" fill="#F3BE00"/>
<path d="M788.402 64.8906H721.004V131.29H788.402V64.8906Z" fill="#3F3F9C"/>
<path d="M721.004 131.29C721.004 122.57 722.747 113.936 726.134 105.88C729.521 97.8242 734.486 90.5043 740.744 84.3386C747.003 78.1728 754.433 73.2819 762.61 69.945C770.787 66.6081 779.551 64.8906 788.402 64.8906V131.29" fill="#212152"/>
<path d="M451.404 131.289H384.004V197.691H451.404V131.289Z" fill="#7272C5"/>
<path d="M417.703 131.289H384.004V164.489H417.703V131.289Z" fill="#212152"/>
<path d="M384.004 131.289C392.941 131.289 401.513 134.787 407.833 141.013C414.153 147.239 417.703 155.684 417.703 164.489H384.004" fill="#F3BE00"/>
<path d="M451.402 131.289H417.703V164.489H451.402V131.289Z" fill="#F3BE00"/>
<path d="M417.703 164.489C417.703 155.684 421.254 147.239 427.573 141.013C433.893 134.787 442.465 131.289 451.402 131.289V164.489" fill="#4D4DC7"/>
<path d="M417.703 164.5H384.004V197.7H417.703V164.5Z" fill="#F3BE00"/>
<path d="M384.004 197.7C392.941 197.7 401.513 194.202 407.833 187.976C414.153 181.75 417.703 173.305 417.703 164.5H384.004" fill="#3F3F9C"/>
<path d="M451.402 164.5H417.703V197.7H451.402V164.5Z" fill="#212152"/>
<path d="M417.703 164.5C417.703 173.305 421.254 181.75 427.573 187.976C433.893 194.202 442.465 197.7 451.402 197.7V164.5" fill="#F3BE00"/>
<path d="M518.801 131.289H451.402V197.689H518.801V131.289Z" fill="#3F3F9C"/>
<path d="M451.402 131.289C469.277 131.289 486.42 138.285 499.06 150.737C511.7 163.189 518.801 180.078 518.801 197.689L451.402 131.289C451.402 148.899 458.503 165.788 471.143 178.241C483.782 190.693 500.925 197.689 518.801 197.689" fill="#212152"/>
<path d="M586.205 131.289H518.805V197.691H586.205V131.289Z" fill="#7272C5"/>
<path d="M552.5 131.289H518.801V164.489H552.5V131.289Z" fill="#4D4DC7"/>
<path d="M552.5 131.289V164.489H518.801L552.5 131.289Z" fill="#4D4DC7"/>
<path d="M586.207 131.289H552.508V164.489H586.207V131.289Z" fill="#4D4DC7"/>
<path d="M552.508 131.289L586.207 164.489H552.508V131.289Z" fill="#F3BE00"/>
<path d="M552.5 164.5H518.801V197.7H552.5V164.5Z" fill="#212152"/>
<path d="M518.801 164.5H552.5L518.801 197.7V164.5Z" fill="#4D4DC7"/>
<path d="M586.207 164.5H552.508V197.7H586.207V164.5Z" fill="#4D4DC7"/>
<path d="M552.508 164.5H586.207V197.7L552.508 164.5Z" fill="#212152"/>
<path d="M653.603 131.289H586.203V197.691H653.603V131.289Z" fill="#7272C5"/>
<path d="M619.91 131.289H586.211V164.489H619.91V131.289Z" fill="#F3BE00"/>
<path d="M603.06 164.489C612.366 164.489 619.91 157.057 619.91 147.889C619.91 138.721 612.366 131.289 603.06 131.289C593.755 131.289 586.211 138.721 586.211 147.889C586.211 157.057 593.755 164.489 603.06 164.489Z" fill="#212152"/>
<path d="M653.605 131.289H619.906V164.489H653.605V131.289Z" fill="#F3BE00"/>
<path d="M653.605 131.289H619.906V164.489H653.605V131.289Z" fill="#212152"/>
<path d="M619.91 164.5H586.211V197.7H619.91V164.5Z" fill="#3F3F9C"/>
<path d="M603.06 197.7C612.366 197.7 619.91 190.268 619.91 181.1C619.91 171.932 612.366 164.5 603.06 164.5C593.755 164.5 586.211 171.932 586.211 181.1C586.211 190.268 593.755 197.7 603.06 197.7Z" fill="#F3BE00"/>
<path d="M653.605 164.5H619.906V197.7H653.605V164.5Z" fill="#F3BE00"/>
<path d="M653.605 164.5H619.906V197.7H653.605V164.5Z" fill="#3F3F9C"/>
<path d="M721.004 131.289H653.605V197.689H721.004V131.289Z" fill="#4D4DC7"/>
<path d="M721.004 131.289V197.689H653.605L721.004 131.289Z" fill="#F3BE00"/>
<path d="M788.402 131.289H721.004V197.689H788.402V131.289Z" fill="#F3BE00"/>
<path d="M721.004 131.289H788.402L721.004 197.689V131.289Z" fill="#4D4DC7"/>
<path d="M451.404 197.703H384.004V264.105H451.404V197.703Z" fill="#7272C5"/>
<path d="M417.703 197.703H384.004V230.903H417.703V197.703Z" fill="#4D4DC7"/>
<path d="M384.004 197.703C392.941 197.703 401.513 201.201 407.833 207.427C414.153 213.653 417.703 222.098 417.703 230.903H384.004" fill="#212152"/>
<path d="M451.402 197.703H417.703V230.903H451.402V197.703Z" fill="#4D4DC7"/>
<path d="M417.703 230.903C417.703 222.098 421.254 213.653 427.573 207.427C433.893 201.201 442.465 197.703 451.402 197.703V230.903" fill="#212152"/>
<path d="M417.703 230.906H384.004V264.106H417.703V230.906Z" fill="#3F3F9C"/>
<path d="M384.004 264.106C392.941 264.106 401.513 260.608 407.833 254.382C414.153 248.156 417.703 239.711 417.703 230.906H384.004" fill="#F3BE00"/>
<path d="M451.402 230.906H417.703V264.106H451.402V230.906Z" fill="#212152"/>
<path d="M417.703 230.906C417.703 239.711 421.254 248.156 427.573 254.382C433.893 260.608 442.465 264.106 451.402 264.106V230.906" fill="#3F3F9C"/>
<path d="M518.803 197.703H451.402V264.105H518.803V197.703Z" fill="#7272C5"/>
<path d="M485.101 197.703H451.402V230.903H485.101V197.703Z" fill="#F3BE00"/>
<path d="M485.101 197.703V230.903H451.402L485.101 197.703Z" fill="#F3BE00"/>
<path d="M518.801 197.703H485.102V230.903H518.801V197.703Z" fill="#3F3F9C"/>
<path d="M485.102 197.703H518.801L485.102 230.903V197.703Z" fill="#F3BE00"/>
<path d="M485.101 230.906H451.402V264.106H485.101V230.906Z" fill="#3F3F9C"/>
<path d="M451.402 230.906H485.101V264.106L451.402 230.906Z" fill="#4D4DC7"/>
<path d="M518.801 230.906H485.102V264.106H518.801V230.906Z" fill="#3F3F9C"/>
<path d="M485.102 230.906L518.801 264.106H485.102V230.906Z" fill="#4D4DC7"/>
<path d="M586.205 197.703H518.805V264.105H586.205V197.703Z" fill="#7272C5"/>
<path d="M552.5 197.703H518.801V230.903H552.5V197.703Z" fill="#212152"/>
<path d="M552.5 197.703V230.903H518.801L552.5 197.703Z" fill="#4D4DC7"/>
<path d="M586.207 197.703H552.508V230.903H586.207V197.703Z" fill="#4D4DC7"/>
<path d="M552.508 197.703H586.207L552.508 230.903V197.703Z" fill="#3F3F9C"/>
<path d="M552.5 230.906H518.801V264.106H552.5V230.906Z" fill="#F3BE00"/>
<path d="M518.801 230.906H552.5V264.106L518.801 230.906Z" fill="#212152"/>
<path d="M586.207 230.906H552.508V264.106H586.207V230.906Z" fill="#3F3F9C"/>
<path d="M552.508 230.906L586.207 264.106H552.508V230.906Z" fill="#212152"/>
<path d="M653.603 197.703H586.203V264.105H653.603V197.703Z" fill="#7272C5"/>
<path d="M619.91 197.703H586.211V230.903H619.91V197.703Z" fill="#4D4DC7"/>
<path d="M586.211 230.903C586.211 222.098 589.761 213.653 596.081 207.427C602.401 201.201 610.972 197.703 619.91 197.703V206.003C613.207 206.003 606.778 208.626 602.038 213.296C597.299 217.966 594.636 224.299 594.636 230.903" fill="#212152"/>
<path d="M653.605 197.703H619.906V230.903H653.605V197.703Z" fill="#F3BE00"/>
<path d="M619.906 197.703C628.844 197.703 637.415 201.201 643.735 207.427C650.055 213.653 653.605 222.098 653.605 230.903H645.181C645.181 224.299 642.518 217.966 637.778 213.296C633.038 208.626 626.609 206.003 619.906 206.003" fill="#4D4DC7"/>
<path d="M619.91 230.906H586.211V264.106H619.91V230.906Z" fill="#F3BE00"/>
<path d="M586.211 230.906C586.211 239.711 589.761 248.156 596.081 254.382C602.401 260.608 610.972 264.106 619.91 264.106V255.806C613.207 255.806 606.778 253.183 602.038 248.513C597.299 243.843 594.636 237.51 594.636 230.906" fill="#212152"/>
<path d="M653.605 230.906H619.906V264.106H653.605V230.906Z" fill="#3F3F9C"/>
<path d="M619.906 264.106C628.844 264.106 637.415 260.608 643.735 254.382C650.055 248.156 653.605 239.711 653.605 230.906H645.181C645.181 237.51 642.518 243.843 637.778 248.513C633.038 253.183 626.609 255.806 619.906 255.806" fill="#F3BE00"/>
<path d="M721.006 197.703H653.605V264.105H721.006V197.703Z" fill="#7272C5"/>
<path d="M687.305 197.703H653.605V230.903H687.305V197.703Z" fill="#F3BE00"/>
<path d="M653.605 197.703C662.543 197.703 671.114 201.201 677.434 207.427C683.754 213.653 687.305 222.098 687.305 230.903H653.605" fill="#3F3F9C"/>
<path d="M721.004 197.703H687.305V230.903H721.004V197.703Z" fill="#F3BE00"/>
<path d="M687.305 230.903C687.305 222.098 690.855 213.653 697.175 207.427C703.495 201.201 712.066 197.703 721.004 197.703V230.903" fill="#3F3F9C"/>
<path d="M687.305 230.906H653.605V264.106H687.305V230.906Z" fill="#3F3F9C"/>
<path d="M653.605 264.106C662.543 264.106 671.114 260.608 677.434 254.382C683.754 248.156 687.305 239.711 687.305 230.906H653.605" fill="#212152"/>
<path d="M721.004 230.906H687.305V264.106H721.004V230.906Z" fill="#212152"/>
<path d="M687.305 230.906C687.305 239.711 690.855 248.156 697.175 254.382C703.495 260.608 712.066 264.106 721.004 264.106V230.906" fill="#212152"/>
<path d="M788.404 197.703H721.004V264.105H788.404V197.703Z" fill="#7272C5"/>
<path d="M754.703 197.703H721.004V230.903H754.703V197.703Z" fill="#4D4DC7"/>
<path d="M754.703 197.703V230.903H721.004L754.703 197.703Z" fill="#4D4DC7"/>
<path d="M788.402 197.703H754.703V230.903H788.402V197.703Z" fill="#F3BE00"/>
<path d="M754.703 197.703L788.402 230.903H754.703V197.703Z" fill="#F3BE00"/>
<path d="M754.703 230.906H721.004V264.106H754.703V230.906Z" fill="#3F3F9C"/>
<path d="M721.004 230.906H754.703V264.106L721.004 230.906Z" fill="#212152"/>
<path d="M788.402 230.906H754.703V264.106H788.402V230.906Z" fill="#3F3F9C"/>
<path d="M754.703 230.906H788.402L754.703 264.106V230.906Z" fill="#4D4DC7"/>
<path d="M451.402 264.094H384.004V330.493H451.402V264.094Z" fill="#212152"/>
<path d="M451.402 264.094H384.004V330.493H451.402V264.094Z" fill="#4D4DC7"/>
<path d="M518.801 264.094H451.402V330.493H518.801V264.094Z" fill="#F3BE00"/>
<path d="M451.402 330.493C451.402 312.883 458.503 295.994 471.143 283.542C483.782 271.089 500.925 264.094 518.801 264.094V330.493" fill="#3F3F9C"/>
<path d="M586.205 264.094H518.805V330.495H586.205V264.094Z" fill="#7272C5"/>
<path d="M552.5 264.094H518.801V297.293H552.5V264.094Z" fill="#3F3F9C"/>
<path d="M518.801 297.293C518.801 288.488 522.351 280.044 528.671 273.818C534.991 267.592 543.562 264.094 552.5 264.094V297.293" fill="#4D4DC7"/>
<path d="M586.207 264.094H552.508V297.293H586.207V264.094Z" fill="#4D4DC7"/>
<path d="M552.508 264.094C561.445 264.094 570.017 267.592 576.337 273.818C582.656 280.044 586.207 288.488 586.207 297.293H552.508" fill="#212152"/>
<path d="M552.5 297.297H518.801V330.497H552.5V297.297Z" fill="#4D4DC7"/>
<path d="M518.801 297.297C518.801 306.102 522.351 314.546 528.671 320.773C534.991 326.999 543.562 330.497 552.5 330.497V297.297" fill="#F3BE00"/>
<path d="M586.207 297.297H552.508V330.497H586.207V297.297Z" fill="#4D4DC7"/>
<path d="M552.508 330.497C561.445 330.497 570.017 326.999 576.337 320.773C582.656 314.546 586.207 306.102 586.207 297.297H552.508" fill="#212152"/>
<path d="M653.609 264.094H586.211V330.493H653.609V264.094Z" fill="#212152"/>
<path d="M586.211 264.094H653.609V330.493L586.211 264.094Z" fill="#212152"/>
<path d="M721.006 264.094H653.605V330.495H721.006V264.094Z" fill="#7272C5"/>
<path d="M687.305 264.094H653.605V297.293H687.305V264.094Z" fill="#3F3F9C"/>
<path d="M653.605 264.094C662.543 264.094 671.114 267.592 677.434 273.818C683.754 280.044 687.305 288.488 687.305 297.293H653.605" fill="#212152"/>
<path d="M721.004 264.094H687.305V297.293H721.004V264.094Z" fill="#212152"/>
<path d="M687.305 297.293C687.305 288.488 690.855 280.044 697.175 273.818C703.495 267.592 712.066 264.094 721.004 264.094V297.293" fill="#212152"/>
<path d="M687.305 297.297H653.605V330.497H687.305V297.297Z" fill="#4D4DC7"/>
<path d="M653.605 330.497C662.543 330.497 671.114 326.999 677.434 320.773C683.754 314.546 687.305 306.102 687.305 297.297H653.605" fill="#3F3F9C"/>
<path d="M721.004 297.297H687.305V330.497H721.004V297.297Z" fill="#4D4DC7"/>
<path d="M687.305 297.297C687.305 306.102 690.855 314.546 697.175 320.773C703.495 326.999 712.066 330.497 721.004 330.497V297.297" fill="#F3BE00"/>
<path d="M788.404 264.094H721.004V330.495H788.404V264.094Z" fill="#7272C5"/>
<path d="M754.703 264.094H721.004V297.293H754.703V264.094Z" fill="#3F3F9C"/>
<path d="M721.004 297.293C721.004 288.488 724.554 280.044 730.874 273.818C737.194 267.592 745.765 264.094 754.703 264.094V272.394C748 272.394 741.571 275.017 736.831 279.687C732.091 284.356 729.429 290.69 729.429 297.293" fill="#F3BE00"/>
<path d="M788.402 264.094H754.703V297.293H788.402V264.094Z" fill="#212152"/>
<path d="M754.703 264.094C763.641 264.094 772.212 267.592 778.532 273.818C784.852 280.044 788.402 288.488 788.402 297.293H779.977C779.977 290.69 777.315 284.356 772.575 279.687C767.835 275.017 761.406 272.394 754.703 272.394" fill="#F3BE00"/>
<path d="M754.703 297.297H721.004V330.497H754.703V297.297Z" fill="#4D4DC7"/>
<path d="M721.004 297.297C721.004 306.102 724.554 314.546 730.874 320.773C737.194 326.999 745.765 330.497 754.703 330.497V322.197C748 322.197 741.571 319.573 736.831 314.904C732.091 310.234 729.429 303.901 729.429 297.297" fill="#4D4DC7"/>
<path d="M788.402 297.297H754.703V330.497H788.402V297.297Z" fill="#212152"/>
<path d="M754.703 330.497C763.641 330.497 772.212 326.999 778.532 320.773C784.852 314.546 788.402 306.102 788.402 297.297H779.977C779.977 303.901 777.315 310.234 772.575 314.904C767.835 319.573 761.406 322.197 754.703 322.197" fill="#4D4DC7"/>
<path d="M451.402 330.5H384.004V396.899H451.402V330.5Z" fill="#212152"/>
<path d="M384.004 330.5C384.004 348.11 391.105 364.999 403.744 377.452C416.384 389.904 433.527 396.899 451.402 396.899V330.5" fill="#212152"/>
<path d="M518.803 330.5H451.402V396.901H518.803V330.5Z" fill="#7272C5"/>
<path d="M485.101 330.5H451.402V363.7H485.101V330.5Z" fill="#212152"/>
<path d="M451.402 330.5C451.402 339.305 454.953 347.75 461.273 353.976C467.592 360.202 476.164 363.7 485.101 363.7V330.5" fill="#F3BE00"/>
<path d="M518.801 330.5H485.102V363.7H518.801V330.5Z" fill="#3F3F9C"/>
<path d="M485.102 363.7C494.039 363.7 502.611 360.202 508.93 353.976C515.25 347.75 518.801 339.305 518.801 330.5H485.102" fill="#F3BE00"/>
<path d="M485.101 363.695H451.402V396.895H485.101V363.695Z" fill="#4D4DC7"/>
<path d="M451.402 396.895C451.402 392.535 452.274 388.218 453.968 384.19C455.661 380.162 458.143 376.502 461.273 373.419C464.402 370.336 468.117 367.891 472.205 366.223C476.294 364.554 480.676 363.695 485.101 363.695V396.895" fill="#F3BE00"/>
<path d="M518.801 363.695H485.102V396.895H518.801V363.695Z" fill="#F3BE00"/>
<path d="M485.102 363.695C489.527 363.695 493.909 364.554 497.998 366.223C502.086 367.891 505.801 370.336 508.93 373.419C512.06 376.502 514.542 380.162 516.235 384.19C517.929 388.218 518.801 392.535 518.801 396.895H485.102" fill="#F3BE00"/>
<path d="M586.205 330.5H518.805V396.901H586.205V330.5Z" fill="#7272C5"/>
<path d="M552.5 330.5H518.801V363.7H552.5V330.5Z" fill="#4D4DC7"/>
<path d="M518.801 363.7C518.801 354.895 522.351 346.45 528.671 340.224C534.991 333.998 543.562 330.5 552.5 330.5V363.7" fill="#212152"/>
<path d="M586.207 330.5H552.508V363.7H586.207V330.5Z" fill="#4D4DC7"/>
<path d="M552.508 330.5C561.445 330.5 570.017 333.998 576.337 340.224C582.656 346.45 586.207 354.895 586.207 363.7H552.508" fill="#3F3F9C"/>
<path d="M552.5 363.695H518.801V396.895H552.5V363.695Z" fill="#4D4DC7"/>
<path d="M518.801 363.695C518.801 372.5 522.351 380.945 528.671 387.171C534.991 393.397 543.562 396.895 552.5 396.895V363.695" fill="#212152"/>
<path d="M586.207 363.695H552.508V396.895H586.207V363.695Z" fill="#212152"/>
<path d="M552.508 396.895C561.445 396.895 570.017 393.397 576.337 387.171C582.656 380.945 586.207 372.5 586.207 363.695H552.508" fill="#3F3F9C"/>
<path d="M653.603 330.5H586.203V396.901H653.603V330.5Z" fill="#7272C5"/>
<path d="M619.91 330.5H586.211V363.7H619.91V330.5Z" fill="#212152"/>
<path d="M586.211 330.5C595.148 330.5 603.72 333.998 610.04 340.224C616.36 346.45 619.91 354.895 619.91 363.7H586.211" fill="#F3BE00"/>
<path d="M653.605 330.5H619.906V363.7H653.605V330.5Z" fill="#212152"/>
<path d="M619.906 363.7C619.906 354.895 623.457 346.45 629.776 340.224C636.096 333.998 644.668 330.5 653.605 330.5V363.7" fill="#F3BE00"/>
<path d="M619.91 363.695H586.211V396.895H619.91V363.695Z" fill="#3F3F9C"/>
<path d="M586.211 396.895C595.148 396.895 603.72 393.397 610.04 387.171C616.36 380.945 619.91 372.5 619.91 363.695H586.211" fill="#212152"/>
<path d="M653.605 363.695H619.906V396.895H653.605V363.695Z" fill="#212152"/>
<path d="M619.906 363.695C619.906 372.5 623.457 380.945 629.776 387.171C636.096 393.397 644.668 396.895 653.605 396.895V363.695" fill="#4D4DC7"/>
<path d="M721.006 330.5H653.605V396.901H721.006V330.5Z" fill="#7272C5"/>
<path d="M687.305 330.5H653.605V363.7H687.305V330.5Z" fill="#F3BE00"/>
<path d="M687.305 330.5V363.7H653.605L687.305 330.5Z" fill="#3F3F9C"/>
<path d="M721.004 330.5H687.305V363.7H721.004V330.5Z" fill="#212152"/>
<path d="M687.305 330.5L721.004 363.7H687.305V330.5Z" fill="#4D4DC7"/>
<path d="M687.305 363.695H653.605V396.895H687.305V363.695Z" fill="#212152"/>
<path d="M653.605 363.695H687.305V396.895L653.605 363.695Z" fill="#3F3F9C"/>
<path d="M721.004 363.695H687.305V396.895H721.004V363.695Z" fill="#212152"/>
<path d="M687.305 363.695H721.004L687.305 396.895V363.695Z" fill="#3F3F9C"/>
<path d="M788.402 330.5H721.004V396.899H788.402V330.5Z" fill="#F3BE00"/>
<path d="M721.004 330.5L788.402 396.899H721.004V330.5Z" fill="#212152"/>
<path d="M-289.998 783.289H384.004V384.88H-289.998V783.289Z" fill="#7272C5"/>
<path d="M316.606 783.289H384.004V716.89H316.606V783.289Z" fill="#212152"/>
<path d="M384.004 783.289H316.606L384.004 716.89V783.289Z" fill="#F3BE00"/>
<path d="M249.207 783.289H316.605V716.89H249.207V783.289Z" fill="#4D4DC7"/>
<path d="M249.207 783.289H316.605V716.89H249.207V783.289Z" fill="#3F3F9C"/>
<path d="M181.809 783.289H249.207V716.89H181.809V783.289Z" fill="#4D4DC7"/>
<path d="M249.207 783.289H181.809L249.207 716.89V783.289Z" fill="#F3BE00"/>
<path d="M114.404 783.289H181.805V716.888H114.404V783.289Z" fill="#7272C5"/>
<path d="M148.102 783.289H181.801V750.089H148.102V783.289Z" fill="#F3BE00"/>
<path d="M181.801 750.089C181.801 758.894 178.25 767.339 171.931 773.565C165.611 779.791 157.039 783.289 148.102 783.289V750.089" fill="#F3BE00"/>
<path d="M114.402 783.289H148.102V750.089H114.402V783.289Z" fill="#4D4DC7"/>
<path d="M148.102 783.289C139.164 783.289 130.593 779.791 124.273 773.565C117.953 767.339 114.402 758.894 114.402 750.089H148.102" fill="#4D4DC7"/>
<path d="M148.102 750.094H181.801V716.894H148.102V750.094Z" fill="#F3BE00"/>
<path d="M181.801 750.094C181.801 741.289 178.25 732.844 171.931 726.618C165.611 720.392 157.039 716.894 148.102 716.894V750.094" fill="#4D4DC7"/>
<path d="M114.402 750.094H148.102V716.894H114.402V750.094Z" fill="#212152"/>
<path d="M148.102 716.894C139.164 716.894 130.593 720.392 124.273 726.618C117.953 732.844 114.402 741.289 114.402 750.094H148.102" fill="#F3BE00"/>
<path d="M47.0042 783.289H114.402V716.89H47.0042V783.289Z" fill="#3F3F9C"/>
<path d="M47.0042 783.289V716.89H114.402L47.0042 783.289Z" fill="#212152"/>
<path d="M-20.3943 783.289H47.0039V716.89H-20.3943V783.289Z" fill="#3F3F9C"/>
<path d="M47.0039 783.289C47.0039 774.569 45.2606 765.935 41.8735 757.879C38.4864 749.823 33.5219 742.503 27.2634 736.338C21.0049 730.172 13.575 725.281 5.39788 721.944C-2.77924 718.607 -11.5434 716.89 -20.3943 716.89V783.289" fill="#4D4DC7"/>
<path d="M316.604 716.891H384.004V650.489H316.604V716.891Z" fill="#7272C5"/>
<path d="M350.305 716.891H384.004V683.691H350.305V716.891Z" fill="#3F3F9C"/>
<path d="M350.305 716.891V683.691H384.004L350.305 716.891Z" fill="#212152"/>
<path d="M316.606 716.891H350.305V683.691H316.606V716.891Z" fill="#3F3F9C"/>
<path d="M350.305 716.891L316.606 683.691H350.305V716.891Z" fill="#212152"/>
<path d="M350.305 683.695H384.004V650.496H350.305V683.695Z" fill="#3F3F9C"/>
<path d="M384.004 683.695H350.305V650.496L384.004 683.695Z" fill="#4D4DC7"/>
<path d="M316.606 683.695H350.305V650.496H316.606V683.695Z" fill="#F3BE00"/>
<path d="M350.305 683.695H316.606L350.305 650.496V683.695Z" fill="#4D4DC7"/>
<path d="M249.205 716.891H316.605V650.489H249.205V716.891Z" fill="#7272C5"/>
<path d="M282.906 716.891H316.605V683.691H282.906V716.891Z" fill="#212152"/>
<path d="M316.605 683.691C316.605 692.496 313.055 700.94 306.735 707.167C300.415 713.393 291.844 716.891 282.906 716.891V683.691" fill="#F3BE00"/>
<path d="M249.207 716.891H282.906V683.691H249.207V716.891Z" fill="#F3BE00"/>
<path d="M282.906 716.891C273.969 716.891 265.397 713.393 259.077 707.167C252.758 700.94 249.207 692.496 249.207 683.691H282.906" fill="#3F3F9C"/>
<path d="M282.906 683.695H316.605V650.496H282.906V683.695Z" fill="#F3BE00"/>
<path d="M316.605 683.695C316.605 674.89 313.055 666.446 306.735 660.22C300.415 653.993 291.844 650.496 282.906 650.496V683.695" fill="#4D4DC7"/>
<path d="M249.207 683.695H282.906V650.496H249.207V683.695Z" fill="#F3BE00"/>
<path d="M282.906 650.496C273.969 650.496 265.397 653.993 259.077 660.22C252.758 666.446 249.207 674.89 249.207 683.695H282.906" fill="#3F3F9C"/>
<path d="M181.809 716.891H249.207V650.491H181.809V716.891Z" fill="#3F3F9C"/>
<path d="M249.207 716.891H181.809L249.207 650.491V716.891Z" fill="#3F3F9C"/>
<path d="M114.404 716.891H181.805V650.489H114.404V716.891Z" fill="#7272C5"/>
<path d="M148.102 716.891H181.801V683.691H148.102V716.891Z" fill="#212152"/>
<path d="M148.102 716.891V683.691H181.801L148.102 716.891Z" fill="#212152"/>
<path d="M114.402 716.891H148.102V683.691H114.402V716.891Z" fill="#F3BE00"/>
<path d="M148.102 716.891L114.402 683.691H148.102V716.891Z" fill="#F3BE00"/>
<path d="M148.102 683.695H181.801V650.496H148.102V683.695Z" fill="#212152"/>
<path d="M181.801 683.695H148.102V650.496L181.801 683.695Z" fill="#212152"/>
<path d="M114.402 683.695H148.102V650.496H114.402V683.695Z" fill="#212152"/>
<path d="M148.102 683.695H114.402L148.102 650.496V683.695Z" fill="#212152"/>
<path d="M47.0021 716.891H114.402V650.489H47.0021V716.891Z" fill="#7272C5"/>
<path d="M80.7033 716.891H114.402V683.691H80.7033V716.891Z" fill="#3F3F9C"/>
<path d="M97.5528 683.691C88.2471 683.691 80.7033 691.123 80.7033 700.291C80.7033 709.459 88.2471 716.891 97.5528 716.891C106.859 716.891 114.402 709.459 114.402 700.291C114.402 691.123 106.859 683.691 97.5528 683.691Z" fill="#4D4DC7"/>
<path d="M47.0041 716.891H80.7031V683.691H47.0041V716.891Z" fill="#212152"/>
<path d="M47.0041 716.891H80.7031V683.691H47.0041V716.891Z" fill="#F3BE00"/>
<path d="M80.7033 683.695H114.402V650.496H80.7033V683.695Z" fill="#F3BE00"/>
<path d="M97.5528 650.496C88.2471 650.496 80.7033 657.928 80.7033 667.095C80.7033 676.263 88.2471 683.695 97.5528 683.695C106.859 683.695 114.402 676.263 114.402 667.095C114.402 657.928 106.859 650.496 97.5528 650.496Z" fill="#212152"/>
<path d="M47.0041 683.695H80.7031V650.496H47.0041V683.695Z" fill="#4D4DC7"/>
<path d="M47.0041 683.695H80.7031V650.496H47.0041V683.695Z" fill="#F3BE00"/>
<path d="M-20.3943 716.891H47.0039V650.491H-20.3943V716.891Z" fill="#3F3F9C"/>
<path d="M47.0039 650.491C47.0039 659.211 45.2606 667.845 41.8735 675.901C38.4864 683.957 33.5219 691.277 27.2634 697.443C21.0049 703.608 13.575 708.499 5.39788 711.836C-2.77924 715.173 -11.5434 716.891 -20.3943 716.891V650.491" fill="#212152"/>
<path d="M316.604 650.492H384.004V584.091H316.604V650.492Z" fill="#7272C5"/>
<path d="M350.305 650.492H384.004V617.292H350.305V650.492Z" fill="#212152"/>
<path d="M384.004 650.492C375.066 650.492 366.495 646.994 360.175 640.768C353.855 634.542 350.305 626.098 350.305 617.292H384.004" fill="#F3BE00"/>
<path d="M316.606 650.492H350.305V617.292H316.606V650.492Z" fill="#F3BE00"/>
<path d="M350.305 617.292C350.305 626.098 346.754 634.542 340.434 640.768C334.115 646.994 325.543 650.492 316.606 650.492V617.292" fill="#4D4DC7"/>
<path d="M350.305 617.281H384.004V584.082H350.305V617.281Z" fill="#F3BE00"/>
<path d="M384.004 584.082C375.066 584.082 366.495 587.579 360.175 593.806C353.855 600.032 350.305 608.476 350.305 617.281H384.004" fill="#3F3F9C"/>
<path d="M316.606 617.281H350.305V584.082H316.606V617.281Z" fill="#212152"/>
<path d="M350.305 617.281C350.305 608.476 346.754 600.032 340.434 593.806C334.115 587.579 325.543 584.082 316.606 584.082V617.281" fill="#F3BE00"/>
<path d="M249.207 650.492H316.605V584.093H249.207V650.492Z" fill="#3F3F9C"/>
<path d="M316.605 650.492C298.73 650.492 281.587 643.497 268.948 631.044C256.308 618.592 249.207 601.703 249.207 584.093L316.605 650.492C316.605 632.882 309.505 615.993 296.865 603.541C284.225 591.088 267.082 584.093 249.207 584.093" fill="#212152"/>
<path d="M181.803 650.492H249.203V584.091H181.803V650.492Z" fill="#7272C5"/>
<path d="M215.508 650.492H249.207V617.292H215.508V650.492Z" fill="#4D4DC7"/>
<path d="M215.508 650.492V617.292H249.207L215.508 650.492Z" fill="#4D4DC7"/>
<path d="M181.801 650.492H215.5V617.292H181.801V650.492Z" fill="#4D4DC7"/>
<path d="M215.5 650.492L181.801 617.292H215.5V650.492Z" fill="#F3BE00"/>
<path d="M215.508 617.281H249.207V584.082H215.508V617.281Z" fill="#212152"/>
<path d="M249.207 617.281H215.508L249.207 584.082V617.281Z" fill="#4D4DC7"/>
<path d="M181.801 617.281H215.5V584.082H181.801V617.281Z" fill="#4D4DC7"/>
<path d="M215.5 617.281H181.801V584.082L215.5 617.281Z" fill="#212152"/>
<path d="M114.404 650.492H181.805V584.091H114.404V650.492Z" fill="#7272C5"/>
<path d="M148.102 650.492H181.801V617.292H148.102V650.492Z" fill="#F3BE00"/>
<path d="M164.951 617.292C155.645 617.292 148.102 624.724 148.102 633.892C148.102 643.06 155.645 650.492 164.951 650.492C174.257 650.492 181.801 643.06 181.801 633.892C181.801 624.724 174.257 617.292 164.951 617.292Z" fill="#212152"/>
<path d="M114.402 650.492H148.102V617.292H114.402V650.492Z" fill="#F3BE00"/>
<path d="M114.402 650.492H148.102V617.292H114.402V650.492Z" fill="#212152"/>
<path d="M148.102 617.281H181.801V584.082H148.102V617.281Z" fill="#3F3F9C"/>
<path d="M164.951 584.082C155.645 584.082 148.102 591.514 148.102 600.681C148.102 609.849 155.645 617.281 164.951 617.281C174.257 617.281 181.801 609.849 181.801 600.681C181.801 591.514 174.257 584.082 164.951 584.082Z" fill="#F3BE00"/>
<path d="M114.402 617.281H148.102V584.082H114.402V617.281Z" fill="#F3BE00"/>
<path d="M114.402 617.281H148.102V584.082H114.402V617.281Z" fill="#3F3F9C"/>
<path d="M47.0042 650.492H114.402V584.093H47.0042V650.492Z" fill="#4D4DC7"/>
<path d="M47.0042 650.492V584.093H114.402L47.0042 650.492Z" fill="#F3BE00"/>
<path d="M-20.3943 650.492H47.0039V584.093H-20.3943V650.492Z" fill="#F3BE00"/>
<path d="M47.0039 650.492H-20.3943L47.0039 584.093V650.492Z" fill="#4D4DC7"/>
<path d="M316.604 584.078H384.004V517.677H316.604V584.078Z" fill="#7272C5"/>
<path d="M350.305 584.078H384.004V550.878H350.305V584.078Z" fill="#4D4DC7"/>
<path d="M384.004 584.078C375.066 584.078 366.495 580.58 360.175 574.354C353.855 568.128 350.305 559.684 350.305 550.878H384.004" fill="#212152"/>
<path d="M316.606 584.078H350.305V550.878H316.606V584.078Z" fill="#4D4DC7"/>
<path d="M350.305 550.878C350.305 559.684 346.754 568.128 340.434 574.354C334.115 580.58 325.543 584.078 316.606 584.078V550.878" fill="#212152"/>
<path d="M350.305 550.875H384.004V517.675H350.305V550.875Z" fill="#3F3F9C"/>
<path d="M384.004 517.675C375.066 517.675 366.495 521.173 360.175 527.399C353.855 533.625 350.305 542.07 350.305 550.875H384.004" fill="#F3BE00"/>
<path d="M316.606 550.875H350.305V517.675H316.606V550.875Z" fill="#212152"/>
<path d="M350.305 550.875C350.305 542.07 346.754 533.625 340.434 527.399C334.115 521.173 325.543 517.675 316.606 517.675V550.875" fill="#3F3F9C"/>
<path d="M249.205 584.078H316.605V517.677H249.205V584.078Z" fill="#7272C5"/>
<path d="M282.906 584.078H316.605V550.878H282.906V584.078Z" fill="#F3BE00"/>
<path d="M282.906 584.078V550.878H316.605L282.906 584.078Z" fill="#F3BE00"/>
<path d="M249.207 584.078H282.906V550.878H249.207V584.078Z" fill="#3F3F9C"/>
<path d="M282.906 584.078H249.207L282.906 550.878V584.078Z" fill="#F3BE00"/>
<path d="M282.906 550.875H316.605V517.675H282.906V550.875Z" fill="#3F3F9C"/>
<path d="M316.605 550.875H282.906V517.675L316.605 550.875Z" fill="#4D4DC7"/>
<path d="M249.207 550.875H282.906V517.675H249.207V550.875Z" fill="#3F3F9C"/>
<path d="M282.906 550.875L249.207 517.675H282.906V550.875Z" fill="#4D4DC7"/>
<path d="M181.803 584.078H249.203V517.677H181.803V584.078Z" fill="#7272C5"/>
<path d="M215.508 584.078H249.207V550.878H215.508V584.078Z" fill="#212152"/>
<path d="M215.508 584.078V550.878H249.207L215.508 584.078Z" fill="#4D4DC7"/>
<path d="M181.801 584.078H215.5V550.878H181.801V584.078Z" fill="#4D4DC7"/>
<path d="M215.5 584.078H181.801L215.5 550.878V584.078Z" fill="#3F3F9C"/>
<path d="M215.508 550.875H249.207V517.675H215.508V550.875Z" fill="#F3BE00"/>
<path d="M249.207 550.875H215.508V517.675L249.207 550.875Z" fill="#212152"/>
<path d="M181.801 550.875H215.5V517.675H181.801V550.875Z" fill="#3F3F9C"/>
<path d="M215.5 550.875L181.801 517.675H215.5V550.875Z" fill="#212152"/>
<path d="M114.404 584.078H181.805V517.677H114.404V584.078Z" fill="#7272C5"/>
<path d="M148.102 584.078H181.801V550.878H148.102V584.078Z" fill="#4D4DC7"/>
<path d="M181.801 550.878C181.801 559.684 178.25 568.128 171.931 574.354C165.611 580.58 157.039 584.078 148.102 584.078V575.778C154.805 575.778 161.233 573.155 165.973 568.485C170.713 563.816 173.376 557.482 173.376 550.878" fill="#212152"/>
<path d="M114.402 584.078H148.102V550.878H114.402V584.078Z" fill="#F3BE00"/>
<path d="M148.102 584.078C139.164 584.078 130.593 580.58 124.273 574.354C117.953 568.128 114.402 559.684 114.402 550.878H122.827C122.827 557.482 125.49 563.816 130.23 568.485C134.97 573.155 141.398 575.778 148.102 575.778" fill="#4D4DC7"/>
<path d="M148.102 550.875H181.801V517.675H148.102V550.875Z" fill="#F3BE00"/>
<path d="M181.801 550.875C181.801 542.07 178.25 533.625 171.931 527.399C165.611 521.173 157.039 517.675 148.102 517.675V525.975C154.805 525.975 161.233 528.599 165.973 533.268C170.713 537.938 173.376 544.271 173.376 550.875" fill="#212152"/>
<path d="M114.402 550.875H148.102V517.675H114.402V550.875Z" fill="#3F3F9C"/>
<path d="M148.102 517.675C139.164 517.675 130.593 521.173 124.273 527.399C117.953 533.625 114.402 542.07 114.402 550.875H122.827C122.827 544.271 125.49 537.938 130.23 533.268C134.97 528.599 141.398 525.975 148.102 525.975" fill="#F3BE00"/>
<path d="M47.0021 584.078H114.402V517.677H47.0021V584.078Z" fill="#7272C5"/>
<path d="M80.7033 584.078H114.402V550.878H80.7033V584.078Z" fill="#F3BE00"/>
<path d="M114.402 584.078C105.465 584.078 96.8933 580.58 90.5735 574.354C84.2537 568.128 80.7033 559.684 80.7033 550.878H114.402" fill="#3F3F9C"/>
<path d="M47.0041 584.078H80.7031V550.878H47.0041V584.078Z" fill="#F3BE00"/>
<path d="M80.7031 550.878C80.7031 559.684 77.1527 568.128 70.8329 574.354C64.5131 580.58 55.9416 584.078 47.0041 584.078V550.878" fill="#3F3F9C"/>
<path d="M80.7033 550.875H114.402V517.675H80.7033V550.875Z" fill="#3F3F9C"/>
<path d="M114.402 517.675C105.465 517.675 96.8933 521.173 90.5735 527.399C84.2537 533.625 80.7033 542.07 80.7033 550.875H114.402" fill="#212152"/>
<path d="M47.0041 550.875H80.7031V517.675H47.0041V550.875Z" fill="#212152"/>
<path d="M80.7031 550.875C80.7031 542.07 77.1527 533.625 70.8329 527.399C64.5131 521.173 55.9416 517.675 47.0041 517.675V550.875" fill="#212152"/>
<path d="M-20.3963 584.078H47.0039V517.677H-20.3963V584.078Z" fill="#7272C5"/>
<path d="M13.3048 584.078H47.0039V550.878H13.3048V584.078Z" fill="#4D4DC7"/>
<path d="M13.3048 584.078V550.878H47.0039L13.3048 584.078Z" fill="#4D4DC7"/>
<path d="M-20.3944 584.078H13.3047V550.878H-20.3944V584.078Z" fill="#F3BE00"/>
<path d="M13.3047 584.078L-20.3944 550.878H13.3047V584.078Z" fill="#F3BE00"/>
<path d="M13.3048 550.875H47.0039V517.675H13.3048V550.875Z" fill="#3F3F9C"/>
<path d="M47.0039 550.875H13.3048V517.675L47.0039 550.875Z" fill="#212152"/>
<path d="M-20.3944 550.875H13.3047V517.675H-20.3944V550.875Z" fill="#3F3F9C"/>
<path d="M13.3047 550.875H-20.3944L13.3047 517.675V550.875Z" fill="#4D4DC7"/>
<path d="M316.606 517.688H384.004V451.288H316.606V517.688Z" fill="#212152"/>
<path d="M316.606 517.688H384.004V451.288H316.606V517.688Z" fill="#4D4DC7"/>
<path d="M249.207 517.688H316.605V451.288H249.207V517.688Z" fill="#F3BE00"/>
<path d="M316.605 451.288C316.605 468.898 309.505 485.787 296.865 498.24C284.225 510.692 267.082 517.688 249.207 517.688V451.288" fill="#3F3F9C"/>
<path d="M181.803 517.688H249.203V451.286H181.803V517.688Z" fill="#7272C5"/>
<path d="M215.508 517.688H249.207V484.488H215.508V517.688Z" fill="#3F3F9C"/>
<path d="M249.207 484.488C249.207 493.293 245.657 501.737 239.337 507.964C233.017 514.19 224.445 517.688 215.508 517.688V484.488" fill="#4D4DC7"/>
<path d="M181.801 517.688H215.5V484.488H181.801V517.688Z" fill="#4D4DC7"/>
<path d="M215.5 517.688C206.562 517.688 197.991 514.19 191.671 507.964C185.351 501.737 181.801 493.293 181.801 484.488H215.5" fill="#212152"/>
<path d="M215.508 484.484H249.207V451.285H215.508V484.484Z" fill="#4D4DC7"/>
<path d="M249.207 484.484C249.207 475.679 245.657 467.235 239.337 461.009C233.017 454.782 224.445 451.285 215.508 451.285V484.484" fill="#F3BE00"/>
<path d="M181.801 484.484H215.5V451.285H181.801V484.484Z" fill="#4D4DC7"/>
<path d="M215.5 451.285C206.562 451.285 197.991 454.782 191.671 461.009C185.351 467.235 181.801 475.679 181.801 484.484H215.5" fill="#212152"/>
<path d="M114.403 517.688H181.801V451.288H114.403V517.688Z" fill="#212152"/>
<path d="M181.801 517.688H114.403V451.288L181.801 517.688Z" fill="#212152"/>
<path d="M47.0021 517.688H114.402V451.286H47.0021V517.688Z" fill="#7272C5"/>
<path d="M80.7033 517.688H114.402V484.488H80.7033V517.688Z" fill="#3F3F9C"/>
<path d="M114.402 517.688C105.465 517.688 96.8933 514.19 90.5735 507.964C84.2537 501.737 80.7033 493.293 80.7033 484.488H114.402" fill="#212152"/>
<path d="M47.0041 517.688H80.7031V484.488H47.0041V517.688Z" fill="#212152"/>
<path d="M80.7031 484.488C80.7031 493.293 77.1527 501.737 70.8329 507.964C64.5131 514.19 55.9416 517.688 47.0041 517.688V484.488" fill="#212152"/>
<path d="M80.7033 484.484H114.402V451.285H80.7033V484.484Z" fill="#4D4DC7"/>
<path d="M114.402 451.285C105.465 451.285 96.8933 454.782 90.5735 461.009C84.2537 467.235 80.7033 475.679 80.7033 484.484H114.402" fill="#3F3F9C"/>
<path d="M47.0041 484.484H80.7031V451.285H47.0041V484.484Z" fill="#4D4DC7"/>
<path d="M80.7031 484.484C80.7031 475.679 77.1527 467.235 70.8329 461.009C64.5131 454.782 55.9416 451.285 47.0041 451.285V484.484" fill="#F3BE00"/>
<path d="M-20.3963 517.688H47.0039V451.286H-20.3963V517.688Z" fill="#7272C5"/>
<path d="M13.3048 517.688H47.0039V484.488H13.3048V517.688Z" fill="#3F3F9C"/>
<path d="M47.0039 484.488C47.0039 493.293 43.4535 501.737 37.1337 507.964C30.8139 514.19 22.2424 517.688 13.3048 517.688V509.388C20.008 509.388 26.4366 506.764 31.1765 502.095C35.9163 497.425 38.5791 491.092 38.5791 484.488" fill="#F3BE00"/>
<path d="M-20.3944 517.688H13.3047V484.488H-20.3944V517.688Z" fill="#212152"/>
<path d="M13.3047 517.688C4.36714 517.688 -4.20437 514.19 -10.5242 507.964C-16.844 501.737 -20.3944 493.293 -20.3944 484.488H-11.9696C-11.9696 491.092 -9.30679 497.425 -4.56694 502.095C0.172916 506.764 6.60152 509.388 13.3047 509.388" fill="#F3BE00"/>
<path d="M13.3048 484.484H47.0039V451.285H13.3048V484.484Z" fill="#4D4DC7"/>
<path d="M47.0039 484.484C47.0039 475.679 43.4535 467.235 37.1337 461.009C30.8139 454.782 22.2424 451.285 13.3048 451.285V459.585C20.008 459.585 26.4366 462.208 31.1765 466.878C35.9163 471.547 38.5791 477.881 38.5791 484.484" fill="#4D4DC7"/>
<path d="M-20.3944 484.484H13.3047V451.285H-20.3944V484.484Z" fill="#212152"/>
<path d="M13.3047 451.285C4.36714 451.285 -4.20437 454.782 -10.5242 461.009C-16.844 467.235 -20.3944 475.679 -20.3944 484.484H-11.9696C-11.9696 477.881 -9.30679 471.547 -4.56694 466.878C0.172916 462.208 6.60152 459.585 13.3047 459.585" fill="#4D4DC7"/>
<path d="M316.606 451.281H384.004V384.882H316.606V451.281Z" fill="#212152"/>
<path d="M384.004 451.281C384.004 433.671 376.903 416.782 364.263 404.33C351.624 391.877 334.481 384.882 316.606 384.882V451.281" fill="#212152"/>
<path d="M249.205 451.281H316.605V384.88H249.205V451.281Z" fill="#7272C5"/>
<path d="M282.906 451.281H316.605V418.082H282.906V451.281Z" fill="#212152"/>
<path d="M316.605 451.281C316.605 442.476 313.055 434.032 306.735 427.805C300.415 421.579 291.844 418.082 282.906 418.082V451.281" fill="#F3BE00"/>
<path d="M249.207 451.281H282.906V418.082H249.207V451.281Z" fill="#3F3F9C"/>
<path d="M282.906 418.082C273.969 418.082 265.397 421.579 259.077 427.805C252.758 434.032 249.207 442.476 249.207 451.281H282.906" fill="#F3BE00"/>
<path d="M282.906 418.086H316.605V384.886H282.906V418.086Z" fill="#4D4DC7"/>
<path d="M316.605 384.886C316.605 389.246 315.734 393.563 314.04 397.591C312.347 401.619 309.864 405.279 306.735 408.362C303.606 411.445 299.891 413.89 295.802 415.559C291.714 417.227 287.332 418.086 282.906 418.086V384.886" fill="#F3BE00"/>
<path d="M249.207 418.086H282.906V384.886H249.207V418.086Z" fill="#F3BE00"/>
<path d="M282.906 418.086C278.481 418.086 274.099 417.227 270.01 415.559C265.922 413.89 262.207 411.445 259.077 408.362C255.948 405.279 253.466 401.619 251.772 397.591C250.079 393.563 249.207 389.246 249.207 384.886H282.906" fill="#F3BE00"/>
<path d="M181.803 451.281H249.203V384.88H181.803V451.281Z" fill="#7272C5"/>
<path d="M215.508 451.281H249.207V418.082H215.508V451.281Z" fill="#4D4DC7"/>
<path d="M249.207 418.082C249.207 426.887 245.657 435.331 239.337 441.557C233.017 447.783 224.445 451.281 215.508 451.281V418.082" fill="#212152"/>
<path d="M181.801 451.281H215.5V418.082H181.801V451.281Z" fill="#4D4DC7"/>
<path d="M215.5 451.281C206.562 451.281 197.991 447.783 191.671 441.557C185.351 435.331 181.801 426.887 181.801 418.082H215.5" fill="#3F3F9C"/>
<path d="M215.508 418.086H249.207V384.886H215.508V418.086Z" fill="#4D4DC7"/>
<path d="M249.207 418.086C249.207 409.281 245.657 400.836 239.337 394.61C233.017 388.384 224.445 384.886 215.508 384.886V418.086" fill="#212152"/>
<path d="M181.801 418.086H215.5V384.886H181.801V418.086Z" fill="#212152"/>
<path d="M215.5 384.886C206.562 384.886 197.991 388.384 191.671 394.61C185.351 400.836 181.801 409.281 181.801 418.086H215.5" fill="#3F3F9C"/>
<path d="M114.404 451.281H181.805V384.88H114.404V451.281Z" fill="#7272C5"/>
<path d="M148.102 451.281H181.801V418.082H148.102V451.281Z" fill="#212152"/>
<path d="M181.801 451.281C172.863 451.281 164.292 447.783 157.972 441.557C151.652 435.331 148.102 426.887 148.102 418.082H181.801" fill="#F3BE00"/>
<path d="M114.402 451.281H148.102V418.082H114.402V451.281Z" fill="#212152"/>
<path d="M148.102 418.082C148.102 426.887 144.551 435.331 138.231 441.557C131.912 447.783 123.34 451.281 114.402 451.281V418.082" fill="#F3BE00"/>
<path d="M148.102 418.086H181.801V384.886H148.102V418.086Z" fill="#3F3F9C"/>
<path d="M181.801 384.886C172.863 384.886 164.292 388.384 157.972 394.61C151.652 400.836 148.102 409.281 148.102 418.086H181.801" fill="#212152"/>
<path d="M114.402 418.086H148.102V384.886H114.402V418.086Z" fill="#212152"/>
<path d="M148.102 418.086C148.102 409.281 144.551 400.836 138.231 394.61C131.912 388.384 123.34 384.886 114.402 384.886V418.086" fill="#4D4DC7"/>
<path d="M47.0021 451.281H114.402V384.88H47.0021V451.281Z" fill="#7272C5"/>
<path d="M80.7033 451.281H114.402V418.082H80.7033V451.281Z" fill="#F3BE00"/>
<path d="M80.7033 451.281V418.082H114.402L80.7033 451.281Z" fill="#3F3F9C"/>
<path d="M47.0041 451.281H80.7031V418.082H47.0041V451.281Z" fill="#212152"/>
<path d="M80.7031 451.281L47.0041 418.082H80.7031V451.281Z" fill="#4D4DC7"/>
<path d="M80.7033 418.086H114.402V384.886H80.7033V418.086Z" fill="#212152"/>
<path d="M114.402 418.086H80.7033V384.886L114.402 418.086Z" fill="#3F3F9C"/>
<path d="M47.0041 418.086H80.7031V384.886H47.0041V418.086Z" fill="#212152"/>
<path d="M80.7031 418.086H47.0041L80.7031 384.886V418.086Z" fill="#3F3F9C"/>
<path d="M-20.3943 451.281H47.0039V384.882H-20.3943V451.281Z" fill="#F3BE00"/>
<path d="M47.0039 451.281L-20.3943 384.882H47.0039V451.281Z" fill="#212152"/>
<path d="M1058.01 783.289H384.004V384.88H1058.01V783.289Z" fill="#7272C5"/>
<path d="M451.402 783.289H384.004V716.89H451.402V783.289Z" fill="#212152"/>
<path d="M384.004 783.289H451.402L384.004 716.89V783.289Z" fill="#F3BE00"/>
<path d="M518.801 783.289H451.402V716.89H518.801V783.289Z" fill="#4D4DC7"/>
<path d="M518.801 783.289H451.402V716.89H518.801V783.289Z" fill="#3F3F9C"/>
<path d="M586.199 783.289H518.801V716.89H586.199V783.289Z" fill="#4D4DC7"/>
<path d="M518.801 783.289H586.199L518.801 716.89V783.289Z" fill="#F3BE00"/>
<path d="M653.603 783.289H586.203V716.888H653.603V783.289Z" fill="#7272C5"/>
<path d="M619.91 783.289H586.211V750.089H619.91V783.289Z" fill="#F3BE00"/>
<path d="M586.211 750.089C586.211 758.894 589.761 767.339 596.081 773.565C602.401 779.791 610.972 783.289 619.91 783.289V750.089" fill="#F3BE00"/>
<path d="M653.605 783.289H619.906V750.089H653.605V783.289Z" fill="#4D4DC7"/>
<path d="M619.906 783.289C628.844 783.289 637.415 779.791 643.735 773.565C650.055 767.339 653.605 758.894 653.605 750.089H619.906" fill="#4D4DC7"/>
<path d="M619.91 750.094H586.211V716.894H619.91V750.094Z" fill="#F3BE00"/>
<path d="M586.211 750.094C586.211 741.289 589.761 732.844 596.081 726.618C602.401 720.392 610.972 716.894 619.91 716.894V750.094" fill="#4D4DC7"/>
<path d="M653.605 750.094H619.906V716.894H653.605V750.094Z" fill="#212152"/>
<path d="M619.906 716.894C628.844 716.894 637.415 720.392 643.735 726.618C650.055 732.844 653.605 741.289 653.605 750.094H619.906" fill="#F3BE00"/>
<path d="M721.004 783.289H653.605V716.89H721.004V783.289Z" fill="#3F3F9C"/>
<path d="M721.004 783.289V716.89H653.605L721.004 783.289Z" fill="#212152"/>
<path d="M788.402 783.289H721.004V716.89H788.402V783.289Z" fill="#3F3F9C"/>
<path d="M721.004 783.289C721.004 774.569 722.747 765.935 726.134 757.879C729.521 749.823 734.486 742.503 740.744 736.338C747.003 730.172 754.433 725.281 762.61 721.944C770.787 718.607 779.551 716.89 788.402 716.89V783.289" fill="#4D4DC7"/>
<path d="M451.404 716.891H384.004V650.489H451.404V716.891Z" fill="#7272C5"/>
<path d="M417.703 716.891H384.004V683.691H417.703V716.891Z" fill="#3F3F9C"/>
<path d="M417.703 716.891V683.691H384.004L417.703 716.891Z" fill="#212152"/>
<path d="M451.402 716.891H417.703V683.691H451.402V716.891Z" fill="#3F3F9C"/>
<path d="M417.703 716.891L451.402 683.691H417.703V716.891Z" fill="#212152"/>
<path d="M417.703 683.695H384.004V650.496H417.703V683.695Z" fill="#3F3F9C"/>
<path d="M384.004 683.695H417.703V650.496L384.004 683.695Z" fill="#4D4DC7"/>
<path d="M451.402 683.695H417.703V650.496H451.402V683.695Z" fill="#F3BE00"/>
<path d="M417.703 683.695H451.402L417.703 650.496V683.695Z" fill="#4D4DC7"/>
<path d="M518.803 716.891H451.402V650.489H518.803V716.891Z" fill="#7272C5"/>
<path d="M485.101 716.891H451.402V683.691H485.101V716.891Z" fill="#212152"/>
<path d="M451.402 683.691C451.402 692.496 454.953 700.94 461.273 707.167C467.592 713.393 476.164 716.891 485.101 716.891V683.691" fill="#F3BE00"/>
<path d="M518.801 716.891H485.102V683.691H518.801V716.891Z" fill="#F3BE00"/>
<path d="M485.102 716.891C494.039 716.891 502.611 713.393 508.93 707.167C515.25 700.94 518.801 692.496 518.801 683.691H485.102" fill="#3F3F9C"/>
<path d="M485.101 683.695H451.402V650.496H485.101V683.695Z" fill="#F3BE00"/>
<path d="M451.402 683.695C451.402 674.89 454.953 666.446 461.273 660.22C467.592 653.993 476.164 650.496 485.101 650.496V683.695" fill="#4D4DC7"/>
<path d="M518.801 683.695H485.102V650.496H518.801V683.695Z" fill="#F3BE00"/>
<path d="M485.102 650.496C494.039 650.496 502.611 653.993 508.93 660.22C515.25 666.446 518.801 674.89 518.801 683.695H485.102" fill="#3F3F9C"/>
<path d="M586.199 716.891H518.801V650.491H586.199V716.891Z" fill="#3F3F9C"/>
<path d="M518.801 716.891H586.199L518.801 650.491V716.891Z" fill="#3F3F9C"/>
<path d="M653.603 716.891H586.203V650.489H653.603V716.891Z" fill="#7272C5"/>
<path d="M619.91 716.891H586.211V683.691H619.91V716.891Z" fill="#212152"/>
<path d="M619.91 716.891V683.691H586.211L619.91 716.891Z" fill="#212152"/>
<path d="M653.605 716.891H619.906V683.691H653.605V716.891Z" fill="#F3BE00"/>
<path d="M619.906 716.891L653.605 683.691H619.906V716.891Z" fill="#F3BE00"/>
<path d="M619.91 683.695H586.211V650.496H619.91V683.695Z" fill="#212152"/>
<path d="M586.211 683.695H619.91V650.496L586.211 683.695Z" fill="#212152"/>
<path d="M653.605 683.695H619.906V650.496H653.605V683.695Z" fill="#212152"/>
<path d="M619.906 683.695H653.605L619.906 650.496V683.695Z" fill="#212152"/>
<path d="M721.006 716.891H653.605V650.489H721.006V716.891Z" fill="#7272C5"/>
<path d="M687.305 716.891H653.605V683.691H687.305V716.891Z" fill="#3F3F9C"/>
<path d="M670.455 683.691C679.761 683.691 687.305 691.123 687.305 700.291C687.305 709.459 679.761 716.891 670.455 716.891C661.149 716.891 653.605 709.459 653.605 700.291C653.605 691.123 661.149 683.691 670.455 683.691Z" fill="#4D4DC7"/>
<path d="M721.004 716.891H687.305V683.691H721.004V716.891Z" fill="#212152"/>
<path d="M721.004 716.891H687.305V683.691H721.004V716.891Z" fill="#F3BE00"/>
<path d="M687.305 683.695H653.605V650.496H687.305V683.695Z" fill="#F3BE00"/>
<path d="M670.455 650.496C679.761 650.496 687.305 657.928 687.305 667.095C687.305 676.263 679.761 683.695 670.455 683.695C661.149 683.695 653.605 676.263 653.605 667.095C653.605 657.928 661.149 650.496 670.455 650.496Z" fill="#212152"/>
<path d="M721.004 683.695H687.305V650.496H721.004V683.695Z" fill="#4D4DC7"/>
<path d="M721.004 683.695H687.305V650.496H721.004V683.695Z" fill="#F3BE00"/>
<path d="M788.402 716.891H721.004V650.491H788.402V716.891Z" fill="#3F3F9C"/>
<path d="M721.004 650.491C721.004 659.211 722.747 667.845 726.134 675.901C729.521 683.957 734.486 691.277 740.744 697.443C747.003 703.608 754.433 708.499 762.61 711.836C770.787 715.173 779.551 716.891 788.402 716.891V650.491" fill="#212152"/>
<path d="M451.404 650.492H384.004V584.091H451.404V650.492Z" fill="#7272C5"/>
<path d="M417.703 650.492H384.004V617.292H417.703V650.492Z" fill="#212152"/>
<path d="M384.004 650.492C392.941 650.492 401.513 646.994 407.833 640.768C414.153 634.542 417.703 626.098 417.703 617.292H384.004" fill="#F3BE00"/>
<path d="M451.402 650.492H417.703V617.292H451.402V650.492Z" fill="#F3BE00"/>
<path d="M417.703 617.292C417.703 626.098 421.254 634.542 427.573 640.768C433.893 646.994 442.465 650.492 451.402 650.492V617.292" fill="#4D4DC7"/>
<path d="M417.703 617.281H384.004V584.082H417.703V617.281Z" fill="#F3BE00"/>
<path d="M384.004 584.082C392.941 584.082 401.513 587.579 407.833 593.806C414.153 600.032 417.703 608.476 417.703 617.281H384.004" fill="#3F3F9C"/>
<path d="M451.402 617.281H417.703V584.082H451.402V617.281Z" fill="#212152"/>
<path d="M417.703 617.281C417.703 608.476 421.254 600.032 427.573 593.806C433.893 587.579 442.465 584.082 451.402 584.082V617.281" fill="#F3BE00"/>
<path d="M518.801 650.492H451.402V584.093H518.801V650.492Z" fill="#3F3F9C"/>
<path d="M451.402 650.492C469.277 650.492 486.42 643.497 499.06 631.044C511.7 618.592 518.801 601.703 518.801 584.093L451.402 650.492C451.402 632.882 458.503 615.993 471.143 603.541C483.782 591.088 500.925 584.093 518.801 584.093" fill="#212152"/>
<path d="M586.205 650.492H518.805V584.091H586.205V650.492Z" fill="#7272C5"/>
<path d="M552.5 650.492H518.801V617.292H552.5V650.492Z" fill="#4D4DC7"/>
<path d="M552.5 650.492V617.292H518.801L552.5 650.492Z" fill="#4D4DC7"/>
<path d="M586.207 650.492H552.508V617.292H586.207V650.492Z" fill="#4D4DC7"/>
<path d="M552.508 650.492L586.207 617.292H552.508V650.492Z" fill="#F3BE00"/>
<path d="M552.5 617.281H518.801V584.082H552.5V617.281Z" fill="#212152"/>
<path d="M518.801 617.281H552.5L518.801 584.082V617.281Z" fill="#4D4DC7"/>
<path d="M586.207 617.281H552.508V584.082H586.207V617.281Z" fill="#4D4DC7"/>
<path d="M552.508 617.281H586.207V584.082L552.508 617.281Z" fill="#212152"/>
<path d="M653.603 650.492H586.203V584.091H653.603V650.492Z" fill="#7272C5"/>
<path d="M619.91 650.492H586.211V617.292H619.91V650.492Z" fill="#F3BE00"/>
<path d="M603.06 617.292C612.366 617.292 619.91 624.724 619.91 633.892C619.91 643.06 612.366 650.492 603.06 650.492C593.755 650.492 586.211 643.06 586.211 633.892C586.211 624.724 593.755 617.292 603.06 617.292Z" fill="#212152"/>
<path d="M653.605 650.492H619.906V617.292H653.605V650.492Z" fill="#F3BE00"/>
<path d="M653.605 650.492H619.906V617.292H653.605V650.492Z" fill="#212152"/>
<path d="M619.91 617.281H586.211V584.082H619.91V617.281Z" fill="#3F3F9C"/>
<path d="M603.06 584.082C612.366 584.082 619.91 591.514 619.91 600.681C619.91 609.849 612.366 617.281 603.06 617.281C593.755 617.281 586.211 609.849 586.211 600.681C586.211 591.514 593.755 584.082 603.06 584.082Z" fill="#F3BE00"/>
<path d="M653.605 617.281H619.906V584.082H653.605V617.281Z" fill="#F3BE00"/>
<path d="M653.605 617.281H619.906V584.082H653.605V617.281Z" fill="#3F3F9C"/>
<path d="M721.004 650.492H653.605V584.093H721.004V650.492Z" fill="#4D4DC7"/>
<path d="M721.004 650.492V584.093H653.605L721.004 650.492Z" fill="#F3BE00"/>
<path d="M788.402 650.492H721.004V584.093H788.402V650.492Z" fill="#F3BE00"/>
<path d="M721.004 650.492H788.402L721.004 584.093V650.492Z" fill="#4D4DC7"/>
<path d="M451.404 584.078H384.004V517.677H451.404V584.078Z" fill="#7272C5"/>
<path d="M417.703 584.078H384.004V550.878H417.703V584.078Z" fill="#4D4DC7"/>
<path d="M384.004 584.078C392.941 584.078 401.513 580.58 407.833 574.354C414.153 568.128 417.703 559.684 417.703 550.878H384.004" fill="#212152"/>
<path d="M451.402 584.078H417.703V550.878H451.402V584.078Z" fill="#4D4DC7"/>
<path d="M417.703 550.878C417.703 559.684 421.254 568.128 427.573 574.354C433.893 580.58 442.465 584.078 451.402 584.078V550.878" fill="#212152"/>
<path d="M417.703 550.875H384.004V517.675H417.703V550.875Z" fill="#3F3F9C"/>
<path d="M384.004 517.675C392.941 517.675 401.513 521.173 407.833 527.399C414.153 533.625 417.703 542.07 417.703 550.875H384.004" fill="#F3BE00"/>
<path d="M451.402 550.875H417.703V517.675H451.402V550.875Z" fill="#212152"/>
<path d="M417.703 550.875C417.703 542.07 421.254 533.625 427.573 527.399C433.893 521.173 442.465 517.675 451.402 517.675V550.875" fill="#3F3F9C"/>
<path d="M518.803 584.078H451.402V517.677H518.803V584.078Z" fill="#7272C5"/>
<path d="M485.101 584.078H451.402V550.878H485.101V584.078Z" fill="#F3BE00"/>
<path d="M485.101 584.078V550.878H451.402L485.101 584.078Z" fill="#F3BE00"/>
<path d="M518.801 584.078H485.102V550.878H518.801V584.078Z" fill="#3F3F9C"/>
<path d="M485.102 584.078H518.801L485.102 550.878V584.078Z" fill="#F3BE00"/>
<path d="M485.101 550.875H451.402V517.675H485.101V550.875Z" fill="#3F3F9C"/>
<path d="M451.402 550.875H485.101V517.675L451.402 550.875Z" fill="#4D4DC7"/>
<path d="M518.801 550.875H485.102V517.675H518.801V550.875Z" fill="#3F3F9C"/>
<path d="M485.102 550.875L518.801 517.675H485.102V550.875Z" fill="#4D4DC7"/>
<path d="M586.205 584.078H518.805V517.677H586.205V584.078Z" fill="#7272C5"/>
<path d="M552.5 584.078H518.801V550.878H552.5V584.078Z" fill="#212152"/>
<path d="M552.5 584.078V550.878H518.801L552.5 584.078Z" fill="#4D4DC7"/>
<path d="M586.207 584.078H552.508V550.878H586.207V584.078Z" fill="#4D4DC7"/>
<path d="M552.508 584.078H586.207L552.508 550.878V584.078Z" fill="#3F3F9C"/>
<path d="M552.5 550.875H518.801V517.675H552.5V550.875Z" fill="#F3BE00"/>
<path d="M518.801 550.875H552.5V517.675L518.801 550.875Z" fill="#212152"/>
<path d="M586.207 550.875H552.508V517.675H586.207V550.875Z" fill="#3F3F9C"/>
<path d="M552.508 550.875L586.207 517.675H552.508V550.875Z" fill="#212152"/>
<path d="M653.603 584.078H586.203V517.677H653.603V584.078Z" fill="#7272C5"/>
<path d="M619.91 584.078H586.211V550.878H619.91V584.078Z" fill="#4D4DC7"/>
<path d="M586.211 550.878C586.211 559.684 589.761 568.128 596.081 574.354C602.401 580.58 610.972 584.078 619.91 584.078V575.778C613.207 575.778 606.778 573.155 602.038 568.485C597.299 563.816 594.636 557.482 594.636 550.878" fill="#212152"/>
<path d="M653.605 584.078H619.906V550.878H653.605V584.078Z" fill="#F3BE00"/>
<path d="M619.906 584.078C628.844 584.078 637.415 580.58 643.735 574.354C650.055 568.128 653.605 559.684 653.605 550.878H645.181C645.181 557.482 642.518 563.816 637.778 568.485C633.038 573.155 626.609 575.778 619.906 575.778" fill="#4D4DC7"/>
<path d="M619.91 550.875H586.211V517.675H619.91V550.875Z" fill="#F3BE00"/>
<path d="M586.211 550.875C586.211 542.07 589.761 533.625 596.081 527.399C602.401 521.173 610.972 517.675 619.91 517.675V525.975C613.207 525.975 606.778 528.599 602.038 533.268C597.299 537.938 594.636 544.271 594.636 550.875" fill="#212152"/>
<path d="M653.605 550.875H619.906V517.675H653.605V550.875Z" fill="#3F3F9C"/>
<path d="M619.906 517.675C628.844 517.675 637.415 521.173 643.735 527.399C650.055 533.625 653.605 542.07 653.605 550.875H645.181C645.181 544.271 642.518 537.938 637.778 533.268C633.038 528.599 626.609 525.975 619.906 525.975" fill="#F3BE00"/>
<path d="M721.006 584.078H653.605V517.677H721.006V584.078Z" fill="#7272C5"/>
<path d="M687.305 584.078H653.605V550.878H687.305V584.078Z" fill="#F3BE00"/>
<path d="M653.605 584.078C662.543 584.078 671.114 580.58 677.434 574.354C683.754 568.128 687.305 559.684 687.305 550.878H653.605" fill="#3F3F9C"/>
<path d="M721.004 584.078H687.305V550.878H721.004V584.078Z" fill="#F3BE00"/>
<path d="M687.305 550.878C687.305 559.684 690.855 568.128 697.175 574.354C703.495 580.58 712.066 584.078 721.004 584.078V550.878" fill="#3F3F9C"/>
<path d="M687.305 550.875H653.605V517.675H687.305V550.875Z" fill="#3F3F9C"/>
<path d="M653.605 517.675C662.543 517.675 671.114 521.173 677.434 527.399C683.754 533.625 687.305 542.07 687.305 550.875H653.605" fill="#212152"/>
<path d="M721.004 550.875H687.305V517.675H721.004V550.875Z" fill="#212152"/>
<path d="M687.305 550.875C687.305 542.07 690.855 533.625 697.175 527.399C703.495 521.173 712.066 517.675 721.004 517.675V550.875" fill="#212152"/>
<path d="M788.404 584.078H721.004V517.677H788.404V584.078Z" fill="#7272C5"/>
<path d="M754.703 584.078H721.004V550.878H754.703V584.078Z" fill="#4D4DC7"/>
<path d="M754.703 584.078V550.878H721.004L754.703 584.078Z" fill="#4D4DC7"/>
<path d="M788.402 584.078H754.703V550.878H788.402V584.078Z" fill="#F3BE00"/>
<path d="M754.703 584.078L788.402 550.878H754.703V584.078Z" fill="#F3BE00"/>
<path d="M754.703 550.875H721.004V517.675H754.703V550.875Z" fill="#3F3F9C"/>
<path d="M721.004 550.875H754.703V517.675L721.004 550.875Z" fill="#212152"/>
<path d="M788.402 550.875H754.703V517.675H788.402V550.875Z" fill="#3F3F9C"/>
<path d="M754.703 550.875H788.402L754.703 517.675V550.875Z" fill="#4D4DC7"/>
<path d="M451.402 517.688H384.004V451.288H451.402V517.688Z" fill="#212152"/>
<path d="M451.402 517.688H384.004V451.288H451.402V517.688Z" fill="#4D4DC7"/>
<path d="M518.801 517.688H451.402V451.288H518.801V517.688Z" fill="#F3BE00"/>
<path d="M451.402 451.288C451.402 468.898 458.503 485.787 471.143 498.24C483.782 510.692 500.925 517.688 518.801 517.688V451.288" fill="#3F3F9C"/>
<path d="M586.205 517.688H518.805V451.286H586.205V517.688Z" fill="#7272C5"/>
<path d="M552.5 517.688H518.801V484.488H552.5V517.688Z" fill="#3F3F9C"/>
<path d="M518.801 484.488C518.801 493.293 522.351 501.737 528.671 507.964C534.991 514.19 543.562 517.688 552.5 517.688V484.488" fill="#4D4DC7"/>
<path d="M586.207 517.688H552.508V484.488H586.207V517.688Z" fill="#4D4DC7"/>
<path d="M552.508 517.688C561.445 517.688 570.017 514.19 576.337 507.964C582.656 501.737 586.207 493.293 586.207 484.488H552.508" fill="#212152"/>
<path d="M552.5 484.484H518.801V451.285H552.5V484.484Z" fill="#4D4DC7"/>
<path d="M518.801 484.484C518.801 475.679 522.351 467.235 528.671 461.009C534.991 454.782 543.562 451.285 552.5 451.285V484.484" fill="#F3BE00"/>
<path d="M586.207 484.484H552.508V451.285H586.207V484.484Z" fill="#4D4DC7"/>
<path d="M552.508 451.285C561.445 451.285 570.017 454.782 576.337 461.009C582.656 467.235 586.207 475.679 586.207 484.484H552.508" fill="#212152"/>
<path d="M653.609 517.688H586.211V451.288H653.609V517.688Z" fill="#212152"/>
<path d="M586.211 517.688H653.609V451.288L586.211 517.688Z" fill="#212152"/>
<path d="M721.006 517.688H653.605V451.286H721.006V517.688Z" fill="#7272C5"/>
<path d="M687.305 517.688H653.605V484.488H687.305V517.688Z" fill="#3F3F9C"/>
<path d="M653.605 517.688C662.543 517.688 671.114 514.19 677.434 507.964C683.754 501.737 687.305 493.293 687.305 484.488H653.605" fill="#212152"/>
<path d="M721.004 517.688H687.305V484.488H721.004V517.688Z" fill="#212152"/>
<path d="M687.305 484.488C687.305 493.293 690.855 501.737 697.175 507.964C703.495 514.19 712.066 517.688 721.004 517.688V484.488" fill="#212152"/>
<path d="M687.305 484.484H653.605V451.285H687.305V484.484Z" fill="#4D4DC7"/>
<path d="M653.605 451.285C662.543 451.285 671.114 454.782 677.434 461.009C683.754 467.235 687.305 475.679 687.305 484.484H653.605" fill="#3F3F9C"/>
<path d="M721.004 484.484H687.305V451.285H721.004V484.484Z" fill="#4D4DC7"/>
<path d="M687.305 484.484C687.305 475.679 690.855 467.235 697.175 461.009C703.495 454.782 712.066 451.285 721.004 451.285V484.484" fill="#F3BE00"/>
<path d="M788.404 517.688H721.004V451.286H788.404V517.688Z" fill="#7272C5"/>
<path d="M754.703 517.688H721.004V484.488H754.703V517.688Z" fill="#3F3F9C"/>
<path d="M721.004 484.488C721.004 493.293 724.554 501.737 730.874 507.964C737.194 514.19 745.765 517.688 754.703 517.688V509.388C748 509.388 741.571 506.764 736.831 502.095C732.091 497.425 729.429 491.092 729.429 484.488" fill="#F3BE00"/>
<path d="M788.402 517.688H754.703V484.488H788.402V517.688Z" fill="#212152"/>
<path d="M754.703 517.688C763.641 517.688 772.212 514.19 778.532 507.964C784.852 501.737 788.402 493.293 788.402 484.488H779.977C779.977 491.092 777.315 497.425 772.575 502.095C767.835 506.764 761.406 509.388 754.703 509.388" fill="#F3BE00"/>
<path d="M754.703 484.484H721.004V451.285H754.703V484.484Z" fill="#4D4DC7"/>
<path d="M721.004 484.484C721.004 475.679 724.554 467.235 730.874 461.009C737.194 454.782 745.765 451.285 754.703 451.285V459.585C748 459.585 741.571 462.208 736.831 466.878C732.091 471.547 729.429 477.881 729.429 484.484" fill="#4D4DC7"/>
<path d="M788.402 484.484H754.703V451.285H788.402V484.484Z" fill="#212152"/>
<path d="M754.703 451.285C763.641 451.285 772.212 454.782 778.532 461.009C784.852 467.235 788.402 475.679 788.402 484.484H779.977C779.977 477.881 777.315 471.547 772.575 466.878C767.835 462.208 761.406 459.585 754.703 459.585" fill="#4D4DC7"/>
<path d="M451.402 451.281H384.004V384.882H451.402V451.281Z" fill="#212152"/>
<path d="M384.004 451.281C384.004 433.671 391.105 416.782 403.744 404.33C416.384 391.877 433.527 384.882 451.402 384.882V451.281" fill="#212152"/>
<path d="M518.803 451.281H451.402V384.88H518.803V451.281Z" fill="#7272C5"/>
<path d="M485.101 451.281H451.402V418.082H485.101V451.281Z" fill="#212152"/>
<path d="M451.402 451.281C451.402 442.476 454.953 434.032 461.273 427.805C467.592 421.579 476.164 418.082 485.101 418.082V451.281" fill="#F3BE00"/>
<path d="M518.801 451.281H485.102V418.082H518.801V451.281Z" fill="#3F3F9C"/>
<path d="M485.102 418.082C494.039 418.082 502.611 421.579 508.93 427.805C515.25 434.032 518.801 442.476 518.801 451.281H485.102" fill="#F3BE00"/>
<path d="M485.101 418.086H451.402V384.886H485.101V418.086Z" fill="#4D4DC7"/>
<path d="M451.402 384.886C451.402 389.246 452.274 393.563 453.968 397.591C455.661 401.619 458.143 405.279 461.273 408.362C464.402 411.445 468.117 413.89 472.205 415.559C476.294 417.227 480.676 418.086 485.101 418.086V384.886" fill="#F3BE00"/>
<path d="M518.801 418.086H485.102V384.886H518.801V418.086Z" fill="#F3BE00"/>
<path d="M485.102 418.086C489.527 418.086 493.909 417.227 497.998 415.559C502.086 413.89 505.801 411.445 508.93 408.362C512.06 405.279 514.542 401.619 516.235 397.591C517.929 393.563 518.801 389.246 518.801 384.886H485.102" fill="#F3BE00"/>
<path d="M586.205 451.281H518.805V384.88H586.205V451.281Z" fill="#7272C5"/>
<path d="M552.5 451.281H518.801V418.082H552.5V451.281Z" fill="#4D4DC7"/>
<path d="M518.801 418.082C518.801 426.887 522.351 435.331 528.671 441.557C534.991 447.783 543.562 451.281 552.5 451.281V418.082" fill="#212152"/>
<path d="M586.207 451.281H552.508V418.082H586.207V451.281Z" fill="#4D4DC7"/>
<path d="M552.508 451.281C561.445 451.281 570.017 447.783 576.337 441.557C582.656 435.331 586.207 426.887 586.207 418.082H552.508" fill="#3F3F9C"/>
<path d="M552.5 418.086H518.801V384.886H552.5V418.086Z" fill="#4D4DC7"/>
<path d="M518.801 418.086C518.801 409.281 522.351 400.836 528.671 394.61C534.991 388.384 543.562 384.886 552.5 384.886V418.086" fill="#212152"/>
<path d="M586.207 418.086H552.508V384.886H586.207V418.086Z" fill="#212152"/>
<path d="M552.508 384.886C561.445 384.886 570.017 388.384 576.337 394.61C582.656 400.836 586.207 409.281 586.207 418.086H552.508" fill="#3F3F9C"/>
<path d="M653.603 451.281H586.203V384.88H653.603V451.281Z" fill="#7272C5"/>
<path d="M619.91 451.281H586.211V418.082H619.91V451.281Z" fill="#212152"/>
<path d="M586.211 451.281C595.148 451.281 603.72 447.783 610.04 441.557C616.36 435.331 619.91 426.887 619.91 418.082H586.211" fill="#F3BE00"/>
<path d="M653.605 451.281H619.906V418.082H653.605V451.281Z" fill="#212152"/>
<path d="M619.906 418.082C619.906 426.887 623.457 435.331 629.776 441.557C636.096 447.783 644.668 451.281 653.605 451.281V418.082" fill="#F3BE00"/>
<path d="M619.91 418.086H586.211V384.886H619.91V418.086Z" fill="#3F3F9C"/>
<path d="M586.211 384.886C595.148 384.886 603.72 388.384 610.04 394.61C616.36 400.836 619.91 409.281 619.91 418.086H586.211" fill="#212152"/>
<path d="M653.605 418.086H619.906V384.886H653.605V418.086Z" fill="#212152"/>
<path d="M619.906 418.086C619.906 409.281 623.457 400.836 629.776 394.61C636.096 388.384 644.668 384.886 653.605 384.886V418.086" fill="#4D4DC7"/>
<path d="M721.006 451.281H653.605V384.88H721.006V451.281Z" fill="#7272C5"/>
<path d="M687.305 451.281H653.605V418.082H687.305V451.281Z" fill="#F3BE00"/>
<path d="M687.305 451.281V418.082H653.605L687.305 451.281Z" fill="#3F3F9C"/>
<path d="M721.004 451.281H687.305V418.082H721.004V451.281Z" fill="#212152"/>
<path d="M687.305 451.281L721.004 418.082H687.305V451.281Z" fill="#4D4DC7"/>
<path d="M687.305 418.086H653.605V384.886H687.305V418.086Z" fill="#212152"/>
<path d="M653.605 418.086H687.305V384.886L653.605 418.086Z" fill="#3F3F9C"/>
<path d="M721.004 418.086H687.305V384.886H721.004V418.086Z" fill="#212152"/>
<path d="M687.305 418.086H721.004L687.305 384.886V418.086Z" fill="#3F3F9C"/>
<path d="M788.402 451.281H721.004V384.882H788.402V451.281Z" fill="#F3BE00"/>
<path d="M721.004 451.281L788.402 384.882H721.004V451.281Z" fill="#212152"/>
</g>
<mask id="path-883-outside-2_2822_5526" maskUnits="userSpaceOnUse" x="48" y="48" width="672" height="672" fill="black">
<rect fill="white" x="48" y="48" width="672" height="672"/>
<path fill-rule="evenodd" clip-rule="evenodd" d="M707.55 401.223C707.849 395.52 708 389.777 708 384C708 205.06 562.94 60 384 60C205.06 60 60 205.06 60 384C60 389.798 60.1523 395.56 60.4531 401.283V707.547H366.731C372.449 707.847 378.207 707.999 384 707.999C389.793 707.999 395.551 707.847 401.269 707.547H707.55V401.223Z"/>
</mask>
<path fill-rule="evenodd" clip-rule="evenodd" d="M707.55 401.223C707.849 395.52 708 389.777 708 384C708 205.06 562.94 60 384 60C205.06 60 60 205.06 60 384C60 389.798 60.1523 395.56 60.4531 401.283V707.547H366.731C372.449 707.847 378.207 707.999 384 707.999C389.793 707.999 395.551 707.847 401.269 707.547H707.55V401.223Z" fill="#F8F8F8" fill-opacity="0.8"/>
<path d="M707.55 401.223L695.566 400.595L695.55 400.909V401.223H707.55ZM60.4531 401.283H72.4531V400.968L72.4366 400.654L60.4531 401.283ZM60.4531 707.547H48.4531V719.547H60.4531V707.547ZM366.731 707.547L367.361 695.563L367.046 695.547H366.731V707.547ZM401.269 707.547V695.547H400.954L400.639 695.563L401.269 707.547ZM707.55 707.547V719.547H719.55V707.547H707.55ZM696 384C696 389.568 695.854 395.101 695.566 400.595L719.534 401.851C719.843 395.938 720 389.987 720 384H696ZM384 72C556.313 72 696 211.687 696 384H720C720 198.432 569.568 48 384 48V72ZM72 384C72 211.687 211.687 72 384 72V48C198.432 48 48 198.432 48 384H72ZM72.4366 400.654C72.1468 395.14 72 389.588 72 384H48C48 390.008 48.1578 395.98 48.4697 401.913L72.4366 400.654ZM72.4531 707.547V401.283H48.4531V707.547H72.4531ZM366.731 695.547H60.4531V719.547H366.731V695.547ZM384 695.999C378.417 695.999 372.869 695.853 367.361 695.563L366.102 719.53C372.03 719.842 377.997 719.999 384 719.999V695.999ZM400.639 695.563C395.131 695.853 389.583 695.999 384 695.999V719.999C390.003 719.999 395.97 719.842 401.898 719.53L400.639 695.563ZM707.55 695.547H401.269V719.547H707.55V695.547ZM695.55 401.223V707.547H719.55V401.223H695.55Z" fill="#F3BE00" mask="url(#path-883-outside-2_2822_5526)"/>
</svg>
