<svg width="15" height="9" viewBox="0 0 15 9" fill="none" xmlns="http://www.w3.org/2000/svg">
<path d="M14.1813 1.975L7.88125 8.29375C7.80625 8.36875 7.725 8.42175 7.6375 8.45275C7.55 8.48425 7.45625 8.5 7.35625 8.5C7.25625 8.5 7.1625 8.48425 7.075 8.45275C6.9875 8.42175 6.90625 8.36875 6.83125 8.29375L0.5125 1.975C0.3375 1.8 0.25 1.58125 0.25 1.31875C0.25 1.05625 0.34375 0.83125 0.53125 0.64375C0.71875 0.45625 0.9375 0.3625 1.1875 0.3625C1.4375 0.3625 1.65625 0.45625 1.84375 0.64375L7.35625 6.15625L12.8688 0.64375C13.0438 0.46875 13.2593 0.38125 13.5153 0.38125C13.7718 0.38125 13.9938 0.475 14.1813 0.6625C14.3688 0.85 14.4625 1.06875 14.4625 1.31875C14.4625 1.56875 14.3688 1.7875 14.1813 1.975Z" fill="#252525"/>
</svg>
