<svg width="15" height="9" viewBox="0 0 15 9" fill="none" xmlns="http://www.w3.org/2000/svg">
<path d="M14.1813 6.88828L7.88125 0.569531C7.80625 0.494531 7.725 0.441531 7.6375 0.410531C7.55 0.379031 7.45625 0.363281 7.35625 0.363281C7.25625 0.363281 7.1625 0.379031 7.075 0.410531C6.9875 0.441531 6.90625 0.494531 6.83125 0.569531L0.5125 6.88828C0.3375 7.06328 0.25 7.28203 0.25 7.54453C0.25 7.80703 0.34375 8.03203 0.53125 8.21953C0.71875 8.40703 0.9375 8.50078 1.1875 8.50078C1.4375 8.50078 1.65625 8.40703 1.84375 8.21953L7.35625 2.70703L12.8688 8.21953C13.0438 8.39453 13.2593 8.48203 13.5153 8.48203C13.7718 8.48203 13.9938 8.38828 14.1813 8.20078C14.3688 8.01328 14.4625 7.79453 14.4625 7.54453C14.4625 7.29453 14.3688 7.07578 14.1813 6.88828Z" fill="#252525"/>
</svg>
