<svg width="16" height="17" viewBox="0 0 16 17" fill="none" xmlns="http://www.w3.org/2000/svg">
<path d="M6.3833 13.376C7.76953 13.376 9.04785 12.9277 10.0938 12.1807L14.0283 16.1152C14.2109 16.2979 14.4517 16.3892 14.709 16.3892C15.2485 16.3892 15.6304 15.9741 15.6304 15.4429C15.6304 15.1938 15.5474 14.9531 15.3647 14.7788L11.4551 10.8608C12.2769 9.78174 12.7666 8.44531 12.7666 6.99268C12.7666 3.48145 9.89453 0.609375 6.3833 0.609375C2.88037 0.609375 0 3.47314 0 6.99268C0 10.5039 2.87207 13.376 6.3833 13.376ZM6.3833 11.998C3.64404 11.998 1.37793 9.73193 1.37793 6.99268C1.37793 4.25342 3.64404 1.9873 6.3833 1.9873C9.12256 1.9873 11.3887 4.25342 11.3887 6.99268C11.3887 9.73193 9.12256 11.998 6.3833 11.998Z" fill="#3C3C43" fill-opacity="0.6"/>
</svg>
