<svg width="20" height="21" viewBox="0 0 20 21" fill="none" xmlns="http://www.w3.org/2000/svg">
<path fill-rule="evenodd" clip-rule="evenodd" d="M3.60758 15.2916C2.51368 14.151 1.77174 12.7075 1.47378 11.1402C1.17335 9.56855 1.32762 7.94155 1.91774 6.45793C2.50282 4.98264 3.5017 3.71678 4.78895 2.81931C7.40067 0.99773 10.8389 0.99773 13.4506 2.81931C14.7379 3.71678 15.7368 4.98264 16.3219 6.45793C16.912 7.94155 17.0662 9.56855 16.7658 11.1402C16.4679 12.7075 15.7259 14.151 14.632 15.2916C13.1833 16.8098 11.1956 17.666 9.1198 17.666C7.04403 17.666 5.05627 16.8098 3.60758 15.2916V15.2916Z" stroke="#252525" stroke-width="1.5" stroke-linecap="round" stroke-linejoin="round"/>
<path d="M9.14783 4.5139C8.73602 4.55846 8.43831 4.92842 8.48287 5.34023C8.52743 5.75204 8.89739 6.04976 9.3092 6.00519L9.14783 4.5139ZM11.651 7.42097C11.8096 7.80361 12.2484 7.98521 12.6311 7.82658C13.0137 7.66796 13.1953 7.22918 13.0367 6.84654L11.651 7.42097ZM15.2829 14.6415C14.9928 14.3458 14.518 14.3413 14.2223 14.6313C13.9266 14.9214 13.9221 15.3962 14.2121 15.6919L15.2829 14.6415ZM18.4974 20.0604C18.7875 20.356 19.2624 20.3606 19.558 20.0705C19.8537 19.7805 19.8583 19.3056 19.5682 19.0099L18.4974 20.0604ZM9.3092 6.00519C10.2993 5.89806 11.2542 6.46385 11.651 7.42097L13.0367 6.84654C12.3912 5.28959 10.8163 4.33336 9.14783 4.5139L9.3092 6.00519ZM14.2121 15.6919L18.4974 20.0604L19.5682 19.0099L15.2829 14.6415L14.2121 15.6919Z" fill="#252525"/>
</svg>
