<svg width="40" height="50" viewBox="0 0 40 50" fill="none" xmlns="http://www.w3.org/2000/svg">
<rect width="39.2157" height="50" fill="#FEFEFE"/>
<rect x="2.9502" y="2.70312" width="33.3137" height="35.8873" fill="#212152" stroke="#373435"/>
<path d="M3.99621 40.9524V43.6728H5.92873V45.3517H3.99621V48.0255H2.4502V40.9524H3.99621Z" fill="#252525"/>
<path d="M7.86957 43.6728V48.0255H6.32355V43.6728H7.86957ZM7.86957 40.9524V42.6313H6.32355V40.9524H7.86957Z" fill="#252525"/>
<path d="M8.55114 40.9524H12.5741C13.0423 40.9524 13.4122 40.9939 13.6838 41.0768C13.947 41.1562 14.1783 41.3497 14.3778 41.6571C14.5052 41.854 14.5967 42.0889 14.6521 42.3619C14.7075 42.6313 14.7352 42.9785 14.7352 43.4034V48.0255H13.1892V43.4811C13.1892 43.2877 13.1781 43.1426 13.1559 43.0458C13.1365 42.9491 13.0991 42.8679 13.0437 42.8023C12.9911 42.7401 12.9232 42.6969 12.8401 42.6728C12.7597 42.6451 12.6531 42.6313 12.5201 42.6313H10.0972V48.0255H8.55114V40.9524ZM12.3622 43.6728V48.0255H10.9284V43.6728H12.3622Z" fill="#252525"/>
<path d="M18.5254 40.9524L20.3 48.0255H14.9638L16.115 43.6728H17.528L16.9212 46.3466H18.38L16.8423 40.9524H18.5254Z" fill="#252525"/>
<path d="M23.9656 40.9524L21.7131 44.3206L24.1194 48.0255H22.1162L20.3 45.1807V43.678L22.1162 40.9524H23.9656Z" fill="#252525"/>
<path d="M27.2072 40.8125C27.5425 40.8125 27.8694 40.8764 28.188 41.0042C28.5094 41.132 28.7962 41.3134 29.0483 41.5483C29.4057 41.8799 29.6759 42.2979 29.8587 42.8023C30.0444 43.3067 30.1372 43.8801 30.1372 44.5227C30.1372 44.9717 30.0804 45.4018 29.9668 45.8129C29.856 46.224 29.6953 46.5902 29.4847 46.9115C29.216 47.326 28.8932 47.6386 28.5164 47.8494C28.1423 48.0601 27.7226 48.1654 27.2571 48.1654C26.7916 48.1654 26.3664 48.0635 25.9812 47.8597C25.5989 47.6524 25.2692 47.3484 24.9921 46.9477C24.5294 46.2775 24.2981 45.4675 24.2981 44.5175C24.2981 43.9613 24.3798 43.4414 24.5433 42.9578C24.7095 42.4707 24.9436 42.0596 25.2456 41.7245C25.7914 41.1165 26.4453 40.8125 27.2072 40.8125ZM27.2114 42.4396C26.8013 42.4396 26.4799 42.6209 26.2472 42.9837C26.0173 43.3429 25.9023 43.8404 25.9023 44.476C25.9023 44.818 25.9397 45.1306 26.0145 45.4139C26.0893 45.6937 26.196 45.9252 26.3345 46.1083C26.5561 46.395 26.854 46.5384 27.228 46.5384C27.6353 46.5384 27.9539 46.357 28.1839 45.9943C28.4166 45.6316 28.533 45.1289 28.533 44.4864C28.533 43.8577 28.4139 43.3602 28.1756 42.994C27.9401 42.6244 27.6187 42.4396 27.2114 42.4396Z" fill="#252525"/>
<path d="M30.7024 40.9524H34.7254C35.1936 40.9524 35.5635 40.9939 35.835 41.0768C36.0982 41.1562 36.3296 41.3497 36.5291 41.6571C36.6565 41.854 36.7479 42.0889 36.8033 42.3619C36.8588 42.6313 36.8865 42.9785 36.8865 43.4034V48.0255H35.3405V43.4811C35.3405 43.2877 35.3294 43.1426 35.3072 43.0458C35.2878 42.9491 35.2504 42.8679 35.195 42.8023C35.1423 42.7401 35.0745 42.6969 34.9913 42.6728C34.911 42.6451 34.8043 42.6313 34.6713 42.6313H32.2484V48.0255H30.7024V40.9524ZM34.5134 43.6728V48.0255H33.0796V43.6728H34.5134Z" fill="#252525"/>
<path d="M6.31122 10.2367L5.51465 8.88863L14.9509 5.27344L17.7083 19.7342C28.1495 11.3028 32.7614 23.9826 33.7622 31.3764L26.5931 33.4597C26.8382 31.8053 26.9362 27.2342 25.3676 22.1852C23.799 17.1362 19.8529 20.0814 18.0759 22.1852L20.3431 34.195L14.8284 36.0332L14.0318 34.8077L16.6053 34.0112L15.8088 31.9891L13.4191 32.7857L12.8676 31.6215L15.5024 30.9475L14.6446 28.3127L12.3161 29.0479L11.8259 27.945L14.3382 27.2097L13.4191 24.5749L11.1519 25.3102L10.5392 24.146L12.9901 23.3494L12.3161 21.2661L10.1102 22.0627L9.43622 20.7146L11.8259 20.1019L10.8455 17.0381L8.82347 17.7734L8.33328 16.4867L10.5392 15.6901L9.43622 12.6877L7.53671 13.4229L6.92396 12.0749L9.0073 11.2783L8.33328 9.25628L6.31122 10.2367Z" fill="#F3F100"/>
</svg>
