<svg width="1000" height="600" viewBox="0 0 1000 600" fill="none" xmlns="http://www.w3.org/2000/svg">
<g clip-path="url(#clip0_233_607)">
<path d="M1000 0H0V600.002H1000V0Z" fill="#7272C5"/>
<path d="M99.9973 0H0V99.9973H99.9973V0Z" fill="#212152"/>
<path d="M0 0H99.9973L0 99.9973V0Z" fill="#F3BE00"/>
<path d="M199.995 0H99.9973V99.9973H199.995V0Z" fill="#4D4DC7"/>
<path d="M199.995 0H99.9973V99.9973H199.995V0Z" fill="#3F3F9C"/>
<path d="M299.992 0H199.995V99.9973H299.992V0Z" fill="#4D4DC7"/>
<path d="M199.995 0H299.992L199.995 99.9973V0Z" fill="#F3BE00"/>
<path d="M400.002 0H300.001V100H400.002V0Z" fill="#7272C5"/>
<path d="M350.005 0H300.006V49.9987H350.005V0Z" fill="#F3BE00"/>
<path d="M300.006 49.9987C300.006 36.7382 305.274 24.0208 314.65 14.6443C324.027 5.2677 336.744 0 350.005 0V49.9987" fill="#F3BE00"/>
<path d="M400.003 0H350.005V49.9987H400.003V0Z" fill="#4D4DC7"/>
<path d="M350.005 0C363.265 0 375.983 5.2677 385.359 14.6443C394.736 24.0208 400.003 36.7382 400.003 49.9987H350.005" fill="#4D4DC7"/>
<path d="M350.005 49.9987H300.006V99.9973H350.005V49.9987Z" fill="#F3BE00"/>
<path d="M300.006 49.9987C300.006 63.2591 305.274 75.9765 314.65 85.3531C324.027 94.7296 336.744 99.9973 350.005 99.9973V49.9987" fill="#4D4DC7"/>
<path d="M400.003 49.9987H350.005V99.9973H400.003V49.9987Z" fill="#212152"/>
<path d="M350.005 99.9973C363.265 99.9973 375.983 94.7296 385.359 85.3531C394.736 75.9765 400.003 63.2591 400.003 49.9987H350.005" fill="#F3BE00"/>
<path d="M500.001 0H400.003V99.9973H500.001V0Z" fill="#3F3F9C"/>
<path d="M500.001 0V99.9973H400.003L500.001 0Z" fill="#212152"/>
<path d="M599.998 0H500.001V99.9973H599.998V0Z" fill="#3F3F9C"/>
<path d="M500.001 0C500.001 13.1318 502.587 26.1351 507.613 38.2673C512.638 50.3996 520.004 61.4232 529.289 70.7088C538.575 79.9944 549.598 87.3602 561.731 92.3855C573.863 97.4108 586.866 99.9973 599.998 99.9973V0" fill="#4D4DC7"/>
<path d="M699.995 0H599.998V99.9973H699.995V0Z" fill="#3F3F9C"/>
<path d="M699.995 0V99.9973H599.998L699.995 0Z" fill="#F3BE00"/>
<path d="M800.007 0H700.009V99.9973H800.007V0Z" fill="#212152"/>
<path d="M800.007 0H700.009V99.9973H800.007V0Z" fill="#212152"/>
<path d="M900.003 0H800.003V100H900.003V0Z" fill="#7272C5"/>
<path d="M850.005 0H800.007V49.9987H850.005V0Z" fill="#212152"/>
<path d="M850.005 0V49.9987H800.007L850.005 0Z" fill="#4D4DC7"/>
<path d="M900.004 0H850.005V49.9987H900.004V0Z" fill="#4D4DC7"/>
<path d="M850.005 0L900.004 49.9987H850.005V0Z" fill="#4D4DC7"/>
<path d="M850.005 49.9987H800.007V99.9973H850.005V49.9987Z" fill="#3F3F9C"/>
<path d="M800.007 49.9987H850.005V99.9973L800.007 49.9987Z" fill="#212152"/>
<path d="M900.004 49.9987H850.005V99.9973H900.004V49.9987Z" fill="#F3BE00"/>
<path d="M850.005 49.9987H900.004L850.005 99.9973V49.9987Z" fill="#3F3F9C"/>
<path d="M1000 0H900.004V99.9973H1000V0Z" fill="#4D4DC7"/>
<path d="M900.004 99.9973C926.525 99.9973 951.96 89.4619 970.713 70.7088C989.466 51.9557 1000 26.5209 1000 0L900.004 0" fill="#4D4DC7"/>
<path d="M100 100H0V200.001H100V100Z" fill="#7272C5"/>
<path d="M49.9987 99.9973H0V149.996H49.9987V99.9973Z" fill="#3F3F9C"/>
<path d="M49.9987 99.9973V149.996H0L49.9987 99.9973Z" fill="#212152"/>
<path d="M99.9973 99.9973H49.9987V149.996H99.9973V99.9973Z" fill="#3F3F9C"/>
<path d="M49.9987 99.9973L99.9973 149.996H49.9987V99.9973Z" fill="#212152"/>
<path d="M49.9987 149.996H0V199.995H49.9987V149.996Z" fill="#3F3F9C"/>
<path d="M0 149.996H49.9987V199.995L0 149.996Z" fill="#4D4DC7"/>
<path d="M99.9973 149.996H49.9987V199.995H99.9973V149.996Z" fill="#F3BE00"/>
<path d="M49.9987 149.996H99.9973L49.9987 199.995V149.996Z" fill="#4D4DC7"/>
<path d="M200.001 100H100V200.001H200.001V100Z" fill="#7272C5"/>
<path d="M149.996 99.9973H99.9973V149.996H149.996V99.9973Z" fill="#212152"/>
<path d="M99.9973 149.996C99.9973 136.736 105.265 124.018 114.642 114.642C124.018 105.265 136.736 99.9973 149.996 99.9973V149.996" fill="#F3BE00"/>
<path d="M199.995 99.9973H149.996V149.996H199.995V99.9973Z" fill="#F3BE00"/>
<path d="M149.996 99.9973C163.256 99.9973 175.974 105.265 185.35 114.642C194.727 124.018 199.995 136.736 199.995 149.996H149.996" fill="#3F3F9C"/>
<path d="M149.996 149.996H99.9973V199.995H149.996V149.996Z" fill="#F3BE00"/>
<path d="M99.9973 149.996C99.9973 163.256 105.265 175.974 114.642 185.35C124.018 194.727 136.736 199.995 149.996 199.995V149.996" fill="#4D4DC7"/>
<path d="M199.995 149.996H149.996V199.995H199.995V149.996Z" fill="#F3BE00"/>
<path d="M149.996 199.995C163.256 199.995 175.974 194.727 185.35 185.35C194.727 175.974 199.995 163.256 199.995 149.996H149.996" fill="#3F3F9C"/>
<path d="M299.992 99.9973H199.995V199.995H299.992V99.9973Z" fill="#3F3F9C"/>
<path d="M199.995 99.9973H299.992L199.995 199.995V99.9973Z" fill="#3F3F9C"/>
<path d="M400.002 100H300.001V200.001H400.002V100Z" fill="#7272C5"/>
<path d="M350.005 99.9973H300.006V149.996H350.005V99.9973Z" fill="#212152"/>
<path d="M350.005 99.9973V149.996H300.006L350.005 99.9973Z" fill="#212152"/>
<path d="M400.003 99.9973H350.005V149.996H400.003V99.9973Z" fill="#F3BE00"/>
<path d="M350.005 99.9973L400.003 149.996H350.005V99.9973Z" fill="#F3BE00"/>
<path d="M350.005 149.996H300.006V199.995H350.005V149.996Z" fill="#212152"/>
<path d="M300.006 149.996H350.005V199.995L300.006 149.996Z" fill="#212152"/>
<path d="M400.003 149.996H350.005V199.995H400.003V149.996Z" fill="#212152"/>
<path d="M350.005 149.996H400.003L350.005 199.995V149.996Z" fill="#212152"/>
<path d="M500.002 100H400.001V200.001H500.002V100Z" fill="#7272C5"/>
<path d="M450.002 99.9973H400.003V149.996H450.002V99.9973Z" fill="#3F3F9C"/>
<path d="M425.003 149.996C438.809 149.996 450.002 138.803 450.002 124.997C450.002 111.19 438.809 99.9973 425.003 99.9973C411.196 99.9973 400.003 111.19 400.003 124.997C400.003 138.803 411.196 149.996 425.003 149.996Z" fill="#4D4DC7"/>
<path d="M500.001 99.9973H450.002V149.996H500.001V99.9973Z" fill="#212152"/>
<path d="M500.001 99.9973H450.002V149.996H500.001V99.9973Z" fill="#F3BE00"/>
<path d="M450.002 149.996H400.003V199.995H450.002V149.996Z" fill="#F3BE00"/>
<path d="M425.003 199.995C438.809 199.995 450.002 188.802 450.002 174.995C450.002 161.189 438.809 149.996 425.003 149.996C411.196 149.996 400.003 161.189 400.003 174.995C400.003 188.802 411.196 199.995 425.003 199.995Z" fill="#212152"/>
<path d="M500.001 149.996H450.002V199.995H500.001V149.996Z" fill="#4D4DC7"/>
<path d="M500.001 149.996H450.002V199.995H500.001V149.996Z" fill="#F3BE00"/>
<path d="M599.998 99.9973H500.001V199.995H599.998V99.9973Z" fill="#3F3F9C"/>
<path d="M500.001 199.995C500.001 186.863 502.587 173.86 507.613 161.727C512.638 149.595 520.004 138.571 529.289 129.286C538.575 120 549.598 112.634 561.731 107.609C573.863 102.584 586.866 99.9973 599.998 99.9973V199.995" fill="#212152"/>
<path d="M699.995 99.9973H599.998V199.995H699.995V99.9973Z" fill="#4D4DC7"/>
<path d="M599.998 99.9973C626.519 99.9973 651.954 110.533 670.707 129.286C689.46 148.039 699.995 173.474 699.995 199.995L599.998 99.9973C599.998 126.518 610.533 151.953 629.287 170.706C648.04 189.459 673.474 199.995 699.995 199.995" fill="#3F3F9C"/>
<path d="M800.003 100H700.003V200.001H800.003V100Z" fill="#7272C5"/>
<path d="M750.008 99.9973H700.009V149.996H750.008V99.9973Z" fill="#F3BE00"/>
<path d="M750.008 99.9973V149.996H700.009L750.008 99.9973Z" fill="#F3BE00"/>
<path d="M800.007 99.9973H750.008V149.996H800.007V99.9973Z" fill="#F3BE00"/>
<path d="M750.008 99.9973L800.007 149.996H750.008V99.9973Z" fill="#3F3F9C"/>
<path d="M750.008 149.996H700.009V199.995H750.008V149.996Z" fill="#F3BE00"/>
<path d="M700.009 149.996H750.008V199.995L700.009 149.996Z" fill="#F3BE00"/>
<path d="M800.007 149.996H750.008V199.995H800.007V149.996Z" fill="#4D4DC7"/>
<path d="M750.008 149.996H800.007L750.008 199.995V149.996Z" fill="#3F3F9C"/>
<path d="M900.004 99.9973H800.007V199.995H900.004V99.9973Z" fill="#212152"/>
<path d="M800.007 99.9973C800.007 126.518 810.542 151.953 829.295 170.706C848.048 189.459 873.483 199.995 900.004 199.995V99.9973" fill="#212152"/>
<path d="M1000 100H900.003V200.001H1000V100Z" fill="#7272C5"/>
<path d="M950.003 99.9973H900.004V149.996H950.003V99.9973Z" fill="#212152"/>
<path d="M950.003 99.9973V149.996H900.004L950.003 99.9973Z" fill="#3F3F9C"/>
<path d="M1000 99.9973H950.003V149.996H1000V99.9973Z" fill="#3F3F9C"/>
<path d="M950.003 99.9973H1000L950.003 149.996V99.9973Z" fill="#F3BE00"/>
<path d="M950.003 149.996H900.004V199.995H950.003V149.996Z" fill="#3F3F9C"/>
<path d="M900.004 149.996H950.003V199.995L900.004 149.996Z" fill="#4D4DC7"/>
<path d="M1000 149.996H950.003V199.995H1000V149.996Z" fill="#212152"/>
<path d="M950.003 149.996L1000 199.995H950.003V149.996Z" fill="#4D4DC7"/>
<path d="M100 200.001H0V300.001H100V200.001Z" fill="#7272C5"/>
<path d="M49.9987 199.995H0V249.993H49.9987V199.995Z" fill="#212152"/>
<path d="M0 199.995C13.2605 199.995 25.9778 205.262 35.3544 214.639C44.731 224.015 49.9987 236.733 49.9987 249.993H0" fill="#F3BE00"/>
<path d="M99.9973 199.995H49.9987V249.993H99.9973V199.995Z" fill="#F3BE00"/>
<path d="M49.9987 249.993C49.9987 236.733 55.2664 224.015 64.6429 214.639C74.0195 205.262 86.7369 199.995 99.9973 199.995V249.993" fill="#4D4DC7"/>
<path d="M49.9987 250.007H0V300.006H49.9987V250.007Z" fill="#F3BE00"/>
<path d="M0 300.006C13.2605 300.006 25.9778 294.738 35.3544 285.362C44.731 275.985 49.9987 263.268 49.9987 250.007H0" fill="#3F3F9C"/>
<path d="M99.9973 250.007H49.9987V300.006H99.9973V250.007Z" fill="#212152"/>
<path d="M49.9987 250.007C49.9987 263.268 55.2664 275.985 64.6429 285.362C74.0195 294.738 86.7369 300.006 99.9973 300.006V250.007" fill="#F3BE00"/>
<path d="M199.995 199.995H99.9973V299.992H199.995V199.995Z" fill="#3F3F9C"/>
<path d="M99.9973 199.995C126.518 199.995 151.953 210.53 170.706 229.283C189.459 248.036 199.995 273.471 199.995 299.992L99.9973 199.995C99.9973 226.516 110.533 251.95 129.286 270.703C148.039 289.457 173.474 299.992 199.995 299.992" fill="#212152"/>
<path d="M300.001 200.001H200.001V300.001H300.001V200.001Z" fill="#7272C5"/>
<path d="M249.993 199.995H199.995V249.993H249.993V199.995Z" fill="#4D4DC7"/>
<path d="M249.993 199.995V249.993H199.995L249.993 199.995Z" fill="#4D4DC7"/>
<path d="M300.006 199.995H250.007V249.993H300.006V199.995Z" fill="#4D4DC7"/>
<path d="M250.007 199.995L300.006 249.993H250.007V199.995Z" fill="#F3BE00"/>
<path d="M249.993 250.007H199.995V300.006H249.993V250.007Z" fill="#212152"/>
<path d="M199.995 250.007H249.993L199.995 300.006V250.007Z" fill="#4D4DC7"/>
<path d="M300.006 250.007H250.007V300.006H300.006V250.007Z" fill="#4D4DC7"/>
<path d="M250.007 250.007H300.006V300.006L250.007 250.007Z" fill="#212152"/>
<path d="M400.002 200.001H300.001V300.001H400.002V200.001Z" fill="#7272C5"/>
<path d="M350.005 199.995H300.006V249.993H350.005V199.995Z" fill="#F3BE00"/>
<path d="M325.005 249.993C338.812 249.993 350.005 238.801 350.005 224.994C350.005 211.187 338.812 199.995 325.005 199.995C311.199 199.995 300.006 211.187 300.006 224.994C300.006 238.801 311.199 249.993 325.005 249.993Z" fill="#212152"/>
<path d="M400.003 199.995H350.005V249.993H400.003V199.995Z" fill="#F3BE00"/>
<path d="M400.003 199.995H350.005V249.993H400.003V199.995Z" fill="#212152"/>
<path d="M350.005 250.007H300.006V300.006H350.005V250.007Z" fill="#3F3F9C"/>
<path d="M325.005 300.006C338.812 300.006 350.005 288.813 350.005 275.007C350.005 261.2 338.812 250.007 325.005 250.007C311.199 250.007 300.006 261.2 300.006 275.007C300.006 288.813 311.199 300.006 325.005 300.006Z" fill="#F3BE00"/>
<path d="M400.003 250.007H350.005V300.006H400.003V250.007Z" fill="#F3BE00"/>
<path d="M400.003 250.007H350.005V300.006H400.003V250.007Z" fill="#3F3F9C"/>
<path d="M500.001 199.995H400.003V299.992H500.001V199.995Z" fill="#4D4DC7"/>
<path d="M500.001 199.995V299.992H400.003L500.001 199.995Z" fill="#F3BE00"/>
<path d="M599.998 199.995H500.001V299.992H599.998V199.995Z" fill="#F3BE00"/>
<path d="M500.001 199.995H599.998L500.001 299.992V199.995Z" fill="#4D4DC7"/>
<path d="M700.003 200.001H600.002V300.001H700.003V200.001Z" fill="#7272C5"/>
<path d="M649.997 199.995H599.998V249.993H649.997V199.995Z" fill="#3F3F9C"/>
<path d="M649.997 199.995V249.993H599.998L649.997 199.995Z" fill="#3F3F9C"/>
<path d="M699.995 199.995H649.997V249.993H699.995V199.995Z" fill="#212152"/>
<path d="M649.997 199.995L699.995 249.993H649.997V199.995Z" fill="#212152"/>
<path d="M649.997 250.007H599.998V300.006H649.997V250.007Z" fill="#4D4DC7"/>
<path d="M599.998 250.007H649.997V300.006L599.998 250.007Z" fill="#212152"/>
<path d="M699.995 250.007H649.997V300.006H699.995V250.007Z" fill="#3F3F9C"/>
<path d="M649.997 250.007H699.995L649.997 300.006V250.007Z" fill="#3F3F9C"/>
<path d="M800.003 200.001H700.003V300.001H800.003V200.001Z" fill="#7272C5"/>
<path d="M750.008 199.995H700.009V249.993H750.008V199.995Z" fill="#212152"/>
<path d="M700.009 199.995C713.27 199.995 725.987 205.262 735.364 214.639C744.74 224.015 750.008 236.733 750.008 249.993H700.009" fill="#3F3F9C"/>
<path d="M800.007 199.995H750.008V249.993H800.007V199.995Z" fill="#3F3F9C"/>
<path d="M750.008 249.993C750.008 236.733 755.276 224.015 764.652 214.639C774.029 205.262 786.746 199.995 800.007 199.995V249.993" fill="#212152"/>
<path d="M750.008 250.007H700.009V300.006H750.008V250.007Z" fill="#212152"/>
<path d="M700.009 300.006C713.27 300.006 725.987 294.738 735.364 285.362C744.74 275.985 750.008 263.268 750.008 250.007H700.009" fill="#F3BE00"/>
<path d="M800.007 250.007H750.008V300.006H800.007V250.007Z" fill="#3F3F9C"/>
<path d="M750.008 250.007C750.008 263.268 755.276 275.985 764.652 285.362C774.029 294.738 786.746 300.006 800.007 300.006V250.007" fill="#4D4DC7"/>
<path d="M900.003 200.001H800.003V300.001H900.003V200.001Z" fill="#7272C5"/>
<path d="M850.005 199.995H800.007V249.993H850.005V199.995Z" fill="#212152"/>
<path d="M800.007 199.995C813.267 199.995 825.985 205.262 835.361 214.639C844.738 224.015 850.005 236.733 850.005 249.993H800.007" fill="#F3BE00"/>
<path d="M900.004 199.995H850.005V249.993H900.004V199.995Z" fill="#F3BE00"/>
<path d="M850.005 249.993C850.005 236.733 855.273 224.015 864.65 214.639C874.026 205.262 886.744 199.995 900.004 199.995V249.993" fill="#3F3F9C"/>
<path d="M850.005 250.007H800.007V300.006H850.005V250.007Z" fill="#3F3F9C"/>
<path d="M800.007 300.006C813.267 300.006 825.985 294.738 835.361 285.362C844.738 275.985 850.005 263.268 850.005 250.007H800.007" fill="#212152"/>
<path d="M900.004 250.007H850.005V300.006H900.004V250.007Z" fill="#4D4DC7"/>
<path d="M850.005 250.007C850.005 263.268 855.273 275.985 864.65 285.362C874.026 294.738 886.744 300.006 900.004 300.006V250.007" fill="#3F3F9C"/>
<path d="M1000 199.995H900.004V299.992H1000V199.995Z" fill="#3F3F9C"/>
<path d="M900.004 199.995C926.525 199.995 951.96 210.53 970.713 229.283C989.466 248.036 1000 273.471 1000 299.992L900.004 199.995C900.004 226.516 910.54 251.95 929.293 270.703C948.046 289.457 973.48 299.992 1000 299.992" fill="#212152"/>
<path d="M100 300.001H0V400.001H100V300.001Z" fill="#7272C5"/>
<path d="M49.9987 300.006H0V350.005H49.9987V300.006Z" fill="#4D4DC7"/>
<path d="M0 300.006C13.2605 300.006 25.9778 305.274 35.3544 314.65C44.731 324.027 49.9987 336.744 49.9987 350.005H0" fill="#212152"/>
<path d="M99.9973 300.006H49.9987V350.005H99.9973V300.006Z" fill="#4D4DC7"/>
<path d="M49.9987 350.005C49.9987 336.744 55.2664 324.027 64.6429 314.65C74.0195 305.274 86.7369 300.006 99.9973 300.006V350.005" fill="#212152"/>
<path d="M49.9987 350.005H0V400.003H49.9987V350.005Z" fill="#3F3F9C"/>
<path d="M0 400.003C13.2605 400.003 25.9778 394.736 35.3544 385.359C44.731 375.982 49.9987 363.265 49.9987 350.005H0" fill="#F3BE00"/>
<path d="M99.9973 350.005H49.9987V400.003H99.9973V350.005Z" fill="#212152"/>
<path d="M49.9987 350.005C49.9987 363.265 55.2664 375.982 64.6429 385.359C74.0195 394.736 86.7369 400.003 99.9973 400.003V350.005" fill="#3F3F9C"/>
<path d="M200.001 300.001H100V400.001H200.001V300.001Z" fill="#7272C5"/>
<path d="M149.996 300.006H99.9973V350.005H149.996V300.006Z" fill="#F3BE00"/>
<path d="M149.996 300.006V350.005H99.9973L149.996 300.006Z" fill="#F3BE00"/>
<path d="M199.995 300.006H149.996V350.005H199.995V300.006Z" fill="#3F3F9C"/>
<path d="M149.996 300.006H199.995L149.996 350.005V300.006Z" fill="#F3BE00"/>
<path d="M149.996 350.005H99.9973V400.003H149.996V350.005Z" fill="#3F3F9C"/>
<path d="M99.9973 350.005H149.996V400.003L99.9973 350.005Z" fill="#4D4DC7"/>
<path d="M199.995 350.005H149.996V400.003H199.995V350.005Z" fill="#3F3F9C"/>
<path d="M149.996 350.005L199.995 400.003H149.996V350.005Z" fill="#4D4DC7"/>
<path d="M300.001 300.001H200.001V400.001H300.001V300.001Z" fill="#7272C5"/>
<path d="M249.993 300.006H199.995V350.005H249.993V300.006Z" fill="#212152"/>
<path d="M249.993 300.006V350.005H199.995L249.993 300.006Z" fill="#4D4DC7"/>
<path d="M300.006 300.006H250.007V350.005H300.006V300.006Z" fill="#4D4DC7"/>
<path d="M250.007 300.006H300.006L250.007 350.005V300.006Z" fill="#3F3F9C"/>
<path d="M249.993 350.005H199.995V400.003H249.993V350.005Z" fill="#F3BE00"/>
<path d="M199.995 350.005H249.993V400.003L199.995 350.005Z" fill="#212152"/>
<path d="M300.006 350.005H250.007V400.003H300.006V350.005Z" fill="#3F3F9C"/>
<path d="M250.007 350.005L300.006 400.003H250.007V350.005Z" fill="#212152"/>
<path d="M400.002 300.001H300.001V400.001H400.002V300.001Z" fill="#7272C5"/>
<path d="M350.005 300.006H300.006V350.005H350.005V300.006Z" fill="#4D4DC7"/>
<path d="M300.006 350.005C300.006 336.744 305.274 324.027 314.65 314.65C324.027 305.274 336.744 300.006 350.005 300.006V312.506C340.059 312.506 330.521 316.457 323.489 323.489C316.456 330.521 312.506 340.059 312.506 350.005" fill="#212152"/>
<path d="M400.003 300.006H350.005V350.005H400.003V300.006Z" fill="#F3BE00"/>
<path d="M350.005 300.006C363.265 300.006 375.983 305.274 385.359 314.65C394.736 324.027 400.003 336.744 400.003 350.005H387.504C387.504 340.059 383.553 330.521 376.521 323.489C369.488 316.457 359.95 312.506 350.005 312.506" fill="#4D4DC7"/>
<path d="M350.005 350.005H300.006V400.003H350.005V350.005Z" fill="#F3BE00"/>
<path d="M300.006 350.005C300.006 363.265 305.274 375.982 314.65 385.359C324.027 394.736 336.744 400.003 350.005 400.003V387.504C340.059 387.504 330.521 383.553 323.489 376.52C316.456 369.488 312.506 359.95 312.506 350.005" fill="#212152"/>
<path d="M400.003 350.005H350.005V400.003H400.003V350.005Z" fill="#3F3F9C"/>
<path d="M350.005 400.003C363.265 400.003 375.983 394.736 385.359 385.359C394.736 375.982 400.003 363.265 400.003 350.005H387.504C387.504 359.95 383.553 369.488 376.521 376.52C369.488 383.553 359.95 387.504 350.005 387.504" fill="#F3BE00"/>
<path d="M500.002 300.001H400.001V400.001H500.002V300.001Z" fill="#7272C5"/>
<path d="M450.002 300.006H400.003V350.005H450.002V300.006Z" fill="#F3BE00"/>
<path d="M400.003 300.006C413.264 300.006 425.981 305.274 435.358 314.65C444.734 324.027 450.002 336.744 450.002 350.005H400.003" fill="#3F3F9C"/>
<path d="M500.001 300.006H450.002V350.005H500.001V300.006Z" fill="#F3BE00"/>
<path d="M450.002 350.005C450.002 336.744 455.27 324.027 464.646 314.65C474.023 305.274 486.74 300.006 500.001 300.006V350.005" fill="#3F3F9C"/>
<path d="M450.002 350.005H400.003V400.003H450.002V350.005Z" fill="#3F3F9C"/>
<path d="M400.003 400.003C413.264 400.003 425.981 394.736 435.358 385.359C444.734 375.982 450.002 363.265 450.002 350.005H400.003" fill="#212152"/>
<path d="M500.001 350.005H450.002V400.003H500.001V350.005Z" fill="#212152"/>
<path d="M450.002 350.005C450.002 363.265 455.27 375.982 464.646 385.359C474.023 394.736 486.74 400.003 500.001 400.003V350.005" fill="#212152"/>
<path d="M600.002 300.001H500.002V400.001H600.002V300.001Z" fill="#7272C5"/>
<path d="M549.999 300.006H500.001V350.005H549.999V300.006Z" fill="#4D4DC7"/>
<path d="M549.999 300.006V350.005H500.001L549.999 300.006Z" fill="#4D4DC7"/>
<path d="M599.998 300.006H549.999V350.005H599.998V300.006Z" fill="#F3BE00"/>
<path d="M549.999 300.006L599.998 350.005H549.999V300.006Z" fill="#F3BE00"/>
<path d="M549.999 350.005H500.001V400.003H549.999V350.005Z" fill="#3F3F9C"/>
<path d="M500.001 350.005H549.999V400.003L500.001 350.005Z" fill="#212152"/>
<path d="M599.998 350.005H549.999V400.003H599.998V350.005Z" fill="#3F3F9C"/>
<path d="M549.999 350.005H599.998L549.999 400.003V350.005Z" fill="#4D4DC7"/>
<path d="M700.003 300.001H600.002V400.001H700.003V300.001Z" fill="#7272C5"/>
<path d="M649.997 300.006H599.998V350.005H649.997V300.006Z" fill="#4D4DC7"/>
<path d="M599.998 350.005C613.258 350.005 625.976 344.737 635.352 335.36C644.729 325.984 649.997 313.267 649.997 300.006H599.998" fill="#212152"/>
<path d="M699.995 300.006H649.997V350.005H699.995V300.006Z" fill="#3F3F9C"/>
<path d="M649.997 300.006C649.997 313.267 655.264 325.984 664.641 335.36C674.018 344.737 686.735 350.005 699.995 350.005V300.006" fill="#F3BE00"/>
<path d="M649.997 350.005H599.998V400.003H649.997V350.005Z" fill="#3F3F9C"/>
<path d="M599.998 350.005C613.258 350.005 625.976 355.272 635.352 364.649C644.729 374.025 649.997 386.743 649.997 400.003H599.998" fill="#4D4DC7"/>
<path d="M699.995 350.005H649.997V400.003H699.995V350.005Z" fill="#F3BE00"/>
<path d="M649.997 400.003C649.997 386.743 655.264 374.025 664.641 364.649C674.018 355.272 686.735 350.005 699.995 350.005V400.003" fill="#3F3F9C"/>
<path d="M800.007 300.006H700.009V400.003H800.007V300.006Z" fill="#3F3F9C"/>
<path d="M800.007 300.006H700.009V400.003H800.007V300.006Z" fill="#F3BE00"/>
<path d="M900.004 300.006H800.007V400.003H900.004V300.006Z" fill="#F3BE00"/>
<path d="M800.007 300.006C800.007 326.527 810.542 351.962 829.295 370.715C848.048 389.468 873.483 400.003 900.004 400.003V300.006" fill="#3F3F9C"/>
<path d="M1000 300.006H900.004V400.003H1000V300.006Z" fill="#3F3F9C"/>
<path d="M1000 300.006H900.004V400.003H1000V300.006Z" fill="#4D4DC7"/>
<path d="M99.9973 400.003H0V500.001H99.9973V400.003Z" fill="#212152"/>
<path d="M99.9973 400.003H0V500.001H99.9973V400.003Z" fill="#4D4DC7"/>
<path d="M199.995 400.003H99.9973V500.001H199.995V400.003Z" fill="#F3BE00"/>
<path d="M99.9973 500.001C99.9973 473.48 110.533 448.045 129.286 429.292C148.039 410.539 173.474 400.003 199.995 400.003V500.001" fill="#3F3F9C"/>
<path d="M300.001 400.001H200.001V500.002H300.001V400.001Z" fill="#7272C5"/>
<path d="M249.993 400.003H199.995V450.002H249.993V400.003Z" fill="#3F3F9C"/>
<path d="M199.995 450.002C199.995 436.742 205.262 424.024 214.639 414.648C224.016 405.271 236.733 400.003 249.993 400.003V450.002" fill="#4D4DC7"/>
<path d="M300.006 400.003H250.007V450.002H300.006V400.003Z" fill="#4D4DC7"/>
<path d="M250.007 400.003C263.268 400.003 275.985 405.271 285.362 414.648C294.738 424.024 300.006 436.742 300.006 450.002H250.007" fill="#212152"/>
<path d="M249.993 450.002H199.995V500.001H249.993V450.002Z" fill="#4D4DC7"/>
<path d="M199.995 450.002C199.995 463.263 205.262 475.98 214.639 485.356C224.016 494.733 236.733 500.001 249.993 500.001V450.002" fill="#F3BE00"/>
<path d="M300.006 450.002H250.007V500.001H300.006V450.002Z" fill="#4D4DC7"/>
<path d="M250.007 500.001C263.268 500.001 275.985 494.733 285.362 485.356C294.738 475.98 300.006 463.263 300.006 450.002H250.007" fill="#212152"/>
<path d="M400.003 400.003H300.006V500.001H400.003V400.003Z" fill="#212152"/>
<path d="M300.006 400.003H400.003V500.001L300.006 400.003Z" fill="#212152"/>
<path d="M500.002 400.001H400.001V500.002H500.002V400.001Z" fill="#7272C5"/>
<path d="M450.002 400.003H400.003V450.002H450.002V400.003Z" fill="#3F3F9C"/>
<path d="M400.003 400.003C413.264 400.003 425.981 405.271 435.358 414.648C444.734 424.024 450.002 436.742 450.002 450.002H400.003" fill="#212152"/>
<path d="M500.001 400.003H450.002V450.002H500.001V400.003Z" fill="#212152"/>
<path d="M450.002 450.002C450.002 436.742 455.27 424.024 464.646 414.648C474.023 405.271 486.74 400.003 500.001 400.003V450.002" fill="#212152"/>
<path d="M450.002 450.002H400.003V500.001H450.002V450.002Z" fill="#4D4DC7"/>
<path d="M400.003 500.001C413.264 500.001 425.981 494.733 435.358 485.356C444.734 475.98 450.002 463.263 450.002 450.002H400.003" fill="#3F3F9C"/>
<path d="M500.001 450.002H450.002V500.001H500.001V450.002Z" fill="#4D4DC7"/>
<path d="M450.002 450.002C450.002 463.263 455.27 475.98 464.646 485.356C474.023 494.733 486.74 500.001 500.001 500.001V450.002" fill="#F3BE00"/>
<path d="M600.002 400.001H500.002V500.002H600.002V400.001Z" fill="#7272C5"/>
<path d="M549.999 400.003H500.001V450.002H549.999V400.003Z" fill="#3F3F9C"/>
<path d="M500.001 450.002C500.001 436.742 505.268 424.024 514.645 414.648C524.022 405.271 536.739 400.003 549.999 400.003V412.503C540.054 412.503 530.516 416.454 523.484 423.486C516.451 430.519 512.5 440.057 512.5 450.002" fill="#F3BE00"/>
<path d="M599.998 400.003H549.999V450.002H599.998V400.003Z" fill="#212152"/>
<path d="M549.999 400.003C563.26 400.003 575.977 405.271 585.354 414.648C594.73 424.024 599.998 436.742 599.998 450.002H587.498C587.498 440.057 583.548 430.519 576.515 423.486C569.483 416.454 559.945 412.503 549.999 412.503" fill="#F3BE00"/>
<path d="M549.999 450.002H500.001V500.001H549.999V450.002Z" fill="#4D4DC7"/>
<path d="M500.001 450.002C500.001 463.263 505.268 475.98 514.645 485.356C524.022 494.733 536.739 500.001 549.999 500.001V487.501C540.054 487.501 530.516 483.55 523.484 476.518C516.451 469.485 512.5 459.947 512.5 450.002" fill="#4D4DC7"/>
<path d="M599.998 450.002H549.999V500.001H599.998V450.002Z" fill="#212152"/>
<path d="M549.999 500.001C563.26 500.001 575.977 494.733 585.354 485.356C594.73 475.98 599.998 463.263 599.998 450.002H587.498C587.498 459.947 583.548 469.485 576.515 476.518C569.483 483.55 559.945 487.501 549.999 487.501" fill="#4D4DC7"/>
<path d="M700.003 400.001H600.002V500.002H700.003V400.001Z" fill="#7272C5"/>
<path d="M649.997 400.003H599.998V450.002H649.997V400.003Z" fill="#4D4DC7"/>
<path d="M599.998 400.003C613.258 400.003 625.976 405.271 635.352 414.648C644.729 424.024 649.997 436.742 649.997 450.002H599.998" fill="#F3BE00"/>
<path d="M699.995 400.003H649.997V450.002H699.995V400.003Z" fill="#212152"/>
<path d="M649.997 450.002C649.997 436.742 655.264 424.024 664.641 414.648C674.018 405.271 686.735 400.003 699.995 400.003V450.002" fill="#4D4DC7"/>
<path d="M649.997 450.002H599.998V500.001H649.997V450.002Z" fill="#F3BE00"/>
<path d="M599.998 500.001C613.258 500.001 625.976 494.733 635.352 485.356C644.729 475.98 649.997 463.263 649.997 450.002H599.998" fill="#3F3F9C"/>
<path d="M699.995 450.002H649.997V500.001H699.995V450.002Z" fill="#F3BE00"/>
<path d="M649.997 450.002C649.997 463.263 655.264 475.98 664.641 485.356C674.018 494.733 686.735 500.001 699.995 500.001V450.002" fill="#F3BE00"/>
<path d="M800.003 400.001H700.003V500.002H800.003V400.001Z" fill="#7272C5"/>
<path d="M750.008 400.003H700.009V450.002H750.008V400.003Z" fill="#4D4DC7"/>
<path d="M700.009 400.003C700.009 413.264 705.277 425.981 714.654 435.358C724.03 444.734 736.748 450.002 750.008 450.002V400.003" fill="#3F3F9C"/>
<path d="M800.007 400.003H750.008V450.002H800.007V400.003Z" fill="#F3BE00"/>
<path d="M750.008 450.002C756.574 450.002 763.076 448.709 769.142 446.196C775.208 443.683 780.72 440.001 785.363 435.358C790.005 430.715 793.688 425.203 796.201 419.137C798.713 413.071 800.007 406.569 800.007 400.003H750.008" fill="#3F3F9C"/>
<path d="M750.008 450.002H700.009V500.001H750.008V450.002Z" fill="#4D4DC7"/>
<path d="M700.009 500.001C700.009 486.74 705.277 474.023 714.654 464.646C724.03 455.27 736.748 450.002 750.008 450.002V500.001" fill="#4D4DC7"/>
<path d="M800.007 450.002H750.008V500.001H800.007V450.002Z" fill="#212152"/>
<path d="M750.008 450.002C756.574 450.002 763.076 451.295 769.142 453.808C775.208 456.321 780.72 460.004 785.363 464.646C790.005 469.289 793.688 474.801 796.201 480.867C798.713 486.933 800.007 493.435 800.007 500.001H750.008" fill="#F3BE00"/>
<path d="M900.003 400.001H800.003V500.002H900.003V400.001Z" fill="#7272C5"/>
<path d="M850.005 400.003H800.007V450.002H850.005V400.003Z" fill="#F3BE00"/>
<path d="M800.007 400.003C813.267 400.003 825.985 405.271 835.361 414.648C844.738 424.024 850.005 436.742 850.005 450.002H800.007" fill="#3F3F9C"/>
<path d="M900.004 400.003H850.005V450.002H900.004V400.003Z" fill="#3F3F9C"/>
<path d="M850.005 450.002C850.005 436.742 855.273 424.024 864.65 414.648C874.026 405.271 886.744 400.003 900.004 400.003V450.002" fill="#F3BE00"/>
<path d="M850.005 450.002H800.007V500.001H850.005V450.002Z" fill="#4D4DC7"/>
<path d="M800.007 500.001C813.267 500.001 825.985 494.733 835.361 485.356C844.738 475.98 850.005 463.263 850.005 450.002H800.007" fill="#4D4DC7"/>
<path d="M900.004 450.002H850.005V500.001H900.004V450.002Z" fill="#4D4DC7"/>
<path d="M850.005 450.002C850.005 463.263 855.273 475.98 864.65 485.356C874.026 494.733 886.744 500.001 900.004 500.001V450.002" fill="#212152"/>
<path d="M1000 400.003H900.004V500.001H1000V400.003Z" fill="#3F3F9C"/>
<path d="M900.004 400.003H1000L900.004 500.001V400.003Z" fill="#212152"/>
<path d="M99.9973 500.001H0V599.998H99.9973V500.001Z" fill="#212152"/>
<path d="M0 500.001C0 526.522 10.5354 551.956 29.2885 570.71C48.0417 589.463 73.4764 599.998 99.9973 599.998V500.001" fill="#212152"/>
<path d="M200.001 500.002H100V600.002H200.001V500.002Z" fill="#7272C5"/>
<path d="M149.996 500.001H99.9973V549.999H149.996V500.001Z" fill="#212152"/>
<path d="M99.9973 500.001C99.9973 513.261 105.265 525.979 114.642 535.355C124.018 544.732 136.736 549.999 149.996 549.999V500.001" fill="#F3BE00"/>
<path d="M199.995 500.001H149.996V549.999H199.995V500.001Z" fill="#3F3F9C"/>
<path d="M149.996 549.999C163.256 549.999 175.974 544.732 185.35 535.355C194.727 525.979 199.995 513.261 199.995 500.001H149.996" fill="#F3BE00"/>
<path d="M149.996 549.999H99.9973V599.998H149.996V549.999Z" fill="#4D4DC7"/>
<path d="M99.9973 599.998C99.9973 593.432 101.291 586.931 103.803 580.864C106.316 574.798 109.999 569.286 114.642 564.644C119.284 560.001 124.796 556.318 130.862 553.805C136.928 551.293 143.43 549.999 149.996 549.999V599.998" fill="#F3BE00"/>
<path d="M199.995 549.999H149.996V599.998H199.995V549.999Z" fill="#F3BE00"/>
<path d="M149.996 549.999C156.562 549.999 163.064 551.293 169.13 553.805C175.196 556.318 180.708 560.001 185.35 564.644C189.993 569.286 193.676 574.798 196.189 580.864C198.701 586.931 199.995 593.432 199.995 599.998H149.996" fill="#F3BE00"/>
<path d="M300.001 500.002H200.001V600.002H300.001V500.002Z" fill="#7272C5"/>
<path d="M249.993 500.001H199.995V549.999H249.993V500.001Z" fill="#4D4DC7"/>
<path d="M199.995 549.999C199.995 536.739 205.262 524.022 214.639 514.645C224.016 505.268 236.733 500.001 249.993 500.001V549.999" fill="#212152"/>
<path d="M300.006 500.001H250.007V549.999H300.006V500.001Z" fill="#4D4DC7"/>
<path d="M250.007 500.001C263.268 500.001 275.985 505.268 285.362 514.645C294.738 524.022 300.006 536.739 300.006 549.999H250.007" fill="#3F3F9C"/>
<path d="M249.993 549.999H199.995V599.998H249.993V549.999Z" fill="#4D4DC7"/>
<path d="M199.995 549.999C199.995 563.26 205.262 575.977 214.639 585.354C224.016 594.73 236.733 599.998 249.993 599.998V549.999" fill="#212152"/>
<path d="M300.006 549.999H250.007V599.998H300.006V549.999Z" fill="#212152"/>
<path d="M250.007 599.998C263.268 599.998 275.985 594.73 285.362 585.354C294.738 575.977 300.006 563.26 300.006 549.999H250.007" fill="#3F3F9C"/>
<path d="M400.002 500.002H300.001V600.002H400.002V500.002Z" fill="#7272C5"/>
<path d="M350.005 500.001H300.006V549.999H350.005V500.001Z" fill="#212152"/>
<path d="M300.006 500.001C313.267 500.001 325.984 505.268 335.36 514.645C344.737 524.022 350.005 536.739 350.005 549.999H300.006" fill="#F3BE00"/>
<path d="M400.003 500.001H350.005V549.999H400.003V500.001Z" fill="#212152"/>
<path d="M350.005 549.999C350.005 536.739 355.272 524.022 364.649 514.645C374.026 505.268 386.743 500.001 400.003 500.001V549.999" fill="#F3BE00"/>
<path d="M350.005 549.999H300.006V599.998H350.005V549.999Z" fill="#3F3F9C"/>
<path d="M300.006 599.998C313.267 599.998 325.984 594.73 335.36 585.354C344.737 575.977 350.005 563.26 350.005 549.999H300.006" fill="#212152"/>
<path d="M400.003 549.999H350.005V599.998H400.003V549.999Z" fill="#212152"/>
<path d="M350.005 549.999C350.005 563.26 355.272 575.977 364.649 585.354C374.026 594.73 386.743 599.998 400.003 599.998V549.999" fill="#4D4DC7"/>
<path d="M500.002 500.002H400.001V600.002H500.002V500.002Z" fill="#7272C5"/>
<path d="M450.002 500.001H400.003V549.999H450.002V500.001Z" fill="#F3BE00"/>
<path d="M450.002 500.001V549.999H400.003L450.002 500.001Z" fill="#3F3F9C"/>
<path d="M500.001 500.001H450.002V549.999H500.001V500.001Z" fill="#212152"/>
<path d="M450.002 500.001L500.001 549.999H450.002V500.001Z" fill="#4D4DC7"/>
<path d="M450.002 549.999H400.003V599.998H450.002V549.999Z" fill="#212152"/>
<path d="M400.003 549.999H450.002V599.998L400.003 549.999Z" fill="#3F3F9C"/>
<path d="M500.001 549.999H450.002V599.998H500.001V549.999Z" fill="#212152"/>
<path d="M450.002 549.999H500.001L450.002 599.998V549.999Z" fill="#3F3F9C"/>
<path d="M599.998 500.001H500.001V599.998H599.998V500.001Z" fill="#F3BE00"/>
<path d="M500.001 500.001L599.998 599.998H500.001V500.001Z" fill="#212152"/>
<path d="M699.995 500.001H599.998V599.998H699.995V500.001Z" fill="#3F3F9C"/>
<path d="M599.998 500.001H699.995V599.998L599.998 500.001Z" fill="#212152"/>
<path d="M800.007 500.001H700.009V599.998H800.007V500.001Z" fill="#3F3F9C"/>
<path d="M700.009 500.001C700.009 526.522 710.545 551.956 729.298 570.71C748.051 589.463 773.486 599.998 800.007 599.998V500.001" fill="#3F3F9C"/>
<path d="M900.003 500.002H800.003V600.002H900.003V500.002Z" fill="#7272C5"/>
<path d="M850.005 500.001H800.007V549.999H850.005V500.001Z" fill="#4D4DC7"/>
<path d="M800.007 500.001C813.267 500.001 825.985 505.268 835.361 514.645C844.738 524.022 850.005 536.739 850.005 549.999H800.007" fill="#212152"/>
<path d="M900.004 500.001H850.005V549.999H900.004V500.001Z" fill="#3F3F9C"/>
<path d="M850.005 549.999C850.005 536.739 855.273 524.022 864.65 514.645C874.026 505.268 886.744 500.001 900.004 500.001V549.999" fill="#212152"/>
<path d="M850.005 549.999H800.007V599.998H850.005V549.999Z" fill="#3F3F9C"/>
<path d="M800.007 599.998C813.267 599.998 825.985 594.73 835.361 585.354C844.738 575.977 850.005 563.26 850.005 549.999H800.007" fill="#F3BE00"/>
<path d="M900.004 549.999H850.005V599.998H900.004V549.999Z" fill="#212152"/>
<path d="M850.005 549.999C850.005 563.26 855.273 575.977 864.65 585.354C874.026 594.73 886.744 599.998 900.004 599.998V549.999" fill="#F3BE00"/>
<path d="M1000 500.001H900.004V599.998H1000V500.001Z" fill="#F3BE00"/>
<path d="M1000 500.001V599.998H900.004L1000 500.001Z" fill="#212152"/>
</g>
<defs>
<clipPath id="clip0_233_607">
<rect width="1000" height="599.988" fill="white"/>
</clipPath>
</defs>
</svg>
