<svg width="31" height="31" viewBox="0 0 31 31" fill="none" xmlns="http://www.w3.org/2000/svg">
<path fill-rule="evenodd" clip-rule="evenodd" d="M8.60758 20.2916C7.51368 19.151 6.77174 17.7075 6.47378 16.1402C6.17335 14.5686 6.32762 12.9416 6.91774 11.4579C7.50282 9.98264 8.5017 8.71678 9.78895 7.81931C12.4007 5.99773 15.8389 5.99773 18.4506 7.81931C19.7379 8.71678 20.7368 9.98264 21.3219 11.4579C21.912 12.9416 22.0662 14.5686 21.7658 16.1402C21.4679 17.7075 20.7259 19.151 19.632 20.2916C18.1833 21.8098 16.1956 22.666 14.1198 22.666C12.044 22.666 10.0563 21.8098 8.60758 20.2916V20.2916Z" stroke="#252525" stroke-width="1.5" stroke-linecap="round" stroke-linejoin="round"/>
<path d="M14.1478 9.5139C13.736 9.55846 13.4383 9.92842 13.4829 10.3402C13.5274 10.752 13.8974 11.0498 14.3092 11.0052L14.1478 9.5139ZM16.651 12.421C16.8096 12.8036 17.2484 12.9852 17.6311 12.8266C18.0137 12.668 18.1953 12.2292 18.0367 11.8465L16.651 12.421ZM20.2829 19.6415C19.9928 19.3458 19.518 19.3413 19.2223 19.6313C18.9266 19.9214 18.9221 20.3962 19.2121 20.6919L20.2829 19.6415ZM23.4974 25.0604C23.7875 25.356 24.2624 25.3606 24.558 25.0705C24.8537 24.7805 24.8583 24.3056 24.5682 24.0099L23.4974 25.0604ZM14.3092 11.0052C15.2993 10.8981 16.2542 11.4639 16.651 12.421L18.0367 11.8465C17.3912 10.2896 15.8163 9.33336 14.1478 9.5139L14.3092 11.0052ZM19.2121 20.6919L23.4974 25.0604L24.5682 24.0099L20.2829 19.6415L19.2121 20.6919Z" fill="#252525"/>
</svg>
