<svg width="35" height="38" viewBox="0 0 35 38" fill="none" xmlns="http://www.w3.org/2000/svg">
<path d="M32.0556 1.66406H4.08652C2.75319 1.66406 1.66602 2.795 1.66602 4.18625V34.1419C1.66602 35.5375 2.75319 36.6641 4.08652 36.6641H32.0577C33.393 36.6641 34.4864 35.5375 34.4864 34.1419V4.18625C34.4864 2.795 33.393 1.66406 32.0556 1.66406V1.66406ZM11.4014 31.4884H6.52958V14.7869H11.4034V31.4884H11.4014ZM8.96649 12.5031C7.40342 12.5031 6.14189 11.1534 6.14189 9.49094C6.14189 7.83063 7.40342 6.48094 8.96649 6.48094C10.5234 6.48094 11.789 7.83063 11.789 9.49094C11.789 11.1556 10.5255 12.5031 8.96649 12.5031ZM29.631 31.4884H24.7674V23.3684C24.7674 21.4303 24.7326 18.9387 22.2382 18.9387C19.7049 18.9387 19.3193 21.0475 19.3193 23.2263V31.4906H14.4557V14.7869H19.1203V17.0684H19.188C19.8382 15.7559 21.4259 14.3713 23.7931 14.3713C28.7182 14.3713 29.629 17.8297 29.629 22.3294V31.4884H29.631Z" fill="#F8F8F8"/>
</svg>
