<svg width="53" height="68" viewBox="0 0 53 68" fill="none" xmlns="http://www.w3.org/2000/svg">
<rect x="1" y="1" width="51" height="65.575" stroke="#F8F8F8" stroke-width="2"/>
<rect x="3.3125" y="2.97656" width="46.375" height="49.8531" fill="#F8F8F8"/>
<path d="M5.40194 55.3375V59.0142H8.01374V61.2832H5.40194V64.8969H3.3125V55.3375H5.40194Z" fill="#F8F8F8"/>
<path d="M10.6368 59.0142V64.8969H8.54734V59.0142H10.6368ZM10.6368 55.3375V57.6066H8.54734V55.3375H10.6368Z" fill="#F8F8F8"/>
<path d="M11.5579 55.3375H16.995C17.6278 55.3375 18.1277 55.3935 18.4947 55.5056C18.8504 55.613 19.1631 55.8744 19.4327 56.29C19.6049 56.5561 19.7285 56.8736 19.8034 57.2424C19.8783 57.6066 19.9157 58.0758 19.9157 58.65V64.8969H17.8263V58.7551C17.8263 58.4936 17.8113 58.2975 17.7813 58.1668C17.7551 58.0361 17.7046 57.9264 17.6297 57.8377C17.5585 57.7536 17.4668 57.6953 17.3544 57.6626C17.2459 57.6252 17.1017 57.6066 16.922 57.6066H13.6474V64.8969H11.5579V55.3375ZM16.7085 59.0142V64.8969H14.7707V59.0142H16.7085Z" fill="#F8F8F8"/>
<path d="M25.0382 55.3375L27.4366 64.8969H20.2246L21.7805 59.0142H23.6902L22.8701 62.6278H24.8416L22.7634 55.3375H25.0382Z" fill="#F8F8F8"/>
<path d="M32.3906 55.3375L29.3463 59.8896L32.5984 64.8969H29.8911L27.4366 61.0521V59.0212L29.8911 55.3375H32.3906Z" fill="#F8F8F8"/>
<path d="M36.7717 55.1484C37.2247 55.1484 37.6666 55.2348 38.0972 55.4076C38.5316 55.5803 38.9191 55.8254 39.2599 56.1429C39.7429 56.5911 40.108 57.156 40.3552 57.8377C40.606 58.5193 40.7315 59.2943 40.7315 60.1627C40.7315 60.7697 40.6547 61.3509 40.5012 61.9065C40.3514 62.4621 40.1342 62.957 39.8496 63.3912C39.4864 63.9514 39.0502 64.374 38.5409 64.6587C38.0354 64.9435 37.4681 65.0859 36.8391 65.0859C36.21 65.0859 35.6352 64.9482 35.1147 64.6728C34.598 64.3926 34.1524 63.9818 33.7779 63.4402C33.1526 62.5344 32.8399 61.4396 32.8399 60.1557C32.8399 59.404 32.9504 58.7014 33.1713 58.0478C33.396 57.3895 33.7124 56.8339 34.1205 56.381C34.8582 55.5593 35.7419 55.1484 36.7717 55.1484ZM36.7773 57.3474C36.2231 57.3474 35.7887 57.5925 35.4742 58.0828C35.1634 58.5683 35.008 59.2406 35.008 60.0997C35.008 60.5619 35.0585 60.9844 35.1596 61.3673C35.2607 61.7454 35.4049 62.0582 35.5921 62.3057C35.8917 62.6932 36.2942 62.8869 36.7997 62.8869C37.3502 62.8869 37.7808 62.6418 38.0916 62.1516C38.4061 61.6614 38.5634 60.9821 38.5634 60.1137C38.5634 59.264 38.4024 58.5917 38.0804 58.0968C37.7621 57.5972 37.3277 57.3474 36.7773 57.3474Z" fill="#F8F8F8"/>
<path d="M41.4954 55.3375H46.9324C47.5652 55.3375 48.0651 55.3935 48.4321 55.5056C48.7878 55.613 49.1005 55.8744 49.3701 56.29C49.5423 56.5561 49.6659 56.8736 49.7408 57.2424C49.8157 57.6066 49.8531 58.0758 49.8531 58.65V64.8969H47.7637V58.7551C47.7637 58.4936 47.7487 58.2975 47.7188 58.1668C47.6925 58.0361 47.642 57.9264 47.5671 57.8377C47.496 57.7536 47.4042 57.6953 47.2919 57.6626C47.1833 57.6252 47.0391 57.6066 46.8594 57.6066H43.5848V64.8969H41.4954V55.3375ZM46.646 59.0142V64.8969H44.7082V59.0142H46.646Z" fill="#F8F8F8"/>
<path d="M8.52773 13.8328L7.45117 12.0109L20.2043 7.125L23.9309 26.6688C38.0421 15.2737 44.2751 32.4104 45.6277 42.4031L35.9387 45.2188C36.2699 42.9828 36.4024 36.805 34.2824 29.9813C32.1624 23.1575 26.8293 27.138 24.4277 29.9813L27.4918 46.2125L20.0387 48.6969L18.9621 47.0406L22.4402 45.9641L21.3637 43.2313L18.134 44.3078L17.3887 42.7344L20.9496 41.8234L19.7902 38.2625L16.6434 39.2563L15.9809 37.7656L19.3762 36.7719L18.134 33.2109L15.0699 34.2047L14.2418 32.6313L17.5543 31.5547L16.6434 28.7391L13.6621 29.8156L12.7512 27.9938L15.9809 27.1656L14.6559 23.025L11.923 24.0188L11.2605 22.2797L14.2418 21.2031L12.7512 17.1453L10.184 18.1391L9.35586 16.3172L12.1715 15.2406L11.2605 12.5078L8.52773 13.8328Z" fill="#3F3F9C"/>
</svg>
