<svg width="38" height="31" viewBox="0 0 38 31" fill="none" xmlns="http://www.w3.org/2000/svg">
<path d="M33.6662 0.914062H4.3327C2.31602 0.914062 0.684349 2.56406 0.684349 4.58072L0.666016 26.5807C0.666016 28.5974 2.31602 30.2474 4.3327 30.2474H33.6662C35.6829 30.2474 37.3329 28.5974 37.3329 26.5807V4.58072C37.3329 2.56406 35.6829 0.914062 33.6662 0.914062ZM32.9328 8.70572L19.9711 16.809C19.3844 17.1757 18.6144 17.1757 18.0278 16.809L5.06604 8.70572C4.8822 8.60252 4.72122 8.4631 4.59283 8.29588C4.46444 8.12867 4.37131 7.93714 4.31909 7.7329C4.26686 7.52865 4.25662 7.31593 4.28899 7.10762C4.32135 6.8993 4.39565 6.69971 4.50738 6.52094C4.61912 6.34217 4.76596 6.18792 4.93903 6.06755C5.11211 5.94717 5.3078 5.86316 5.51428 5.8206C5.72076 5.77805 5.93373 5.77783 6.14029 5.81996C6.34686 5.86209 6.54273 5.9457 6.71605 6.06572L18.9994 13.7474L31.2828 6.06572C31.4562 5.9457 31.652 5.86209 31.8586 5.81996C32.0652 5.77783 32.2781 5.77805 32.4846 5.8206C32.6911 5.86316 32.8868 5.94717 33.0598 6.06755C33.2329 6.18792 33.3798 6.34217 33.4915 6.52094C33.6032 6.69971 33.6775 6.8993 33.7099 7.10762C33.7423 7.31593 33.732 7.52865 33.6798 7.7329C33.6276 7.93714 33.5344 8.12867 33.406 8.29588C33.2777 8.4631 33.1167 8.60252 32.9328 8.70572Z" fill="#F8F8F8"/>
</svg>
