<svg width="261" height="325" viewBox="0 0 261 325" fill="none" xmlns="http://www.w3.org/2000/svg">
<g filter="url(#filter0_d_770_1730)">
<rect x="13" y="2" width="234.196" height="298.6" rx="20" fill="#FEFEFE"/>
<rect x="28.6367" y="16.1719" width="202.922" height="218.291" fill="#212152" stroke="#373435" stroke-width="2"/>
<path d="M36.8695 246.546V262.793H48.4105V272.819H36.8695V288.787H27.6367V246.546H36.8695Z" fill="#252525"/>
<path d="M60.0012 262.793V288.787H50.7684V262.793H60.0012ZM60.0012 246.546V256.573H50.7684V246.546H60.0012Z" fill="#252525"/>
<path d="M64.0716 246.546H88.0968C90.8931 246.546 93.102 246.794 94.7235 247.289C96.2954 247.764 97.677 248.919 98.8684 250.755C99.6295 251.931 100.176 253.334 100.506 254.964C100.837 256.573 101.003 258.646 101.003 261.184V288.787H91.77V261.648C91.77 260.493 91.7038 259.626 91.5715 259.048C91.4556 258.471 91.2323 257.986 90.9013 257.594C90.587 257.223 90.1816 256.965 89.6852 256.82C89.2053 256.655 88.5683 256.573 87.7741 256.573H73.3044V288.787H64.0716V246.546ZM86.831 262.793V288.787H78.2683V262.793H86.831Z" fill="#252525"/>
<path d="M123.638 246.546L134.236 288.787H102.368L109.243 262.793H117.681L114.058 278.761H122.769L113.586 246.546H123.638Z" fill="#252525"/>
<path d="M156.127 246.546L142.675 266.661L157.045 288.787H145.082L134.236 271.798V262.824L145.082 246.546H156.127Z" fill="#252525"/>
<path d="M175.486 245.711C177.488 245.711 179.44 246.093 181.343 246.856C183.263 247.619 184.975 248.702 186.481 250.105C188.615 252.086 190.229 254.582 191.321 257.594C192.429 260.606 192.983 264.031 192.983 267.868C192.983 270.55 192.644 273.118 191.966 275.573C191.304 278.028 190.344 280.215 189.087 282.134C187.482 284.61 185.554 286.477 183.304 287.735C181.07 288.993 178.563 289.623 175.784 289.623C173.004 289.623 170.464 289.014 168.164 287.797C165.881 286.559 163.912 284.744 162.257 282.35C159.494 278.348 158.112 273.51 158.112 267.837C158.112 264.516 158.6 261.411 159.577 258.522C160.569 255.614 161.968 253.159 163.771 251.157C167.031 247.526 170.936 245.711 175.486 245.711ZM175.511 255.428C173.062 255.428 171.142 256.511 169.753 258.677C168.379 260.823 167.693 263.793 167.693 267.589C167.693 269.632 167.916 271.499 168.363 273.191C168.809 274.862 169.446 276.244 170.274 277.337C171.597 279.05 173.376 279.906 175.61 279.906C178.042 279.906 179.945 278.823 181.318 276.657C182.708 274.49 183.403 271.489 183.403 267.651C183.403 263.897 182.692 260.926 181.269 258.739C179.862 256.532 177.943 255.428 175.511 255.428Z" fill="#252525"/>
<path d="M196.359 246.546H220.384C223.18 246.546 225.389 246.794 227.011 247.289C228.583 247.764 229.964 248.919 231.156 250.755C231.917 251.931 232.463 253.334 232.794 254.964C233.125 256.573 233.29 258.646 233.29 261.184V288.787H224.057V261.648C224.057 260.493 223.991 259.626 223.859 259.048C223.743 258.471 223.52 257.986 223.189 257.594C222.874 257.223 222.469 256.965 221.973 256.82C221.493 256.655 220.856 256.573 220.061 256.573H205.592V288.787H196.359V246.546ZM219.118 262.793V288.787H210.556V262.793H219.118Z" fill="#252525"/>
<path d="M50.6868 63.1092L45.9297 55.0587L102.283 33.4688L118.75 119.829C181.105 69.4764 208.647 145.2 214.624 189.356L171.81 201.797C173.274 191.917 173.859 164.619 164.491 134.466C155.124 104.313 131.558 121.902 120.946 134.466L134.485 206.188L101.551 217.166L96.7942 209.848L112.163 205.091L107.406 193.015L93.1348 197.772L89.8415 190.819L105.577 186.794L100.453 171.059L86.5481 175.45L83.6206 168.863L98.6238 164.472L93.1348 148.737L79.5954 153.128L75.9361 146.176L90.5733 141.419L86.5481 128.977L73.3745 133.734L69.3493 125.683L83.6206 122.024L77.7657 103.728L65.69 108.119L62.7625 100.434L75.9361 95.6771L69.3493 77.7464L58.0054 82.1376L54.3461 74.0871L66.7878 69.33L62.7625 57.2543L50.6868 63.1092Z" fill="#F3F100"/>
</g>
<defs>
<filter id="filter0_d_770_1730" x="0" y="0" width="260.195" height="324.602" filterUnits="userSpaceOnUse" color-interpolation-filters="sRGB">
<feFlood flood-opacity="0" result="BackgroundImageFix"/>
<feColorMatrix in="SourceAlpha" type="matrix" values="0 0 0 0 0 0 0 0 0 0 0 0 0 0 0 0 0 0 127 0" result="hardAlpha"/>
<feOffset dy="11"/>
<feGaussianBlur stdDeviation="6.5"/>
<feComposite in2="hardAlpha" operator="out"/>
<feColorMatrix type="matrix" values="0 0 0 0 0 0 0 0 0 0 0 0 0 0 0 0 0 0 0.25 0"/>
<feBlend mode="normal" in2="BackgroundImageFix" result="effect1_dropShadow_770_1730"/>
<feBlend mode="normal" in="SourceGraphic" in2="effect1_dropShadow_770_1730" result="shape"/>
</filter>
</defs>
</svg>
