<svg width="255" height="239" viewBox="0 0 255 239" fill="none" xmlns="http://www.w3.org/2000/svg">
<path fill-rule="evenodd" clip-rule="evenodd" d="M-0.00231934 59.9997C-0.00231934 59.9998 -0.00231934 59.9998 -0.00231934 59.9999C-0.00231934 93.137 26.8607 120 59.9979 120C59.9979 120 59.998 120 59.998 120V97.5C59.998 97.5 59.998 97.5 59.9979 97.5C39.2872 97.5 22.4978 80.7106 22.4978 59.9999C22.4978 59.9999 22.4978 59.9998 22.4978 59.9997H-0.00231934Z" fill="#F3F100"/>
<path fill-rule="evenodd" clip-rule="evenodd" d="M-0.00231934 60.0003C-0.00231934 60.0002 -0.00231934 60.0002 -0.00231934 60.0001C-0.00231934 26.863 26.8607 0 59.9979 0C59.9979 0 59.998 2.76486e-10 59.998 2.76486e-10V22.5C59.998 22.5 59.998 22.5 59.9979 22.5C39.2872 22.5 22.4978 39.2894 22.4978 60.0001C22.4978 60.0001 22.4978 60.0002 22.4978 60.0003H-0.00231934Z" fill="#F6C100"/>
<path fill-rule="evenodd" clip-rule="evenodd" d="M60.0016 119.992C60.0016 119.992 60.0017 119.992 60.0018 119.992C93.139 119.992 120.002 93.1295 120.002 59.9923C120.002 59.9923 120.002 59.9922 120.002 59.9922H97.502C97.502 59.9922 97.502 59.9922 97.502 59.9923C97.502 80.703 80.7126 97.4924 60.0018 97.4924C60.0017 97.4924 60.0017 97.4924 60.0016 97.4924L60.0016 119.992Z" fill="#7C7323"/>
<path fill-rule="evenodd" clip-rule="evenodd" d="M60.0017 -0.00810242C60.0017 -0.00810242 60.0018 -0.00810242 60.0018 -0.00810242C93.139 -0.00810242 120.002 26.8549 120.002 59.992C120.002 59.9921 120.002 59.9921 120.002 59.9922H97.502C97.502 59.9922 97.502 59.9921 97.502 59.9921C97.502 39.2814 80.7126 22.492 60.0018 22.492C60.0018 22.492 60.0018 22.492 60.0017 22.492L60.0017 -0.00810242Z" fill="#7C7323"/>
<path fill-rule="evenodd" clip-rule="evenodd" d="M157.498 119.992C157.498 119.992 157.498 119.992 157.498 119.992C124.361 119.992 97.498 93.1295 97.498 59.9923C97.498 59.9923 97.498 59.9922 97.498 59.9922H119.998C119.998 59.9922 119.998 59.9922 119.998 59.9923C119.998 80.703 136.787 97.4924 157.498 97.4924C157.498 97.4924 157.498 97.4924 157.498 97.4924V119.992Z" fill="#F8F8F8"/>
<path fill-rule="evenodd" clip-rule="evenodd" d="M157.498 -0.00810242C157.498 -0.00810242 157.498 -0.00810242 157.498 -0.00810242C124.361 -0.00810242 97.498 26.8549 97.498 59.992C97.498 59.9921 97.498 59.9921 97.498 59.9922H119.998C119.998 59.9922 119.998 59.9921 119.998 59.9921C119.998 39.2814 136.787 22.492 157.498 22.492C157.498 22.492 157.498 22.492 157.498 22.492V-0.00810242Z" fill="#F6C100"/>
<path fill-rule="evenodd" clip-rule="evenodd" d="M217.5 0.00754547C217.492 33.1376 190.632 59.9922 157.5 59.9922C157.166 59.9922 156.833 59.9895 156.5 59.984V37.4791C156.832 37.4878 157.166 37.4922 157.5 37.4922C178.206 37.4922 194.992 20.7112 195 0.00754547H217.5Z" fill="#F8F8F8"/>
<path fill-rule="evenodd" clip-rule="evenodd" d="M195 0.00754547C195.008 33.1376 221.868 59.9922 255 59.9922C255 59.9922 255 59.9922 255 59.9922V37.4922C255 37.4922 255 37.4922 255 37.4922C234.294 37.4922 217.508 20.7112 217.5 0.00754547H195Z" fill="#7C7323"/>
<path fill-rule="evenodd" clip-rule="evenodd" d="M97.4996 0.00754547C97.508 33.1376 124.368 59.9922 157.5 59.9922C157.5 59.9922 157.5 59.9922 157.5 59.9922V37.4922C157.5 37.4922 157.5 37.4922 157.5 37.4922C136.794 37.4922 120.008 20.7112 120 0.00754547H97.4996Z" fill="#F3F100"/>
<path fill-rule="evenodd" clip-rule="evenodd" d="M-0.00231934 179C-0.00231934 179 -0.00231934 179 -0.00231934 179C-0.00231934 212.137 26.8607 239 59.9979 239C59.9979 239 59.998 239 59.998 239V216.5C59.998 216.5 59.998 216.5 59.9979 216.5C39.2872 216.5 22.4978 199.711 22.4978 179C22.4978 179 22.4978 179 22.4978 179H-0.00231934Z" fill="#F3F100"/>
<path fill-rule="evenodd" clip-rule="evenodd" d="M-0.00231934 180C-0.00231934 180 -0.00231934 180 -0.00231934 180C-0.00231934 146.863 26.8607 120 59.9979 120C59.9979 120 59.998 120 59.998 120V142.5C59.998 142.5 59.998 142.5 59.9979 142.5C39.2872 142.5 22.4978 159.289 22.4978 180C22.4978 180 22.4978 180 22.4978 180H-0.00231934Z" fill="#F5ECA1"/>
<path fill-rule="evenodd" clip-rule="evenodd" d="M60.0017 97.4997C60.0017 97.4997 60.0018 97.4997 60.0018 97.4997C93.139 97.4997 120.002 124.363 120.002 157.5C120.002 157.5 120.002 157.5 120.002 157.5H97.502C97.502 157.5 97.502 157.5 97.502 157.5C97.502 136.789 80.7126 120 60.0018 120C60.0018 120 60.0018 120 60.0017 120L60.0017 97.4997Z" fill="#F8F8F8"/>
<path fill-rule="evenodd" clip-rule="evenodd" d="M157.498 216.5H157.498V194H157.498C136.954 194 120.269 177.48 120.001 157C120.269 136.519 136.954 120 157.498 120H157.498V97.4994H157.498C124.695 97.4994 98.0398 123.824 97.5059 156.5H97.4977V156.5C97.4977 156.667 97.4984 156.833 97.4997 157C97.4984 157.166 97.4977 157.333 97.4977 157.5V157.5H97.5059C98.0398 190.176 124.695 216.5 157.498 216.5Z" fill="#7C7323"/>
</svg>
