<svg width="576" height="240" viewBox="0 0 576 240" fill="none" xmlns="http://www.w3.org/2000/svg">
<path d="M47.9961 240C54.2998 240 60.5419 238.758 66.3658 236.346C72.1897 233.934 77.4814 230.398 81.9388 225.94C86.3962 221.483 89.932 216.191 92.3444 210.367C94.7567 204.543 95.9983 198.301 95.9983 191.997L47.9961 240C47.9961 233.696 49.2377 227.454 51.6501 221.63C54.0624 215.806 57.5982 210.514 62.0556 206.057C66.513 201.6 71.8048 198.064 77.6287 195.651C83.4526 193.239 89.6946 191.997 95.9983 191.997" fill="#3F3F9B"/>
<path d="M0 143.997C0 156.728 5.05736 168.938 14.0595 177.94C23.0617 186.943 35.2712 192 48.0022 192L0 143.997C6.30374 143.997 12.5458 145.239 18.3697 147.651C24.1936 150.064 29.4853 153.6 33.9427 158.057C38.4001 162.514 41.9359 167.806 44.3483 173.63C46.7606 179.454 48.0022 185.696 48.0022 192" fill="#FBC500"/>
<path d="M95.9961 143.997C95.9961 156.728 101.053 168.938 110.056 177.94C119.058 186.943 131.267 192 143.998 192L95.9961 143.997C102.3 143.997 108.542 145.239 114.366 147.651C120.19 150.064 125.481 153.6 129.939 158.057C134.396 162.514 137.932 167.806 140.344 173.63C142.757 179.454 143.998 185.696 143.998 192" fill="#3F3F9B"/>
<path d="M143.998 143.997C143.998 156.728 149.055 168.938 158.058 177.94C167.06 186.943 179.269 192 192 192L143.998 143.997C150.302 143.997 156.544 145.239 162.368 147.651C168.192 150.064 173.483 153.6 177.941 158.057C182.398 162.514 185.934 167.806 188.346 173.63C190.759 179.454 192 185.696 192 192" fill="#3F3F9B"/>
<path d="M431.996 144.008C438.361 144.008 444.464 141.48 448.965 136.979C453.465 132.479 455.993 126.375 455.993 120.011L431.996 144.008C431.996 137.643 434.524 131.54 439.025 127.039C443.525 122.539 449.629 120.011 455.993 120.011" fill="#3F3F9B"/>
<path d="M455.992 96.0027C455.992 102.367 458.52 108.471 463.021 112.971C467.521 117.472 473.625 120 479.989 120L455.992 96.0027C462.357 96.0027 468.46 98.531 472.961 103.031C477.461 107.532 479.989 113.636 479.989 120" fill="#3F3F9B"/>
<path d="M0 144.008C12.731 144.008 24.9405 138.95 33.9427 129.948C42.9449 120.946 48.0022 108.736 48.0022 96.0052L0 144.008C0 131.277 5.05736 119.067 14.0595 110.065C23.0617 101.063 35.2712 96.0052 48.0022 96.0052" fill="#FBC500"/>
<path d="M47.9961 120.011C47.9961 126.375 50.5244 132.479 55.0247 136.979C59.525 141.48 65.6287 144.008 71.9932 144.008L47.9961 120.011C54.3605 120.011 60.4643 122.539 64.9646 127.039C69.4649 131.54 71.9932 137.643 71.9932 144.008" fill="#FBC500"/>
<path d="M72 120C78.3644 120 84.4681 117.472 88.9685 112.971C93.4688 108.471 95.997 102.367 95.997 96.0027L72 120C72 113.636 74.5282 107.532 79.0286 103.031C83.5289 98.531 89.6326 96.0027 95.997 96.0027" fill="#3F3F9B"/>
<path d="M95.9961 96.0052C95.9961 108.736 101.053 120.946 110.056 129.948C119.058 138.95 131.267 144.008 143.998 144.008L95.9961 96.0052C108.727 96.0052 120.937 101.063 129.939 110.065C138.941 119.067 143.998 131.277 143.998 144.008" fill="#3F3F9B"/>
<path d="M143.998 144.008C150.362 144.008 156.466 141.48 160.967 136.979C165.467 132.479 167.995 126.375 167.995 120.011L143.998 144.008C143.998 137.643 146.526 131.54 151.027 127.039C155.527 122.539 161.631 120.011 167.995 120.011" fill="#FBC500"/>
<path d="M143.998 120C150.362 120 156.466 117.472 160.967 112.971C165.467 108.471 167.995 102.367 167.995 96.0027L143.998 120C143.998 113.636 146.526 107.532 151.027 103.031C155.527 98.531 161.631 96.0027 167.995 96.0027" fill="#3F3F9B"/>
<path d="M167.996 120C174.361 120 180.464 117.472 184.965 112.971C189.465 108.471 191.993 102.367 191.993 96.0027L167.996 120C167.996 113.636 170.524 107.532 175.025 103.031C179.525 98.531 185.629 96.0027 191.993 96.0027" fill="#FBC500"/>
<path d="M215.998 120C222.362 120 228.466 117.472 232.967 112.971C237.467 108.471 239.995 102.367 239.995 96.0027L215.998 120C215.998 113.636 218.526 107.532 223.027 103.031C227.527 98.531 233.631 96.0027 239.995 96.0027" fill="#FBC500"/>
<path d="M263.992 144.008C270.357 144.008 276.46 141.48 280.961 136.979C285.461 132.479 287.989 126.375 287.989 120.011L263.992 144.008C263.992 140.856 264.613 137.736 265.819 134.824C267.025 131.913 268.792 129.268 271.021 127.039C273.249 124.811 275.894 123.043 278.806 121.837C281.717 120.631 284.838 120.011 287.989 120.011" fill="#FBC500"/>
<path d="M239.994 120C246.359 120 252.462 117.472 256.963 112.971C261.463 108.471 263.991 102.367 263.991 96.0027L239.994 120C239.994 113.636 242.522 107.532 247.023 103.031C251.523 98.531 257.627 96.0027 263.991 96.0027" fill="#FBC500"/>
<path d="M239.994 120C246.359 120 252.462 117.472 256.963 112.971C261.463 108.471 263.991 102.367 263.991 96.0027L239.994 120C239.994 113.636 242.522 107.532 247.023 103.031C251.523 98.531 257.627 96.0027 263.991 96.0027" fill="#3F3F9B"/>
<path d="M287.998 96.0052C287.998 108.736 293.055 120.946 302.058 129.948C311.06 138.95 323.269 144.008 336 144.008L287.998 96.0052C300.729 96.0052 312.939 101.063 321.941 110.065C330.943 119.067 336 131.277 336 144.008" fill="#FBC500"/>
<path d="M383.992 96C396.723 96 408.933 90.9426 417.935 81.9404C426.937 72.9381 431.994 60.7285 431.994 47.9974L383.992 96C383.992 83.2689 389.05 71.0592 398.052 62.057C407.054 53.0548 419.263 47.9974 431.994 47.9974" fill="#3F3F9B"/>
<path d="M431.996 47.9974C431.996 60.7285 437.053 72.9381 446.056 81.9404C455.058 90.9426 467.267 96 479.998 96L431.996 47.9974C444.727 47.9974 456.937 53.0548 465.939 62.057C474.941 71.0592 479.998 83.2689 479.998 96" fill="#FBC500"/>
<path d="M503.994 96C510.359 96 516.462 93.4717 520.963 88.9714C525.463 84.471 527.991 78.3672 527.991 72.0027L503.994 96C503.994 89.6355 506.522 83.5317 511.023 79.0314C515.523 74.531 521.627 72.0027 527.991 72.0027" fill="#FBC500"/>
<path d="M479.99 48.0106C479.99 54.375 482.518 60.4788 487.019 64.9792C491.519 69.4795 497.623 72.0078 503.987 72.0078L479.99 48.0106C486.355 48.0106 492.458 50.5388 496.959 55.0392C501.459 59.5395 503.987 65.6433 503.987 72.0078" fill="#FBC500"/>
<path d="M503.994 72.0078C510.359 72.0078 516.462 69.4795 520.963 64.9792C525.463 60.4788 527.991 54.375 527.991 48.0106L503.994 72.0078C503.994 65.6433 506.522 59.5395 511.023 55.0392C515.523 50.5388 521.627 48.0106 527.991 48.0106" fill="#FBC500"/>
<path d="M527.992 47.9974C527.992 60.7285 533.05 72.9381 542.052 81.9404C551.054 90.9426 563.263 96 575.994 96L527.992 47.9974C540.723 47.9974 552.933 53.0548 561.935 62.057C570.937 71.0592 575.994 83.2689 575.994 96" fill="#FBC500"/>
<path d="M0 96C12.731 96 24.9405 90.9426 33.9427 81.9404C42.9449 72.9381 48.0022 60.7285 48.0022 47.9974L0 96C0 83.2689 5.05736 71.0592 14.0595 62.057C23.0617 53.0548 35.2712 47.9974 48.0022 47.9974" fill="#FBC500"/>
<path d="M47.9961 72.0027C47.9961 78.3672 50.5244 84.471 55.0247 88.9714C59.525 93.4717 65.6287 96 71.9932 96L47.9961 72.0027C54.3605 72.0027 60.4643 74.531 64.9646 79.0314C69.4649 83.5317 71.9932 89.6355 71.9932 96" fill="#3F3F9B"/>
<path d="M72 72.0078C78.3644 72.0078 84.4681 69.4795 88.9685 64.9792C93.4688 60.4788 95.997 54.375 95.997 48.0106L72 72.0078C72 65.6433 74.5282 59.5395 79.0286 55.0392C83.5289 50.5388 89.6326 48.0106 95.997 48.0106" fill="#FBC500"/>
<path d="M95.9961 96C102.361 96 108.464 93.4717 112.965 88.9714C117.465 84.471 119.993 78.3672 119.993 72.0027L95.9961 96C95.9961 89.6355 98.5244 83.5317 103.025 79.0314C107.525 74.531 113.629 72.0027 119.993 72.0027" fill="#FBC500"/>
<path d="M119.994 72.0027C119.994 78.3672 122.522 84.471 127.023 88.9714C131.523 93.4717 137.627 96 143.991 96L119.994 72.0027C126.359 72.0027 132.462 74.531 136.963 79.0314C141.463 83.5317 143.991 89.6355 143.991 96" fill="#3F3F9B"/>
<path d="M143.998 47.9974C143.998 60.7285 149.055 72.9381 158.058 81.9404C167.06 90.9426 179.269 96 192 96L143.998 47.9974C156.729 47.9974 168.939 53.0548 177.941 62.057C186.943 71.0592 192 83.2689 192 96" fill="#3F3F9B"/>
<path d="M191.994 47.9974C191.994 60.7285 197.052 72.9381 206.054 81.9404C215.056 90.9426 227.265 96 239.996 96L191.994 47.9974C204.725 47.9974 216.935 53.0548 225.937 62.057C234.939 71.0592 239.996 83.2689 239.996 96" fill="#FBC500"/>
<path d="M239.994 96C252.725 96 264.935 90.9426 273.937 81.9404C282.939 72.9381 287.996 60.7285 287.996 47.9974L239.994 96C239.994 83.2689 245.052 71.0592 254.054 62.057C263.056 53.0548 275.265 47.9974 287.996 47.9974" fill="#FBC500"/>
<path d="M287.998 96C300.729 96 312.939 90.9426 321.941 81.9404C330.943 72.9381 336 60.7285 336 47.9974L287.998 96C287.998 83.2689 293.055 71.0592 302.058 62.057C311.06 53.0548 323.269 47.9974 336 47.9974" fill="#3F3F9B"/>
<path d="M335.992 96C348.723 96 360.933 90.9426 369.935 81.9404C378.937 72.9381 383.994 60.7285 383.994 47.9974L335.992 96C335.992 83.2689 341.05 71.0592 350.052 62.057C359.054 53.0548 371.263 47.9974 383.994 47.9974" fill="#FBC500"/>
<path d="M431.996 48C425.692 48 419.45 46.7584 413.626 44.346C407.803 41.9336 402.511 38.3978 398.053 33.9403C393.596 29.4829 390.06 24.1911 387.648 18.3672C385.235 12.5432 383.994 6.30114 383.994 -0.00265503L431.996 48C431.996 41.6962 430.754 35.4541 428.342 29.6302C425.93 23.8062 422.394 18.5145 417.937 14.057C413.479 9.59955 408.187 6.06369 402.364 3.65134C396.54 1.23898 390.298 -0.00265503 383.994 -0.00265503" fill="#FBC500"/>
<path d="M431.801 0.184845C431.801 6.48864 433.042 12.7307 435.455 18.5547C437.867 24.3786 441.403 29.6704 445.86 34.1278C450.318 38.5853 455.609 42.1211 461.433 44.5335C467.257 46.9459 473.499 48.1875 479.803 48.1875L431.801 0.184845C438.105 0.184845 444.347 1.42648 450.17 3.83884C455.994 6.25119 461.286 9.78705 465.743 14.2445C470.201 18.702 473.737 23.9937 476.149 29.8177C478.561 35.6416 479.803 41.8837 479.803 48.1875" fill="#FBC500"/>
<path d="M479.99 48C486.294 48 492.536 46.7584 498.36 44.346C504.184 41.9336 509.476 38.3978 513.933 33.9403C518.39 29.4829 521.926 24.1911 524.339 18.3672C526.751 12.5432 527.992 6.30114 527.992 -0.00265503L479.99 48C479.99 35.2689 485.048 23.0592 494.05 14.057C503.052 5.05476 515.261 -0.00265503 527.992 -0.00265503" fill="#3F3F9B"/>
<path d="M527.992 24.0027C527.992 30.3672 530.52 36.471 535.021 40.9714C539.521 45.4717 545.625 48 551.989 48L527.992 24.0027C534.357 24.0027 540.46 26.531 544.961 31.0314C549.461 35.5317 551.989 41.6355 551.989 48" fill="#FBC500"/>
<path d="M527.992 24.0027C527.992 30.3672 530.52 36.471 535.021 40.9714C539.521 45.4717 545.625 48 551.989 48L527.992 24.0027C534.357 24.0027 540.46 26.531 544.961 31.0314C549.461 35.5317 551.989 41.6355 551.989 48" fill="#3F3F9B"/>
<path d="M551.99 48C558.355 48 564.458 45.4717 568.959 40.9714C573.459 36.471 575.987 30.3672 575.987 24.0027L551.99 48C551.99 41.6355 554.518 35.5317 559.019 31.0314C563.519 26.531 569.623 24.0027 575.987 24.0027" fill="#FBC500"/>
<path d="M527.992 0.00274849C527.992 6.36722 530.52 12.471 535.021 16.9714C539.521 21.4717 545.625 24 551.989 24L527.992 0.00274849C534.357 0.00274849 540.46 2.53103 544.961 7.03139C549.461 11.5317 551.989 17.6355 551.989 24" fill="#FBC500"/>
<path d="M551.99 0.00274849C551.99 6.36722 554.518 12.471 559.019 16.9714C563.519 21.4717 569.623 24 575.987 24L551.99 0.00274849C558.355 0.00274849 564.458 2.53103 568.959 7.03139C573.459 11.5317 575.987 17.6355 575.987 24" fill="#FBC500"/>
<path d="M0 -0.00265503C0 6.30114 1.24161 12.5432 3.65395 18.3672C6.06628 24.1911 9.6021 29.4829 14.0595 33.9403C18.5169 38.3978 23.8087 41.9336 29.6326 44.346C35.4565 46.7584 41.6985 48 48.0022 48L0 -0.00265503C12.731 -0.00265503 24.9405 5.05476 33.9427 14.057C42.9449 23.0592 48.0022 35.2689 48.0022 48" fill="#3F3F9B"/>
<path d="M47.9961 48C54.2998 48 60.5419 46.7584 66.3658 44.346C72.1897 41.9336 77.4814 38.3978 81.9388 33.9403C86.3962 29.4829 89.932 24.1911 92.3444 18.3672C94.7567 12.5432 95.9983 6.30114 95.9983 -0.00265503L47.9961 48C47.9961 41.6962 49.2377 35.4541 51.6501 29.6302C54.0624 23.8062 57.5982 18.5145 62.0556 14.057C66.513 9.59955 71.8048 6.06369 77.6287 3.65134C83.4526 1.23898 89.6946 -0.00265503 95.9983 -0.00265503" fill="#FBC500"/>
<path d="M95.9961 48C102.3 48 108.542 46.7584 114.366 44.346C120.19 41.9336 125.481 38.3978 129.939 33.9403C134.396 29.4829 137.932 24.1911 140.344 18.3672C142.757 12.5432 143.998 6.30114 143.998 -0.00265503L95.9961 48C95.9961 35.2689 101.053 23.0592 110.056 14.057C119.058 5.05476 131.267 -0.00265503 143.998 -0.00265503" fill="#FBC500"/>
<path d="M95.9961 48C102.3 48 108.542 46.7584 114.366 44.346C120.19 41.9336 125.481 38.3978 129.939 33.9403C134.396 29.4829 137.932 24.1911 140.344 18.3672C142.757 12.5432 143.998 6.30114 143.998 -0.00265503L95.9961 48C95.9961 35.2689 101.053 23.0592 110.056 14.057C119.058 5.05476 131.267 -0.00265503 143.998 -0.00265503" fill="#3F3F9B"/>
<path d="M143.998 -0.00265503C143.998 6.30114 145.24 12.5432 147.652 18.3672C150.064 24.1911 153.6 29.4829 158.058 33.9403C162.515 38.3978 167.807 41.9336 173.631 44.346C179.454 46.7584 185.697 48 192 48L143.998 -0.00265503C156.729 -0.00265503 168.939 5.05476 177.941 14.057C186.943 23.0592 192 35.2689 192 48" fill="#FBC500"/>
<path d="M191.994 48C198.359 48 204.462 45.4717 208.963 40.9714C213.463 36.471 215.991 30.3672 215.991 24.0027L191.994 48C191.994 41.6355 194.522 35.5317 199.023 31.0314C203.523 26.531 209.627 24.0027 215.991 24.0027" fill="#3F3F9B"/>
<path d="M215.998 48C222.362 48 228.466 45.4717 232.967 40.9714C237.467 36.471 239.995 30.3672 239.995 24.0027L215.998 48C215.998 41.6355 218.526 35.5317 223.027 31.0314C227.527 26.531 233.631 24.0027 239.995 24.0027" fill="#FBC500"/>
<path d="M191.994 24C198.359 24 204.462 21.4717 208.963 16.9714C213.463 12.471 215.991 6.36722 215.991 0.00274849L191.994 24C191.994 17.6355 194.522 11.5317 199.023 7.03139C203.523 2.53103 209.627 0.00274849 215.991 0.00274849" fill="#3F3F9B"/>
<path d="M215.998 24C222.362 24 228.466 21.4717 232.967 16.9714C237.467 12.471 239.995 6.36722 239.995 0.00274849L215.998 24C215.998 17.6355 218.526 11.5317 223.027 7.03139C227.527 2.53103 233.631 0.00274849 239.995 0.00274849" fill="#FBC500"/>
<path d="M239.994 48C246.298 48 252.54 46.7584 258.364 44.346C264.188 41.9336 269.479 38.3978 273.937 33.9403C278.394 29.4829 281.93 24.1911 284.342 18.3672C286.755 12.5432 287.996 6.30114 287.996 -0.00265503L239.994 48C239.994 35.2689 245.052 23.0592 254.054 14.057C263.056 5.05476 275.265 -0.00265503 287.996 -0.00265503" fill="#3F3F9B"/>
<path d="M287.998 -0.00265503C287.998 6.30114 289.24 12.5432 291.652 18.3672C294.064 24.1911 297.6 29.4829 302.058 33.9403C306.515 38.3978 311.807 41.9336 317.631 44.346C323.454 46.7584 329.697 48 336 48L287.998 -0.00265503C300.729 -0.00265503 312.939 5.05476 321.941 14.057C330.943 23.0592 336 35.2689 336 48" fill="#FBC500"/>
<path d="M335.992 48C342.357 48 348.46 45.4717 352.961 40.9714C357.461 36.471 359.989 30.3672 359.989 24.0027L335.992 48C335.992 44.8486 336.613 41.7281 337.819 38.8166C339.025 35.9051 340.792 33.2597 343.021 31.0314C345.249 28.803 347.894 27.0354 350.806 25.8294C353.717 24.6234 356.838 24.0027 359.989 24.0027" fill="#3F3F9B"/>
<path d="M359.996 24.0027C359.996 30.3672 362.524 36.471 367.025 40.9714C371.525 45.4717 377.629 48 383.993 48L359.996 24.0027C366.361 24.0027 372.464 26.531 376.965 31.0314C381.465 35.5317 383.993 41.6355 383.993 48" fill="#FBC500"/>
<path d="M335.992 24C342.357 24 348.46 21.4717 352.961 16.9714C357.461 12.471 359.989 6.36722 359.989 0.00274849L335.992 24C335.992 20.8486 336.613 17.7281 337.819 14.8167C339.025 11.9052 340.792 9.25974 343.021 7.03139C345.249 4.80304 347.894 3.03541 350.806 1.82944C353.717 0.623459 356.838 0.00274849 359.989 0.00274849" fill="#FBC500"/>
<path d="M359.996 0.00274849C359.996 6.36722 362.524 12.471 367.025 16.9714C371.525 21.4717 377.629 24 383.993 24L359.996 0.00274849C366.361 0.00274849 372.464 2.53103 376.965 7.03139C381.465 11.5317 383.993 17.6355 383.993 24" fill="#3F3F9B"/>
</svg>
