<svg width="160" height="134" viewBox="0 0 160 134" fill="none" xmlns="http://www.w3.org/2000/svg">
<path d="M133.334 133.344C129.832 133.344 126.364 132.654 123.129 131.314C119.893 129.974 116.953 128.009 114.477 125.533C112 123.056 110.036 120.116 108.696 116.881C107.356 113.645 106.666 110.178 106.666 106.675L133.334 133.344C133.334 129.842 132.644 126.374 131.304 123.138C129.964 119.903 127.999 116.963 125.523 114.486C123.047 112.01 120.107 110.046 116.871 108.705C113.636 107.365 110.168 106.675 106.666 106.675" fill="#3F3F9B"/>
<path d="M160 80.0035C160 87.0764 157.19 93.8596 152.189 98.8609C147.188 103.862 140.405 106.672 133.332 106.672L160 80.0035C156.498 80.0035 153.03 80.6933 149.795 82.0335C146.559 83.3737 143.619 85.3381 141.143 87.8145C138.666 90.2909 136.702 93.2308 135.362 96.4663C134.022 99.7019 133.332 103.17 133.332 106.672" fill="#FBC500"/>
<path d="M106.67 80.0035C106.67 87.0764 103.86 93.8596 98.859 98.8609C93.8577 103.862 87.0746 106.672 80.0018 106.672L106.67 80.0035C103.168 80.0035 99.7 80.6933 96.4645 82.0335C93.2289 83.3737 90.2891 85.3381 87.8127 87.8145C85.3363 90.2909 83.372 93.2308 82.0318 96.4663C80.6916 99.7019 80.0018 103.17 80.0018 106.672" fill="#3F3F9B"/>
<path d="M80 80.0035C80 87.0764 77.1903 93.8596 72.1891 98.8609C67.1878 103.862 60.4047 106.672 53.3319 106.672L80 80.0035C76.4979 80.0035 73.0301 80.6933 69.7945 82.0335C66.559 83.3737 63.6191 85.3381 61.1428 87.8145C58.6664 90.2909 56.702 93.2308 55.3618 96.4663C54.0216 99.7019 53.3319 103.17 53.3319 106.672" fill="#3F3F9B"/>
<path d="M160 80.0156C152.927 80.0156 146.144 77.2059 141.143 72.2046C136.142 67.2033 133.332 60.4201 133.332 53.3472L160 80.0156C160 72.9427 157.19 66.1595 152.189 61.1582C147.188 56.1569 140.405 53.3472 133.332 53.3472" fill="#FBC500"/>
<path d="M133.334 66.6837C133.334 70.2195 131.929 73.6106 129.429 76.1108C126.929 78.611 123.538 80.0156 120.002 80.0156L133.334 66.6837C129.798 66.6837 126.407 68.0883 123.907 70.5885C121.407 73.0887 120.002 76.4798 120.002 80.0156" fill="#FBC500"/>
<path d="M120 66.6719C116.464 66.6719 113.073 65.2673 110.573 62.767C108.073 60.2668 106.668 56.8758 106.668 53.3399L120 66.6719C120 63.136 118.595 59.745 116.095 57.2448C113.595 54.7445 110.204 53.3399 106.668 53.3399" fill="#3F3F9B"/>
<path d="M106.67 53.3472C106.67 60.4201 103.86 67.2033 98.859 72.2046C93.8577 77.2059 87.0746 80.0156 80.0018 80.0156L106.67 53.3472C99.5971 53.3472 92.8139 56.1569 87.8127 61.1582C82.8114 66.1595 80.0018 72.9427 80.0018 80.0156" fill="#3F3F9B"/>
<path d="M80 80.0156C76.4642 80.0156 73.0732 78.611 70.573 76.1108C68.0728 73.6106 66.6682 70.2195 66.6682 66.6837L80 80.0156C80 76.4798 78.5954 73.0887 76.0952 70.5885C73.595 68.0883 70.204 66.6837 66.6682 66.6837" fill="#FBC500"/>
<path d="M80 66.6719C76.4642 66.6719 73.0732 65.2673 70.573 62.767C68.0728 60.2668 66.6682 56.8758 66.6682 53.3399L80 66.6719C80 63.136 78.5954 59.745 76.0952 57.2448C73.595 54.7445 70.204 53.3399 66.6682 53.3399" fill="#3F3F9B"/>
<path d="M66.668 66.6719C63.1321 66.6719 59.7411 65.2673 57.2409 62.767C54.7407 60.2668 53.3362 56.8758 53.3362 53.3399L66.668 66.6719C66.668 63.136 65.2634 59.745 62.7632 57.2448C60.263 54.7445 56.872 53.3399 53.3362 53.3399" fill="#FBC500"/>
<path d="M40 66.6719C36.4642 66.6719 33.0732 65.2673 30.573 62.767C28.0728 60.2668 26.6682 56.8758 26.6682 53.3399L40 66.6719C40 63.136 38.5954 59.745 36.0952 57.2448C33.595 54.7445 30.204 53.3399 26.6682 53.3399" fill="#FBC500"/>
<path d="M26.6699 66.6719C23.1341 66.6719 19.7431 65.2673 17.2429 62.767C14.7427 60.2668 13.3381 56.8758 13.3381 53.3399L26.6699 66.6719C26.6699 63.136 25.2653 59.745 22.7651 57.2448C20.2649 54.7445 16.8739 53.3399 13.3381 53.3399" fill="#FBC500"/>
<path d="M26.6699 66.6719C23.1341 66.6719 19.7431 65.2673 17.2429 62.767C14.7427 60.2668 13.3381 56.8758 13.3381 53.3399L26.6699 66.6719C26.6699 63.136 25.2653 59.745 22.7651 57.2448C20.2649 54.7445 16.8739 53.3399 13.3381 53.3399" fill="#3F3F9B"/>
<path d="M160 53.3438C152.927 53.3438 146.144 50.5341 141.143 45.5328C136.142 40.5315 133.332 33.7483 133.332 26.6754L160 53.3438C160 46.2709 157.19 39.4876 152.189 34.4863C147.188 29.485 140.405 26.6754 133.332 26.6754" fill="#FBC500"/>
<path d="M133.334 40.0118C133.334 43.5477 131.929 46.9387 129.429 49.4389C126.929 51.9391 123.538 53.3438 120.002 53.3438L133.334 40.0118C129.798 40.0118 126.407 41.4164 123.907 43.9166C121.407 46.4169 120.002 49.8079 120.002 53.3438" fill="#3F3F9B"/>
<path d="M120 40.0156C116.464 40.0156 113.073 38.611 110.573 36.1108C108.073 33.6106 106.668 30.2195 106.668 26.6837L120 40.0156C120 36.4798 118.595 33.0887 116.095 30.5885C113.595 28.0883 110.204 26.6837 106.668 26.6837" fill="#FBC500"/>
<path d="M106.67 53.3438C103.134 53.3438 99.7431 51.9391 97.2429 49.4389C94.7427 46.9387 93.3381 43.5477 93.3381 40.0118L106.67 53.3438C106.67 49.8079 105.265 46.4169 102.765 43.9166C100.265 41.4164 96.8739 40.0118 93.3381 40.0118" fill="#FBC500"/>
<path d="M93.3359 40.0118C93.3359 43.5477 91.9313 46.9387 89.4311 49.4389C86.9309 51.9391 83.5399 53.3438 80.0041 53.3438L93.3359 40.0118C89.8001 40.0118 86.4091 41.4164 83.9089 43.9166C81.4087 46.4169 80.0041 49.8079 80.0041 53.3438" fill="#3F3F9B"/>
<path d="M80 26.6754C80 33.7483 77.1903 40.5315 72.1891 45.5328C67.1878 50.5341 60.4047 53.3437 53.3319 53.3438L80 26.6754C72.9272 26.6754 66.144 29.485 61.1428 34.4863C56.1415 39.4876 53.3319 46.2709 53.3319 53.3438" fill="#3F3F9B"/>
<path d="M53.3359 26.6754C53.3359 33.7483 50.5263 40.5315 45.525 45.5328C40.5238 50.5341 33.7406 53.3437 26.6678 53.3438L53.3359 26.6754C46.2631 26.6754 39.48 29.485 34.4787 34.4863C29.4775 39.4876 26.6678 46.2709 26.6678 53.3438" fill="#FBC500"/>
<path d="M26.6699 53.3438C19.5971 53.3438 12.8139 50.5341 7.81267 45.5328C2.81142 40.5315 0.00177193 33.7483 0.00177193 26.6754L26.6699 53.3438C26.6699 46.2709 23.8602 39.4876 18.859 34.4863C13.8577 29.485 7.07461 26.6754 0.00177193 26.6754" fill="#FBC500"/>
<path d="M160 0.00347328C160 3.50562 159.31 6.97346 157.97 10.209C156.63 13.4446 154.665 16.3845 152.189 18.8609C149.713 21.3373 146.773 23.3016 143.537 24.6419C140.302 25.9821 136.834 26.6719 133.332 26.6719L160 0.00347328C152.927 0.00347328 146.144 2.81318 141.143 7.81447C136.142 12.8158 133.332 19.599 133.332 26.6719" fill="#3F3F9B"/>
<path d="M133.334 26.6719C129.832 26.6719 126.364 25.9821 123.129 24.6419C119.893 23.3016 116.953 21.3373 114.477 18.8609C112 16.3845 110.036 13.4446 108.696 10.209C107.356 6.97346 106.666 3.50562 106.666 0.00347328L133.334 26.6719C133.334 23.1697 132.644 19.7019 131.304 16.4663C129.964 13.2308 127.999 10.2909 125.523 7.81447C123.047 5.33808 120.107 3.3737 116.871 2.03349C113.636 0.693275 110.168 0.00347328 106.666 0.00347328" fill="#FBC500"/>
<path d="M106.67 26.6719C103.168 26.6719 99.7 25.9821 96.4645 24.6419C93.2289 23.3016 90.2891 21.3373 87.8127 18.8609C85.3363 16.3845 83.372 13.4446 82.0318 10.209C80.6916 6.97346 80.0018 3.50562 80.0018 0.00347328L106.67 26.6719C106.67 19.599 103.86 12.8158 98.859 7.81447C93.8577 2.81318 87.0746 0.00347328 80.0018 0.00347328" fill="#FBC500"/>
<path d="M106.67 26.6719C103.168 26.6719 99.7 25.9821 96.4645 24.6419C93.2289 23.3016 90.2891 21.3373 87.8127 18.8609C85.3363 16.3845 83.372 13.4446 82.0318 10.209C80.6916 6.97346 80.0018 3.50562 80.0018 0.00347328L106.67 26.6719C106.67 19.599 103.86 12.8158 98.859 7.81447C93.8577 2.81318 87.0746 0.00347328 80.0018 0.00347328" fill="#3F3F9B"/>
<path d="M80 0.00347328C80 3.50562 79.3102 6.97346 77.97 10.209C76.6298 13.4446 74.6655 16.3845 72.1891 18.8609C69.7127 21.3373 66.7728 23.3016 63.5373 24.6419C60.3018 25.9821 56.834 26.6719 53.3319 26.6719L80 0.00347328C72.9272 0.00347328 66.144 2.81318 61.1428 7.81447C56.1415 12.8158 53.3319 19.599 53.3319 26.6719" fill="#FBC500"/>
<path d="M53.3359 26.6719C49.8001 26.6719 46.4091 25.2673 43.9089 22.767C41.4087 20.2668 40.0041 16.8758 40.0041 13.3399L53.3359 26.6719C53.3359 23.136 51.9313 19.745 49.4311 17.2448C46.9309 14.7445 43.5399 13.3399 40.0041 13.3399" fill="#3F3F9B"/>
<path d="M40 26.6719C36.4642 26.6719 33.0732 25.2673 30.573 22.767C28.0728 20.2668 26.6682 16.8758 26.6682 13.3399L40 26.6719C40 23.136 38.5954 19.745 36.0952 17.2448C33.595 14.7445 30.204 13.3399 26.6682 13.3399" fill="#FBC500"/>
<path d="M53.3359 13.3438C49.8001 13.3438 46.4091 11.9391 43.9089 9.43893C41.4087 6.9387 40.0041 3.54766 40.0041 0.0118141L53.3359 13.3438C53.3359 9.8079 51.9313 6.41688 49.4311 3.91665C46.9309 1.41643 43.5399 0.0118141 40.0041 0.0118141" fill="#3F3F9B"/>
<path d="M40 13.3438C36.4642 13.3438 33.0732 11.9391 30.573 9.43893C28.0728 6.9387 26.6682 3.54766 26.6682 0.0118141L40 13.3438C40 9.8079 38.5954 6.41688 36.0952 3.91665C33.595 1.41643 30.204 0.0118141 26.6682 0.0118141" fill="#FBC500"/>
<path d="M26.6699 26.6719C23.1678 26.6719 19.7 25.9821 16.4645 24.6419C13.2289 23.3016 10.289 21.3373 7.81267 18.8609C5.33631 16.3845 3.37196 13.4446 2.03176 10.209C0.691555 6.97346 0.00177193 3.50562 0.00177193 0.00347328L26.6699 26.6719C26.6699 19.599 23.8602 12.8158 18.859 7.81447C13.8577 2.81318 7.07461 0.00347328 0.00177193 0.00347328" fill="#3F3F9B"/>
</svg>
