<svg width="103" height="96" viewBox="0 0 103 96" fill="none" xmlns="http://www.w3.org/2000/svg">
<path fill-rule="evenodd" clip-rule="evenodd" d="M0.45752 71.9866C0.457781 58.6618 11.2594 47.86 24.584 47.8594V56.9062C16.2558 56.9064 9.50446 63.6578 9.50446 71.986C9.50446 71.9862 9.50446 71.9864 9.50446 71.9866H0.45752Z" fill="#4D4DC7"/>
<path fill-rule="evenodd" clip-rule="evenodd" d="M0.457521 71.99C0.457521 71.9924 0.45752 71.9949 0.45752 71.9973C0.45752 85.3223 11.2592 96.1243 24.584 96.125V87.0781C16.2558 87.078 9.50446 80.3266 9.50446 71.9983C9.50446 71.9956 9.50446 71.9928 9.50446 71.99H0.457521Z" fill="#8C8CF8"/>
<path fill-rule="evenodd" clip-rule="evenodd" d="M24.5818 47.8306C37.906 47.8319 48.707 58.6337 48.707 71.9583C48.707 71.9618 48.707 71.9653 48.707 71.9688H39.6582C39.6582 71.9656 39.6582 71.9624 39.6582 71.9593C39.6582 63.632 32.9086 56.8813 24.5818 56.8795V47.8306Z" fill="#212152"/>
<path fill-rule="evenodd" clip-rule="evenodd" d="M24.5818 96.1069C37.906 96.1056 48.707 85.3038 48.707 71.9792C48.707 71.9757 48.707 71.9722 48.707 71.9688H39.6582C39.6582 71.9719 39.6582 71.9751 39.6582 71.9782C39.6582 80.3055 32.9086 87.0562 24.5818 87.058V96.1069Z" fill="#212152"/>
<path fill-rule="evenodd" clip-rule="evenodd" d="M63.7893 47.8306C50.4651 47.8319 39.6641 58.6337 39.6641 71.9583C39.6641 71.9618 39.6641 71.9653 39.6641 71.9688H48.7129C48.7129 71.9656 48.7129 71.9624 48.7129 71.9593C48.7129 63.632 55.4625 56.8813 63.7893 56.8795V47.8306Z" fill="#F8F8F8"/>
<path fill-rule="evenodd" clip-rule="evenodd" d="M63.7893 96.1069C50.4651 96.1056 39.6641 85.3038 39.6641 71.9792C39.6641 71.9757 39.6641 71.9722 39.6641 71.9688H48.7129C48.7129 71.9719 48.7129 71.9751 48.7129 71.9782C48.7129 80.3055 55.4625 87.0562 63.7893 87.058V96.1069Z" fill="#8C8CF8"/>
<path fill-rule="evenodd" clip-rule="evenodd" d="M87.9175 96.0881C87.913 82.7666 77.1124 71.9688 63.7898 71.9688C63.6558 71.9688 63.5221 71.9698 63.3887 71.972V81.0209C63.5223 81.0174 63.6563 81.0156 63.7907 81.0156C72.1167 81.0156 78.8666 87.7631 78.8705 96.0881H87.9175Z" fill="#F8F8F8"/>
<path fill-rule="evenodd" clip-rule="evenodd" d="M78.8735 96.0881C78.878 82.767 89.678 71.9694 103 71.9688V81.0156C94.6742 81.0158 87.9244 87.7632 87.9205 96.0881H78.8735Z" fill="#212152"/>
<path fill-rule="evenodd" clip-rule="evenodd" d="M39.6587 96.0881C39.6632 82.7666 50.4638 71.9688 63.7864 71.9688C63.7873 71.9688 63.7882 71.9688 63.7891 71.9688V81.0156C63.7879 81.0156 63.7866 81.0156 63.7854 81.0156C55.4595 81.0156 48.7096 87.7631 48.7056 96.0881H39.6587Z" fill="#4D4DC7"/>
<path fill-rule="evenodd" clip-rule="evenodd" d="M0.45752 24.1272C0.457781 10.8025 11.2594 0.000659715 24.584 3.02243e-08V9.04688C16.2558 9.04702 9.50446 15.7984 9.50446 24.1267C9.50446 24.1268 9.50446 24.127 9.50446 24.1272H0.45752Z" fill="#4D4DC7"/>
<path fill-rule="evenodd" clip-rule="evenodd" d="M0.457521 23.7244C0.457521 23.7268 0.45752 23.7293 0.45752 23.7317C0.45752 37.0566 11.2592 47.8587 24.584 47.8594V38.8125C16.2558 38.8124 9.50446 32.061 9.50446 23.7327C9.50446 23.7299 9.50446 23.7271 9.50446 23.7244H0.457521Z" fill="#A1A1F5"/>
<path fill-rule="evenodd" clip-rule="evenodd" d="M24.5818 56.8882C37.9043 56.8869 48.7043 46.0878 48.707 32.7656H39.6582C39.6549 41.09 32.9065 47.8375 24.5818 47.8393V56.8882Z" fill="#F8F8F8"/>
<path fill-rule="evenodd" clip-rule="evenodd" d="M39.665 32.771C39.8764 19.629 50.595 9.04036 63.7871 9.03906V18.0879C55.5275 18.0898 48.8198 24.7319 48.712 32.9663C48.8198 41.2007 55.5276 47.8428 63.7871 47.8446V56.8935C50.5977 56.8922 39.8806 46.3078 39.6652 33.1694H39.6618V33.1667C39.6618 33.0999 39.6621 33.0331 39.6627 32.9663C39.6621 32.9013 39.6619 32.8362 39.6618 32.771H39.665Z" fill="#212152"/>
</svg>
