<svg width="67" height="209" viewBox="0 0 67 209" fill="none" xmlns="http://www.w3.org/2000/svg">
<rect x="16.7129" y="74.4453" width="16.7617" height="14.8633" transform="rotate(180 16.7129 74.4453)" fill="#212152"/>
<rect x="-0.0488281" y="0.125" width="16.7617" height="14.8633" fill="#3F3F9C"/>
<rect x="16.7129" y="0.125" width="16.7617" height="14.8633" fill="#212152"/>
<rect width="16.7617" height="14.8633" transform="matrix(-1 0 0 1 16.7129 14.9922)" fill="#3F3F9C"/>
<rect x="16.7129" y="29.8594" width="16.7617" height="14.8633" fill="#F3BE00"/>
<path d="M33.4746 59.5781V74.4415H16.7129C16.7129 66.2329 24.2176 59.5781 33.4746 59.5781Z" fill="#F3BE00"/>
<path d="M-0.0488586 59.5781V74.4415H16.7129C16.7129 66.2329 9.20814 59.5781 -0.0488586 59.5781Z" fill="#3F3F9C"/>
<path d="M16.7129 89.3047V74.4414H33.4746C33.4746 82.6499 25.9699 89.3047 16.7129 89.3047Z" fill="#212152"/>
<path d="M16.7129 89.3047V74.4414H-0.0488281C-0.0488281 82.6499 7.45592 89.3047 16.7129 89.3047Z" fill="#4D4DC7"/>
<path d="M33.4746 29.8594V14.996H16.7129C16.7129 23.2046 24.2176 29.8594 33.4746 29.8594Z" fill="#212152"/>
<path d="M33.4746 14.9922V0.128856H16.7129C16.7129 8.33742 24.2176 14.9922 33.4746 14.9922Z" fill="#4D4DC7"/>
<path d="M-0.0488586 14.9922V0.128856H16.7129C16.7129 8.33742 9.20814 14.9922 -0.0488586 14.9922Z" fill="#212152"/>
<path d="M66.9981 14.9922V29.8555H50.2363C50.2363 21.647 57.7411 14.9922 66.9981 14.9922Z" fill="#3F3F9C"/>
<path d="M33.4746 14.9922V29.8555H50.2363C50.2363 21.647 42.7316 14.9922 33.4746 14.9922Z" fill="#212152"/>
<path d="M66.9981 14.9922V0.128856H50.2363C50.2363 8.33742 57.7411 14.9922 66.9981 14.9922Z" fill="#4D4DC7"/>
<path d="M33.4746 14.9922V0.128856H50.2363C50.2363 8.33742 42.7316 14.9922 33.4746 14.9922Z" fill="#F3BE00"/>
<path d="M33.4746 44.7188V59.5821H16.7129C16.7129 51.3735 24.2176 44.7188 33.4746 44.7188Z" fill="#212152"/>
<path d="M-0.0488586 59.5781V44.7148H16.7129C16.7129 52.9234 9.20814 59.5781 -0.0488586 59.5781Z" fill="#F3BE00"/>
<path d="M16.7129 44.7188V29.8554H-0.0488281C-0.0488281 38.064 7.45592 44.7188 16.7129 44.7188Z" fill="#4D4DC7"/>
<path d="M50.2363 59.5781V44.7148H66.998C66.998 52.9234 59.4933 59.5781 50.2363 59.5781Z" fill="#212152"/>
<path d="M33.4746 44.7188V59.5821H50.2363C50.2363 51.3735 42.7316 44.7188 33.4746 44.7188Z" fill="#3F3F9C"/>
<path d="M66.9981 44.7188V29.8554H50.2363C50.2363 38.064 57.7411 44.7188 66.9981 44.7188Z" fill="#F3DB00"/>
<ellipse cx="41.8555" cy="37.291" rx="8.38087" ry="7.43167" fill="#3F3F9C"/>
</svg>
