<svg width="1456" height="709" viewBox="0 0 1456 709" fill="none" xmlns="http://www.w3.org/2000/svg">
<g filter="url(#filter0_d_2726_4494)">
<path d="M1448 3.80469H8V695.643H1448V3.80469Z" fill="#7272C5"/>
<path d="M151.996 3.80469H8V119.108H151.996V3.80469Z" fill="#212152"/>
<path d="M8 3.80469H151.996L8 119.108V3.80469Z" fill="#F3BE00"/>
<path d="M295.994 3.80469H151.998V119.108H295.994V3.80469Z" fill="#4D4DC7"/>
<path d="M295.994 3.80469H151.998V119.108H295.994V3.80469Z" fill="#3F3F9C"/>
<path d="M439.986 3.80469H295.99V119.108H439.986V3.80469Z" fill="#4D4DC7"/>
<path d="M295.99 3.80469H439.986L295.99 119.108V3.80469Z" fill="#F3BE00"/>
<path d="M584.004 3.80469H440.004V119.111H584.004V3.80469Z" fill="#7272C5"/>
<path d="M512.006 3.80469H440.008V61.4562H512.006V3.80469Z" fill="#F3BE00"/>
<path d="M440.008 61.4562C440.008 46.166 447.593 31.5022 461.095 20.6904C474.598 9.87866 492.911 3.80469 512.006 3.80469V61.4562" fill="#F3BE00"/>
<path d="M584.002 3.80469H512.004V61.4562H584.002V3.80469Z" fill="#4D4DC7"/>
<path d="M512.004 3.80469C531.099 3.80469 549.412 9.87866 562.914 20.6904C576.416 31.5022 584.002 46.166 584.002 61.4562H512.004" fill="#4D4DC7"/>
<path d="M512.006 61.4609H440.008V119.112H512.006V61.4609Z" fill="#F3BE00"/>
<path d="M440.008 61.4609C440.008 76.7511 447.593 91.4149 461.095 102.227C474.598 113.038 492.911 119.112 512.006 119.112V61.4609" fill="#4D4DC7"/>
<path d="M584.002 61.4609H512.004V119.112H584.002V61.4609Z" fill="#212152"/>
<path d="M512.004 119.112C531.099 119.112 549.412 113.038 562.914 102.227C576.416 91.4149 584.002 76.7511 584.002 61.4609H512.004" fill="#F3BE00"/>
<path d="M727.999 3.80469H584.004V119.108H727.999V3.80469Z" fill="#3F3F9C"/>
<path d="M727.999 3.80469V119.108H584.004L727.999 3.80469Z" fill="#212152"/>
<path d="M871.992 3.80469H727.996V119.108H871.992V3.80469Z" fill="#3F3F9C"/>
<path d="M727.996 3.80469C727.996 18.9465 731.721 33.94 738.957 47.9292C746.194 61.9184 756.8 74.6293 770.171 85.3362C783.543 96.043 799.417 104.536 816.887 110.331C834.357 116.125 853.082 119.108 871.992 119.108V3.80469" fill="#4D4DC7"/>
<path d="M1015.99 3.80469H871.99V119.108H1015.99V3.80469Z" fill="#3F3F9C"/>
<path d="M1015.99 3.80469V119.108H871.99L1015.99 3.80469Z" fill="#F3BE00"/>
<path d="M1160 3.80469H1016.01V119.108H1160V3.80469Z" fill="#212152"/>
<path d="M1160 3.80469H1016.01V119.108H1160V3.80469Z" fill="#212152"/>
<path d="M1304 3.80469H1160V119.111H1304V3.80469Z" fill="#7272C5"/>
<path d="M1232 3.80469H1160V61.4562H1232V3.80469Z" fill="#212152"/>
<path d="M1232 3.80469V61.4562H1160L1232 3.80469Z" fill="#4D4DC7"/>
<path d="M1304 3.80469H1232V61.4562H1304V3.80469Z" fill="#4D4DC7"/>
<path d="M1232 3.80469L1304 61.4562H1232V3.80469Z" fill="#4D4DC7"/>
<path d="M1232 61.4609H1160V119.112H1232V61.4609Z" fill="#3F3F9C"/>
<path d="M1160 61.4609H1232V119.112L1160 61.4609Z" fill="#212152"/>
<path d="M1304 61.4609H1232V119.112H1304V61.4609Z" fill="#F3BE00"/>
<path d="M1232 61.4609H1304L1232 119.112V61.4609Z" fill="#3F3F9C"/>
<path d="M1448 3.80469H1304V119.108H1448V3.80469Z" fill="#4D4DC7"/>
<path d="M1304 119.108C1342.19 119.108 1378.82 106.96 1405.82 85.3362C1432.82 63.7127 1448 34.3849 1448 3.80469L1304 3.80469" fill="#4D4DC7"/>
<path d="M152 119.109H8V234.416H152V119.109Z" fill="#7272C5"/>
<path d="M79.9978 119.109H8V176.761H79.9978V119.109Z" fill="#3F3F9C"/>
<path d="M79.9978 119.109V176.761H8L79.9978 119.109Z" fill="#212152"/>
<path d="M151.994 119.109H79.9961V176.761H151.994V119.109Z" fill="#3F3F9C"/>
<path d="M79.9961 119.109L151.994 176.761H79.9961V119.109Z" fill="#212152"/>
<path d="M79.9978 176.758H8V234.409H79.9978V176.758Z" fill="#3F3F9C"/>
<path d="M8 176.758H79.9978V234.409L8 176.758Z" fill="#4D4DC7"/>
<path d="M151.994 176.758H79.9961V234.409H151.994V176.758Z" fill="#F3BE00"/>
<path d="M79.9961 176.758H151.994L79.9961 234.409V176.758Z" fill="#4D4DC7"/>
<path d="M296 119.109H152V234.416H296V119.109Z" fill="#7272C5"/>
<path d="M223.996 119.109H151.998V176.761H223.996V119.109Z" fill="#212152"/>
<path d="M151.998 176.761C151.998 161.471 159.583 146.807 173.086 135.995C186.588 125.183 204.901 119.109 223.996 119.109V176.761" fill="#F3BE00"/>
<path d="M295.988 119.109H223.99V176.761H295.988V119.109Z" fill="#F3BE00"/>
<path d="M223.99 119.109C243.085 119.109 261.398 125.183 274.9 135.995C288.403 146.807 295.988 161.471 295.988 176.761H223.99" fill="#3F3F9C"/>
<path d="M223.996 176.758H151.998V234.409H223.996V176.758Z" fill="#F3BE00"/>
<path d="M151.998 176.758C151.998 192.048 159.583 206.712 173.086 217.524C186.588 228.335 204.901 234.409 223.996 234.409V176.758" fill="#4D4DC7"/>
<path d="M295.988 176.758H223.99V234.409H295.988V176.758Z" fill="#F3BE00"/>
<path d="M223.99 234.409C243.085 234.409 261.398 228.335 274.9 217.524C288.403 206.712 295.988 192.048 295.988 176.758H223.99" fill="#3F3F9C"/>
<path d="M439.986 119.109H295.99V234.412H439.986V119.109Z" fill="#3F3F9C"/>
<path d="M295.99 119.109H439.986L295.99 234.412V119.109Z" fill="#3F3F9C"/>
<path d="M584.004 119.109H440.004V234.416H584.004V119.109Z" fill="#7272C5"/>
<path d="M512.006 119.109H440.008V176.761H512.006V119.109Z" fill="#212152"/>
<path d="M512.006 119.109V176.761H440.008L512.006 119.109Z" fill="#212152"/>
<path d="M584.002 119.109H512.004V176.761H584.002V119.109Z" fill="#F3BE00"/>
<path d="M512.004 119.109L584.002 176.761H512.004V119.109Z" fill="#F3BE00"/>
<path d="M512.006 176.758H440.008V234.409H512.006V176.758Z" fill="#212152"/>
<path d="M440.008 176.758H512.006V234.409L440.008 176.758Z" fill="#212152"/>
<path d="M584.002 176.758H512.004V234.409H584.002V176.758Z" fill="#212152"/>
<path d="M512.004 176.758H584.002L512.004 234.409V176.758Z" fill="#212152"/>
<path d="M728.002 119.109H584.002V234.416H728.002V119.109Z" fill="#7272C5"/>
<path d="M656.002 119.109H584.004V176.761H656.002V119.109Z" fill="#3F3F9C"/>
<path d="M620.003 176.761C639.884 176.761 656.002 163.855 656.002 147.935C656.002 132.015 639.884 119.109 620.003 119.109C600.121 119.109 584.004 132.015 584.004 147.935C584.004 163.855 600.121 176.761 620.003 176.761Z" fill="#4D4DC7"/>
<path d="M727.998 119.109H656V176.761H727.998V119.109Z" fill="#212152"/>
<path d="M727.998 119.109H656V176.761H727.998V119.109Z" fill="#F3BE00"/>
<path d="M656.002 176.758H584.004V234.409H656.002V176.758Z" fill="#F3BE00"/>
<path d="M620.003 234.409C639.884 234.409 656.002 221.504 656.002 205.584C656.002 189.664 639.884 176.758 620.003 176.758C600.121 176.758 584.004 189.664 584.004 205.584C584.004 221.504 600.121 234.409 620.003 234.409Z" fill="#212152"/>
<path d="M727.998 176.758H656V234.409H727.998V176.758Z" fill="#4D4DC7"/>
<path d="M727.998 176.758H656V234.409H727.998V176.758Z" fill="#F3BE00"/>
<path d="M871.992 119.109H727.996V234.412H871.992V119.109Z" fill="#3F3F9C"/>
<path d="M727.996 234.412C727.996 219.271 731.721 204.277 738.957 190.288C746.194 176.299 756.8 163.588 770.171 152.881C783.543 142.174 799.417 133.681 816.887 127.886C834.357 122.092 853.082 119.109 871.992 119.109V234.412" fill="#212152"/>
<path d="M1015.99 119.109H871.99V234.412H1015.99V119.109Z" fill="#4D4DC7"/>
<path d="M871.99 119.109C910.18 119.109 946.806 131.257 973.81 152.881C1000.81 174.504 1015.99 203.832 1015.99 234.412L871.99 119.109C871.99 149.69 887.161 179.017 914.166 200.641C941.17 222.264 977.796 234.412 1015.99 234.412" fill="#3F3F9C"/>
<path d="M1160 119.109H1016V234.416H1160V119.109Z" fill="#7272C5"/>
<path d="M1088.01 119.109H1016.01V176.761H1088.01V119.109Z" fill="#F3BE00"/>
<path d="M1088.01 119.109V176.761H1016.01L1088.01 119.109Z" fill="#F3BE00"/>
<path d="M1160.01 119.109H1088.01V176.761H1160.01V119.109Z" fill="#F3BE00"/>
<path d="M1088.01 119.109L1160.01 176.761H1088.01V119.109Z" fill="#3F3F9C"/>
<path d="M1088.01 176.758H1016.01V234.409H1088.01V176.758Z" fill="#F3BE00"/>
<path d="M1016.01 176.758H1088.01V234.409L1016.01 176.758Z" fill="#F3BE00"/>
<path d="M1160.01 176.758H1088.01V234.409H1160.01V176.758Z" fill="#4D4DC7"/>
<path d="M1088.01 176.758H1160.01L1088.01 234.409V176.758Z" fill="#3F3F9C"/>
<path d="M1304 119.109H1160V234.412H1304V119.109Z" fill="#212152"/>
<path d="M1160 119.109C1160 149.69 1175.17 179.017 1202.18 200.641C1229.18 222.264 1265.81 234.412 1304 234.412V119.109" fill="#212152"/>
<path d="M1448 119.109H1304V234.416H1448V119.109Z" fill="#7272C5"/>
<path d="M1376 119.109H1304V176.761H1376V119.109Z" fill="#212152"/>
<path d="M1376 119.109V176.761H1304L1376 119.109Z" fill="#3F3F9C"/>
<path d="M1448 119.109H1376V176.761H1448V119.109Z" fill="#3F3F9C"/>
<path d="M1376 119.109H1448L1376 176.761V119.109Z" fill="#F3BE00"/>
<path d="M1376 176.758H1304V234.409H1376V176.758Z" fill="#3F3F9C"/>
<path d="M1304 176.758H1376V234.409L1304 176.758Z" fill="#4D4DC7"/>
<path d="M1448 176.758H1376V234.409H1448V176.758Z" fill="#212152"/>
<path d="M1376 176.758L1448 234.409H1376V176.758Z" fill="#4D4DC7"/>
<path d="M152 234.422H8V349.728H152V234.422Z" fill="#7272C5"/>
<path d="M79.9978 234.414H8V292.066H79.9978V234.414Z" fill="#212152"/>
<path d="M8 234.414C27.095 234.414 45.4079 240.488 58.9101 251.3C72.4123 262.112 79.9978 276.775 79.9978 292.066H8" fill="#F3BE00"/>
<path d="M151.994 234.414H79.9961V292.066H151.994V234.414Z" fill="#F3BE00"/>
<path d="M79.9961 292.066C79.9961 276.775 87.5816 262.112 101.084 251.3C114.586 240.488 132.899 234.414 151.994 234.414V292.066" fill="#4D4DC7"/>
<path d="M79.9978 292.078H8V349.73H79.9978V292.078Z" fill="#F3BE00"/>
<path d="M8 349.73C27.095 349.73 45.4079 343.656 58.9101 332.844C72.4123 322.032 79.9978 307.368 79.9978 292.078H8" fill="#3F3F9C"/>
<path d="M151.994 292.078H79.9961V349.73H151.994V292.078Z" fill="#212152"/>
<path d="M79.9961 292.078C79.9961 307.368 87.5816 322.032 101.084 332.844C114.586 343.656 132.899 349.73 151.994 349.73V292.078" fill="#F3BE00"/>
<path d="M295.994 234.414H151.998V349.717H295.994V234.414Z" fill="#3F3F9C"/>
<path d="M151.998 234.414C190.188 234.414 226.814 246.562 253.818 268.185C280.823 289.809 295.994 319.137 295.994 349.717L151.998 234.414C151.998 264.994 167.169 294.322 194.173 315.946C221.178 337.569 257.804 349.717 295.994 349.717" fill="#212152"/>
<path d="M439.998 234.422H295.998V349.728H439.998V234.422Z" fill="#7272C5"/>
<path d="M367.988 234.414H295.99V292.066H367.988V234.414Z" fill="#4D4DC7"/>
<path d="M367.988 234.414V292.066H295.99L367.988 234.414Z" fill="#4D4DC7"/>
<path d="M440.006 234.414H368.008V292.066H440.006V234.414Z" fill="#4D4DC7"/>
<path d="M368.008 234.414L440.006 292.066H368.008V234.414Z" fill="#F3BE00"/>
<path d="M367.988 292.078H295.99V349.73H367.988V292.078Z" fill="#212152"/>
<path d="M295.99 292.078H367.988L295.99 349.73V292.078Z" fill="#4D4DC7"/>
<path d="M440.006 292.078H368.008V349.73H440.006V292.078Z" fill="#4D4DC7"/>
<path d="M368.008 292.078H440.006V349.73L368.008 292.078Z" fill="#212152"/>
<path d="M584.004 234.422H440.004V349.728H584.004V234.422Z" fill="#7272C5"/>
<path d="M512.006 234.414H440.008V292.066H512.006V234.414Z" fill="#F3BE00"/>
<path d="M476.007 292.066C495.888 292.066 512.006 279.16 512.006 263.24C512.006 247.32 495.888 234.414 476.007 234.414C456.125 234.414 440.008 247.32 440.008 263.24C440.008 279.16 456.125 292.066 476.007 292.066Z" fill="#212152"/>
<path d="M584.002 234.414H512.004V292.066H584.002V234.414Z" fill="#F3BE00"/>
<path d="M584.002 234.414H512.004V292.066H584.002V234.414Z" fill="#212152"/>
<path d="M512.006 292.078H440.008V349.73H512.006V292.078Z" fill="#3F3F9C"/>
<path d="M476.007 349.73C495.888 349.73 512.006 336.824 512.006 320.904C512.006 304.984 495.888 292.078 476.007 292.078C456.125 292.078 440.008 304.984 440.008 320.904C440.008 336.824 456.125 349.73 476.007 349.73Z" fill="#F3BE00"/>
<path d="M584.002 292.078H512.004V349.73H584.002V292.078Z" fill="#F3BE00"/>
<path d="M584.002 292.078H512.004V349.73H584.002V292.078Z" fill="#3F3F9C"/>
<path d="M727.999 234.414H584.004V349.717H727.999V234.414Z" fill="#4D4DC7"/>
<path d="M727.999 234.414V349.717H584.004L727.999 234.414Z" fill="#F3BE00"/>
<path d="M871.992 234.414H727.996V349.717H871.992V234.414Z" fill="#F3BE00"/>
<path d="M727.996 234.414H871.992L727.996 349.717V234.414Z" fill="#4D4DC7"/>
<path d="M1016 234.422H871.996V349.728H1016V234.422Z" fill="#7272C5"/>
<path d="M943.988 234.414H871.99V292.066H943.988V234.414Z" fill="#3F3F9C"/>
<path d="M943.988 234.414V292.066H871.99L943.988 234.414Z" fill="#3F3F9C"/>
<path d="M1015.99 234.414H943.99V292.066H1015.99V234.414Z" fill="#212152"/>
<path d="M943.99 234.414L1015.99 292.066H943.99V234.414Z" fill="#212152"/>
<path d="M943.988 292.078H871.99V349.73H943.988V292.078Z" fill="#4D4DC7"/>
<path d="M871.99 292.078H943.988V349.73L871.99 292.078Z" fill="#212152"/>
<path d="M1015.99 292.078H943.99V349.73H1015.99V292.078Z" fill="#3F3F9C"/>
<path d="M943.99 292.078H1015.99L943.99 349.73V292.078Z" fill="#3F3F9C"/>
<path d="M1160 234.422H1016V349.728H1160V234.422Z" fill="#7272C5"/>
<path d="M1088.01 234.414H1016.01V292.066H1088.01V234.414Z" fill="#212152"/>
<path d="M1016.01 234.414C1035.1 234.414 1053.42 240.488 1066.92 251.3C1080.42 262.112 1088.01 276.775 1088.01 292.066H1016.01" fill="#3F3F9C"/>
<path d="M1160.01 234.414H1088.01V292.066H1160.01V234.414Z" fill="#3F3F9C"/>
<path d="M1088.01 292.066C1088.01 276.775 1095.59 262.112 1109.1 251.3C1122.6 240.488 1140.91 234.414 1160.01 234.414V292.066" fill="#212152"/>
<path d="M1088.01 292.078H1016.01V349.73H1088.01V292.078Z" fill="#212152"/>
<path d="M1016.01 349.73C1035.1 349.73 1053.42 343.656 1066.92 332.844C1080.42 322.032 1088.01 307.368 1088.01 292.078H1016.01" fill="#F3BE00"/>
<path d="M1160.01 292.078H1088.01V349.73H1160.01V292.078Z" fill="#3F3F9C"/>
<path d="M1088.01 292.078C1088.01 307.368 1095.59 322.032 1109.1 332.844C1122.6 343.656 1140.91 349.73 1160.01 349.73V292.078" fill="#4D4DC7"/>
<path d="M1304 234.422H1160V349.728H1304V234.422Z" fill="#7272C5"/>
<path d="M1232 234.414H1160V292.066H1232V234.414Z" fill="#212152"/>
<path d="M1160 234.414C1179.1 234.414 1197.41 240.488 1210.91 251.3C1224.41 262.112 1232 276.775 1232 292.066H1160" fill="#F3BE00"/>
<path d="M1304 234.414H1232V292.066H1304V234.414Z" fill="#F3BE00"/>
<path d="M1232 292.066C1232 276.775 1239.59 262.112 1253.09 251.3C1266.59 240.488 1284.91 234.414 1304 234.414V292.066" fill="#3F3F9C"/>
<path d="M1232 292.078H1160V349.73H1232V292.078Z" fill="#3F3F9C"/>
<path d="M1160 349.73C1179.1 349.73 1197.41 343.656 1210.91 332.844C1224.41 322.032 1232 307.368 1232 292.078H1160" fill="#212152"/>
<path d="M1304 292.078H1232V349.73H1304V292.078Z" fill="#4D4DC7"/>
<path d="M1232 292.078C1232 307.368 1239.59 322.032 1253.09 332.844C1266.59 343.656 1284.91 349.73 1304 349.73V292.078" fill="#3F3F9C"/>
<path d="M1448 234.414H1304V349.717H1448V234.414Z" fill="#3F3F9C"/>
<path d="M1304 234.414C1342.19 234.414 1378.82 246.562 1405.82 268.185C1432.82 289.809 1448 319.137 1448 349.717L1304 234.414C1304 264.994 1319.17 294.322 1346.18 315.946C1373.18 337.569 1409.81 349.717 1448 349.717" fill="#212152"/>
<path d="M152 349.727H8V465.033H152V349.727Z" fill="#7272C5"/>
<path d="M79.9978 349.734H8V407.386H79.9978V349.734Z" fill="#4D4DC7"/>
<path d="M8 349.734C27.095 349.734 45.4079 355.808 58.9101 366.62C72.4123 377.432 79.9978 392.096 79.9978 407.386H8" fill="#212152"/>
<path d="M151.994 349.734H79.9961V407.386H151.994V349.734Z" fill="#4D4DC7"/>
<path d="M79.9961 407.386C79.9961 392.096 87.5816 377.432 101.084 366.62C114.586 355.808 132.899 349.734 151.994 349.734V407.386" fill="#212152"/>
<path d="M79.9978 407.383H8V465.034H79.9978V407.383Z" fill="#3F3F9C"/>
<path d="M8 465.034C27.095 465.034 45.4079 458.96 58.9101 448.149C72.4123 437.337 79.9978 422.673 79.9978 407.383H8" fill="#F3BE00"/>
<path d="M151.994 407.383H79.9961V465.034H151.994V407.383Z" fill="#212152"/>
<path d="M79.9961 407.383C79.9961 422.673 87.5816 437.337 101.084 448.149C114.586 458.96 132.899 465.034 151.994 465.034V407.383" fill="#3F3F9C"/>
<path d="M296 349.727H152V465.033H296V349.727Z" fill="#7272C5"/>
<path d="M223.996 349.734H151.998V407.386H223.996V349.734Z" fill="#F3BE00"/>
<path d="M223.996 349.734V407.386H151.998L223.996 349.734Z" fill="#F3BE00"/>
<path d="M295.988 349.734H223.99V407.386H295.988V349.734Z" fill="#3F3F9C"/>
<path d="M223.99 349.734H295.988L223.99 407.386V349.734Z" fill="#F3BE00"/>
<path d="M223.996 407.383H151.998V465.034H223.996V407.383Z" fill="#3F3F9C"/>
<path d="M151.998 407.383H223.996V465.034L151.998 407.383Z" fill="#4D4DC7"/>
<path d="M295.988 407.383H223.99V465.034H295.988V407.383Z" fill="#3F3F9C"/>
<path d="M223.99 407.383L295.988 465.034H223.99V407.383Z" fill="#4D4DC7"/>
<path d="M439.998 349.727H295.998V465.033H439.998V349.727Z" fill="#7272C5"/>
<path d="M367.988 349.734H295.99V407.386H367.988V349.734Z" fill="#212152"/>
<path d="M367.988 349.734V407.386H295.99L367.988 349.734Z" fill="#4D4DC7"/>
<path d="M440.006 349.734H368.008V407.386H440.006V349.734Z" fill="#4D4DC7"/>
<path d="M368.008 349.734H440.006L368.008 407.386V349.734Z" fill="#3F3F9C"/>
<path d="M367.988 407.383H295.99V465.034H367.988V407.383Z" fill="#F3BE00"/>
<path d="M295.99 407.383H367.988V465.034L295.99 407.383Z" fill="#212152"/>
<path d="M440.006 407.383H368.008V465.034H440.006V407.383Z" fill="#3F3F9C"/>
<path d="M368.008 407.383L440.006 465.034H368.008V407.383Z" fill="#212152"/>
<path d="M584.004 349.727H440.004V465.033H584.004V349.727Z" fill="#7272C5"/>
<path d="M512.006 349.734H440.008V407.386H512.006V349.734Z" fill="#4D4DC7"/>
<path d="M440.008 407.386C440.008 392.096 447.593 377.432 461.095 366.62C474.598 355.808 492.911 349.734 512.006 349.734V364.147C497.684 364.147 483.95 368.703 473.823 376.812C463.696 384.92 458.007 395.918 458.007 407.386" fill="#212152"/>
<path d="M584.002 349.734H512.004V407.386H584.002V349.734Z" fill="#F3BE00"/>
<path d="M512.004 349.734C531.099 349.734 549.412 355.808 562.914 366.62C576.416 377.432 584.002 392.096 584.002 407.386H566.002C566.002 395.918 560.313 384.92 550.187 376.812C540.06 368.703 526.325 364.147 512.004 364.147" fill="#4D4DC7"/>
<path d="M512.006 407.383H440.008V465.034H512.006V407.383Z" fill="#F3BE00"/>
<path d="M440.008 407.383C440.008 422.673 447.593 437.337 461.095 448.149C474.598 458.96 492.911 465.034 512.006 465.034V450.621C497.684 450.621 483.95 446.066 473.823 437.957C463.696 429.848 458.007 418.85 458.007 407.383" fill="#212152"/>
<path d="M584.002 407.383H512.004V465.034H584.002V407.383Z" fill="#3F3F9C"/>
<path d="M512.004 465.034C531.099 465.034 549.412 458.96 562.914 448.149C576.416 437.337 584.002 422.673 584.002 407.383H566.002C566.002 418.85 560.313 429.848 550.187 437.957C540.06 446.066 526.325 450.621 512.004 450.621" fill="#F3BE00"/>
<path d="M728.002 349.727H584.002V465.033H728.002V349.727Z" fill="#7272C5"/>
<path d="M656.002 349.734H584.004V407.386H656.002V349.734Z" fill="#F3BE00"/>
<path d="M584.004 349.734C603.099 349.734 621.412 355.808 634.914 366.62C648.416 377.432 656.002 392.096 656.002 407.386H584.004" fill="#3F3F9C"/>
<path d="M727.998 349.734H656V407.386H727.998V349.734Z" fill="#F3BE00"/>
<path d="M656 407.386C656 392.096 663.585 377.432 677.088 366.62C690.59 355.808 708.903 349.734 727.998 349.734V407.386" fill="#3F3F9C"/>
<path d="M656.002 407.383H584.004V465.034H656.002V407.383Z" fill="#3F3F9C"/>
<path d="M584.004 465.034C603.099 465.034 621.412 458.96 634.914 448.149C648.416 437.337 656.002 422.673 656.002 407.383H584.004" fill="#212152"/>
<path d="M727.998 407.383H656V465.034H727.998V407.383Z" fill="#212152"/>
<path d="M656 407.383C656 422.673 663.585 437.337 677.088 448.149C690.59 458.96 708.903 465.034 727.998 465.034V407.383" fill="#212152"/>
<path d="M872 349.727H728V465.033H872V349.727Z" fill="#7272C5"/>
<path d="M799.994 349.734H727.996V407.386H799.994V349.734Z" fill="#4D4DC7"/>
<path d="M799.994 349.734V407.386H727.996L799.994 349.734Z" fill="#4D4DC7"/>
<path d="M871.996 349.734H799.998V407.386H871.996V349.734Z" fill="#F3BE00"/>
<path d="M799.998 349.734L871.996 407.386H799.998V349.734Z" fill="#F3BE00"/>
<path d="M799.994 407.383H727.996V465.034H799.994V407.383Z" fill="#3F3F9C"/>
<path d="M727.996 407.383H799.994V465.034L727.996 407.383Z" fill="#212152"/>
<path d="M871.996 407.383H799.998V465.034H871.996V407.383Z" fill="#3F3F9C"/>
<path d="M799.998 407.383H871.996L799.998 465.034V407.383Z" fill="#4D4DC7"/>
<path d="M1016 349.727H871.996V465.033H1016V349.727Z" fill="#7272C5"/>
<path d="M943.988 349.734H871.99V407.386H943.988V349.734Z" fill="#4D4DC7"/>
<path d="M871.99 407.386C891.085 407.386 909.398 401.312 922.9 390.5C936.403 379.688 943.988 365.024 943.988 349.734H871.99" fill="#212152"/>
<path d="M1015.99 349.734H943.99V407.386H1015.99V349.734Z" fill="#3F3F9C"/>
<path d="M943.99 349.734C943.99 365.024 951.576 379.688 965.078 390.5C978.58 401.312 996.893 407.386 1015.99 407.386V349.734" fill="#F3BE00"/>
<path d="M943.988 407.383H871.99V465.034H943.988V407.383Z" fill="#3F3F9C"/>
<path d="M871.99 407.383C891.085 407.383 909.398 413.457 922.9 424.269C936.403 435.08 943.988 449.744 943.988 465.034H871.99" fill="#4D4DC7"/>
<path d="M1015.99 407.383H943.99V465.034H1015.99V407.383Z" fill="#F3BE00"/>
<path d="M943.99 465.034C943.99 449.744 951.576 435.08 965.078 424.269C978.58 413.457 996.893 407.383 1015.99 407.383V465.034" fill="#3F3F9C"/>
<path d="M1160 349.734H1016.01V465.037H1160V349.734Z" fill="#3F3F9C"/>
<path d="M1160 349.734H1016.01V465.037H1160V349.734Z" fill="#F3BE00"/>
<path d="M1304 349.734H1160V465.037H1304V349.734Z" fill="#F3BE00"/>
<path d="M1160 349.734C1160 380.315 1175.17 409.642 1202.18 431.266C1229.18 452.889 1265.81 465.037 1304 465.037V349.734" fill="#3F3F9C"/>
<path d="M1448 349.734H1304V465.037H1448V349.734Z" fill="#3F3F9C"/>
<path d="M1448 349.734H1304V465.037H1448V349.734Z" fill="#4D4DC7"/>
<path d="M151.996 465.023H8V580.326H151.996V465.023Z" fill="#212152"/>
<path d="M151.996 465.023H8V580.326H151.996V465.023Z" fill="#4D4DC7"/>
<path d="M295.994 465.023H151.998V580.326H295.994V465.023Z" fill="#F3BE00"/>
<path d="M151.998 580.326C151.998 549.746 167.169 520.418 194.173 498.795C221.178 477.171 257.804 465.023 295.994 465.023V580.326" fill="#3F3F9C"/>
<path d="M439.998 465.023H295.998V580.33H439.998V465.023Z" fill="#7272C5"/>
<path d="M367.988 465.023H295.99V522.675H367.988V465.023Z" fill="#3F3F9C"/>
<path d="M295.99 522.675C295.99 507.385 303.576 492.721 317.078 481.909C330.58 471.097 348.893 465.023 367.988 465.023V522.675" fill="#4D4DC7"/>
<path d="M440.006 465.023H368.008V522.675H440.006V465.023Z" fill="#4D4DC7"/>
<path d="M368.008 465.023C387.103 465.023 405.416 471.097 418.918 481.909C432.42 492.721 440.006 507.385 440.006 522.675H368.008" fill="#212152"/>
<path d="M367.988 522.688H295.99V580.339H367.988V522.688Z" fill="#4D4DC7"/>
<path d="M295.99 522.688C295.99 537.978 303.576 552.642 317.078 563.453C330.58 574.265 348.893 580.339 367.988 580.339V522.688" fill="#F3BE00"/>
<path d="M440.006 522.688H368.008V580.339H440.006V522.688Z" fill="#4D4DC7"/>
<path d="M368.008 580.339C387.103 580.339 405.416 574.265 418.918 563.453C432.42 552.642 440.006 537.978 440.006 522.688H368.008" fill="#212152"/>
<path d="M584.003 465.023H440.008V580.326H584.003V465.023Z" fill="#212152"/>
<path d="M440.008 465.023H584.003V580.326L440.008 465.023Z" fill="#212152"/>
<path d="M728.002 465.023H584.002V580.33H728.002V465.023Z" fill="#7272C5"/>
<path d="M656.002 465.023H584.004V522.675H656.002V465.023Z" fill="#3F3F9C"/>
<path d="M584.004 465.023C603.099 465.023 621.412 471.097 634.914 481.909C648.416 492.721 656.002 507.385 656.002 522.675H584.004" fill="#212152"/>
<path d="M727.998 465.023H656V522.675H727.998V465.023Z" fill="#212152"/>
<path d="M656 522.675C656 507.385 663.585 492.721 677.088 481.909C690.59 471.097 708.903 465.023 727.998 465.023V522.675" fill="#212152"/>
<path d="M656.002 522.688H584.004V580.339H656.002V522.688Z" fill="#4D4DC7"/>
<path d="M584.004 580.339C603.099 580.339 621.412 574.265 634.914 563.453C648.416 552.642 656.002 537.978 656.002 522.688H584.004" fill="#3F3F9C"/>
<path d="M727.998 522.688H656V580.339H727.998V522.688Z" fill="#4D4DC7"/>
<path d="M656 522.688C656 537.978 663.585 552.642 677.088 563.453C690.59 574.265 708.903 580.339 727.998 580.339V522.688" fill="#F3BE00"/>
<path d="M872 465.023H728V580.33H872V465.023Z" fill="#7272C5"/>
<path d="M799.994 465.023H727.996V522.675H799.994V465.023Z" fill="#3F3F9C"/>
<path d="M727.996 522.675C727.996 507.385 735.582 492.721 749.084 481.909C762.586 471.097 780.899 465.023 799.994 465.023V479.436C785.673 479.436 771.938 483.992 761.811 492.101C751.685 500.209 745.996 511.207 745.996 522.675" fill="#F3BE00"/>
<path d="M871.996 465.023H799.998V522.675H871.996V465.023Z" fill="#212152"/>
<path d="M799.998 465.023C819.093 465.023 837.406 471.097 850.908 481.909C864.41 492.721 871.996 507.385 871.996 522.675H853.996C853.996 511.207 848.307 500.209 838.181 492.101C828.054 483.992 814.319 479.436 799.998 479.436" fill="#F3BE00"/>
<path d="M799.994 522.688H727.996V580.339H799.994V522.688Z" fill="#4D4DC7"/>
<path d="M727.996 522.688C727.996 537.978 735.582 552.642 749.084 563.453C762.586 574.265 780.899 580.339 799.994 580.339V565.926C785.673 565.926 771.938 561.371 761.811 553.262C751.685 545.153 745.996 534.155 745.996 522.688" fill="#4D4DC7"/>
<path d="M871.996 522.688H799.998V580.339H871.996V522.688Z" fill="#212152"/>
<path d="M799.998 580.339C819.093 580.339 837.406 574.265 850.908 563.453C864.41 552.642 871.996 537.978 871.996 522.688H853.996C853.996 534.155 848.307 545.153 838.181 553.262C828.054 561.371 814.319 565.926 799.998 565.926" fill="#4D4DC7"/>
<path d="M1016 465.023H871.996V580.33H1016V465.023Z" fill="#7272C5"/>
<path d="M943.988 465.023H871.99V522.675H943.988V465.023Z" fill="#4D4DC7"/>
<path d="M871.99 465.023C891.085 465.023 909.398 471.097 922.9 481.909C936.403 492.721 943.988 507.385 943.988 522.675H871.99" fill="#F3BE00"/>
<path d="M1015.99 465.023H943.99V522.675H1015.99V465.023Z" fill="#212152"/>
<path d="M943.99 522.675C943.99 507.385 951.576 492.721 965.078 481.909C978.58 471.097 996.893 465.023 1015.99 465.023V522.675" fill="#4D4DC7"/>
<path d="M943.988 522.688H871.99V580.339H943.988V522.688Z" fill="#F3BE00"/>
<path d="M871.99 580.339C891.085 580.339 909.398 574.265 922.9 563.453C936.403 552.642 943.988 537.978 943.988 522.688H871.99" fill="#3F3F9C"/>
<path d="M1015.99 522.688H943.99V580.339H1015.99V522.688Z" fill="#F3BE00"/>
<path d="M943.99 522.688C943.99 537.978 951.576 552.642 965.078 563.453C978.58 574.265 996.893 580.339 1015.99 580.339V522.688" fill="#F3BE00"/>
<path d="M1160 465.023H1016V580.33H1160V465.023Z" fill="#7272C5"/>
<path d="M1088.01 465.023H1016.01V522.675H1088.01V465.023Z" fill="#4D4DC7"/>
<path d="M1016.01 465.023C1016.01 480.314 1023.59 494.977 1037.1 505.789C1050.6 516.601 1068.91 522.675 1088.01 522.675V465.023" fill="#3F3F9C"/>
<path d="M1160.01 465.023H1088.01V522.675H1160.01V465.023Z" fill="#F3BE00"/>
<path d="M1088.01 522.675C1097.46 522.675 1106.83 521.184 1115.56 518.286C1124.3 515.389 1132.23 511.143 1138.92 505.789C1145.6 500.436 1150.91 494.08 1154.53 487.086C1158.14 480.091 1160.01 472.594 1160.01 465.023H1088.01" fill="#3F3F9C"/>
<path d="M1088.01 522.688H1016.01V580.339H1088.01V522.688Z" fill="#4D4DC7"/>
<path d="M1016.01 580.339C1016.01 565.049 1023.59 550.385 1037.1 539.573C1050.6 528.761 1068.91 522.688 1088.01 522.688V580.339" fill="#4D4DC7"/>
<path d="M1160.01 522.688H1088.01V580.339H1160.01V522.688Z" fill="#212152"/>
<path d="M1088.01 522.688C1097.46 522.688 1106.83 524.179 1115.56 527.076C1124.3 529.973 1132.23 534.22 1138.92 539.573C1145.6 544.927 1150.91 551.282 1154.53 558.277C1158.14 565.271 1160.01 572.768 1160.01 580.339H1088.01" fill="#F3BE00"/>
<path d="M1304 465.023H1160V580.33H1304V465.023Z" fill="#7272C5"/>
<path d="M1232 465.023H1160V522.675H1232V465.023Z" fill="#F3BE00"/>
<path d="M1160 465.023C1179.1 465.023 1197.41 471.097 1210.91 481.909C1224.41 492.721 1232 507.385 1232 522.675H1160" fill="#3F3F9C"/>
<path d="M1304 465.023H1232V522.675H1304V465.023Z" fill="#3F3F9C"/>
<path d="M1232 522.675C1232 507.385 1239.59 492.721 1253.09 481.909C1266.59 471.097 1284.91 465.023 1304 465.023V522.675" fill="#F3BE00"/>
<path d="M1232 522.688H1160V580.339H1232V522.688Z" fill="#4D4DC7"/>
<path d="M1160 580.339C1179.1 580.339 1197.41 574.265 1210.91 563.453C1224.41 552.642 1232 537.978 1232 522.688H1160" fill="#4D4DC7"/>
<path d="M1304 522.688H1232V580.339H1304V522.688Z" fill="#4D4DC7"/>
<path d="M1232 522.688C1232 537.978 1239.59 552.642 1253.09 563.453C1266.59 574.265 1284.91 580.339 1304 580.339V522.688" fill="#212152"/>
<path d="M1448 465.023H1304V580.326H1448V465.023Z" fill="#3F3F9C"/>
<path d="M1304 465.023H1448L1304 580.326V465.023Z" fill="#212152"/>
<path d="M151.996 580.336H8V695.639H151.996V580.336Z" fill="#212152"/>
<path d="M8 580.336C8 610.916 23.1709 640.244 50.1753 661.867C77.1797 683.491 113.806 695.639 151.996 695.639V580.336" fill="#212152"/>
<path d="M296 580.336H152V695.642H296V580.336Z" fill="#7272C5"/>
<path d="M223.996 580.336H151.998V637.987H223.996V580.336Z" fill="#212152"/>
<path d="M151.998 580.336C151.998 595.626 159.583 610.29 173.086 621.102C186.588 631.913 204.901 637.987 223.996 637.987V580.336" fill="#F3BE00"/>
<path d="M295.988 580.336H223.99V637.987H295.988V580.336Z" fill="#3F3F9C"/>
<path d="M223.99 637.987C243.085 637.987 261.398 631.913 274.9 621.102C288.403 610.29 295.988 595.626 295.988 580.336H223.99" fill="#F3BE00"/>
<path d="M223.996 637.977H151.998V695.628H223.996V637.977Z" fill="#4D4DC7"/>
<path d="M151.998 695.628C151.998 688.057 153.86 680.56 157.479 673.566C161.097 666.571 166.4 660.216 173.086 654.862C179.771 649.509 187.708 645.262 196.443 642.365C205.179 639.468 214.541 637.977 223.996 637.977V695.628" fill="#F3BE00"/>
<path d="M295.988 637.977H223.99V695.628H295.988V637.977Z" fill="#F3BE00"/>
<path d="M223.99 637.977C233.445 637.977 242.807 639.468 251.543 642.365C260.278 645.262 268.215 649.509 274.9 654.862C281.586 660.216 286.889 666.571 290.507 673.566C294.126 680.56 295.988 688.057 295.988 695.628H223.99" fill="#F3BE00"/>
<path d="M439.998 580.336H295.998V695.642H439.998V580.336Z" fill="#7272C5"/>
<path d="M367.988 580.336H295.99V637.987H367.988V580.336Z" fill="#4D4DC7"/>
<path d="M295.99 637.987C295.99 622.697 303.576 608.033 317.078 597.222C330.58 586.41 348.893 580.336 367.988 580.336V637.987" fill="#212152"/>
<path d="M440.006 580.336H368.008V637.987H440.006V580.336Z" fill="#4D4DC7"/>
<path d="M368.008 580.336C387.103 580.336 405.416 586.41 418.918 597.222C432.42 608.033 440.006 622.697 440.006 637.987H368.008" fill="#3F3F9C"/>
<path d="M367.988 637.977H295.99V695.628H367.988V637.977Z" fill="#4D4DC7"/>
<path d="M295.99 637.977C295.99 653.267 303.576 667.931 317.078 678.742C330.58 689.554 348.893 695.628 367.988 695.628V637.977" fill="#212152"/>
<path d="M440.006 637.977H368.008V695.628H440.006V637.977Z" fill="#212152"/>
<path d="M368.008 695.628C387.103 695.628 405.416 689.554 418.918 678.742C432.42 667.931 440.006 653.267 440.006 637.977H368.008" fill="#3F3F9C"/>
<path d="M584.004 580.336H440.004V695.642H584.004V580.336Z" fill="#7272C5"/>
<path d="M512.006 580.336H440.008V637.987H512.006V580.336Z" fill="#212152"/>
<path d="M440.008 580.336C459.103 580.336 477.416 586.41 490.918 597.222C504.42 608.033 512.006 622.697 512.006 637.987H440.008" fill="#F3BE00"/>
<path d="M584.002 580.336H512.004V637.987H584.002V580.336Z" fill="#212152"/>
<path d="M512.004 637.987C512.004 622.697 519.589 608.033 533.092 597.222C546.594 586.41 564.907 580.336 584.002 580.336V637.987" fill="#F3BE00"/>
<path d="M512.006 637.977H440.008V695.628H512.006V637.977Z" fill="#3F3F9C"/>
<path d="M440.008 695.628C459.103 695.628 477.416 689.554 490.918 678.742C504.42 667.931 512.006 653.267 512.006 637.977H440.008" fill="#212152"/>
<path d="M584.002 637.977H512.004V695.628H584.002V637.977Z" fill="#212152"/>
<path d="M512.004 637.977C512.004 653.267 519.589 667.931 533.092 678.742C546.594 689.554 564.907 695.628 584.002 695.628V637.977" fill="#4D4DC7"/>
<path d="M728.002 580.336H584.002V695.642H728.002V580.336Z" fill="#7272C5"/>
<path d="M656.002 580.336H584.004V637.987H656.002V580.336Z" fill="#F3BE00"/>
<path d="M656.002 580.336V637.987H584.004L656.002 580.336Z" fill="#3F3F9C"/>
<path d="M727.998 580.336H656V637.987H727.998V580.336Z" fill="#212152"/>
<path d="M656 580.336L727.998 637.987H656V580.336Z" fill="#4D4DC7"/>
<path d="M656.002 637.977H584.004V695.628H656.002V637.977Z" fill="#212152"/>
<path d="M584.004 637.977H656.002V695.628L584.004 637.977Z" fill="#3F3F9C"/>
<path d="M727.998 637.977H656V695.628H727.998V637.977Z" fill="#212152"/>
<path d="M656 637.977H727.998L656 695.628V637.977Z" fill="#3F3F9C"/>
<path d="M871.992 580.336H727.996V695.639H871.992V580.336Z" fill="#F3BE00"/>
<path d="M727.996 580.336L871.992 695.639H727.996V580.336Z" fill="#212152"/>
<path d="M1015.99 580.336H871.99V695.639H1015.99V580.336Z" fill="#3F3F9C"/>
<path d="M871.99 580.336H1015.99V695.639L871.99 580.336Z" fill="#212152"/>
<path d="M1160 580.336H1016.01V695.639H1160V580.336Z" fill="#3F3F9C"/>
<path d="M1016.01 580.336C1016.01 610.916 1031.18 640.244 1058.18 661.867C1085.19 683.491 1121.81 695.639 1160 695.639V580.336" fill="#3F3F9C"/>
<path d="M1304 580.336H1160V695.642H1304V580.336Z" fill="#7272C5"/>
<path d="M1232 580.336H1160V637.987H1232V580.336Z" fill="#4D4DC7"/>
<path d="M1160 580.336C1179.1 580.336 1197.41 586.41 1210.91 597.222C1224.41 608.033 1232 622.697 1232 637.987H1160" fill="#212152"/>
<path d="M1304 580.336H1232V637.987H1304V580.336Z" fill="#3F3F9C"/>
<path d="M1232 637.987C1232 622.697 1239.59 608.033 1253.09 597.222C1266.59 586.41 1284.91 580.336 1304 580.336V637.987" fill="#212152"/>
<path d="M1232 637.977H1160V695.628H1232V637.977Z" fill="#3F3F9C"/>
<path d="M1160 695.628C1179.1 695.628 1197.41 689.554 1210.91 678.742C1224.41 667.931 1232 653.267 1232 637.977H1160" fill="#F3BE00"/>
<path d="M1304 637.977H1232V695.628H1304V637.977Z" fill="#212152"/>
<path d="M1232 637.977C1232 653.267 1239.59 667.931 1253.09 678.742C1266.59 689.554 1284.91 695.628 1304 695.628V637.977" fill="#F3BE00"/>
<path d="M1448 580.336H1304V695.639H1448V580.336Z" fill="#F3BE00"/>
<path d="M1448 580.336V695.639H1304L1448 580.336Z" fill="#212152"/>
</g>
<defs>
<filter id="filter0_d_2726_4494" x="0" y="0.804688" width="1456" height="707.836" filterUnits="userSpaceOnUse" color-interpolation-filters="sRGB">
<feFlood flood-opacity="0" result="BackgroundImageFix"/>
<feColorMatrix in="SourceAlpha" type="matrix" values="0 0 0 0 0 0 0 0 0 0 0 0 0 0 0 0 0 0 127 0" result="hardAlpha"/>
<feOffset dy="5"/>
<feGaussianBlur stdDeviation="4"/>
<feComposite in2="hardAlpha" operator="out"/>
<feColorMatrix type="matrix" values="0 0 0 0 0 0 0 0 0 0 0 0 0 0 0 0 0 0 0.25 0"/>
<feBlend mode="normal" in2="BackgroundImageFix" result="effect1_dropShadow_2726_4494"/>
<feBlend mode="normal" in="SourceGraphic" in2="effect1_dropShadow_2726_4494" result="shape"/>
</filter>
</defs>
</svg>
