<svg width="494" height="101" viewBox="0 0 494 101" fill="none" xmlns="http://www.w3.org/2000/svg">
<path d="M0 74.5L32.8423 49.6671H0V74.5Z" fill="#212152"/>
<path d="M32.8438 74.5L65.6861 99.3329H32.8438V74.5Z" fill="#212152"/>
<path d="M0 99.3359L32.8423 74.5031H0V99.3359Z" fill="#212152"/>
<path d="M32.8438 49.6641L65.6861 74.4969H32.8438V49.6641Z" fill="#212152"/>
<path d="M65.6875 99.3298C83.1081 99.3298 99.8153 94.0972 112.134 84.7831C124.452 75.4689 131.372 62.8362 131.372 49.6641H65.6875" fill="#212152"/>
<path d="M262.738 99.3359L197.054 49.6702H262.738V99.3359Z" fill="#212152"/>
<path d="M295.581 49.6641H262.738V74.4969H295.581V49.6641Z" fill="#212152"/>
<path d="M98.5298 0H65.6875V24.8329H98.5298V0Z" fill="#212152"/>
<path d="M295.582 49.6641C304.292 49.6641 312.646 52.2804 318.805 56.9374C324.964 61.5945 328.424 67.9108 328.424 74.4969H295.582" fill="#212152"/>
<path d="M131.367 124.164C122.657 124.164 114.303 121.548 108.144 116.891C101.985 112.234 98.5249 105.917 98.5249 99.3312H131.367" fill="#212152"/>
<path d="M262.738 74.5C262.738 81.0861 266.198 87.4024 272.358 92.0595C278.517 96.7166 286.87 99.3329 295.581 99.3329V74.5" fill="#212152"/>
<path d="M361.268 49.6641H328.426V74.4969H361.268V49.6641Z" fill="#212152"/>
<path d="M361.27 49.6641L394.112 74.4969H361.27V49.6641Z" fill="#212152"/>
<path d="M361.27 74.5H394.112V99.3329L361.27 74.5Z" fill="#212152"/>
<path d="M361.27 74.5H328.427V99.3329L361.27 74.5Z" fill="#212152"/>
<path d="M394.104 49.6641V99.3298H459.789L394.104 49.6641Z" fill="#212152"/>
<path d="M0 149.002V99.3359C0 112.508 6.92033 125.141 19.2386 134.455C31.5568 143.769 48.264 149.002 65.6846 149.002H0Z" fill="#212152"/>
<path d="M197.051 124.169V99.3359C197.051 105.922 200.511 112.238 206.67 116.895C212.829 121.552 221.183 124.169 229.893 124.169H197.051Z" fill="#212152"/>
<path d="M164.211 24.8329V0C164.211 6.58609 167.671 12.9024 173.83 17.5595C179.989 22.2166 188.343 24.8329 197.053 24.8329H164.211Z" fill="#212152"/>
<path d="M164.211 24.8312V49.6641C164.211 43.078 167.671 36.7616 173.83 32.1046C179.989 27.4475 188.343 24.8312 197.053 24.8312H164.211Z" fill="#212152"/>
<path d="M98.5298 99.3359H65.6875V124.169H98.5298V99.3359Z" fill="#212152"/>
<path d="M164.21 99.3359H131.367V124.169H164.21V99.3359Z" fill="#212152"/>
<path d="M262.737 99.3359H229.895V124.169H262.737V99.3359Z" fill="#212152"/>
<path d="M328.424 99.3359H295.582V124.169H328.424V99.3359Z" fill="#212152"/>
<path d="M361.268 99.3359H328.426V124.169H361.268V99.3359Z" fill="#212152"/>
<path d="M361.27 99.3359L394.112 124.169H361.27V99.3359Z" fill="#212152"/>
<path d="M394.105 99.3359H459.79C442.369 99.3359 425.662 104.569 413.344 113.883C401.026 123.197 394.105 135.83 394.105 149.002V99.3359Z" fill="#212152"/>
<path d="M394.105 149.002H459.79V99.3359C459.79 112.508 452.87 125.141 440.552 134.455C428.233 143.769 411.526 149.002 394.105 149.002Z" fill="#212152"/>
<path d="M131.367 49.6641C148.788 49.6641 165.495 54.8967 177.813 64.2108C190.132 73.525 197.052 86.1576 197.052 99.3298L131.367 49.6641C131.367 62.8362 138.288 75.4689 150.606 84.7831C162.924 94.0972 179.631 99.3298 197.052 99.3298" fill="#212152"/>
<path d="M32.8438 24.8329C41.5541 24.8329 49.9076 22.2166 56.0668 17.5595C62.2259 12.9024 65.6861 6.58609 65.6861 0H32.8438" fill="#212152"/>
<path d="M0 49.6688C0 43.0827 3.46016 36.7664 9.61929 32.1093C15.7784 27.4522 24.132 24.8359 32.8423 24.8359V49.6688" fill="#212152"/>
<path d="M65.6861 24.8359H32.8438V49.6688H65.6861V24.8359Z" fill="#212152"/>
<path d="M98.5312 0C107.242 0 115.595 2.61631 121.754 7.27338C127.913 11.9304 131.374 18.2468 131.374 24.8329H123.163C123.163 19.8933 120.568 15.1561 115.949 11.6633C111.329 8.17045 105.064 6.20822 98.5312 6.20822" fill="#212152"/>
<path d="M73.8981 24.8359H98.5298V43.4606C91.9971 43.4606 85.7319 41.4984 81.1125 38.0056C76.4932 34.5128 73.8981 29.7755 73.8981 24.8359Z" fill="#212152"/>
<path d="M98.5298 49.6688C89.8195 49.6688 81.4659 47.0525 75.3068 42.3954C69.1477 37.7384 65.6875 31.422 65.6875 24.8359V49.6688H98.5298Z" fill="#212152"/>
<path d="M164.21 0H131.367V24.8329H164.21V0Z" fill="#212152"/>
<path d="M231.21 24.8359H198.367V49.6688H231.21V24.8359Z" fill="#212152"/>
<path d="M131.367 49.6641L164.21 24.8312H131.367V49.6641Z" fill="#212152"/>
</svg>
