<svg width="559" height="608" viewBox="0 0 559 608" fill="none" xmlns="http://www.w3.org/2000/svg">
<path d="M15.7636 98.1036L0 71.4582L186.738 0L241.304 285.833C447.928 119.178 539.195 369.806 559 515.952L417.128 557.131C421.978 524.43 423.918 434.078 392.876 334.279C361.834 234.48 283.744 292.696 248.579 334.279L293.445 571.665L184.312 608L168.549 583.777L219.477 568.032L203.714 528.064L156.423 543.809L145.51 520.797L197.651 507.474L180.675 455.394L134.597 469.928L124.896 448.128L174.612 433.594L156.423 381.514L111.557 396.048L99.4317 373.036L147.935 357.291L134.597 316.112L90.9436 331.857L77.6052 305.211L124.896 293.1L105.495 232.542L65.4794 247.076L55.7787 221.641L99.4317 205.896L77.6052 146.55L40.0152 161.084L27.8894 134.438L69.1171 118.693L55.7787 78.7251L15.7636 98.1036Z" fill="#E4E4E4"/>
</svg>
