<svg width="372" height="169" viewBox="0 0 372 169" fill="none" xmlns="http://www.w3.org/2000/svg">
<path d="M134.68 135.555L67.2597 68.1347H134.68V135.555Z" fill="#3F3F9C"/>
<path d="M168.39 68.1328H134.68V101.843H168.39V68.1328Z" fill="#3F3F9C"/>
<path d="M168.391 68.1328C177.331 68.1328 185.905 71.6844 192.227 78.0062C198.549 84.3281 202.101 92.9024 202.101 101.843H168.391" fill="#3F3F9C"/>
<path d="M134.68 101.844C134.68 110.784 138.231 119.358 144.553 125.68C150.875 132.002 159.449 135.554 168.39 135.554V101.844" fill="#3F3F9C"/>
<path d="M235.812 68.1328H202.102V101.843H235.812V68.1328Z" fill="#3F3F9C"/>
<path d="M235.812 68.1328L269.522 101.843H235.812V68.1328Z" fill="#3F3F9C"/>
<path d="M235.812 101.844H269.522V135.554L235.812 101.844Z" fill="#3F3F9C"/>
<path d="M235.812 101.844H202.103V135.554L235.812 101.844Z" fill="#3F3F9C"/>
<path d="M269.518 68.1328V135.553H336.938L269.518 68.1328Z" fill="#3F3F9C"/>
<path d="M67.2578 169.265V135.555C67.2578 144.495 70.8094 153.069 77.1312 159.391C83.4531 165.713 92.0274 169.265 100.968 169.265H67.2578Z" fill="#3F3F9C"/>
<path d="M33.5508 34.4209V0.710938C33.5508 9.65139 37.1024 18.2257 43.4242 24.5475C49.7461 30.8694 58.3203 34.4209 67.2608 34.4209H33.5508Z" fill="#3F3F9C"/>
<path d="M33.5508 34.4228V68.1328C33.5508 59.1924 37.1024 50.6181 43.4242 44.2962C49.7461 37.9744 58.3203 34.4228 67.2608 34.4228H33.5508Z" fill="#3F3F9C"/>
<path d="M33.5498 135.555H-0.160156V169.265H33.5498V135.555Z" fill="#3F3F9C"/>
<path d="M134.679 135.555H100.969V169.265H134.679V135.555Z" fill="#3F3F9C"/>
<path d="M202.101 135.555H168.391V169.265H202.101V135.555Z" fill="#3F3F9C"/>
<path d="M235.812 135.555H202.102V169.265H235.812V135.555Z" fill="#3F3F9C"/>
<path d="M235.812 135.555L269.522 169.265H235.812V135.555Z" fill="#3F3F9C"/>
<path d="M269.52 135.555H336.94C319.059 135.555 301.91 142.658 289.266 155.302C276.623 167.945 269.52 185.094 269.52 202.975V135.555Z" fill="#3F3F9C"/>
<path d="M269.52 202.975H336.94V135.555C336.94 153.436 329.836 170.584 317.193 183.228C304.549 195.872 287.4 202.975 269.52 202.975Z" fill="#3F3F9C"/>
<path d="M-0.160156 68.1328C17.7207 68.1328 34.8693 75.236 47.513 87.8797C60.1567 100.523 67.2598 117.672 67.2598 135.553L-0.160156 68.1328C-0.160156 86.0137 6.94299 103.162 19.5867 115.806C32.2304 128.45 49.3789 135.553 67.2598 135.553" fill="#3F3F9C"/>
<path d="M33.5498 0.710938H-0.160156V34.4209H33.5498V0.710938Z" fill="#3F3F9C"/>
<path d="M102.319 34.4219H68.6094V68.1319H102.319V34.4219Z" fill="#3F3F9C"/>
<path d="M-0.160156 68.1328L33.5498 34.4228H-0.160156V68.1328Z" fill="#3F3F9C"/>
</svg>
