<svg width="207" height="413" viewBox="0 0 207 413" fill="none" xmlns="http://www.w3.org/2000/svg">
<g filter="url(#filter0_d_886_4797)">
<rect width="33.7143" height="33.7143" transform="matrix(-1 0 0 1 134.859 -33.7031)" fill="#3F3F9C"/>
<rect width="33.7143" height="33.7143" transform="matrix(-1 0 0 1 202.285 -33.7031)" fill="#212152"/>
<rect width="33.7143" height="33.7143" transform="matrix(-1 0 0 1 168.57 -33.7031)" fill="#212152"/>
<rect width="33.7143" height="33.7143" transform="matrix(1 0 0 -1 0 370.859)" fill="#3F3F9C"/>
<rect width="33.7143" height="33.7143" transform="matrix(-1 0 0 1 67.4297 -33.7031)" fill="#3F3F9C"/>
<rect width="33.7143" height="33.7143" transform="matrix(-1 0 0 1 134.859 33.7188)" fill="#F3BE00"/>
<rect width="33.7143" height="33.7143" transform="matrix(-1 0 0 1 168.57 33.7188)" fill="#212152"/>
<rect x="101.141" y="303.438" width="33.7143" height="33.7143" transform="rotate(180 101.141 303.438)" fill="#212152"/>
<rect width="33.7143" height="33.7143" transform="matrix(1 0 0 -1 0 303.43)" fill="#F3BE00"/>
<rect x="33.7148" y="67.4375" width="33.7143" height="33.7143" fill="#212152"/>
<rect width="33.7143" height="33.7143" transform="matrix(-1 0 0 1 33.7148 101.148)" fill="#212152"/>
<rect y="134.859" width="33.7143" height="33.7143" fill="#F3BE00"/>
<rect x="67.4297" y="134.859" width="33.7143" height="33.7143" fill="#3F3F9C"/>
<rect x="101.141" y="134.859" width="33.7143" height="33.7143" fill="#212152"/>
<rect width="33.7143" height="33.7143" transform="matrix(-1 0 0 1 101.141 168.578)" fill="#3F3F9C"/>
<rect width="33.7143" height="33.7143" transform="matrix(-1 0 0 1 33.7148 168.578)" fill="#3F3F9C"/>
<rect x="101.141" y="202.297" width="33.7143" height="33.7143" fill="#F3BE00"/>
<path d="M101.145 33.7188V67.433H134.859C134.859 48.8137 119.764 33.7188 101.145 33.7188Z" fill="#4D4DC7"/>
<path d="M101.144 67.4375V33.7232H67.4297C67.4297 52.3426 82.5246 67.4375 101.144 67.4375Z" fill="#F3BE00"/>
<path d="M101.145 0.0078125V33.7221H134.859C134.859 15.1027 119.764 0.0078125 101.145 0.0078125Z" fill="#F3DB00"/>
<path d="M101.144 0.0078125V33.7221H67.4297C67.4297 15.1027 82.5246 0.0078125 101.144 0.0078125Z" fill="#212152"/>
<rect width="33.7143" height="33.7143" transform="matrix(-1 0 0 1 33.7148 236.008)" fill="#212152"/>
<path d="M67.4291 33.7188V67.433H33.7148C33.7148 48.8137 48.8098 33.7188 67.4291 33.7188Z" fill="#3F3F9C"/>
<path d="M67.4291 33.7188V0.0044632H33.7148C33.7148 18.6238 48.8098 33.7188 67.4291 33.7188Z" fill="#F3BE00"/>
<path d="M33.7143 33.7188V0.0044632H0C0 18.6238 15.0949 33.7188 33.7143 33.7188Z" fill="#4D4DC7"/>
<path d="M33.7143 303.43V269.715H0C0 288.335 15.0949 303.43 33.7143 303.43Z" fill="#4D4DC7"/>
<path d="M33.7154 269.719V303.433H67.4297C67.4297 284.814 52.3348 269.719 33.7154 269.719Z" fill="#F3BE00"/>
<path d="M33.7143 337.148V303.434H0C0 322.054 15.0949 337.148 33.7143 337.148Z" fill="#F3DB00"/>
<path d="M33.7154 337.148V303.434H67.4297C67.4297 322.054 52.3348 337.148 33.7154 337.148Z" fill="#212152"/>
<path d="M202.285 67.4375V33.7232H168.57C168.57 52.3426 183.665 67.4375 202.285 67.4375Z" fill="#F3BE00"/>
<path d="M134.855 269.719V303.433H101.141C101.141 284.814 116.236 269.719 134.855 269.719Z" fill="#F3BE00"/>
<path d="M134.856 67.4375V33.7232H168.57C168.57 52.3426 153.475 67.4375 134.856 67.4375Z" fill="#3F3F9C"/>
<path d="M67.4263 269.719V303.433H101.141C101.141 284.814 86.0457 269.719 67.4263 269.719Z" fill="#3F3F9C"/>
<path d="M168.571 0.0078125V33.7221H202.285C202.285 15.1027 187.19 0.0078125 168.571 0.0078125Z" fill="#212152"/>
<path d="M101.145 337.148V303.434H134.859C134.859 322.054 119.764 337.148 101.145 337.148Z" fill="#212152"/>
<path d="M168.574 0.0078125V33.7221H134.859C134.859 15.1027 149.954 0.0078125 168.574 0.0078125Z" fill="#4D4DC7"/>
<path d="M101.144 337.148V303.434H67.4297C67.4297 322.054 82.5246 337.148 101.144 337.148Z" fill="#4D4DC7"/>
<path d="M67.4291 134.859V101.145H33.7148C33.7148 119.764 48.8098 134.859 67.4291 134.859Z" fill="#4D4DC7"/>
<path d="M33.7143 101.148V134.863H0C0 116.243 15.0949 101.148 33.7143 101.148Z" fill="#F3BE00"/>
<path d="M67.4291 101.148V67.4342H33.7148C33.7148 86.0535 48.8098 101.148 67.4291 101.148Z" fill="#4D4DC7"/>
<path d="M0.000556946 101.148V67.4342H33.7148C33.7148 86.0535 18.6199 101.148 0.000556946 101.148Z" fill="#3F3F9C"/>
<path d="M101.145 101.148V134.863H134.859C134.859 116.243 119.764 101.148 101.145 101.148Z" fill="#212152"/>
<path d="M67.4263 101.148V134.863H101.141C101.141 116.243 86.0457 101.148 67.4263 101.148Z" fill="#F3BE00"/>
<path d="M101.145 101.148V67.4342H134.859C134.859 86.0535 119.764 101.148 101.145 101.148Z" fill="#3F3F9C"/>
<path d="M101.144 101.148V67.4342H67.4297C67.4297 86.0535 82.5246 101.148 101.144 101.148Z" fill="#212152"/>
<path d="M168.571 134.859V101.145H202.285C202.285 119.764 187.19 134.859 168.571 134.859Z" fill="#3F3F9C"/>
<path d="M168.574 101.148V134.863H134.859C134.859 116.243 149.954 101.148 168.574 101.148Z" fill="#212152"/>
<path d="M202.285 67.4375V101.152H168.57C168.57 82.5324 183.665 67.4375 202.285 67.4375Z" fill="#3F3F9C"/>
<path d="M33.7154 202.297V168.583H67.4297C67.4297 187.202 52.3348 202.297 33.7154 202.297Z" fill="#212152"/>
<path d="M33.7143 202.297V168.583H0C0 187.202 15.0949 202.297 33.7143 202.297Z" fill="#F3BE00"/>
<path d="M67.4291 134.859V168.574H33.7148C33.7148 149.954 48.8098 134.859 67.4291 134.859Z" fill="#3F3F9C"/>
<path d="M33.7143 168.578V134.864H0C0 153.483 15.0949 168.578 33.7143 168.578Z" fill="#4D4DC7"/>
<path d="M134.855 202.297V168.583H101.141C101.141 187.202 116.236 202.297 134.855 202.297Z" fill="#212152"/>
<path d="M134.855 168.578V134.864H101.141C101.141 153.483 116.236 168.578 134.855 168.578Z" fill="#4D4DC7"/>
<path d="M67.4263 168.578V134.864H101.141C101.141 153.483 86.0457 168.578 67.4263 168.578Z" fill="#212152"/>
<path d="M202.285 168.578V202.292H168.57C168.57 183.673 183.665 168.578 202.285 168.578Z" fill="#3F3F9C"/>
<path d="M134.856 168.578V202.292H168.57C168.57 183.673 153.475 168.578 134.856 168.578Z" fill="#212152"/>
<path d="M202.285 168.578V134.864H168.57C168.57 153.483 183.665 168.578 202.285 168.578Z" fill="#4D4DC7"/>
<path d="M134.856 168.578V134.864H168.57C168.57 153.483 153.475 168.578 134.856 168.578Z" fill="#F3BE00"/>
<path d="M67.4291 202.297V236.011H33.7148C33.7148 217.392 48.8098 202.297 67.4291 202.297Z" fill="#F3DB00"/>
<path d="M33.7143 202.297V236.011H0C0 217.392 15.0949 202.297 33.7143 202.297Z" fill="#212152"/>
<path d="M101.144 0.0078125V-33.7065H67.4297C67.4297 -15.0871 82.5246 0.0078125 101.144 0.0078125Z" fill="#4D4DC7"/>
<path d="M134.855 0.0078125V-33.7065H101.141C101.141 -15.0871 116.236 0.0078125 134.855 0.0078125Z" fill="#212152"/>
<path d="M134.855 236.008V269.722H101.141C101.141 251.103 116.236 236.008 134.855 236.008Z" fill="#212152"/>
<path d="M67.4263 269.719V236.004H101.141C101.141 254.624 86.0457 269.719 67.4263 269.719Z" fill="#F3BE00"/>
<path d="M101.144 236.008V202.294H67.4297C67.4297 220.913 82.5246 236.008 101.144 236.008Z" fill="#4D4DC7"/>
<path d="M168.571 269.719V236.004H202.285C202.285 254.624 187.19 269.719 168.571 269.719Z" fill="#212152"/>
<path d="M134.856 236.008V269.722H168.57C168.57 251.103 153.475 236.008 134.856 236.008Z" fill="#3F3F9C"/>
<path d="M202.285 236.008V202.294H168.57C168.57 220.913 183.665 236.008 202.285 236.008Z" fill="#F3DB00"/>
<circle cx="16.8571" cy="50.5759" r="16.8571" fill="#212152"/>
<circle cx="151.717" cy="84.2946" r="16.8571" fill="#F3DB00"/>
<circle cx="50.572" cy="252.865" r="16.8571" fill="#3F3F9C"/>
<circle cx="151.717" cy="219.154" r="16.8571" fill="#3F3F9C"/>
<path d="M168.571 0.0078125V-33.7065H202.285C202.285 -15.0871 187.19 0.0078125 168.571 0.0078125Z" fill="#F3DB00"/>
<path d="M33.7143 0.0078125V-33.7065H0C0 -15.0871 15.0949 0.0078125 33.7143 0.0078125Z" fill="#F3BE00"/>
<path d="M33.7154 337.148V370.863H67.4297C67.4297 352.243 52.3348 337.148 33.7154 337.148Z" fill="#4D4DC7"/>
<path d="M0.000556946 337.148V370.863H33.7148C33.7148 352.243 18.6199 337.148 0.000556946 337.148Z" fill="#212152"/>
<path d="M33.7154 0.0078125V-33.7065H67.4297C67.4297 -15.0871 52.3348 0.0078125 33.7154 0.0078125Z" fill="#212152"/>
<path d="M33.7154 404.578V370.864H67.4297C67.4297 389.483 52.3348 404.578 33.7154 404.578Z" fill="#F3DB00"/>
<circle cx="16.8577" cy="387.721" r="16.8571" transform="rotate(180 16.8577 387.721)" fill="#3F3F9C"/>
<path d="M134.856 0.0078125V-33.7065H168.57C168.57 -15.0871 153.475 0.0078125 134.856 0.0078125Z" fill="#3F3F9C"/>
</g>
<defs>
<filter id="filter0_d_886_4797" x="-4" y="-67.4219" width="210.285" height="480" filterUnits="userSpaceOnUse" color-interpolation-filters="sRGB">
<feFlood flood-opacity="0" result="BackgroundImageFix"/>
<feColorMatrix in="SourceAlpha" type="matrix" values="0 0 0 0 0 0 0 0 0 0 0 0 0 0 0 0 0 0 127 0" result="hardAlpha"/>
<feOffset dy="4"/>
<feGaussianBlur stdDeviation="2"/>
<feComposite in2="hardAlpha" operator="out"/>
<feColorMatrix type="matrix" values="0 0 0 0 0 0 0 0 0 0 0 0 0 0 0 0 0 0 0.25 0"/>
<feBlend mode="normal" in2="BackgroundImageFix" result="effect1_dropShadow_886_4797"/>
<feBlend mode="normal" in="SourceGraphic" in2="effect1_dropShadow_886_4797" result="shape"/>
</filter>
</defs>
</svg>
