<svg width="374" height="163" viewBox="0 0 374 163" fill="none" xmlns="http://www.w3.org/2000/svg">
<path d="M428.734 131.372C411.314 131.372 394.607 124.452 382.288 112.134C369.97 99.8153 363.05 83.1081 363.05 65.6875H428.734" fill="#212152"/>
<path d="M231.684 131.375L297.368 65.6904H231.684V131.375Z" fill="#212152"/>
<path d="M198.841 65.6875H231.684V98.5298H198.841V65.6875Z" fill="#212152"/>
<path d="M198.84 65.6875C190.13 65.6875 181.776 69.1477 175.617 75.3068C169.458 81.4659 165.998 89.8195 165.998 98.5298H198.84" fill="#212152"/>
<path d="M363.055 164.211C371.765 164.211 380.119 160.751 386.278 154.592C392.437 148.433 395.897 140.079 395.897 131.369H363.055" fill="#212152"/>
<path d="M231.684 98.5312C231.684 107.242 228.223 115.595 222.064 121.754C215.905 127.913 207.552 131.374 198.841 131.374V98.5312" fill="#212152"/>
<path d="M133.154 65.6875H165.996V98.5298H133.154V65.6875Z" fill="#212152"/>
<path d="M133.152 65.6875L100.31 98.5298H133.152V65.6875Z" fill="#212152"/>
<path d="M133.152 98.5312H100.31V131.374L133.152 98.5312Z" fill="#212152"/>
<path d="M133.152 98.5312H165.995V131.374L133.152 98.5312Z" fill="#212152"/>
<path d="M100.317 65.6875V131.372H34.6328L100.317 65.6875Z" fill="#212152"/>
<path d="M297.371 164.217V131.375C297.371 140.085 293.911 148.439 287.752 154.598C281.593 160.757 273.239 164.217 264.529 164.217H297.371Z" fill="#212152"/>
<path d="M330.211 32.8423V0C330.211 8.71032 326.751 17.0639 320.592 23.223C314.433 29.3822 306.079 32.8423 297.369 32.8423H330.211Z" fill="#212152"/>
<path d="M330.211 32.8452V65.6875C330.211 56.9772 326.751 48.6236 320.592 42.4645C314.433 36.3053 306.079 32.8452 297.369 32.8452H330.211Z" fill="#212152"/>
<path d="M330.212 131.375H363.055V164.217H330.212V131.375Z" fill="#212152"/>
<path d="M231.685 131.375H264.527V164.217H231.685V131.375Z" fill="#212152"/>
<path d="M165.998 131.375H198.84V164.217H165.998V131.375Z" fill="#212152"/>
<path d="M133.154 131.375H165.996V164.217H133.154V131.375Z" fill="#212152"/>
<path d="M133.152 131.375L100.31 164.217H133.152V131.375Z" fill="#212152"/>
<path d="M100.316 131.375H34.6318C52.0524 131.375 68.7596 138.295 81.0778 150.614C93.3961 162.932 100.316 179.639 100.316 197.06V131.375Z" fill="#212152"/>
<path d="M100.316 197.06H34.6318V131.375C34.6318 148.796 41.5521 165.503 53.8703 177.821C66.1886 190.139 82.8958 197.06 100.316 197.06Z" fill="#212152"/>
<path d="M363.055 65.6875C345.634 65.6875 328.927 72.6078 316.609 84.9261C304.29 97.2443 297.37 113.951 297.37 131.372L363.055 65.6875C363.055 83.1081 356.134 99.8153 343.816 112.134C331.498 124.452 314.791 131.372 297.37 131.372" fill="#212152"/>
<path d="M395.891 0C387.18 0 378.827 3.46016 372.668 9.61929C366.508 15.7784 363.048 24.132 363.048 32.8423H371.259C371.259 26.3096 373.854 20.0444 378.473 15.425C383.093 10.8057 389.358 8.21058 395.891 8.21058" fill="#212152"/>
<path d="M330.212 0H363.055V32.8423H330.212V0Z" fill="#212152"/>
<path d="M263.212 32.8438H296.055V65.6861H263.212V32.8438Z" fill="#212152"/>
<path d="M363.055 65.6875L330.212 32.8452H363.055V65.6875Z" fill="#212152"/>
</svg>
