<svg width="207" height="413" viewBox="0 0 207 413" fill="none" xmlns="http://www.w3.org/2000/svg">
<g filter="url(#filter0_d_886_4935)">
<rect x="72.1406" y="-33.7031" width="33.7143" height="33.7143" fill="#3F3F9C"/>
<rect x="4.71484" y="-33.7031" width="33.7143" height="33.7143" fill="#212152"/>
<rect x="38.4297" y="-33.7031" width="33.7143" height="33.7143" fill="#212152"/>
<rect x="207" y="370.859" width="33.7143" height="33.7143" transform="rotate(180 207 370.859)" fill="#3F3F9C"/>
<rect x="139.57" y="-33.7031" width="33.7143" height="33.7143" fill="#3F3F9C"/>
<rect x="72.1406" y="33.7188" width="33.7143" height="33.7143" fill="#F3BE00"/>
<rect x="38.4297" y="33.7188" width="33.7143" height="33.7143" fill="#212152"/>
<rect width="33.7143" height="33.7143" transform="matrix(1 0 0 -1 105.859 303.438)" fill="#212152"/>
<rect x="207" y="303.43" width="33.7143" height="33.7143" transform="rotate(180 207 303.43)" fill="#F3BE00"/>
<rect width="33.7143" height="33.7143" transform="matrix(-1 0 0 1 173.285 67.4375)" fill="#212152"/>
<rect x="173.285" y="101.148" width="33.7143" height="33.7143" fill="#212152"/>
<rect width="33.7143" height="33.7143" transform="matrix(-1 0 0 1 207 134.859)" fill="#F3BE00"/>
<rect width="33.7143" height="33.7143" transform="matrix(-1 0 0 1 139.57 134.859)" fill="#3F3F9C"/>
<rect width="33.7143" height="33.7143" transform="matrix(-1 0 0 1 105.859 134.859)" fill="#212152"/>
<rect x="105.859" y="168.578" width="33.7143" height="33.7143" fill="#3F3F9C"/>
<rect x="173.285" y="168.578" width="33.7143" height="33.7143" fill="#3F3F9C"/>
<rect width="33.7143" height="33.7143" transform="matrix(-1 0 0 1 105.859 202.297)" fill="#F3BE00"/>
<path d="M105.855 33.7188V67.433H72.1406C72.1406 48.8137 87.2355 33.7188 105.855 33.7188Z" fill="#4D4DC7"/>
<path d="M105.856 67.4375V33.7232H139.57C139.57 52.3426 124.475 67.4375 105.856 67.4375Z" fill="#F3BE00"/>
<path d="M105.855 0.0078125V33.7221H72.1406C72.1406 15.1027 87.2355 0.0078125 105.855 0.0078125Z" fill="#F3DB00"/>
<path d="M105.856 0.0078125V33.7221H139.57C139.57 15.1027 124.475 0.0078125 105.856 0.0078125Z" fill="#212152"/>
<rect x="173.285" y="236.008" width="33.7143" height="33.7143" fill="#212152"/>
<path d="M139.571 33.7188V67.433H173.285C173.285 48.8137 158.19 33.7188 139.571 33.7188Z" fill="#3F3F9C"/>
<path d="M139.571 33.7188V0.0044632H173.285C173.285 18.6238 158.19 33.7188 139.571 33.7188Z" fill="#F3BE00"/>
<path d="M173.286 33.7188V0.0044632H207C207 18.6238 191.905 33.7188 173.286 33.7188Z" fill="#4D4DC7"/>
<path d="M173.286 303.43V269.715H207C207 288.335 191.905 303.43 173.286 303.43Z" fill="#4D4DC7"/>
<path d="M173.285 269.719V303.433H139.57C139.57 284.814 154.665 269.719 173.285 269.719Z" fill="#F3BE00"/>
<path d="M173.286 337.148V303.434H207C207 322.054 191.905 337.148 173.286 337.148Z" fill="#F3DB00"/>
<path d="M173.285 337.148V303.434H139.57C139.57 322.054 154.665 337.148 173.285 337.148Z" fill="#212152"/>
<path d="M4.7154 67.4375V33.7232H38.4297C38.4297 52.3426 23.3348 67.4375 4.7154 67.4375Z" fill="#F3BE00"/>
<path d="M72.1451 269.719V303.433H105.859C105.859 284.814 90.7645 269.719 72.1451 269.719Z" fill="#F3BE00"/>
<path d="M72.144 67.4375V33.7232H38.4297C38.4297 52.3426 53.5246 67.4375 72.144 67.4375Z" fill="#3F3F9C"/>
<path d="M139.574 269.719V303.433H105.859C105.859 284.814 120.954 269.719 139.574 269.719Z" fill="#3F3F9C"/>
<path d="M38.4291 0.0078125V33.7221H4.71484C4.71484 15.1027 19.8098 0.0078125 38.4291 0.0078125Z" fill="#212152"/>
<path d="M105.855 337.148V303.434H72.1406C72.1406 322.054 87.2355 337.148 105.855 337.148Z" fill="#212152"/>
<path d="M38.4263 0.0078125V33.7221H72.1406C72.1406 15.1027 57.0457 0.0078125 38.4263 0.0078125Z" fill="#4D4DC7"/>
<path d="M105.856 337.148V303.434H139.57C139.57 322.054 124.475 337.148 105.856 337.148Z" fill="#4D4DC7"/>
<path d="M139.571 134.859V101.145H173.285C173.285 119.764 158.19 134.859 139.571 134.859Z" fill="#4D4DC7"/>
<path d="M173.286 101.148V134.863H207C207 116.243 191.905 101.148 173.286 101.148Z" fill="#F3BE00"/>
<path d="M139.571 101.148V67.4342H173.285C173.285 86.0535 158.19 101.148 139.571 101.148Z" fill="#4D4DC7"/>
<path d="M206.999 101.148V67.4342H173.285C173.285 86.0535 188.38 101.148 206.999 101.148Z" fill="#3F3F9C"/>
<path d="M105.855 101.148V134.863H72.1406C72.1406 116.243 87.2355 101.148 105.855 101.148Z" fill="#212152"/>
<path d="M139.574 101.148V134.863H105.859C105.859 116.243 120.954 101.148 139.574 101.148Z" fill="#F3BE00"/>
<path d="M105.855 101.148V67.4342H72.1406C72.1406 86.0535 87.2355 101.148 105.855 101.148Z" fill="#3F3F9C"/>
<path d="M105.856 101.148V67.4342H139.57C139.57 86.0535 124.475 101.148 105.856 101.148Z" fill="#212152"/>
<path d="M38.4291 134.859V101.145H4.71484C4.71484 119.764 19.8098 134.859 38.4291 134.859Z" fill="#3F3F9C"/>
<path d="M38.4263 101.148V134.863H72.1406C72.1406 116.243 57.0457 101.148 38.4263 101.148Z" fill="#212152"/>
<path d="M4.7154 67.4375V101.152H38.4297C38.4297 82.5324 23.3348 67.4375 4.7154 67.4375Z" fill="#3F3F9C"/>
<path d="M173.285 202.297V168.583H139.57C139.57 187.202 154.665 202.297 173.285 202.297Z" fill="#212152"/>
<path d="M173.286 202.297V168.583H207C207 187.202 191.905 202.297 173.286 202.297Z" fill="#F3BE00"/>
<path d="M139.571 134.859V168.574H173.285C173.285 149.954 158.19 134.859 139.571 134.859Z" fill="#3F3F9C"/>
<path d="M173.286 168.578V134.864H207C207 153.483 191.905 168.578 173.286 168.578Z" fill="#4D4DC7"/>
<path d="M72.1451 202.297V168.583H105.859C105.859 187.202 90.7645 202.297 72.1451 202.297Z" fill="#212152"/>
<path d="M72.1451 168.578V134.864H105.859C105.859 153.483 90.7645 168.578 72.1451 168.578Z" fill="#4D4DC7"/>
<path d="M139.574 168.578V134.864H105.859C105.859 153.483 120.954 168.578 139.574 168.578Z" fill="#212152"/>
<path d="M4.7154 168.578V202.292H38.4297C38.4297 183.673 23.3348 168.578 4.7154 168.578Z" fill="#3F3F9C"/>
<path d="M72.144 168.578V202.292H38.4297C38.4297 183.673 53.5246 168.578 72.144 168.578Z" fill="#212152"/>
<path d="M4.7154 168.578V134.864H38.4297C38.4297 153.483 23.3348 168.578 4.7154 168.578Z" fill="#4D4DC7"/>
<path d="M72.144 168.578V134.864H38.4297C38.4297 153.483 53.5246 168.578 72.144 168.578Z" fill="#F3BE00"/>
<path d="M139.571 202.297V236.011H173.285C173.285 217.392 158.19 202.297 139.571 202.297Z" fill="#F3DB00"/>
<path d="M173.286 202.297V236.011H207C207 217.392 191.905 202.297 173.286 202.297Z" fill="#212152"/>
<path d="M105.856 0.0078125V-33.7065H139.57C139.57 -15.0871 124.475 0.0078125 105.856 0.0078125Z" fill="#4D4DC7"/>
<path d="M72.1451 0.0078125V-33.7065H105.859C105.859 -15.0871 90.7645 0.0078125 72.1451 0.0078125Z" fill="#212152"/>
<path d="M72.1451 236.008V269.722H105.859C105.859 251.103 90.7645 236.008 72.1451 236.008Z" fill="#212152"/>
<path d="M139.574 269.719V236.004H105.859C105.859 254.624 120.954 269.719 139.574 269.719Z" fill="#F3BE00"/>
<path d="M105.856 236.008V202.294H139.57C139.57 220.913 124.475 236.008 105.856 236.008Z" fill="#4D4DC7"/>
<path d="M38.4291 269.719V236.004H4.71484C4.71484 254.624 19.8098 269.719 38.4291 269.719Z" fill="#212152"/>
<path d="M72.144 236.008V269.722H38.4297C38.4297 251.103 53.5246 236.008 72.144 236.008Z" fill="#3F3F9C"/>
<path d="M4.7154 236.008V202.294H38.4297C38.4297 220.913 23.3348 236.008 4.7154 236.008Z" fill="#F3DB00"/>
<circle cx="16.8571" cy="16.8571" r="16.8571" transform="matrix(-1 0 0 1 207 33.7188)" fill="#212152"/>
<circle cx="16.8571" cy="16.8571" r="16.8571" transform="matrix(-1 0 0 1 72.1406 67.4375)" fill="#F3DB00"/>
<circle cx="16.8571" cy="16.8571" r="16.8571" transform="matrix(-1 0 0 1 173.285 236.008)" fill="#3F3F9C"/>
<circle cx="16.8571" cy="16.8571" r="16.8571" transform="matrix(-1 0 0 1 72.1406 202.297)" fill="#3F3F9C"/>
<path d="M38.4291 0.0078125V-33.7065H4.71484C4.71484 -15.0871 19.8098 0.0078125 38.4291 0.0078125Z" fill="#F3DB00"/>
<path d="M173.286 0.0078125V-33.7065H207C207 -15.0871 191.905 0.0078125 173.286 0.0078125Z" fill="#F3BE00"/>
<path d="M173.285 337.148V370.863H139.57C139.57 352.243 154.665 337.148 173.285 337.148Z" fill="#4D4DC7"/>
<path d="M206.999 337.148V370.863H173.285C173.285 352.243 188.38 337.148 206.999 337.148Z" fill="#212152"/>
<path d="M173.285 0.0078125V-33.7065H139.57C139.57 -15.0871 154.665 0.0078125 173.285 0.0078125Z" fill="#212152"/>
<path d="M173.285 404.578V370.864H139.57C139.57 389.483 154.665 404.578 173.285 404.578Z" fill="#F3DB00"/>
<circle cx="16.8571" cy="16.8571" r="16.8571" transform="matrix(1 0 0 -1 173.285 404.578)" fill="#3F3F9C"/>
<path d="M72.144 0.0078125V-33.7065H38.4297C38.4297 -15.0871 53.5246 0.0078125 72.144 0.0078125Z" fill="#3F3F9C"/>
</g>
<defs>
<filter id="filter0_d_886_4935" x="0.714844" y="-67.4219" width="210.285" height="480" filterUnits="userSpaceOnUse" color-interpolation-filters="sRGB">
<feFlood flood-opacity="0" result="BackgroundImageFix"/>
<feColorMatrix in="SourceAlpha" type="matrix" values="0 0 0 0 0 0 0 0 0 0 0 0 0 0 0 0 0 0 127 0" result="hardAlpha"/>
<feOffset dy="4"/>
<feGaussianBlur stdDeviation="2"/>
<feComposite in2="hardAlpha" operator="out"/>
<feColorMatrix type="matrix" values="0 0 0 0 0 0 0 0 0 0 0 0 0 0 0 0 0 0 0.25 0"/>
<feBlend mode="normal" in2="BackgroundImageFix" result="effect1_dropShadow_886_4935"/>
<feBlend mode="normal" in="SourceGraphic" in2="effect1_dropShadow_886_4935" result="shape"/>
</filter>
</defs>
</svg>
