<svg width="16" height="14" viewBox="0 0 16 14" fill="none" xmlns="http://www.w3.org/2000/svg">
<path d="M14.5874 2.52254C13.7389 2.16665 12.8898 2.03125 12.0411 2.03125C9.3468 2.03103 6.65276 3.39487 3.9585 3.39487C3.2828 3.39487 2.60754 3.30913 1.93185 3.09476C1.85594 3.0707 1.77982 3.05933 1.70545 3.05933C1.32899 3.05933 1 3.35069 1 3.75514V10.6949C1 10.9711 1.15815 11.233 1.41211 11.3393C2.26062 11.6954 3.10978 11.8308 3.9585 11.8308C6.65276 11.8308 9.34702 10.4669 12.0413 10.4669C12.717 10.4669 13.3922 10.5527 14.0679 10.7671C14.1438 10.7911 14.22 10.8025 14.2943 10.8025C14.6708 10.8025 14.9998 10.5111 14.9998 10.1067V3.16716C14.9996 2.89068 14.8414 2.62907 14.5874 2.52254ZM2.04997 4.22346C2.49008 4.3337 2.94944 4.38904 3.42192 4.41879C3.2933 5.06167 2.72807 5.54618 2.04997 5.54618V4.22346ZM2.04997 10.4575V9.4124C2.80179 9.4124 3.41011 10.0089 3.44358 10.7555C2.95075 10.7159 2.49008 10.6174 2.04997 10.4575ZM7.99978 9.03092C7.03315 9.03092 6.24983 8.09056 6.24983 6.93102C6.24983 5.77126 7.03337 4.83112 7.99978 4.83112C8.96619 4.83112 9.74972 5.77126 9.74972 6.93102C9.74972 8.09099 8.96597 9.03092 7.99978 9.03092ZM13.9496 9.63858C13.5664 9.54255 13.1685 9.48874 12.7614 9.45396C12.8898 8.88349 13.3629 8.45038 13.9496 8.37601V9.63858ZM13.9496 4.47392C13.2739 4.38839 12.7496 3.82426 12.7288 3.12757C13.1562 3.17504 13.562 3.26385 13.9496 3.4045V4.47392Z" stroke="#3F3F9C" stroke-width="0.581236" stroke-linecap="round" stroke-linejoin="round"/>
</svg>
