<svg width="119" height="119" viewBox="0 0 119 119" fill="none" xmlns="http://www.w3.org/2000/svg">
<path d="M59.832 20.1484V28.1874" stroke="white" stroke-width="3.90249" stroke-linecap="round" stroke-linejoin="round"/>
<path d="M59.832 91.6797V99.7186" stroke="white" stroke-width="3.90249" stroke-linecap="round" stroke-linejoin="round"/>
<path d="M20.043 59.9219H28.0819" stroke="white" stroke-width="3.90249" stroke-linecap="round" stroke-linejoin="round"/>
<path d="M91.5684 59.9219H99.6073" stroke="white" stroke-width="3.90249" stroke-linecap="round" stroke-linejoin="round"/>
<path d="M31.707 31.7734L37.3914 37.4578" stroke="white" stroke-width="3.90249" stroke-linecap="round" stroke-linejoin="round"/>
<path d="M82.2871 82.3359L87.9715 88.0203" stroke="white" stroke-width="3.90249" stroke-linecap="round" stroke-linejoin="round"/>
<path d="M31.7207 88.0312L37.4051 82.3468" stroke="white" stroke-width="3.90249" stroke-linecap="round" stroke-linejoin="round"/>
<path d="M82.2832 37.4688L87.9676 31.7843" stroke="white" stroke-width="3.90249" stroke-linecap="round" stroke-linejoin="round"/>
<path d="M68.1211 48.8438C68.1211 53.453 64.3846 57.1894 59.7754 57.1894C55.1662 57.1894 51.4298 53.453 51.4298 48.8438C51.4298 44.2346 55.1662 40.4981 59.7754 40.4981C64.3846 40.4981 68.1211 44.2346 68.1211 48.8438Z" stroke="white" stroke-width="3.90249" stroke-linecap="round" stroke-linejoin="round"/>
<path d="M41.9883 75.036V75.036C41.9883 68.2118 47.5204 62.6797 54.3446 62.6797H64.8287C71.6528 62.6797 77.185 68.2118 77.185 75.036V75.036" stroke="white" stroke-width="3.90249" stroke-linecap="round" stroke-linejoin="round"/>
<circle cx="60.096" cy="59.7034" r="29.8459" stroke="white" stroke-width="3.90249" stroke-linecap="round" stroke-linejoin="round"/>
<path d="M67.3661 10.6489C67.3661 14.9218 63.9023 18.3856 59.6294 18.3856C55.3565 18.3856 51.8927 14.9218 51.8927 10.6489C51.8927 6.37603 55.3565 2.91218 59.6294 2.91218C63.9023 2.91218 67.3661 6.37603 67.3661 10.6489Z" fill="#F8F8F8" stroke="white" stroke-width="3.90249" stroke-linecap="round" stroke-linejoin="round"/>
<path d="M67.3661 109.188C67.3661 113.461 63.9023 116.925 59.6294 116.925C55.3565 116.925 51.8927 113.461 51.8927 109.188C51.8927 104.915 55.3565 101.451 59.6294 101.451C63.9023 101.451 67.3661 104.915 67.3661 109.188Z" fill="#F8F8F8" stroke="white" stroke-width="3.90249" stroke-linecap="round" stroke-linejoin="round"/>
<circle cx="24.7985" cy="25.0938" r="7.73673" transform="rotate(-45 24.7985 25.0938)" stroke="white" stroke-width="3.90249" stroke-linecap="round" stroke-linejoin="round"/>
<circle cx="94.4704" cy="94.7578" r="7.73673" transform="rotate(-45 94.4704 94.7578)" stroke="white" stroke-width="3.90249" stroke-linecap="round" stroke-linejoin="round"/>
<path d="M10.3657 52.169C14.6386 52.169 18.1024 55.6329 18.1024 59.9058C18.1024 64.1787 14.6386 67.6425 10.3657 67.6425C6.09283 67.6425 2.62898 64.1787 2.62898 59.9058C2.62898 55.6329 6.09283 52.169 10.3657 52.169Z" fill="#F8F8F8" stroke="white" stroke-width="3.90249" stroke-linecap="round" stroke-linejoin="round"/>
<path d="M108.895 52.169C113.168 52.169 116.632 55.6329 116.632 59.9058C116.632 64.1787 113.168 67.6425 108.895 67.6425C104.622 67.6425 101.158 64.1787 101.158 59.9058C101.158 55.6329 104.622 52.169 108.895 52.169Z" fill="#F8F8F8" stroke="white" stroke-width="3.90249" stroke-linecap="round" stroke-linejoin="round"/>
<circle cx="24.793" cy="94.7523" r="7.73673" transform="rotate(-135 24.793 94.7523)" stroke="white" stroke-width="3.90249" stroke-linecap="round" stroke-linejoin="round"/>
<circle cx="94.4648" cy="25.0648" r="7.73673" transform="rotate(-135 94.4648 25.0648)" stroke="white" stroke-width="3.90249" stroke-linecap="round" stroke-linejoin="round"/>
</svg>
