<svg width="29" height="28" viewBox="0 0 29 28" fill="none" xmlns="http://www.w3.org/2000/svg">
<path d="M14.4629 5.09375V6.89132" stroke="#3F3F9C" stroke-width="1.16248" stroke-linecap="round" stroke-linejoin="round"/>
<path d="M14.4629 21.0859V22.8835" stroke="#3F3F9C" stroke-width="1.16248" stroke-linecap="round" stroke-linejoin="round"/>
<path d="M5.56641 13.9922H7.36397" stroke="#3F3F9C" stroke-width="1.16248" stroke-linecap="round" stroke-linejoin="round"/>
<path d="M21.5605 13.9922H23.3581" stroke="#3F3F9C" stroke-width="1.16248" stroke-linecap="round" stroke-linejoin="round"/>
<path d="M8.17383 7.69531L9.4449 8.96639" stroke="#3F3F9C" stroke-width="1.16248" stroke-linecap="round" stroke-linejoin="round"/>
<path d="M19.4844 19L20.7554 20.2711" stroke="#3F3F9C" stroke-width="1.16248" stroke-linecap="round" stroke-linejoin="round"/>
<path d="M8.17969 20.2734L9.45076 19.0024" stroke="#3F3F9C" stroke-width="1.16248" stroke-linecap="round" stroke-linejoin="round"/>
<path d="M19.4844 8.96875L20.7554 7.69768" stroke="#3F3F9C" stroke-width="1.16248" stroke-linecap="round" stroke-linejoin="round"/>
<circle cx="14.4489" cy="11.5134" r="1.72122" stroke="#3F3F9C" stroke-width="1.16248" stroke-linecap="round" stroke-linejoin="round"/>
<path d="M10.4707 17.3723V17.3723C10.4707 15.8464 11.7077 14.6094 13.2337 14.6094H15.578C17.1039 14.6094 18.3409 15.8464 18.3409 17.3723V17.3723" stroke="#3F3F9C" stroke-width="1.16248" stroke-linecap="round" stroke-linejoin="round"/>
<circle cx="14.5202" cy="13.9382" r="6.52883" stroke="#3F3F9C" stroke-width="1.16248" stroke-linecap="round" stroke-linejoin="round"/>
<circle cx="14.4163" cy="2.97099" r="1.58506" fill="#3F3F9C" stroke="#3F3F9C" stroke-width="1.16248" stroke-linecap="round" stroke-linejoin="round"/>
<circle cx="14.4163" cy="25.0101" r="1.58506" fill="#3F3F9C" stroke="#3F3F9C" stroke-width="1.16248" stroke-linecap="round" stroke-linejoin="round"/>
<circle cx="6.63002" cy="6.20312" r="1.58506" transform="rotate(-45 6.63002 6.20312)" stroke="#3F3F9C" stroke-width="1.16248" stroke-linecap="round" stroke-linejoin="round"/>
<circle cx="22.2081" cy="21.7812" r="1.58506" transform="rotate(-45 22.2081 21.7812)" stroke="#3F3F9C" stroke-width="1.16248" stroke-linecap="round" stroke-linejoin="round"/>
<circle cx="3.40068" cy="13.9899" r="1.58506" transform="rotate(-90 3.40068 13.9899)" fill="#3F3F9C" stroke="#3F3F9C" stroke-width="1.16248" stroke-linecap="round" stroke-linejoin="round"/>
<circle cx="25.4319" cy="13.9899" r="1.58506" transform="rotate(-90 25.4319 13.9899)" fill="#3F3F9C" stroke="#3F3F9C" stroke-width="1.16248" stroke-linecap="round" stroke-linejoin="round"/>
<circle cx="6.62695" cy="21.7801" r="1.58506" transform="rotate(-135 6.62695 21.7801)" stroke="#3F3F9C" stroke-width="1.16248" stroke-linecap="round" stroke-linejoin="round"/>
<circle cx="22.2051" cy="6.20201" r="1.58506" transform="rotate(-135 22.2051 6.20201)" stroke="#3F3F9C" stroke-width="1.16248" stroke-linecap="round" stroke-linejoin="round"/>
</svg>
