<svg width="128" height="130" viewBox="0 0 128 130" fill="none" xmlns="http://www.w3.org/2000/svg">
<path d="M52.1758 62.9328C52.1758 62.9328 51.5646 42.0766 51.5645 37.6877C56.1492 36.3161 63.5266 37.2597 63.5266 43.5686C63.5266 50.7004 52.1758 51.4059 52.1758 51.4059L64.0962 62.9328" stroke="white" stroke-width="3.90249" stroke-linecap="round" stroke-linejoin="round"/>
<path d="M70.0849 71.1176L70.0849 68.4682L70.1245 62.3246M70.1245 62.3246L70.2036 50.0373C70.2036 50.0373 81.2568 47.8862 80.7889 56.0559C80.3679 63.4086 70.1245 62.3246 70.1245 62.3246Z" stroke="white" stroke-width="3.90249" stroke-linecap="round" stroke-linejoin="round"/>
<mask id="path-3-inside-1_1369_1011" fill="white">
<rect width="22.215" height="43.6379" rx="2.78749" transform="matrix(0.999845 0.0176009 -0.019194 0.999816 1.22852 82.8594)"/>
</mask>
<rect width="22.215" height="43.6379" rx="2.78749" transform="matrix(0.999845 0.0176009 -0.019194 0.999816 1.22852 82.8594)" fill="#F8F8F8" stroke="white" stroke-width="7.80498" stroke-linecap="round" stroke-linejoin="round" mask="url(#path-3-inside-1_1369_1011)"/>
<path d="M21.0801 92.1078C31.9029 88.2894 44.1499 85.5622 54.9727 92.1081C67.7073 99.8101 86.8717 86.1076 91.7135 106.562C83.1691 106.562 63.2323 106.562 63.2323 106.562" stroke="white" stroke-width="3.90249" stroke-linecap="round" stroke-linejoin="round"/>
<path d="M20.2305 122.403C20.2305 122.403 26.8074 118.33 31.3381 118.585C45.8636 119.403 66.37 131.676 79.4714 126.222C97.9842 115.312 109.661 109.039 125.611 97.5849C120.2 85.0391 90.8639 103.04 90.8639 103.04" stroke="white" stroke-width="3.90249" stroke-linecap="round" stroke-linejoin="round"/>
<path d="M96.888 53.1419C96.888 70.0606 82.5404 83.9186 64.6618 83.9186C46.7832 83.9186 32.4356 70.0606 32.4356 53.1419C32.4356 36.2233 46.7832 22.3653 64.6618 22.3653C82.5404 22.3653 96.888 36.2233 96.888 53.1419Z" stroke="white" stroke-width="3.90249"/>
<path d="M17.5243 76.3011C16.3045 74.0316 15.2582 71.6625 14.4023 69.2101C12.6375 64.154 11.6816 58.7433 11.6816 53.1188C11.6816 37.1934 19.3453 22.9819 31.3337 13.6816M102.176 88.9312C111.727 79.7558 117.632 67.0976 117.632 53.1188C117.632 42.7297 114.37 33.07 108.774 25.0274M38.1692 9.17716C45.9611 4.86094 55.0076 2.39062 64.6567 2.39062C79.3547 2.39062 92.6547 8.12257 102.252 17.3795" stroke="white" stroke-width="3.90249" stroke-linecap="round"/>
</svg>
