<svg width="29" height="28" viewBox="0 0 29 28" fill="none" xmlns="http://www.w3.org/2000/svg">
<path d="M12.3076 13.5326C12.3076 13.5326 12.1895 9.32413 12.1895 8.43852C13.0754 8.16174 14.5009 8.35215 14.5009 9.6252C14.5009 11.0643 12.3076 11.2067 12.3076 11.2067L14.6109 13.5326" stroke="#3F3F9C" stroke-width="1.16248" stroke-linecap="round" stroke-linejoin="round"/>
<path d="M15.7672 15.1854L15.7672 14.6508L15.7748 13.4111M15.7748 13.4111L15.7901 10.9317C15.7901 10.9317 17.9259 10.4976 17.8355 12.1461C17.7541 13.6298 15.7748 13.4111 15.7748 13.4111Z" stroke="#3F3F9C" stroke-width="1.16248" stroke-linecap="round" stroke-linejoin="round"/>
<mask id="path-3-inside-1_356_2756" fill="white">
<rect x="2.46094" y="17.5469" width="4.29262" height="8.80537" rx="0.623303" transform="rotate(1.05317 2.46094 17.5469)"/>
</mask>
<rect x="2.46094" y="17.5469" width="4.29262" height="8.80537" rx="0.623303" transform="rotate(1.05317 2.46094 17.5469)" fill="#3F3F9C" stroke="#3F3F9C" stroke-width="2.32496" stroke-linecap="round" stroke-linejoin="round" mask="url(#path-3-inside-1_356_2756)"/>
<path d="M6.29688 19.4146C8.38815 18.6441 10.7546 18.0938 12.8459 19.4146C15.3065 20.9688 19.0096 18.2038 19.9452 22.3312C18.2942 22.3312 14.4418 22.3312 14.4418 22.3312" stroke="#3F3F9C" stroke-width="1.16248" stroke-linecap="round" stroke-linejoin="round"/>
<path d="M6.13281 25.5298C6.13281 25.5298 7.40366 24.7078 8.27912 24.7593C11.0858 24.9244 15.0482 27.401 17.5798 26.3003C21.157 24.0989 23.4133 22.8332 26.4952 20.5218C25.4496 17.9902 19.7811 21.6225 19.7811 21.6225" stroke="#3F3F9C" stroke-width="1.16248" stroke-linecap="round" stroke-linejoin="round"/>
<circle cx="14.7193" cy="11.5571" r="6.02278" stroke="#3F3F9C" stroke-width="1.16248"/>
<path d="M5.61139 16.2266C5.37569 15.7686 5.17352 15.2906 5.00812 14.7957C4.66713 13.7755 4.48242 12.6837 4.48242 11.5487C4.48242 8.3352 5.96324 5.46752 8.27974 3.59086M21.9684 18.7752C23.814 16.9237 24.9549 14.3695 24.9549 11.5487C24.9549 9.45236 24.3247 7.50317 23.2434 5.88028M9.60054 2.68193C11.1062 1.81098 12.8542 1.3125 14.7187 1.3125C17.5587 1.3125 20.1287 2.46913 21.9831 4.33703" stroke="#3F3F9C" stroke-width="1.16248" stroke-linecap="round"/>
</svg>
