<svg width="130" height="128" viewBox="0 0 130 128" fill="none" xmlns="http://www.w3.org/2000/svg">
<path d="M117.679 13.4345C114.54 9.934 110.811 7.15651 106.704 5.26134C102.598 3.36618 98.1954 2.39062 93.7492 2.39062C89.3029 2.39062 84.9003 3.36618 80.794 5.26134C76.6876 7.15651 72.9583 9.934 69.8197 13.4345L65.0026 18.8583L60.1854 13.4345C57.0469 9.934 53.3175 7.15651 49.2112 5.26134C45.1048 3.36618 40.7023 2.39062 36.256 2.39062C31.8097 2.39062 27.4072 3.36618 23.3008 5.26134C19.1945 7.15651 15.4651 9.934 12.3266 13.4345C-0.936277 28.1759 -1.74957 53.0694 14.9541 71.9828L58.9916 120.93C62.2037 124.5 67.8014 124.5 71.0135 120.93L115.051 71.9828C131.755 53.0694 130.941 28.1759 117.679 13.4345Z" stroke="white" stroke-width="3.88" stroke-linecap="round" stroke-linejoin="round"/>
<path d="M65.0067 18.8594L45.4252 40.6933C42.9496 43.4673 41.5605 47.2163 41.5605 51.1235C41.5605 55.0307 42.9496 58.7797 45.4252 61.5537C47.921 64.3053 51.294 65.8492 54.8093 65.8492C58.3247 65.8492 61.6976 64.3053 64.1934 61.5537L78.3321 46.1865C81.8459 42.3224 86.5894 40.155 91.5324 40.155C96.4754 40.155 101.219 42.3224 104.733 46.1865L116.195 59.7924C118.587 62.6317 118.591 66.7801 116.203 69.6233L102.543 85.8909M81.6069 109.161L69.0948 95.254M92.4466 97.1129L79.9345 83.2059M103.286 85.0648L90.7742 71.1579" stroke="white" stroke-width="3.88" stroke-linecap="round" stroke-linejoin="round"/>
</svg>
