<svg width="30" height="29" viewBox="0 0 30 29" fill="none" xmlns="http://www.w3.org/2000/svg">
<path d="M27.1806 3.38351C26.4788 2.60078 25.6449 1.97973 24.7267 1.55596C23.8085 1.1322 22.8241 0.914062 21.8299 0.914062C20.8357 0.914062 19.8513 1.1322 18.9331 1.55596C18.0149 1.97973 17.181 2.60078 16.4792 3.38351L15.4021 4.59627L14.325 3.38351C13.6232 2.60078 12.7893 1.97973 11.8711 1.55596C10.9529 1.1322 9.96849 0.914062 8.97429 0.914062C7.98009 0.914062 6.99567 1.1322 6.07748 1.55596C5.15929 1.97973 4.32539 2.60078 3.62361 3.38351C0.658003 6.67972 0.47615 12.246 4.21113 16.4751L12.4989 25.6867C14.0503 27.4111 16.7539 27.4111 18.3053 25.6867L26.5931 16.4751C30.328 12.246 30.1462 6.67972 27.1806 3.38351Z" stroke="#3F3F9C" stroke-width="1.16248" stroke-linecap="round" stroke-linejoin="round"/>
<path d="M15.4008 4.60156L11.0224 9.48368C10.4688 10.104 10.1582 10.9422 10.1582 11.8159C10.1582 12.6896 10.4688 13.5278 11.0224 14.1481C11.5804 14.7634 12.3346 15.1086 13.1207 15.1086C13.9067 15.1086 14.6609 14.7634 15.219 14.1481L18.3804 10.712C19.1661 9.84795 20.2268 9.36331 21.332 9.36331C22.4373 9.36331 23.498 9.84795 24.2837 10.712L25.7733 12.4801C26.9286 13.8515 26.9302 15.8551 25.7771 17.2284L23.794 19.59M19.1127 24.7932L16.3149 21.6836M21.5365 22.0992L18.7387 18.9896M23.9602 19.4053L21.1625 16.2956" stroke="#3F3F9C" stroke-width="1.16248" stroke-linecap="round" stroke-linejoin="round"/>
</svg>
