<svg width="16" height="12" viewBox="0 0 16 12" fill="none" xmlns="http://www.w3.org/2000/svg">
<path d="M12.5498 10.238H3.44996C3.25746 10.238 3.09997 10.3954 3.09997 10.5877V11.2872C3.09997 11.4795 3.25746 11.6369 3.44996 11.6369H12.5498C12.7423 11.6369 12.8998 11.4795 12.8998 11.2872V10.5877C12.8998 10.3954 12.7423 10.238 12.5498 10.238ZM13.9498 3.24322C13.3701 3.24322 12.8998 3.71318 12.8998 4.29243C12.8998 4.44763 12.9348 4.59189 12.9961 4.72523L11.4123 5.6739C11.0755 5.875 10.6402 5.76133 10.4455 5.42034L8.66269 2.3033C8.89675 2.11094 9.04987 1.82241 9.04987 1.49453C9.04987 0.915273 8.57957 0.445312 7.99989 0.445312C7.42021 0.445312 6.94991 0.915273 6.94991 1.49453C6.94991 1.82241 7.10303 2.11094 7.33709 2.3033L5.5543 5.42034C5.35962 5.76133 4.92213 5.875 4.58744 5.6739L3.00591 4.72523C3.06497 4.59408 3.10215 4.44763 3.10215 4.29243C3.10215 3.71318 2.63185 3.24322 2.05217 3.24322C1.47249 3.24322 1 3.71318 1 4.29243C1 4.87168 1.47031 5.34164 2.04998 5.34164C2.10686 5.34164 2.16373 5.3329 2.21842 5.32416L3.79996 9.5385H12.1998L13.7814 5.32416C13.836 5.3329 13.8929 5.34164 13.9498 5.34164C14.5295 5.34164 14.9998 4.87168 14.9998 4.29243C14.9998 3.71318 14.5295 3.24322 13.9498 3.24322Z" stroke="#3F3F9C" stroke-width="0.581236" stroke-linecap="round" stroke-linejoin="round"/>
</svg>
