<svg width="117" height="120" viewBox="0 0 117 120" fill="none" xmlns="http://www.w3.org/2000/svg">
<path d="M63.8499 87.2357C62.9469 98.5293 67.9156 117.728 67.9156 117.728H90.2768V109.15C90.2768 107.544 90.8546 105.992 91.9046 104.777L113.314 79.9968C114.189 78.984 114.671 77.6903 114.671 76.352V45.5239C114.671 43.4019 113.472 41.4621 111.574 40.5131C107.939 38.6956 103.639 41.2318 103.471 45.2923L102.557 67.3773C102.503 68.6791 101.995 69.921 101.121 70.8871L87.7389 85.678C86.3445 87.2191 84.0282 87.4984 82.3075 86.3327C80.1992 84.9045 79.852 81.9367 81.5738 80.0604L92.6438 67.9969C94.4603 66.0175 94.343 62.9442 92.3811 61.1088C90.4521 59.3043 87.4503 59.3481 85.6059 61.239C78.7922 68.225 63.8499 83.9227 63.8499 87.2357Z" stroke="white" stroke-width="3.90249" stroke-linejoin="round"/>
<path d="M53.4606 87.2357C54.3636 98.5293 49.3949 117.728 49.3949 117.728H27.0337V109.15C27.0337 107.544 26.4559 105.992 25.4059 104.777L3.9961 79.9968C3.12111 78.984 2.63963 77.6903 2.63963 76.352V45.5239C2.63963 43.4019 3.83854 41.4621 5.73651 40.5131C9.37145 38.6956 13.6714 41.2318 13.8394 45.2923L14.7533 67.3773C14.8072 68.6791 15.3153 69.921 16.1895 70.8871L29.5717 85.678C30.966 87.2191 33.2823 87.4984 35.003 86.3327C37.1113 84.9045 37.4585 81.9367 35.7368 80.0604L24.6668 67.9969C22.8503 66.0175 22.9675 62.9442 24.9295 61.1088C26.8584 59.3043 29.8603 59.3481 31.7046 61.239C38.5183 68.225 53.4606 83.9227 53.4606 87.2357Z" stroke="white" stroke-width="3.90249" stroke-linejoin="round"/>
<path d="M54.9359 11.5767C56.253 8.84101 60.1489 8.84101 61.466 11.5767L65.3478 19.6395C66.4074 21.8404 68.4692 23.3901 70.8779 23.7962L79.8193 25.3036C82.6743 25.7849 83.8398 29.2546 81.8544 31.3619L75.0689 38.5637C73.4878 40.2418 72.7631 42.5521 73.1025 44.8326L74.547 54.5407C74.9862 57.4923 71.8693 59.6799 69.2428 58.2636L61.7732 54.2357C59.5435 53.0333 56.8585 53.0333 54.6288 54.2357L47.1591 58.2636C44.5326 59.6799 41.4157 57.4923 41.8549 54.5407L43.2995 44.8326C43.6388 42.5521 42.9141 40.2418 41.333 38.5637L34.5476 31.3619C32.5621 29.2546 33.7276 25.7849 36.5826 25.3036L45.5241 23.7962C47.9327 23.3901 49.9945 21.8404 51.0541 19.6395L54.9359 11.5767Z" fill="#F8F8F8" stroke="white" stroke-width="3.90249"/>
<path d="M87.3438 14.9753L91.8612 4.35938" stroke="white" stroke-width="3.90249" stroke-linecap="round" stroke-linejoin="round"/>
<path d="M29.9688 14.9753L25.4513 4.35938" stroke="white" stroke-width="3.90249" stroke-linecap="round" stroke-linejoin="round"/>
<path d="M94.6873 22.5453L105.757 19.2946" stroke="white" stroke-width="3.90249" stroke-linecap="round" stroke-linejoin="round"/>
<path d="M22.6096 22.5453L11.5399 19.2946" stroke="white" stroke-width="3.90249" stroke-linecap="round" stroke-linejoin="round"/>
<path d="M92.3061 33.7521L100.663 37.1404" stroke="white" stroke-width="3.90249" stroke-linecap="round" stroke-linejoin="round"/>
<path d="M24.9927 33.7521L16.6354 37.1404" stroke="white" stroke-width="3.90249" stroke-linecap="round" stroke-linejoin="round"/>
</svg>
