<svg width="27" height="28" viewBox="0 0 27 28" fill="none" xmlns="http://www.w3.org/2000/svg">
<path d="M14.5831 20.3134C14.3812 22.8388 15.4922 27.1318 15.4922 27.1318H20.4924V25.2137C20.4924 24.8546 20.6216 24.5075 20.8563 24.2357L25.6437 18.6947C25.8394 18.4683 25.9471 18.179 25.9471 17.8797V10.9864C25.9471 10.5119 25.679 10.0781 25.2546 9.86591C24.4418 9.45951 23.4803 10.0266 23.4427 10.9346L23.2384 15.8729C23.2263 16.164 23.1127 16.4417 22.9172 16.6578L19.9249 19.9651C19.6131 20.3097 19.0951 20.3722 18.7104 20.1115C18.2389 19.7922 18.1613 19.1285 18.5463 18.709L21.0216 16.0115C21.4278 15.5689 21.4016 14.8817 20.9629 14.4713C20.5316 14.0678 19.8603 14.0776 19.4479 14.5004C17.9243 16.0625 14.5831 19.5726 14.5831 20.3134Z" stroke="#3F3F9C" stroke-width="1.16248" stroke-linejoin="round"/>
<path d="M12.2606 20.3134C12.4625 22.8388 11.3515 27.1318 11.3515 27.1318H6.35138V25.2137C6.35138 24.8546 6.22219 24.5075 5.9874 24.2357L1.20001 18.6947C1.00435 18.4683 0.89669 18.179 0.89669 17.8797V10.9864C0.89669 10.5119 1.16477 10.0781 1.58917 9.86591C2.40197 9.45951 3.36348 10.0266 3.40105 10.9346L3.60539 15.8729C3.61744 16.164 3.73106 16.4417 3.92653 16.6578L6.91888 19.9651C7.23068 20.3097 7.74862 20.3722 8.13338 20.1115C8.60481 19.7922 8.68245 19.1285 8.29745 18.709L5.82211 16.0115C5.41594 15.5689 5.44215 14.8817 5.88086 14.4713C6.31219 14.0678 6.98342 14.0776 7.39583 14.5004C8.91942 16.0625 12.2606 19.5726 12.2606 20.3134Z" stroke="#3F3F9C" stroke-width="1.16248" stroke-linejoin="round"/>
<path d="M12.7206 3.46013C12.9624 2.95781 13.6778 2.95781 13.9196 3.46013L14.7876 5.26302C15.0449 5.79753 15.5457 6.17391 16.1307 6.27253L18.13 6.60959C18.6542 6.69797 18.8682 7.33505 18.5037 7.72198L16.9864 9.33236C16.6024 9.73991 16.4264 10.301 16.5088 10.8548L16.8318 13.0256C16.9125 13.5676 16.3402 13.9693 15.8579 13.7092L14.1877 12.8085C13.6461 12.5165 12.9941 12.5165 12.4525 12.8085L10.7823 13.7092C10.3 13.9693 9.72771 13.5676 9.80835 13.0256L10.1314 10.8548C10.2138 10.301 10.0378 9.73991 9.65379 9.33236L8.13651 7.72198C7.77195 7.33505 7.98596 6.69797 8.51018 6.60959L10.5095 6.27253C11.0945 6.17391 11.5953 5.79753 11.8526 5.26302L12.7206 3.46013Z" fill="#3F3F9C" stroke="#3F3F9C" stroke-width="1.16248"/>
<path d="M19.8379 4.15505L20.848 1.78125" stroke="#3F3F9C" stroke-width="1.16248" stroke-linecap="round" stroke-linejoin="round"/>
<path d="M7.00781 4.15505L5.99768 1.78125" stroke="#3F3F9C" stroke-width="1.16248" stroke-linecap="round" stroke-linejoin="round"/>
<path d="M21.4786 5.85099L23.9539 5.12413" stroke="#3F3F9C" stroke-width="1.16248" stroke-linecap="round" stroke-linejoin="round"/>
<path d="M5.36123 5.85099L2.88597 5.12413" stroke="#3F3F9C" stroke-width="1.16248" stroke-linecap="round" stroke-linejoin="round"/>
<path d="M20.9477 8.35859L22.8165 9.11624" stroke="#3F3F9C" stroke-width="1.16248" stroke-linecap="round" stroke-linejoin="round"/>
<path d="M5.89602 8.35859L4.02727 9.11624" stroke="#3F3F9C" stroke-width="1.16248" stroke-linecap="round" stroke-linejoin="round"/>
</svg>
