<svg width="14" height="14" viewBox="0 0 14 14" fill="none" xmlns="http://www.w3.org/2000/svg">
<path d="M4.98633 10.6875V12.0292H6.32797V10.6875H4.98633Z" fill="#3F3F9C"/>
<path d="M6.32617 8.67969V10.0214H7.66782V8.67969H6.32617Z" fill="#3F3F9C"/>
<path d="M7.66992 10.6875V12.0292H9.01157V10.6875H7.66992Z" fill="#3F3F9C"/>
<mask id="path-4-inside-1_421_1940" fill="white">
<path fill-rule="evenodd" clip-rule="evenodd" d="M6.99794 0.904553L6.99729 0.898438C6.8184 0.898438 6.6507 0.931981 6.49417 0.999068L1.12759 3.14585C0.870442 3.24648 0.666288 3.40861 0.51513 3.63223C0.364418 3.85586 0.289062 4.10743 0.289062 4.38696V11.5317C0.289062 11.9007 0.42032 12.2167 0.682835 12.4797C0.945797 12.7422 1.26176 12.8735 1.63071 12.8735H4.314V7.50651H7.70014L7.7001 7.50611H9.68112V12.8735H12.3643C12.7333 12.8735 13.0494 12.7425 13.3126 12.4804C13.4267 12.3647 13.5162 12.2402 13.5806 12.1048C13.6647 11.9301 13.7062 11.7402 13.7062 11.5327V4.38788C13.7062 4.10838 13.6308 3.85508 13.4802 3.63234C13.3289 3.40961 13.1248 3.24584 12.8676 3.14539L7.50128 0.998885C7.3446 0.931192 7.177 0.898438 6.99794 0.898438V0.904553Z"/>
</mask>
<path d="M6.99729 0.898438L7.57527 0.836963L7.51998 0.317201H6.99729V0.898438ZM6.99794 0.904553L6.41996 0.966027L7.57918 0.904553H6.99794ZM6.49417 0.999068L6.71005 1.53873L6.71663 1.53609L6.72315 1.5333L6.49417 0.999068ZM1.12759 3.14585L1.33941 3.68714L1.34347 3.68551L1.12759 3.14585ZM0.51513 3.63223L0.0335853 3.30673L0.0331388 3.3074L0.51513 3.63223ZM0.682835 12.4797L0.271474 12.8903L0.272174 12.891L0.682835 12.4797ZM4.314 12.8735V13.4547H4.89524V12.8735H4.314ZM4.314 7.50651V6.92528H3.73276V7.50651H4.314ZM7.70014 7.50651V8.08775H8.34641L8.27812 7.4451L7.70014 7.50651ZM7.7001 7.50611V6.92487H7.05383L7.12211 7.56752L7.7001 7.50611ZM9.68112 7.50611H10.2624V6.92487H9.68112V7.50611ZM9.68112 12.8735H9.09989V13.4547H9.68112V12.8735ZM13.3126 12.4804L13.7227 12.8923L13.7265 12.8885L13.3126 12.4804ZM13.5806 12.1048L13.0569 11.8528L13.0558 11.8551L13.5806 12.1048ZM13.4802 3.63234L13.9616 3.30667L13.961 3.30586L13.4802 3.63234ZM12.8676 3.14539L12.6518 3.68508L12.6561 3.68679L12.8676 3.14539ZM7.50128 0.998885L7.27075 1.53245L7.27804 1.5356L7.28541 1.53855L7.50128 0.998885ZM6.99794 0.898438V0.317201H6.4167V0.898438H6.99794ZM6.41931 0.959912L6.41996 0.966027L7.57592 0.843078L7.57527 0.836963L6.41931 0.959912ZM6.72315 1.5333C6.80369 1.49878 6.89308 1.47967 6.99729 1.47967V0.317201C6.74373 0.317201 6.49771 0.365181 6.2652 0.464834L6.72315 1.5333ZM1.34347 3.68551L6.71005 1.53873L6.27829 0.459409L0.911712 2.60619L1.34347 3.68551ZM0.996674 3.95774C1.08026 3.83407 1.18926 3.74588 1.33941 3.68712L0.915776 2.60459C0.551624 2.74709 0.252314 2.98315 0.0335858 3.30673L0.996674 3.95774ZM0.870299 4.38696C0.870299 4.2187 0.913559 4.08106 0.997121 3.95707L0.0331388 3.3074C-0.184722 3.63065 -0.292174 3.99617 -0.292174 4.38696H0.870299ZM0.870299 11.5317V4.38696H-0.292174V11.5317H0.870299ZM1.0942 12.069C0.939597 11.9142 0.870299 11.7455 0.870299 11.5317H-0.292174C-0.292174 12.0559 -0.0989571 12.5192 0.271474 12.8903L1.0942 12.069ZM1.63071 12.2922C1.41697 12.2922 1.24836 12.223 1.0935 12.0683L0.272174 12.891C0.643239 13.2615 1.10654 13.4547 1.63071 13.4547V12.2922ZM4.314 12.2922H1.63071V13.4547H4.314V12.2922ZM3.73276 7.50651V12.8735H4.89524V7.50651H3.73276ZM7.70014 6.92528H4.314V8.08775H7.70014V6.92528ZM7.12211 7.56752L7.12216 7.56793L8.27812 7.4451L8.27808 7.44469L7.12211 7.56752ZM7.7001 8.08734H9.68112V6.92487H7.7001V8.08734ZM9.09989 7.50611V12.8735H10.2624V7.50611H9.09989ZM9.68112 13.4547H12.3643V12.2922H9.68112V13.4547ZM12.3643 13.4547C12.8882 13.4547 13.3514 13.262 13.7227 12.8923L12.9024 12.0686C12.7475 12.2229 12.5785 12.2922 12.3643 12.2922V13.4547ZM13.7265 12.8885C13.8807 12.732 14.01 12.5552 14.1055 12.3546L13.0558 11.8551C13.0224 11.9253 12.9726 11.9973 12.8986 12.0724L13.7265 12.8885ZM14.1043 12.3569C14.2291 12.0976 14.2874 11.8206 14.2874 11.5327H13.1249C13.1249 11.6598 13.1002 11.7627 13.0569 11.8528L14.1043 12.3569ZM14.2874 11.5327V4.38788H13.1249V11.5327H14.2874ZM14.2874 4.38788C14.2874 3.99812 14.1805 3.63028 13.9616 3.30667L12.9987 3.95802C13.0812 4.07987 13.1249 4.21863 13.1249 4.38788H14.2874ZM13.961 3.30586C13.7435 2.9855 13.4453 2.74703 13.0791 2.604L12.6561 3.68679C12.8043 3.74466 12.9143 3.83373 12.9993 3.95883L13.961 3.30586ZM13.0835 2.60573L7.71714 0.459219L7.28541 1.53855L12.6518 3.68506L13.0835 2.60573ZM7.7318 0.465318C7.49669 0.363738 7.2499 0.317201 6.99794 0.317201V1.47967C7.10411 1.47967 7.19251 1.49865 7.27075 1.53245L7.7318 0.465318ZM6.4167 0.898438V0.904553H7.57918V0.898438H6.4167Z" fill="#3F3F9C" mask="url(#path-4-inside-1_421_1940)"/>
</svg>
