<svg width="114" height="114" viewBox="0 0 114 114" fill="none" xmlns="http://www.w3.org/2000/svg">
<path d="M31.207 45.8125L41.6653 56.2708" stroke="white" stroke-width="3.90249" stroke-linecap="round" stroke-linejoin="round"/>
<path d="M31.8174 41.857C31.8174 44.5016 29.6735 46.6455 27.0289 46.6455C24.3842 46.6455 22.2403 44.5016 22.2403 41.857C22.2403 39.2123 24.3842 37.0684 27.0289 37.0684C29.6735 37.0684 31.8174 39.2123 31.8174 41.857Z" fill="#F8F8F8" stroke="white" stroke-width="3.90249" stroke-linecap="round" stroke-linejoin="round"/>
<path d="M50.8682 60.4351C50.8682 63.0798 48.7243 65.2237 46.0796 65.2237C43.435 65.2237 41.2911 63.0798 41.2911 60.4351C41.2911 57.7905 43.435 55.6466 46.0796 55.6466C48.7243 55.6466 50.8682 57.7905 50.8682 60.4351Z" fill="#F8F8F8" stroke="white" stroke-width="3.90249" stroke-linecap="round" stroke-linejoin="round"/>
<path d="M72.2315 39.107C72.2315 41.7516 70.0876 43.8955 67.4429 43.8955C64.7983 43.8955 62.6544 41.7516 62.6544 39.107C62.6544 36.4623 64.7983 34.3184 67.4429 34.3184C70.0876 34.3184 72.2315 36.4623 72.2315 39.107Z" fill="#F8F8F8" stroke="white" stroke-width="3.90249" stroke-linecap="round" stroke-linejoin="round"/>
<path d="M99.2158 11.6382C99.2158 14.2829 97.0719 16.4268 94.4273 16.4268C91.7827 16.4268 89.6387 14.2829 89.6387 11.6382C89.6387 8.99359 91.7827 6.84968 94.4273 6.84968C97.0719 6.84968 99.2158 8.99359 99.2158 11.6382Z" fill="#F8F8F8" stroke="white" stroke-width="3.90249" stroke-linecap="round" stroke-linejoin="round"/>
<path d="M80.321 47.4154C80.321 65.552 65.6184 80.2545 47.4818 80.2545C29.3452 80.2545 14.6427 65.552 14.6427 47.4154C14.6427 29.2788 29.3452 14.5762 47.4818 14.5762C65.6184 14.5762 80.321 29.2788 80.321 47.4154Z" stroke="white" stroke-width="3.90249" stroke-linecap="round" stroke-linejoin="round"/>
<path d="M93.1715 47.6688C93.1715 72.7755 72.8185 93.1285 47.7118 93.1285C22.605 93.1285 2.25203 72.7755 2.25203 47.6688C2.25203 22.5621 22.605 2.20906 47.7118 2.20906C72.8185 2.20906 93.1715 22.5621 93.1715 47.6688Z" stroke="white" stroke-width="3.90249" stroke-linecap="round" stroke-linejoin="round"/>
<path d="M74.4336 85.3411L96.1642 107.44C99.3008 110.63 104.436 110.651 107.599 107.488V107.488C110.725 104.362 110.747 99.3006 107.647 96.1486L85.8215 73.9531" stroke="white" stroke-width="3.90249" stroke-linecap="round" stroke-linejoin="round"/>
<path d="M15.5547 41.7109L21.2737 41.7109" stroke="white" stroke-width="3.90249" stroke-linecap="round" stroke-linejoin="round"/>
<path d="M50.2833 56.0202L63.7331 42.5703" stroke="white" stroke-width="3.90249" stroke-linecap="round" stroke-linejoin="round"/>
<path d="M71.4082 34.6597L75.3649 30.703" stroke="white" stroke-width="3.90249" stroke-linecap="round" stroke-linejoin="round"/>
<path d="M99.9104 11.6893L111.852 11.6893" stroke="white" stroke-width="3.90249" stroke-linecap="round" stroke-linejoin="round"/>
<path d="M83.0399 90.816L92.1035 81.3594" stroke="white" stroke-width="3.90249" stroke-linecap="round" stroke-linejoin="round"/>
<path d="M85.3691 21.1676L90.4821 16.0547" stroke="white" stroke-width="3.90249" stroke-linecap="round" stroke-linejoin="round"/>
</svg>
