<svg width="29" height="28" viewBox="0 0 29 28" fill="none" xmlns="http://www.w3.org/2000/svg">
<path d="M8.73047 11.5L11.069 13.8386" stroke="#3F3F9C" stroke-width="1.16248" stroke-linecap="round" stroke-linejoin="round"/>
<circle cx="7.79613" cy="10.6086" r="0.925827" fill="#3F3F9C" stroke="#3F3F9C" stroke-width="1.16248" stroke-linecap="round" stroke-linejoin="round"/>
<circle cx="12.0578" cy="14.7649" r="0.925827" fill="#3F3F9C" stroke="#3F3F9C" stroke-width="1.16248" stroke-linecap="round" stroke-linejoin="round"/>
<circle cx="16.8352" cy="9.99925" r="0.925827" fill="#3F3F9C" stroke="#3F3F9C" stroke-width="1.16248" stroke-linecap="round" stroke-linejoin="round"/>
<circle cx="22.8664" cy="3.85863" r="0.925827" fill="#3F3F9C" stroke="#3F3F9C" stroke-width="1.16248" stroke-linecap="round" stroke-linejoin="round"/>
<circle cx="12.3692" cy="11.8575" r="7.19814" stroke="#3F3F9C" stroke-width="1.16248" stroke-linecap="round" stroke-linejoin="round"/>
<circle cx="12.4217" cy="11.9139" r="10.0202" stroke="#3F3F9C" stroke-width="1.16248" stroke-linecap="round" stroke-linejoin="round"/>
<path d="M18.3965 20.3355L23.2556 25.277C23.957 25.9902 25.1053 25.995 25.8126 25.2877V25.2877C26.5116 24.5887 26.5163 23.4569 25.8233 22.7521L20.9429 17.7891" stroke="#3F3F9C" stroke-width="1.16248" stroke-linecap="round" stroke-linejoin="round"/>
<path d="M5.23242 10.5859L6.51122 10.5859" stroke="#3F3F9C" stroke-width="1.16248" stroke-linecap="round" stroke-linejoin="round"/>
<path d="M12.9961 13.7809L16.0036 10.7734" stroke="#3F3F9C" stroke-width="1.16248" stroke-linecap="round" stroke-linejoin="round"/>
<path d="M17.7188 9.00972L18.6035 8.12498" stroke="#3F3F9C" stroke-width="1.16248" stroke-linecap="round" stroke-linejoin="round"/>
<path d="M24.0941 3.87412L26.7644 3.87412" stroke="#3F3F9C" stroke-width="1.16248" stroke-linecap="round" stroke-linejoin="round"/>
<path d="M20.321 21.5599L22.3477 19.4453" stroke="#3F3F9C" stroke-width="1.16248" stroke-linecap="round" stroke-linejoin="round"/>
<path d="M20.8438 5.98704L21.987 4.84375" stroke="#3F3F9C" stroke-width="1.16248" stroke-linecap="round" stroke-linejoin="round"/>
</svg>
