<svg width="126" height="128" viewBox="0 0 126 128" fill="none" xmlns="http://www.w3.org/2000/svg">
<path d="M63 85.9219V125.115" stroke="white" stroke-width="3.9" stroke-linecap="round" stroke-linejoin="round"/>
<path d="M73.6178 13.9479C73.6178 20.5347 68.7967 25.5551 63.2253 25.5551C57.6539 25.5551 52.8328 20.5347 52.8328 13.9479C52.8328 7.36106 57.6539 2.34063 63.2253 2.34063C68.7967 2.34063 73.6178 7.36106 73.6178 13.9479Z" stroke="white" stroke-width="3.9" stroke-linecap="round" stroke-linejoin="round"/>
<path d="M51.107 125.119V98.8672V85.7413V72.6154V78.4081V79.6004C51.107 82.1411 49.0473 84.2007 46.5066 84.2007V84.2007C43.9659 84.2007 41.9062 82.1411 41.9062 79.6004V61.0302M75.1187 125.119V72.6154V79.7126C75.1187 82.1913 77.1281 84.2007 79.6069 84.2007V84.2007C82.0856 84.2007 84.0951 82.1913 84.0951 79.7126V61.0302M41.9062 49.1984V49.1984C41.9062 40.2134 49.19 32.9297 58.1749 32.9297H67.8264C76.8113 32.9297 84.0951 40.2134 84.0951 49.1984V49.1984" stroke="white" stroke-width="3.9" stroke-linecap="round" stroke-linejoin="round"/>
<path d="M24.4824 92.9297V125.616" stroke="white" stroke-width="3.9" stroke-linecap="round" stroke-linejoin="round"/>
<path d="M15.9586 32.9004C15.9586 38.2442 19.8624 42.2571 24.3022 42.2571C28.7419 42.2571 32.6457 38.2442 32.6457 32.9004C32.6457 27.5566 28.7419 23.5438 24.3022 23.5438C19.8624 23.5438 15.9586 27.5566 15.9586 32.9004Z" stroke="white" stroke-width="3.9" stroke-linecap="round" stroke-linejoin="round"/>
<path d="M35.8687 48.7266H25.1163C15.054 48.7266 6.89684 56.8837 6.89684 66.946V66.946M42.082 91.4863H39.2397C36.5716 91.4863 34.4087 89.3234 34.4087 86.6552V86.6552V81.8242V92.7711V103.718V125.612M14.3831 125.612V81.8242V87.7432C14.3831 89.8104 12.7072 91.4863 10.6399 91.4863V91.4863C8.57269 91.4863 6.89684 89.8104 6.89684 87.7432V83.2147" stroke="white" stroke-width="3.9" stroke-linecap="round" stroke-linejoin="round"/>
<path d="M101.701 92.9297V125.616" stroke="white" stroke-width="3.9" stroke-linecap="round" stroke-linejoin="round"/>
<path d="M110.219 32.9004C110.219 38.2442 106.315 42.2571 101.876 42.2571C97.4358 42.2571 93.532 38.2442 93.532 32.9004C93.532 27.5566 97.4358 23.5438 101.876 23.5438C106.315 23.5438 110.219 27.5566 110.219 32.9004Z" stroke="white" stroke-width="3.9" stroke-linecap="round" stroke-linejoin="round"/>
<path d="M90.309 48.7266H101.061C111.124 48.7266 119.281 56.8837 119.281 66.946V66.946M84.0957 91.4863H86.938C89.6061 91.4863 91.7691 89.3234 91.7691 86.6552V86.6552V81.8242V92.7711V103.718V125.612M111.795 125.612V81.8242V87.7432C111.795 89.8104 113.471 91.4863 115.538 91.4863V91.4863C117.605 91.4863 119.281 89.8104 119.281 87.7432V83.2147" stroke="white" stroke-width="3.9" stroke-linecap="round" stroke-linejoin="round"/>
<path d="M3.53337 88.2032C3.53279 88.1769 3.53253 88.1583 3.53242 88.1479L3.53235 88.1419C3.53235 88.1409 3.53235 88.1399 3.53235 88.1389C3.53375 79.441 9.71275 71.145 20.5664 64.9211C21.9138 64.1484 23.3272 63.4118 24.8015 62.7143C35.1215 57.8317 48.4276 54.865 63.0006 54.865C79.6555 54.865 94.6557 58.7398 105.435 64.9211C105.477 64.9454 105.52 64.9697 105.562 64.9941C116.337 71.2098 122.467 79.475 122.469 88.1389C122.469 88.1399 122.469 88.1409 122.469 88.1419V88.1429L122.469 88.1479C122.469 88.1583 122.468 88.1769 122.468 88.2032C122.467 88.2559 122.464 88.3394 122.459 88.4498C122.449 88.671 122.428 88.9982 122.385 89.4013C122.299 90.2125 122.127 91.3043 121.789 92.4456C121.101 94.7683 119.83 96.9847 117.484 97.8437C116.661 98.1451 116.216 99.1222 116.49 100.026C116.765 100.93 117.654 101.419 118.477 101.118C122.19 99.7582 123.949 96.3051 124.776 93.5131C125.196 92.097 125.402 90.77 125.505 89.8019C125.557 89.3153 125.583 88.9127 125.597 88.6264C125.603 88.4831 125.607 88.3684 125.609 88.2865C125.61 88.2455 125.61 88.2126 125.61 88.1883L125.611 88.1585L125.611 88.1448V88.1432L125.611 88.1419C125.611 77.5096 118.126 68.3056 106.889 61.8619C95.5761 55.3748 80.0568 51.4141 63.0006 51.4141C45.9445 51.4141 30.4251 55.3748 19.1125 61.8619C7.87554 68.3056 0.390625 77.5096 0.390625 88.1419V88.1432L0.390634 88.1485L0.390674 88.1585L0.390918 88.1883C0.391177 88.2126 0.391661 88.2455 0.392561 88.2865C0.394362 88.3684 0.397833 88.4831 0.404517 88.6264C0.41787 88.9127 0.444137 89.3153 0.495919 89.8019C0.598939 90.77 0.805679 92.097 1.22505 93.5131C2.05192 96.3051 3.81097 99.7582 7.52377 101.118C8.34681 101.419 9.23642 100.93 9.51077 100.026C9.78511 99.1222 9.34031 98.1451 8.51727 97.8437C6.17103 96.9847 4.90056 94.7683 4.21267 92.4456C3.87467 91.3043 3.70272 90.2125 3.6164 89.4013C3.57351 88.9982 3.55244 88.671 3.54212 88.4498C3.53697 88.3394 3.53453 88.2559 3.53337 88.2032Z" fill="white"/>
</svg>
