<svg width="29" height="28" viewBox="0 0 29 28" fill="none" xmlns="http://www.w3.org/2000/svg">
<path d="M14.5918 18.6641V26.6946" stroke="#3F3F9C" stroke-width="1.16248" stroke-linecap="round" stroke-linejoin="round"/>
<circle cx="14.6392" cy="3.91848" r="2.19661" stroke="#3F3F9C" stroke-width="1.16248" stroke-linecap="round" stroke-linejoin="round"/>
<path d="M11.9126 26.6941V21.3151V18.6257V15.9362V17.1231V17.6867C11.9126 18.031 11.6335 18.31 11.2893 18.31H10.4651C10.1209 18.31 9.8418 18.031 9.8418 17.6867V13.5624M17.3167 26.6941V15.9362V17.6867C17.3167 18.031 17.5958 18.31 17.94 18.31H18.7137C19.0579 18.31 19.337 18.031 19.337 17.6867V13.5624M9.8418 11.1381V11.1381C9.8418 9.29711 11.3342 7.80469 13.1752 7.80469H16.0036C17.8446 7.80469 19.337 9.29711 19.337 11.1381V11.1381" stroke="#3F3F9C" stroke-width="1.16248" stroke-linecap="round" stroke-linejoin="round"/>
<path d="M5.91797 20.1094V26.8068" stroke="#3F3F9C" stroke-width="1.16248" stroke-linecap="round" stroke-linejoin="round"/>
<circle cx="2.31671" cy="2.31671" r="1.73547" transform="matrix(-1 0 0 1 8.19336 5.49219)" stroke="#3F3F9C" stroke-width="1.16248" stroke-linecap="round" stroke-linejoin="round"/>
<path d="M8.48051 11.0469H5.07896C3.35639 11.0469 1.95997 12.4433 1.95997 14.1659V14.78M9.87891 19.8083H8.67174C8.38464 19.8083 8.1519 19.5755 8.1519 19.2884V18.8184V17.8285V20.0715V22.3145V26.8005M3.64485 26.8005V17.8285V19.2884C3.64485 19.5755 3.41211 19.8083 3.12502 19.8083H2.4798C2.19271 19.8083 1.95997 19.5755 1.95997 19.2884V18.1134" stroke="#3F3F9C" stroke-width="1.16248" stroke-linecap="round" stroke-linejoin="round"/>
<path d="M23.3027 20.1094V26.8068" stroke="#3F3F9C" stroke-width="1.16248" stroke-linecap="round" stroke-linejoin="round"/>
<circle cx="23.3421" cy="7.8089" r="1.73547" stroke="#3F3F9C" stroke-width="1.16248" stroke-linecap="round" stroke-linejoin="round"/>
<path d="M20.7382 11.0469H24.1398C25.8624 11.0469 27.2588 12.4433 27.2588 14.1659V14.78M19.3398 19.8083H20.547C20.8341 19.8083 21.0668 19.5755 21.0668 19.2884V18.8184V17.8285V20.0715V22.3145V26.8005M25.5739 26.8005V17.8285V19.2884C25.5739 19.5755 25.8066 19.8083 26.0937 19.8083H26.7389C27.026 19.8083 27.2588 19.5755 27.2588 19.2884V18.1134" stroke="#3F3F9C" stroke-width="1.16248" stroke-linecap="round" stroke-linejoin="round"/>
<path d="M1.20537 19.1396C1.20524 19.1342 1.20518 19.1304 1.20515 19.1282L1.20514 19.127C1.20514 19.1268 1.20514 19.1266 1.20514 19.1264C1.20545 17.3442 2.59612 15.6444 5.0389 14.3691C5.34215 14.2108 5.66025 14.0599 5.99206 13.917C8.31473 12.9165 11.3095 12.3087 14.5893 12.3087C18.3377 12.3087 21.7138 13.1026 24.1398 14.3691C24.1493 14.3741 24.1588 14.3791 24.1683 14.3841C26.5934 15.6577 27.9732 17.3512 27.9735 19.1264C27.9735 19.1266 27.9735 19.1268 27.9735 19.127V19.1272L27.9735 19.1282C27.9735 19.1304 27.9734 19.1342 27.9733 19.1396C27.973 19.1504 27.9725 19.1675 27.9713 19.1901C27.969 19.2354 27.9643 19.3025 27.9546 19.3851C27.9352 19.5513 27.8965 19.775 27.8204 20.0088C27.6656 20.4848 27.3797 20.9389 26.8516 21.1149C26.6664 21.1767 26.5662 21.3769 26.628 21.5621C26.6897 21.7473 26.89 21.8475 27.0752 21.7857C27.9108 21.5072 28.3067 20.7996 28.4928 20.2276C28.5872 19.9374 28.6337 19.6655 28.6569 19.4672C28.6686 19.3674 28.6745 19.2849 28.6775 19.2263C28.679 19.1969 28.6798 19.1734 28.6802 19.1566C28.6804 19.1482 28.6805 19.1415 28.6806 19.1365L28.6806 19.1304L28.6806 19.1276V19.1273L28.6806 19.127C28.6806 16.9485 26.996 15.0626 24.467 13.7423C21.9209 12.4131 18.4281 11.6016 14.5893 11.6016C10.7506 11.6016 7.25774 12.4131 4.71167 13.7423C2.18263 15.0626 0.498047 16.9485 0.498047 19.127V19.1273L0.498049 19.1284L0.498058 19.1304L0.498113 19.1365C0.498171 19.1415 0.49828 19.1482 0.498483 19.1566C0.498888 19.1734 0.499669 19.1969 0.501173 19.2263C0.504179 19.2849 0.510091 19.3674 0.521745 19.4672C0.544931 19.6655 0.591461 19.9374 0.685847 20.2276C0.871946 20.7996 1.26785 21.5072 2.10346 21.7857C2.2887 21.8475 2.48892 21.7473 2.55067 21.5621C2.61241 21.3769 2.5123 21.1767 2.32706 21.1149C1.79901 20.9389 1.51307 20.4848 1.35825 20.0088C1.28218 19.775 1.24348 19.5513 1.22405 19.3851C1.2144 19.3025 1.20966 19.2354 1.20734 19.1901C1.20618 19.1675 1.20563 19.1504 1.20537 19.1396Z" fill="#3F3F9C"/>
</svg>
