<svg width="14" height="14" viewBox="0 0 14 14" fill="none" xmlns="http://www.w3.org/2000/svg">
<g clip-path="url(#clip0_421_1925)">
<path d="M1.29694 9.48326L0.583984 4.49201H2.72284C2.72284 3.9097 2.88325 3.38086 3.20408 2.9055C3.52491 2.43015 3.95862 2.07957 4.50522 1.85378C4.54087 1.48537 4.69534 1.17924 4.96864 0.935387C5.24193 0.692004 5.56276 0.570312 5.93112 0.570312C6.32324 0.570312 6.65905 0.70983 6.93852 0.988864C7.21752 1.26837 7.35702 1.60421 7.35702 1.99638C7.35702 2.38855 7.21752 2.72416 6.93852 3.00319C6.65905 3.2827 6.32324 3.42245 5.93112 3.42245C5.77665 3.42245 5.63406 3.40154 5.50335 3.35971C5.37264 3.31835 5.24194 3.25014 5.11123 3.15507C4.82605 3.25014 4.59719 3.42245 4.42465 3.67202C4.2526 3.92158 4.16657 4.19491 4.16657 4.49201H13.4171L12.7042 9.48326H10.797L10.9218 8.25327C10.9812 7.67096 10.8177 7.16589 10.4313 6.73807C10.0453 6.31025 9.56123 6.09634 8.97899 6.09634H5.02211C4.43986 6.09634 3.95577 6.31025 3.56983 6.73807C3.18341 7.16589 3.0199 7.67096 3.07931 8.25327L3.20408 9.48326H1.29694ZM4.62998 13.2267L4.14874 8.14632C4.12498 7.88487 4.19627 7.65598 4.36263 7.45966C4.52898 7.26381 4.74881 7.16589 5.02211 7.16589H8.97899C9.25229 7.16589 9.47211 7.26381 9.63847 7.45966C9.80482 7.65598 9.87612 7.88487 9.85236 8.14632L9.37111 13.2267H4.62998Z" stroke="#3F3F9C" stroke-width="0.581236" stroke-linecap="round" stroke-linejoin="round"/>
</g>
<defs>
<clipPath id="clip0_421_1925">
<rect width="13.9998" height="13.9995" fill="white"/>
</clipPath>
</defs>
</svg>
