<svg width="14" height="14" viewBox="0 0 14 14" fill="none" xmlns="http://www.w3.org/2000/svg">
<path d="M7.03516 6.27674V0.929688H10.5999V6.27674L8.81754 5.38556L7.03516 6.27674Z" fill="#3F3F9C"/>
<path d="M3.1144 0.868743H11.6698C11.9031 0.868743 12.0922 1.05783 12.0922 1.29107V12.6981C12.0922 12.9313 11.9031 13.1204 11.6698 13.1204H3.1144C2.29053 13.1204 1.62265 12.4525 1.62265 11.6287V2.36049C1.62265 1.53662 2.29053 0.868743 3.1144 0.868743Z" stroke="#3F3F9C" stroke-width="0.581236" stroke-linecap="round" stroke-linejoin="round"/>
<path d="M3.11438 10.1344H12.0922V12.6955C12.0922 12.9287 11.9031 13.1178 11.6698 13.1178H3.11438C2.29052 13.1178 1.62265 12.45 1.62265 11.6261C1.62265 10.8022 2.29052 10.1344 3.11438 10.1344Z" stroke="#3F3F9C" stroke-width="0.581236" stroke-linecap="round" stroke-linejoin="round"/>
</svg>
