<svg width="320" height="429" viewBox="0 0 320 429" fill="none" xmlns="http://www.w3.org/2000/svg">
<path d="M127.606 217.064C146.071 216.43 158.297 236.022 149.615 252.33L54.2655 431.407C45.5826 447.715 22.5022 448.507 12.7208 432.834L-94.6902 260.721C-104.472 245.047 -93.6179 224.663 -75.1536 224.028L127.606 217.064Z" fill="#DEDEDE"/>
<path d="M87.5448 243.194C106.009 242.56 118.236 262.152 109.553 278.46L36.0135 416.576C27.3305 432.884 4.25013 433.676 -5.53125 418.003L-88.3736 285.258C-98.155 269.584 -87.3014 249.2 -68.837 248.566L87.5448 243.194Z" fill="#F8F8F8"/>
<path d="M41.9691 270.485C60.4334 269.851 72.6601 289.443 63.9771 305.751L20.9387 386.582C12.2558 402.89 -10.8246 403.683 -20.606 388.009L-69.089 310.321C-78.8703 294.648 -68.0166 274.263 -49.5523 273.629L41.9691 270.485Z" fill="#DEDEDE"/>
</svg>
