<svg width="283" height="495" viewBox="0 0 283 495" fill="none" xmlns="http://www.w3.org/2000/svg">
<path d="M77.6064 217.064C96.0707 216.43 108.297 236.022 99.6145 252.33L4.26552 431.407C-4.41743 447.715 -27.4978 448.507 -37.2792 432.834L-144.69 260.721C-154.472 245.047 -143.618 224.663 -125.154 224.028L77.6064 217.064Z" fill="#32327B"/>
<path d="M37.5448 243.194C56.0091 242.56 68.2358 262.152 59.5529 278.46L-13.9865 416.576C-22.6695 432.884 -45.7499 433.676 -55.5313 418.003L-138.374 285.258C-148.155 269.584 -137.301 249.2 -118.837 248.566L37.5448 243.194Z" fill="#3F3F9C"/>
<path d="M-8.03092 270.485C10.4334 269.851 22.6601 289.443 13.9771 305.751L-29.0613 386.582C-37.7442 402.89 -60.8246 403.683 -70.606 388.009L-119.089 310.321C-128.87 294.648 -118.017 274.263 -99.5523 273.629L-8.03092 270.485Z" fill="#32327B"/>
</svg>
