<svg width="264" height="247" viewBox="0 0 264 247" fill="none" xmlns="http://www.w3.org/2000/svg">
<path fill-rule="evenodd" clip-rule="evenodd" d="M205.427 92.7198C213.303 94.776 221.507 97.19 230.063 100.003L226.93 95.5433C223.77 91.0457 224.445 84.9006 228.505 81.1958L234.626 75.6111C237.377 73.1012 237.97 68.997 236.043 65.8105L226.591 50.181C224.814 47.2431 221.325 45.8121 217.997 46.6562L208.504 49.0638C204.48 50.0845 200.211 49.0375 197.116 46.2705L196.731 45.9266C193.63 43.1539 192.113 39.0184 192.687 34.898L194.127 24.5644C194.578 21.3277 192.964 18.153 190.083 16.6103L176.036 9.08833C172.892 7.40495 169.007 8.06736 166.599 10.6974L161.5 16.2655C159.824 18.0964 157.376 19.0202 154.908 18.7533L152.993 18.5463C149.599 18.1794 146.837 15.6485 146.177 12.2993L145.174 7.21402C144.453 3.55768 141.247 0.921875 137.52 0.921875H125.39C121.765 0.921875 118.618 3.41866 117.793 6.94851L116.458 12.6647C115.759 15.6544 113.307 17.915 110.27 18.3682L108.139 18.6863C106.07 18.9951 103.977 18.2973 102.508 16.8082L96.9659 11.1937C94.5934 8.78995 90.9436 8.18577 87.923 9.69676L72.3172 17.5034C69.223 19.0512 67.5177 22.4521 68.1283 25.8575L69.827 35.332C70.5532 39.382 69.2368 43.5298 66.3081 46.4199L65.6026 47.1161C62.2194 50.4547 57.2336 51.5822 52.743 50.0241L45.4714 47.501C41.941 46.276 38.0378 47.7265 36.164 50.9597L26.4893 67.6533C24.7132 70.7179 25.2246 74.5944 27.7346 77.0936L34.2841 83.615C38.3472 87.6607 38.5902 94.1596 34.8406 98.4975L33.5393 100.003C39.0071 98.6816 44.6457 97.1327 50.5445 95.5123C52.5566 94.9595 54.5991 94.3985 56.6753 93.8353C65.9834 61.4449 95.8322 37.7468 131.216 37.7468C166.192 37.7468 195.76 60.9023 205.427 92.7198ZM198.249 90.9221C188.291 63.5426 162.037 43.9882 131.216 43.9882C100.017 43.9882 73.4971 64.0254 63.8241 91.9333C96.1556 83.5381 136.983 76.2376 198.249 90.9221Z" fill="url(#paint0_linear_1275_10777)"/>
<path fill-rule="evenodd" clip-rule="evenodd" d="M0.0371913 119.293L1.76651 137.105C2.10769 140.62 4.76641 143.467 8.24906 144.047L23.3578 146.565C28.328 147.393 32.5014 150.764 34.3568 155.449C36.3513 160.485 35.3448 166.215 31.7534 170.27L22.5425 180.669C20.0702 183.461 19.9738 187.629 22.3147 190.531L34.3826 205.496C36.3521 207.938 39.7657 208.661 42.5567 207.229L52.5089 202.119C58.7241 198.928 66.1786 199.345 71.999 203.209C77.9177 207.139 81.1988 214.002 80.5404 221.076L79.4669 232.609C79.1708 235.79 81.1719 238.734 84.2384 239.629L104.783 245.625C108.634 246.749 112.709 244.77 114.207 241.048L117.926 231.806C120.307 225.891 126.043 222.016 132.419 222.016C138.295 222.016 143.673 225.312 146.34 230.548L152.097 241.851C153.688 244.975 157.171 246.671 160.584 245.875C167.329 244.304 174.375 242.282 181.158 239.637C184.111 238.485 185.929 235.548 185.827 232.38L185.33 216.893C185.16 211.574 187.509 206.486 191.669 203.167C196.616 199.22 203.354 198.374 209.123 200.975L221.315 206.472C224.51 207.912 228.342 207.108 230.662 204.483C233.91 200.808 238.455 195.392 242.693 188.779C244.45 186.038 243.741 182.448 241.204 180.407L235.376 175.718C229.102 170.671 226.803 162.15 229.688 154.632C232.493 147.319 239.591 142.558 247.422 142.737L255.467 142.921C258.999 143.002 262.037 140.418 262.461 136.91C263.208 130.744 263.987 123.025 264 117.142C264.008 113.488 260.945 110.886 257.292 110.838L243.346 110.653C233.233 110.52 223.169 109.207 213.36 106.743L183.75 99.3045C149.674 90.7441 114.017 90.6897 79.9147 99.1461L49.6331 106.655C40.2931 108.971 30.725 110.244 21.1043 110.451L7.63494 110.74C3.09592 110.837 -0.401528 114.775 0.0371913 119.293ZM58.0485 134.481C73.6518 203.292 131.852 201.264 131.852 201.264C131.852 201.264 190.208 204.072 207.06 134.481L206.169 133.808C162.274 100.66 101.64 100.936 58.0485 134.481Z" fill="url(#paint1_linear_1275_10777)"/>
<defs>
<linearGradient id="paint0_linear_1275_10777" x1="131.303" y1="0.921875" x2="131.303" y2="100.003" gradientUnits="userSpaceOnUse">
<stop stop-color="#F8AF14"/>
<stop offset="1" stop-color="#E78A27"/>
</linearGradient>
<linearGradient id="paint1_linear_1275_10777" x1="132" y1="8.52298" x2="132" y2="246.07" gradientUnits="userSpaceOnUse">
<stop stop-color="#949EAE"/>
<stop offset="1" stop-color="#4B4E53"/>
</linearGradient>
</defs>
</svg>
