<svg width="210" height="187" viewBox="0 0 210 187" fill="none" xmlns="http://www.w3.org/2000/svg">
<rect x="90.5176" width="28.9656" height="28.9653" rx="3.21838" fill="#3F3F9C"/>
<path d="M111.277 20.3512H98.725C98.4595 20.3512 98.2423 20.5683 98.2423 20.8336V21.7984C98.2423 22.0638 98.4595 22.2809 98.725 22.2809H111.277C111.542 22.2809 111.76 22.0638 111.76 21.7984V20.8336C111.76 20.5683 111.542 20.3512 111.277 20.3512ZM113.208 10.703C112.408 10.703 111.76 11.3513 111.76 12.1503C111.76 12.3643 111.808 12.5633 111.892 12.7472L109.708 14.0558C109.243 14.3332 108.643 14.1764 108.374 13.706L105.915 9.40655C106.238 9.14123 106.449 8.74324 106.449 8.29098C106.449 7.49199 105.8 6.84375 105.001 6.84375C104.201 6.84375 103.553 7.49199 103.553 8.29098C103.553 8.74324 103.764 9.14123 104.087 9.40655L101.628 13.706C101.359 14.1764 100.756 14.3332 100.294 14.0558L98.1125 12.7472C98.194 12.5663 98.2453 12.3643 98.2453 12.1503C98.2453 11.3513 97.5966 10.703 96.797 10.703C95.9974 10.703 95.3457 11.3513 95.3457 12.1503C95.3457 12.9492 95.9944 13.5975 96.794 13.5975C96.8724 13.5975 96.9509 13.5854 97.0263 13.5734L99.2078 19.3864H110.794L112.975 13.5734C113.051 13.5854 113.129 13.5975 113.208 13.5975C114.007 13.5975 114.656 12.9492 114.656 12.1503C114.656 11.3513 114.007 10.703 113.208 10.703Z" stroke="white" stroke-width="0.805601" stroke-linecap="round" stroke-linejoin="round"/>
<rect x="72.4141" y="52.5" width="28.9656" height="28.9653" rx="3.21838" fill="#3F3F9C"/>
<path fill-rule="evenodd" clip-rule="evenodd" d="M96.5639 67.339L92.8407 71.0185L85.0645 63.2266L92.5109 63.2266L96.5639 67.339Z" fill="#F8F8F8"/>
<path fill-rule="evenodd" clip-rule="evenodd" d="M84.6657 63.6641L77.2539 71.0224H84.6657L88.3915 67.3404L84.6657 63.6641Z" fill="#F8F8F8"/>
<rect x="108.621" y="52.5" width="28.9656" height="28.9653" rx="3.21838" fill="#3F3F9C"/>
<g clip-path="url(#clip0_421_1690)">
<path d="M115.235 70.4268L114.252 63.5422H117.202C117.202 62.739 117.423 62.0095 117.866 61.3538C118.308 60.6982 118.907 60.2146 119.661 59.9032C119.71 59.395 119.923 58.9727 120.3 58.6364C120.677 58.3007 121.119 58.1328 121.627 58.1328C122.168 58.1328 122.631 58.3253 123.017 58.7101C123.402 59.0957 123.594 59.5589 123.594 60.0999C123.594 60.6408 123.402 61.1037 123.017 61.4886C122.631 61.8741 122.168 62.0669 121.627 62.0669C121.414 62.0669 121.218 62.0381 121.037 61.9804C120.857 61.9233 120.677 61.8292 120.497 61.6981C120.103 61.8292 119.788 62.0669 119.55 62.4111C119.312 62.7554 119.194 63.1324 119.194 63.5422H131.953L130.97 70.4268H128.339L128.511 68.7303C128.593 67.9271 128.368 67.2304 127.835 66.6403C127.302 66.0502 126.635 65.7551 125.831 65.7551H120.374C119.57 65.7551 118.903 66.0502 118.37 66.6403C117.837 67.2304 117.612 67.9271 117.694 68.7303L117.866 70.4268H115.235ZM119.833 75.5903L119.169 68.5827C119.136 68.2221 119.235 67.9064 119.464 67.6356C119.693 67.3655 119.997 67.2304 120.374 67.2304H125.831C126.208 67.2304 126.512 67.3655 126.741 67.6356C126.971 67.9064 127.069 68.2221 127.036 68.5827L126.372 75.5903H119.833Z" stroke="white" stroke-width="0.805601" stroke-linecap="round" stroke-linejoin="round"/>
</g>
<rect x="36.207" y="105" width="28.9656" height="28.9653" rx="3.21838" fill="#3F3F9C"/>
<path d="M50.7363 118.5V111.125H55.6533V118.5L53.1948 117.271L50.7363 118.5Z" fill="#F8F8F8"/>
<path d="M43.2719 113.091C43.2719 111.956 44.1923 111.036 45.3276 111.036H57.1284C57.4491 111.036 57.709 111.296 57.709 111.616V127.35C57.709 127.671 57.4491 127.931 57.1284 127.931H45.3276C44.1923 127.931 43.2719 127.011 43.2719 125.875V113.091Z" stroke="white" stroke-width="0.805601" stroke-linecap="round" stroke-linejoin="round"/>
<path d="M43.2719 125.88C43.2719 124.745 44.1923 123.825 45.3276 123.825H57.709V127.355C57.709 127.676 57.4491 127.936 57.1284 127.936H45.3276C44.1923 127.936 43.2719 127.016 43.2719 125.88Z" stroke="white" stroke-width="0.805601" stroke-linecap="round" stroke-linejoin="round"/>
<rect x="72.4141" y="105" width="28.9656" height="28.9653" rx="3.21838" fill="#3F3F9C"/>
<path d="M95.9838 113.326C94.8134 112.835 93.6422 112.648 92.4715 112.648C88.7552 112.648 85.0392 114.529 81.3229 114.529C80.3909 114.529 79.4595 114.411 78.5275 114.115C78.4228 114.082 78.3178 114.067 78.2152 114.067C77.696 114.067 77.2422 114.468 77.2422 115.026V124.599C77.2422 124.98 77.4603 125.341 77.8106 125.487C78.981 125.979 80.1523 126.165 81.3229 126.165C85.0392 126.165 88.7555 124.284 92.4718 124.284C93.4038 124.284 94.3352 124.402 95.2672 124.698C95.3719 124.731 95.4769 124.747 95.5795 124.747C96.0988 124.747 96.5526 124.345 96.5526 123.787V114.215C96.5523 113.834 96.3341 113.473 95.9838 113.326ZM78.6904 115.672C79.2975 115.824 79.9311 115.901 80.5828 115.942C80.4054 116.828 79.6258 117.497 78.6904 117.497V115.672ZM78.6904 124.271V122.83C79.7275 122.83 80.5665 123.652 80.6127 124.682C79.9329 124.628 79.2975 124.492 78.6904 124.271ZM86.8972 122.303C85.5639 122.303 84.4835 121.006 84.4835 119.407C84.4835 117.807 85.5642 116.51 86.8972 116.51C88.2302 116.51 89.311 117.807 89.311 119.407C89.311 121.007 88.2299 122.303 86.8972 122.303ZM95.104 123.142C94.5754 123.009 94.0266 122.935 93.4651 122.887C93.6422 122.1 94.2948 121.503 95.104 121.4V123.142ZM95.104 116.018C94.172 115.9 93.4488 115.122 93.4201 114.161C94.0097 114.226 94.5694 114.349 95.104 114.543V116.018Z" stroke="white" stroke-width="0.805601" stroke-linecap="round" stroke-linejoin="round"/>
<rect x="144.828" y="105" width="28.9656" height="28.9653" rx="3.21838" fill="#3F3F9C"/>
<g clip-path="url(#clip1_421_1690)">
<path d="M156.533 124.547V126.398H158.384V124.547H156.533Z" fill="#F8F8F8"/>
<path d="M158.383 121.773V123.624H160.233V121.773H158.383Z" fill="#F8F8F8"/>
<path d="M160.234 124.547V126.398H162.085V124.547H160.234Z" fill="#F8F8F8"/>
<mask id="path-18-inside-1_421_1690" fill="white">
<path fill-rule="evenodd" clip-rule="evenodd" d="M159.31 111.031C159.556 111.031 159.787 111.077 160.003 111.17L167.405 114.131C167.76 114.269 168.041 114.495 168.25 114.802C168.458 115.109 168.561 115.459 168.561 115.844V125.7C168.561 125.986 168.504 126.248 168.388 126.489C168.299 126.675 168.176 126.847 168.019 127.007C167.656 127.368 167.22 127.549 166.711 127.549H163.01V120.146H160.215L160.215 120.146H155.608V127.549H151.907C151.398 127.549 150.962 127.368 150.6 127.006C150.238 126.643 150.057 126.207 150.057 125.698V115.843C150.057 115.458 150.161 115.111 150.368 114.802C150.577 114.494 150.859 114.27 151.213 114.131L158.616 111.17C158.831 111.078 159.062 111.031 159.309 111.031C159.309 111.031 159.309 111.031 159.31 111.031Z"/>
</mask>
<path d="M160.003 111.17L159.683 111.909L159.693 111.914L159.704 111.918L160.003 111.17ZM159.31 111.031L159.31 110.226H159.31V111.031ZM167.405 114.131L167.106 114.879L167.112 114.881L167.405 114.131ZM168.25 114.802L168.917 114.351L168.916 114.35L168.25 114.802ZM168.388 126.489L167.662 126.139L167.661 126.143L168.388 126.489ZM168.019 127.007L168.587 127.578L168.592 127.572L168.019 127.007ZM163.01 127.549H162.204V128.355H163.01V127.549ZM163.01 120.146H163.815V119.34H163.01V120.146ZM160.215 120.146V119.34H159.325L159.413 120.225L160.215 120.146ZM160.215 120.146V120.952H161.104L161.016 120.066L160.215 120.146ZM155.608 120.146V119.34H154.803V120.146H155.608ZM155.608 127.549V128.355H156.414V127.549H155.608ZM150.6 127.006L150.03 127.575L150.031 127.576L150.6 127.006ZM150.368 114.802L149.701 114.351L149.7 114.352L150.368 114.802ZM151.213 114.131L151.507 114.881L151.512 114.879L151.213 114.131ZM158.616 111.17L158.915 111.918L158.924 111.914L158.933 111.911L158.616 111.17ZM159.309 111.031L159.308 110.226H159.308L159.309 111.031ZM160.322 110.43C159.998 110.29 159.657 110.226 159.31 110.226L159.309 111.837C159.455 111.837 159.576 111.863 159.683 111.909L160.322 110.43ZM167.704 113.383L160.302 110.422L159.704 111.918L167.106 114.879L167.704 113.383ZM168.916 114.35C168.616 113.907 168.204 113.578 167.698 113.38L167.112 114.881C167.315 114.96 167.467 115.083 167.583 115.255L168.916 114.35ZM169.367 115.844C169.367 115.306 169.219 114.798 168.917 114.351L167.582 115.254C167.696 115.421 167.756 115.612 167.756 115.844H169.367ZM169.367 125.7V115.844H167.756V125.7H169.367ZM169.114 126.838C169.287 126.48 169.367 126.097 169.367 125.7H167.756C167.756 125.874 167.722 126.016 167.662 126.139L169.114 126.838ZM168.592 127.572C168.805 127.356 168.984 127.112 169.116 126.835L167.661 126.143C167.615 126.239 167.547 126.338 167.445 126.441L168.592 127.572ZM166.711 128.355C167.434 128.355 168.074 128.088 168.587 127.578L167.45 126.436C167.237 126.648 167.005 126.743 166.711 126.743V128.355ZM163.01 128.355H166.711V126.743H163.01V128.355ZM162.204 120.146V127.549H163.815V120.146H162.204ZM160.215 120.951H163.01V119.34H160.215V120.951ZM159.413 120.225L159.413 120.226L161.016 120.066L161.016 120.066L159.413 120.225ZM160.215 119.34H155.608V120.952H160.215V119.34ZM154.803 120.146V127.549H156.414V120.146H154.803ZM155.608 126.743H151.907V128.355H155.608V126.743ZM151.907 126.743C151.613 126.743 151.382 126.648 151.169 126.436L150.031 127.576C150.543 128.088 151.183 128.355 151.907 128.355V126.743ZM151.17 126.437C150.957 126.224 150.862 125.992 150.862 125.698H149.251C149.251 126.422 149.518 127.062 150.03 127.575L151.17 126.437ZM150.862 125.698V115.843H149.251V125.698H150.862ZM150.862 115.843C150.862 115.612 150.922 115.423 151.037 115.252L149.7 114.352C149.399 114.798 149.251 115.303 149.251 115.843H150.862ZM151.036 115.253C151.151 115.083 151.3 114.962 151.507 114.881L150.92 113.381C150.417 113.578 150.003 113.904 149.701 114.351L151.036 115.253ZM151.512 114.879L158.915 111.918L158.316 110.422L150.914 113.383L151.512 114.879ZM158.933 111.911C159.043 111.863 159.166 111.837 159.309 111.837L159.308 110.226C158.958 110.226 158.619 110.292 158.298 110.43L158.933 111.911ZM159.309 111.837L159.31 111.837V110.226C159.309 110.226 159.309 110.226 159.309 110.226C159.309 110.226 159.309 110.226 159.308 110.226L159.309 111.837Z" fill="white" mask="url(#path-18-inside-1_421_1690)"/>
</g>
<rect y="157.5" width="28.9656" height="28.9653" rx="3.21838" fill="#3F3F9C"/>
<path d="M14.5449 175.211V180.749" stroke="white" stroke-width="0.805601" stroke-linecap="round" stroke-linejoin="round"/>
<path d="M16.0909 165.041C16.0909 165.876 15.4135 166.554 14.5779 166.554C13.7423 166.554 13.0649 165.876 13.0649 165.041C13.0649 164.205 13.7423 163.528 14.5779 163.528C15.4135 163.528 16.0909 164.205 16.0909 165.041Z" stroke="white" stroke-width="0.805601" stroke-linecap="round" stroke-linejoin="round"/>
<path d="M12.6977 180.746V177.036V175.182V173.327V174.145V174.534C12.6977 174.771 12.5052 174.964 12.2678 174.964H11.6994C11.462 174.964 11.2695 174.771 11.2695 174.534V171.69M16.4248 180.746V173.327V174.534C16.4248 174.771 16.6172 174.964 16.8546 174.964H17.3882C17.6256 174.964 17.8181 174.771 17.8181 174.534V171.69M11.2695 170.018V170.018C11.2695 168.748 12.2988 167.719 13.5685 167.719H15.5191C16.7888 167.719 17.8181 168.748 17.8181 170.018V170.018" stroke="white" stroke-width="0.805601" stroke-linecap="round" stroke-linejoin="round"/>
<path d="M8.56641 176.203V180.822" stroke="white" stroke-width="0.805601" stroke-linecap="round" stroke-linejoin="round"/>
<path d="M7.34205 167.715C7.34205 168.375 7.87704 168.91 8.53701 168.91C9.19697 168.91 9.73196 168.375 9.73196 167.715C9.73196 167.055 9.19697 166.52 8.53701 166.52C7.87704 166.52 7.34205 167.055 7.34205 167.715Z" stroke="white" stroke-width="0.805601" stroke-linecap="round" stroke-linejoin="round"/>
<path d="M10.3324 169.945H7.98649C6.7985 169.945 5.83544 170.908 5.83544 172.096V172.52M11.2969 175.988H10.4643C10.2663 175.988 10.1058 175.827 10.1058 175.629V175.305V174.622V176.169V177.716V180.81M6.99745 180.81V174.622V175.629C6.99745 175.827 6.83694 175.988 6.63894 175.988H6.19395C5.99595 175.988 5.83544 175.827 5.83544 175.629V174.819" stroke="white" stroke-width="0.805601" stroke-linecap="round" stroke-linejoin="round"/>
<path d="M20.5527 176.203V180.822" stroke="white" stroke-width="0.805601" stroke-linecap="round" stroke-linejoin="round"/>
<path d="M21.7732 167.715C21.7732 168.375 21.2382 168.91 20.5782 168.91C19.9183 168.91 19.3833 168.375 19.3833 167.715C19.3833 167.055 19.9183 166.52 20.5782 166.52C21.2382 166.52 21.7732 167.055 21.7732 167.715Z" stroke="white" stroke-width="0.805601" stroke-linecap="round" stroke-linejoin="round"/>
<path d="M18.7828 169.945H21.1287C22.3167 169.945 23.2798 170.908 23.2798 172.096V172.52M17.8184 175.988H18.6509C18.8489 175.988 19.0094 175.827 19.0094 175.629V175.305V174.622V176.169V177.716V180.81M22.1178 180.81V174.622V175.629C22.1178 175.827 22.2783 175.988 22.4763 175.988H22.9213C23.1193 175.988 23.2798 175.827 23.2798 175.629V174.819" stroke="white" stroke-width="0.805601" stroke-linecap="round" stroke-linejoin="round"/>
<path d="M5.31399 175.535C5.3139 175.531 5.31386 175.528 5.31384 175.527L5.31383 175.526C5.31383 175.526 5.31383 175.526 5.31383 175.526C5.31405 174.296 6.27315 173.124 7.95785 172.245C8.16699 172.135 8.38637 172.031 8.61521 171.933C10.2171 171.243 12.2825 170.824 14.5445 170.824C17.1296 170.824 19.458 171.371 21.1311 172.245C21.1377 172.248 21.1443 172.251 21.1508 172.255C22.8233 173.133 23.7749 174.301 23.7751 175.526C23.7751 175.526 23.7751 175.526 23.7751 175.526V175.526L23.7751 175.527C23.7751 175.528 23.7751 175.531 23.775 175.535C23.7748 175.542 23.7744 175.554 23.7736 175.569C23.772 175.601 23.7687 175.647 23.7621 175.704C23.7487 175.819 23.722 175.973 23.6695 176.134C23.5628 176.462 23.3656 176.776 23.0014 176.897C22.8736 176.94 22.8046 177.078 22.8472 177.205C22.8897 177.333 23.0278 177.402 23.1556 177.36C23.7319 177.167 24.0049 176.68 24.1333 176.285C24.1984 176.085 24.2305 175.897 24.2464 175.761C24.2545 175.692 24.2586 175.635 24.2606 175.594C24.2617 175.574 24.2622 175.558 24.2625 175.546C24.2626 175.541 24.2627 175.536 24.2627 175.533L24.2628 175.528L24.2628 175.526V175.526L24.2628 175.526C24.2628 174.024 23.101 172.723 21.3568 171.812C19.6008 170.896 17.1919 170.336 14.5445 170.336C11.897 170.336 9.48812 170.896 7.73217 171.812C5.98798 172.723 4.82617 174.024 4.82617 175.526V175.526L4.82617 175.527L4.82618 175.528L4.82622 175.533C4.82626 175.536 4.82633 175.541 4.82647 175.546C4.82675 175.558 4.82729 175.574 4.82833 175.594C4.8304 175.635 4.83448 175.692 4.84252 175.761C4.85851 175.897 4.8906 176.085 4.95569 176.285C5.08404 176.68 5.35708 177.167 5.93338 177.36C6.06113 177.402 6.19921 177.333 6.2418 177.205C6.28438 177.078 6.21534 176.94 6.08759 176.897C5.7234 176.776 5.5262 176.462 5.41943 176.134C5.36696 175.973 5.34027 175.819 5.32688 175.704C5.32022 175.647 5.31695 175.601 5.31535 175.569C5.31455 175.554 5.31417 175.542 5.31399 175.535Z" fill="#F8F8F8"/>
<rect x="36.207" y="157.5" width="28.9656" height="28.9653" rx="3.21838" fill="#3F3F9C"/>
<path d="M50.6621 165.828V167.068" stroke="white" stroke-width="0.805601" stroke-linecap="round" stroke-linejoin="round"/>
<path d="M50.6621 176.859V178.099" stroke="white" stroke-width="0.805601" stroke-linecap="round" stroke-linejoin="round"/>
<path d="M44.5254 171.961H45.7651" stroke="white" stroke-width="0.805601" stroke-linecap="round" stroke-linejoin="round"/>
<path d="M55.5566 171.961H56.7964" stroke="white" stroke-width="0.805601" stroke-linecap="round" stroke-linejoin="round"/>
<path d="M46.3242 167.625L47.2008 168.502" stroke="white" stroke-width="0.805601" stroke-linecap="round" stroke-linejoin="round"/>
<path d="M54.125 175.422L55.0016 176.298" stroke="white" stroke-width="0.805601" stroke-linecap="round" stroke-linejoin="round"/>
<path d="M46.3281 176.305L47.2047 175.428" stroke="white" stroke-width="0.805601" stroke-linecap="round" stroke-linejoin="round"/>
<path d="M54.125 168.508L55.0016 167.631" stroke="white" stroke-width="0.805601" stroke-linecap="round" stroke-linejoin="round"/>
<path d="M51.8395 170.268C51.8395 170.922 51.3089 171.453 50.6543 171.453C49.9998 171.453 49.4692 170.922 49.4692 170.268C49.4692 169.613 49.9998 169.082 50.6543 169.082C51.3089 169.082 51.8395 169.613 51.8395 170.268Z" stroke="white" stroke-width="0.805601" stroke-linecap="round" stroke-linejoin="round"/>
<path d="M47.9121 174.304V174.304C47.9121 173.252 48.7652 172.398 49.8176 172.398H51.4344C52.4868 172.398 53.34 173.252 53.34 174.304V174.304" stroke="white" stroke-width="0.805601" stroke-linecap="round" stroke-linejoin="round"/>
<path d="M55.2032 171.943C55.2032 174.428 53.1881 176.443 50.7024 176.443C48.2167 176.443 46.2016 174.428 46.2016 171.943C46.2016 169.457 48.2167 167.442 50.7024 167.442C53.1881 167.442 55.2032 169.457 55.2032 171.943Z" stroke="white" stroke-width="0.805601" stroke-linecap="round" stroke-linejoin="round"/>
<path d="M51.722 164.377C51.722 164.979 51.2334 165.468 50.6307 165.468C50.0281 165.468 49.5395 164.979 49.5395 164.377C49.5395 163.774 50.0281 163.286 50.6307 163.286C51.2334 163.286 51.722 163.774 51.722 164.377Z" fill="#F8F8F8" stroke="white" stroke-width="0.805601" stroke-linecap="round" stroke-linejoin="round"/>
<path d="M51.722 179.58C51.722 180.183 51.2334 180.671 50.6307 180.671C50.0281 180.671 49.5395 180.183 49.5395 179.58C49.5395 178.977 50.0281 178.489 50.6307 178.489C51.2334 178.489 51.722 178.977 51.722 179.58Z" fill="#F8F8F8" stroke="white" stroke-width="0.805601" stroke-linecap="round" stroke-linejoin="round"/>
<circle cx="1.49402" cy="1.49402" r="1.09122" transform="matrix(0.70711 -0.707104 0.70711 0.707104 43.1465 166.594)" stroke="white" stroke-width="0.805601" stroke-linecap="round" stroke-linejoin="round"/>
<circle cx="1.49402" cy="1.49402" r="1.09122" transform="matrix(0.70711 -0.707104 0.70711 0.707104 53.8906 177.336)" stroke="white" stroke-width="0.805601" stroke-linecap="round" stroke-linejoin="round"/>
<path d="M43.035 170.884C43.6377 170.884 44.1263 171.372 44.1263 171.975C44.1263 172.577 43.6377 173.066 43.035 173.066C42.4324 173.066 41.9438 172.577 41.9438 171.975C41.9438 171.372 42.4324 170.884 43.035 170.884Z" fill="#F8F8F8" stroke="white" stroke-width="0.805601" stroke-linecap="round" stroke-linejoin="round"/>
<path d="M58.2284 170.884C58.8311 170.884 59.3196 171.372 59.3196 171.975C59.3196 172.577 58.8311 173.066 58.2284 173.066C57.6257 173.066 57.1372 172.577 57.1372 171.975C57.1372 171.372 57.6257 170.884 58.2284 170.884Z" fill="#F8F8F8" stroke="white" stroke-width="0.805601" stroke-linecap="round" stroke-linejoin="round"/>
<circle cx="1.49402" cy="1.49402" r="1.09122" transform="matrix(-0.70711 -0.707104 0.70711 -0.707104 45.2617 179.453)" stroke="white" stroke-width="0.805601" stroke-linecap="round" stroke-linejoin="round"/>
<circle cx="1.49402" cy="1.49402" r="1.09122" transform="matrix(-0.70711 -0.707104 0.70711 -0.707104 56.0059 168.711)" stroke="white" stroke-width="0.805601" stroke-linecap="round" stroke-linejoin="round"/>
<rect x="72.4141" y="157.5" width="28.9656" height="28.9653" rx="3.21838" fill="#3F3F9C"/>
<path d="M87.6458 176.342C87.5066 178.083 88.2728 181.044 88.2728 181.044H91.7212V179.721C91.7212 179.473 91.8103 179.234 91.9723 179.047L95.274 175.225C95.4089 175.069 95.4832 174.869 95.4832 174.663V169.909C95.4832 169.582 95.2983 169.283 95.0056 169.136C94.445 168.856 93.7819 169.247 93.756 169.873L93.6151 173.279C93.6068 173.48 93.5284 173.671 93.3936 173.82L91.3299 176.101C91.1148 176.339 90.7576 176.382 90.4923 176.202C90.1671 175.982 90.1136 175.524 90.3791 175.235L92.0863 173.375C92.3664 173.069 92.3483 172.595 92.0457 172.312C91.7483 172.034 91.2853 172.041 91.0009 172.332C89.9502 173.41 87.6458 175.831 87.6458 176.342Z" stroke="white" stroke-width="0.805601" stroke-linejoin="round"/>
<path d="M86.0436 176.342C86.1829 178.083 85.4166 181.044 85.4166 181.044H81.9682V179.721C81.9682 179.473 81.8791 179.234 81.7172 179.047L78.4155 175.225C78.2805 175.069 78.2063 174.869 78.2063 174.663V169.909C78.2063 169.582 78.3912 169.283 78.6839 169.136C79.2444 168.856 79.9076 169.247 79.9335 169.873L80.0744 173.279C80.0827 173.48 80.1611 173.671 80.2959 173.82L82.3596 176.101C82.5746 176.339 82.9318 176.382 83.1972 176.202C83.5223 175.982 83.5759 175.524 83.3103 175.235L81.6032 173.375C81.3231 173.069 81.3411 172.595 81.6437 172.312C81.9412 172.034 82.4041 172.041 82.6885 172.332C83.7393 173.41 86.0436 175.831 86.0436 176.342Z" stroke="white" stroke-width="0.805601" stroke-linejoin="round"/>
<path d="M86.362 164.721C86.5281 164.376 87.0194 164.376 87.1854 164.721L87.7841 165.965C87.9618 166.334 88.3077 166.594 88.7118 166.662L90.0907 166.894C90.4507 166.955 90.5976 167.393 90.3473 167.658L89.3009 168.769C89.0356 169.05 88.9141 169.438 88.971 169.821L89.1937 171.318C89.2491 171.69 88.8561 171.966 88.5249 171.787L87.373 171.166C86.9989 170.964 86.5485 170.964 86.1745 171.166L85.0225 171.787C84.6913 171.966 84.2983 171.69 84.3537 171.318L84.5765 169.821C84.6334 169.438 84.5118 169.05 84.2466 168.769L83.2002 167.658C82.9498 167.393 83.0968 166.955 83.4568 166.894L84.8357 166.662C85.2398 166.594 85.5856 166.334 85.7634 165.965L86.362 164.721Z" fill="#F8F8F8" stroke="white" stroke-width="0.805601"/>
<path d="M91.2695 165.2L91.9662 163.562" stroke="white" stroke-width="0.805601" stroke-linecap="round" stroke-linejoin="round"/>
<path d="M82.4219 165.2L81.7252 163.562" stroke="white" stroke-width="0.805601" stroke-linecap="round" stroke-linejoin="round"/>
<path d="M92.4032 166.368L94.1103 165.866" stroke="white" stroke-width="0.805601" stroke-linecap="round" stroke-linejoin="round"/>
<path d="M81.2863 166.368L79.5791 165.866" stroke="white" stroke-width="0.805601" stroke-linecap="round" stroke-linejoin="round"/>
<path d="M92.0343 168.092L93.3231 168.615" stroke="white" stroke-width="0.805601" stroke-linecap="round" stroke-linejoin="round"/>
<path d="M81.6551 168.092L80.3663 168.615" stroke="white" stroke-width="0.805601" stroke-linecap="round" stroke-linejoin="round"/>
<rect x="108.621" y="157.5" width="28.9656" height="28.9653" rx="3.21838" fill="#3F3F9C"/>
<path d="M121.591 171.66C121.591 171.66 121.51 168.757 121.51 168.146C122.121 167.956 123.104 168.087 123.104 168.965C123.104 169.957 121.591 170.056 121.591 170.056L123.18 171.66" stroke="white" stroke-width="0.805601" stroke-linecap="round" stroke-linejoin="round"/>
<path d="M123.977 172.799L123.977 172.43L123.982 171.575M123.982 171.575L123.993 169.865C123.993 169.865 125.466 169.566 125.403 170.703C125.347 171.726 123.982 171.575 123.982 171.575Z" stroke="white" stroke-width="0.805601" stroke-linecap="round" stroke-linejoin="round"/>
<mask id="path-65-inside-2_421_1690" fill="white">
<rect x="114.801" y="174.438" width="2.96048" height="6.07273" rx="0.429871" transform="rotate(1.05316 114.801 174.438)"/>
</mask>
<rect x="114.801" y="174.438" width="2.96048" height="6.07273" rx="0.429871" transform="rotate(1.05316 114.801 174.438)" fill="#F8F8F8" stroke="white" stroke-width="1.6112" stroke-linecap="round" stroke-linejoin="round" mask="url(#path-65-inside-2_421_1690)"/>
<path d="M117.447 175.722C118.89 175.19 120.522 174.811 121.964 175.722C123.661 176.794 126.215 174.887 126.86 177.733C125.721 177.733 123.065 177.733 123.065 177.733" stroke="white" stroke-width="0.805601" stroke-linecap="round" stroke-linejoin="round"/>
<path d="M117.334 179.94C117.334 179.94 118.21 179.373 118.814 179.408C120.75 179.522 123.483 181.23 125.229 180.471C127.696 178.953 129.252 178.08 131.377 176.486C130.656 174.74 126.747 177.245 126.747 177.245" stroke="white" stroke-width="0.805601" stroke-linecap="round" stroke-linejoin="round"/>
<path d="M127.408 170.297C127.408 172.59 125.549 174.448 123.256 174.448C120.963 174.448 119.104 172.59 119.104 170.297C119.104 168.004 120.963 166.145 123.256 166.145C125.549 166.145 127.408 168.004 127.408 170.297Z" stroke="white" stroke-width="0.805601"/>
<path d="M116.972 173.52C116.809 173.204 116.67 172.875 116.556 172.533C116.321 171.83 116.193 171.077 116.193 170.294C116.193 168.078 117.215 166.1 118.812 164.806M128.253 175.278C129.526 174.001 130.313 172.239 130.313 170.294C130.313 168.848 129.878 167.504 129.132 166.385M119.723 164.179C120.762 163.578 121.967 163.234 123.253 163.234C125.212 163.234 126.984 164.032 128.263 165.32" stroke="white" stroke-width="0.805601" stroke-linecap="round"/>
<rect x="144.828" y="157.5" width="28.9656" height="28.9653" rx="3.21838" fill="#3F3F9C"/>
<path d="M167.366 163.977C166.882 163.437 166.307 163.008 165.674 162.716C165.041 162.424 164.362 162.273 163.676 162.273C162.99 162.273 162.312 162.424 161.678 162.716C161.045 163.008 160.47 163.437 159.986 163.977L159.243 164.813L158.5 163.977C158.016 163.437 157.441 163.008 156.808 162.716C156.175 162.424 155.496 162.273 154.81 162.273C154.124 162.273 153.445 162.424 152.812 162.716C152.179 163.008 151.604 163.437 151.12 163.977C149.075 166.25 148.949 170.089 151.525 173.005L157.241 179.358C158.311 180.547 160.175 180.547 161.245 179.358L166.961 173.005C169.537 170.089 169.412 166.25 167.366 163.977Z" stroke="white" stroke-width="0.805601" stroke-linecap="round" stroke-linejoin="round"/>
<path d="M159.243 164.812L156.223 168.18C155.841 168.607 155.627 169.185 155.627 169.788C155.627 170.39 155.841 170.969 156.223 171.396C156.608 171.821 157.128 172.059 157.67 172.059C158.212 172.059 158.732 171.821 159.117 171.396L161.298 169.027C161.839 168.431 162.571 168.096 163.333 168.096C164.095 168.096 164.827 168.431 165.369 169.027L166.396 170.246C167.193 171.192 167.194 172.574 166.399 173.521L165.031 175.149M161.803 178.738L159.873 176.593M163.474 176.88L161.545 174.735M165.146 175.022L163.216 172.877" stroke="white" stroke-width="0.805601" stroke-linecap="round" stroke-linejoin="round"/>
<rect x="181.035" y="157.5" width="28.9656" height="28.9653" rx="3.21838" fill="#3F3F9C"/>
<path d="M191.539 170.258L193.152 171.871" stroke="white" stroke-width="0.805601" stroke-linecap="round" stroke-linejoin="round"/>
<path d="M191.531 169.649C191.531 170 191.246 170.285 190.895 170.285C190.543 170.285 190.258 170 190.258 169.649C190.258 169.297 190.543 169.012 190.895 169.012C191.246 169.012 191.531 169.297 191.531 169.649Z" fill="#F8F8F8" stroke="white" stroke-width="0.805601" stroke-linecap="round" stroke-linejoin="round"/>
<path d="M194.471 172.516C194.471 172.867 194.186 173.152 193.834 173.152C193.483 173.152 193.198 172.867 193.198 172.516C193.198 172.164 193.483 171.879 193.834 171.879C194.186 171.879 194.471 172.164 194.471 172.516Z" fill="#F8F8F8" stroke="white" stroke-width="0.805601" stroke-linecap="round" stroke-linejoin="round"/>
<path d="M197.764 169.227C197.764 169.578 197.479 169.863 197.127 169.863C196.776 169.863 196.491 169.578 196.491 169.227C196.491 168.875 196.776 168.59 197.127 168.59C197.479 168.59 197.764 168.875 197.764 169.227Z" fill="#F8F8F8" stroke="white" stroke-width="0.805601" stroke-linecap="round" stroke-linejoin="round"/>
<path d="M201.926 164.992C201.926 165.344 201.641 165.629 201.289 165.629C200.938 165.629 200.653 165.344 200.653 164.992C200.653 164.641 200.938 164.356 201.289 164.356C201.641 164.356 201.926 164.641 201.926 164.992Z" fill="#F8F8F8" stroke="white" stroke-width="0.805601" stroke-linecap="round" stroke-linejoin="round"/>
<path d="M199.011 170.514C199.011 173.254 196.789 175.476 194.049 175.476C191.308 175.476 189.086 173.254 189.086 170.514C189.086 167.773 191.308 165.551 194.049 165.551C196.789 165.551 199.011 167.773 199.011 170.514Z" stroke="white" stroke-width="0.805601" stroke-linecap="round" stroke-linejoin="round"/>
<path d="M200.994 170.546C200.994 174.361 197.9 177.454 194.085 177.454C190.269 177.454 187.176 174.361 187.176 170.546C187.176 166.73 190.269 163.637 194.085 163.637C197.9 163.637 200.994 166.73 200.994 170.546Z" stroke="white" stroke-width="0.805601" stroke-linecap="round" stroke-linejoin="round"/>
<path d="M198.205 176.358L201.556 179.766C202.04 180.258 202.832 180.261 203.32 179.773V179.773C203.802 179.291 203.805 178.51 203.327 178.024L199.961 174.602" stroke="white" stroke-width="0.805601" stroke-linecap="round" stroke-linejoin="round"/>
<path d="M189.125 169.625L190.007 169.625" stroke="white" stroke-width="0.805601" stroke-linecap="round" stroke-linejoin="round"/>
<path d="M194.482 171.832L196.557 169.758" stroke="white" stroke-width="0.805601" stroke-linecap="round" stroke-linejoin="round"/>
<path d="M197.738 168.54L198.348 167.93" stroke="white" stroke-width="0.805601" stroke-linecap="round" stroke-linejoin="round"/>
<path d="M202.136 164.999L203.978 164.999" stroke="white" stroke-width="0.805601" stroke-linecap="round" stroke-linejoin="round"/>
<path d="M199.534 177.193L200.932 175.734" stroke="white" stroke-width="0.805601" stroke-linecap="round" stroke-linejoin="round"/>
<path d="M199.893 166.46L200.681 165.672" stroke="white" stroke-width="0.805601" stroke-linecap="round" stroke-linejoin="round"/>
<path d="M105 28.9609V145.723" stroke="#252525" stroke-width="0.90517"/>
<path d="M123.103 52.5015V40.7344H86.8965V52.5015" stroke="#252525" stroke-width="0.90517"/>
<path d="M195.065 157.502V145.734H14.4824V157.502" stroke="#252525" stroke-width="0.90517"/>
<path d="M159.31 105.002V93.2344H50.6895V105.002" stroke="#252525" stroke-width="0.90517"/>
<path d="M86.8965 93.2344V105.002" stroke="#252525" stroke-width="0.90517"/>
<path d="M50.6895 145.734V157.502" stroke="#252525" stroke-width="0.90517"/>
<path d="M86.8965 145.734V157.502" stroke="#252525" stroke-width="0.90517"/>
<path d="M123.104 145.734V157.502" stroke="#252525" stroke-width="0.90517"/>
<path d="M159.311 145.734V157.502" stroke="#252525" stroke-width="0.90517"/>
<defs>
<clipPath id="clip0_421_1690">
<rect width="19.3104" height="19.3102" fill="white" transform="translate(113.449 57.3281)"/>
</clipPath>
<clipPath id="clip1_421_1690">
<rect width="19.3104" height="19.3102" fill="white" transform="translate(149.656 109.828)"/>
</clipPath>
</defs>
</svg>
